<svg xmlns="http://www.w3.org/2000/svg" xmlns:xlink="http://www.w3.org/1999/xlink" viewBox="0 0 374.67 176.54"><defs><style>.cls-1{fill:none;}.cls-2{fill:url(#linear-gradient);}.cls-3{fill:url(#radial-gradient);}.cls-4{opacity:0.65;}.cls-5{clip-path:url(#clip-path);}.cls-6{fill:#34a853;}.cls-7{fill:#35a854;}.cls-8{fill:#36a955;}.cls-9{fill:#37a956;}.cls-10{fill:#38aa56;}.cls-11{fill:#39aa57;}.cls-12{fill:#3aab58;}.cls-13{fill:#3bab59;}.cls-14{fill:#3cab5a;}.cls-15{fill:#3dac5b;}.cls-16{fill:#3eac5c;}.cls-17{fill:#3fad5c;}.cls-18{fill:#40ad5d;}.cls-19{fill:#41ae5e;}.cls-20{fill:#42ae5f;}.cls-21{fill:#43ae60;}.cls-22{fill:#44af61;}.cls-23{fill:#45af61;}.cls-24{fill:#46b062;}.cls-25{fill:#47b063;}.cls-26{fill:#48b164;}.cls-27{fill:#49b165;}.cls-28{fill:#4ab166;}.cls-29{fill:#4bb267;}.cls-30{fill:#4cb267;}.cls-31{fill:#4db368;}.cls-32{fill:#4eb369;}.cls-33{fill:#4fb46a;}.cls-34{fill:#50b46b;}.cls-35{fill:#51b46c;}.cls-36{fill:#52b56d;}.cls-37{fill:#53b56d;}.cls-38{fill:#54b66e;}.cls-39{fill:#55b66f;}.cls-40{fill:#56b770;}.cls-41{fill:#57b771;}.cls-42{fill:#58b872;}.cls-43{fill:#59b873;}.cls-44{fill:#5ab873;}.cls-45{fill:#5bb974;}.cls-46{fill:#5cb975;}.cls-47{fill:#5dba76;}.cls-48{fill:#5eba77;}.cls-49{fill:#5fbb78;}.cls-50{fill:#60bb78;}.cls-51{fill:#61bb79;}.cls-52{fill:#62bc7a;}.cls-53{fill:#63bc7b;}.cls-54{fill:#64bd7c;}.cls-55{fill:#65bd7d;}.cls-56{fill:#66be7e;}.cls-57{fill:#67be7e;}.cls-58{fill:#68be7f;}.cls-59{fill:#69bf80;}.cls-60{fill:#6abf81;}.cls-61{fill:#6bc082;}.cls-62{fill:#6cc083;}.cls-63{fill:#6dc184;}.cls-64{fill:#6ec184;}.cls-65{fill:#6fc185;}.cls-66{fill:#70c286;}.cls-67{fill:#71c287;}.cls-68{fill:#72c388;}.cls-69{fill:#73c389;}.cls-70{fill:#74c489;}.cls-71{fill:#75c48a;}.cls-72{fill:#76c48b;}.cls-73{fill:#77c58c;}.cls-74{fill:#78c58d;}.cls-75{fill:#79c68e;}.cls-76{fill:#7ac68f;}.cls-77{fill:#7bc78f;}.cls-78{fill:#7cc790;}.cls-79{fill:#7dc791;}.cls-80{fill:#7ec892;}.cls-81{fill:#7fc893;}.cls-82{fill:#80c994;}.cls-83{fill:#81c995;}.cls-84{fill:#82ca95;}.cls-85{fill:#83ca96;}.cls-86{fill:#84ca97;}.cls-87{fill:#85cb98;}.cls-88{fill:#86cb99;}.cls-89{fill:#87cc9a;}.cls-90{fill:#88cc9b;}.cls-91{fill:#89cd9b;}.cls-92{fill:#8acd9c;}.cls-93{fill:#8bcd9d;}.cls-94{fill:#8cce9e;}.cls-95{fill:#8dce9f;}.cls-96{fill:#8ecfa0;}.cls-97{fill:#8fcfa0;}.cls-98{fill:#90d0a1;}.cls-99{fill:#91d0a2;}.cls-100{fill:#92d0a3;}.cls-101{fill:#93d1a4;}.cls-102{fill:#94d1a5;}.cls-103{fill:#95d2a6;}.cls-104{fill:#96d2a6;}.cls-105{fill:#97d3a7;}.cls-106{fill:#98d3a8;}.cls-107{fill:#9ad4a9;}.cls-108{fill:#9bd4aa;}.cls-109{fill:#9cd4ab;}.cls-110{fill:#9dd5ac;}.cls-111{fill:#9ed5ac;}.cls-112{fill:#9fd6ad;}.cls-113{fill:#a0d6ae;}.cls-114{fill:#a1d7af;}.cls-115{fill:#a2d7b0;}.cls-116{fill:#a3d7b1;}.cls-117{fill:#a4d8b2;}.cls-118{fill:#a5d8b2;}.cls-119{fill:#a6d9b3;}.cls-120{fill:#a7d9b4;}.cls-121{fill:#a8dab5;}.cls-122{fill:#a9dab6;}.cls-123{fill:#aadab7;}.cls-124{fill:#abdbb7;}.cls-125{fill:#acdbb8;}.cls-126{fill:#addcb9;}.cls-127{fill:#aedcba;}.cls-128{fill:#afddbb;}.cls-129{fill:#b0ddbc;}.cls-130{fill:#b1ddbd;}.cls-131{fill:#b2debd;}.cls-132{fill:#b3debe;}.cls-133{fill:#b4dfbf;}.cls-134{fill:#b5dfc0;}.cls-135{fill:#b6e0c1;}.cls-136{fill:#b7e0c2;}.cls-137{fill:#b8e0c3;}.cls-138{fill:#b9e1c3;}.cls-139{fill:#bae1c4;}.cls-140{fill:#bbe2c5;}.cls-141{fill:#bce2c6;}.cls-142{fill:#bde3c7;}.cls-143{fill:#bee3c8;}.cls-144{fill:#bfe3c9;}.cls-145{fill:#c0e4c9;}.cls-146{fill:#c1e4ca;}.cls-147{fill:#c2e5cb;}.cls-148{fill:#c3e5cc;}.cls-149{fill:#c4e6cd;}.cls-150{fill:#c5e6ce;}.cls-151{fill:#c6e6ce;}.cls-152{fill:#c7e7cf;}.cls-153{fill:#c8e7d0;}.cls-154{fill:#c9e8d1;}.cls-155{fill:#cae8d2;}.cls-156{fill:#cbe9d3;}.cls-157{fill:#cce9d4;}.cls-158{fill:#cde9d4;}.cls-159{fill:#ceead5;}.cls-160{fill:#cfead6;}.cls-161{fill:#d0ebd7;}.cls-162{fill:#d1ebd8;}.cls-163{fill:#d2ecd9;}.cls-164{fill:#d3ecda;}.cls-165{fill:#d4ecda;}.cls-166{fill:#d5eddb;}.cls-167{fill:#d6eddc;}.cls-168{fill:#d7eedd;}.cls-169{fill:#d8eede;}.cls-170{fill:#d9efdf;}.cls-171{fill:#daefdf;}.cls-172{fill:#dbefe0;}.cls-173{fill:#dcf0e1;}.cls-174{fill:#ddf0e2;}.cls-175{fill:#def1e3;}.cls-176{fill:#dff1e4;}.cls-177{fill:#e0f2e5;}.cls-178{fill:#e1f2e5;}.cls-179{fill:#e2f3e6;}.cls-180{fill:#e3f3e7;}.cls-181{fill:#e4f3e8;}.cls-182{fill:#e5f4e9;}.cls-183{fill:#e6f4ea;}.cls-184{fill:#e7f5eb;}.cls-185{fill:#e8f5eb;}.cls-186{fill:#e9f6ec;}.cls-187{fill:#eaf6ed;}.cls-188{fill:#ebf6ee;}.cls-189{fill:#ecf7ef;}.cls-190{fill:#edf7f0;}.cls-191{fill:#eef8f1;}.cls-192{fill:#eff8f1;}.cls-193{fill:#f0f9f2;}.cls-194{fill:#f1f9f3;}.cls-195{fill:#f2f9f4;}.cls-196{fill:#f3faf5;}.cls-197{fill:#f4faf6;}.cls-198{fill:#f5fbf6;}.cls-199{fill:#f6fbf7;}.cls-200{fill:#f7fcf8;}.cls-201{fill:#f8fcf9;}.cls-202{fill:#f9fcfa;}.cls-203{fill:#fafdfb;}.cls-204{fill:#fbfdfc;}.cls-205{fill:#fcfefc;}.cls-206{fill:#fdfefd;}.cls-207{fill:#fefffe;}.cls-208{fill:#fff;}.cls-209{opacity:0.11;}.cls-210{fill:#0b0b16;}.cls-211{fill:#232241;}.cls-212{fill:#19192d;}.cls-213{fill:#ffbf81;}.cls-214{fill:#7676ce;}.cls-215{fill:#f9b797;}.cls-216{fill:#141414;}.cls-217{fill:#efefef;}.cls-218{fill:#282828;}.cls-219{fill:#383838;}.cls-220{fill:#c4c4c4;}.cls-221{fill:#f42a2a;}.cls-222{fill:#f9f9f9;}.cls-223{fill:#d1d1d1;}.cls-224{fill:#019d4f;}.cls-225{fill:#1c3aa9;}.cls-226{fill:#4285f4;}.cls-227{fill:#ababab;}.cls-228{fill:#a6a6a6;}.cls-229{fill:#1a73e8;}.cls-230{fill:#ea4335;}.cls-231{fill:#fbbc04;}</style><linearGradient id="linear-gradient" y1="144.76" x2="374.67" y2="144.76" gradientUnits="userSpaceOnUse"><stop offset="0"/><stop offset="0.5" stop-color="#123c1e"/><stop offset="1" stop-color="#07180c"/></linearGradient><radialGradient id="radial-gradient" cx="187.33" cy="129.12" r="134.36" gradientUnits="userSpaceOnUse"><stop offset="0" stop-color="#34a853"/><stop offset="1" stop-color="#1d5f2f"/></radialGradient><clipPath id="clip-path" transform="translate(0 0)"><path class="cls-1" d="M239.82,0V117.7c0,8.35-21.1,15.12-47.13,15.12s-47.13-6.77-47.13-15.12V0Z"/></clipPath></defs><title>Asset 1</title><g id="Layer_2" data-name="Layer 2"><g id="Layer_22" data-name="Layer 22"><path class="cls-2" d="M374.67,129.11v15.66c0,17.54-83.86,31.77-187.34,31.77S0,162.31,0,144.77V129.11H14.38v3.43c28.2-11.49,95-19.57,173-19.57s144.76,8.08,173,19.57v-3.43Z" transform="translate(0 0)"/><ellipse class="cls-3" cx="187.33" cy="129.12" rx="187.33" ry="31.78"/><g class="cls-4"><g class="cls-5"><rect class="cls-6" x="145.56" y="66.41" width="94.26" height="66.41"/><rect class="cls-6" x="145.56" y="66.1" width="94.26" height="0.31"/><rect class="cls-7" x="145.56" y="65.78" width="94.26" height="0.31"/><rect class="cls-8" x="145.56" y="65.47" width="94.26" height="0.31"/><rect class="cls-9" x="145.56" y="65.16" width="94.26" height="0.31"/><rect class="cls-10" x="145.56" y="64.84" width="94.26" height="0.31"/><rect class="cls-11" x="145.56" y="64.53" width="94.26" height="0.31"/><rect class="cls-12" x="145.56" y="64.22" width="94.26" height="0.31"/><rect class="cls-13" x="145.56" y="63.9" width="94.26" height="0.31"/><rect class="cls-14" x="145.56" y="63.59" width="94.26" height="0.31"/><rect class="cls-15" x="145.56" y="63.28" width="94.26" height="0.31"/><rect class="cls-16" x="145.56" y="62.96" width="94.26" height="0.31"/><rect class="cls-17" x="145.56" y="62.65" width="94.26" height="0.31"/><rect class="cls-18" x="145.56" y="62.34" width="94.26" height="0.31"/><rect class="cls-19" x="145.56" y="62.02" width="94.26" height="0.31"/><rect class="cls-20" x="145.56" y="61.71" width="94.26" height="0.31"/><rect class="cls-21" x="145.56" y="61.4" width="94.26" height="0.31"/><rect class="cls-22" x="145.56" y="61.08" width="94.26" height="0.31"/><rect class="cls-23" x="145.56" y="60.77" width="94.26" height="0.31"/><rect class="cls-24" x="145.56" y="60.46" width="94.26" height="0.31"/><rect class="cls-25" x="145.56" y="60.14" width="94.26" height="0.31"/><rect class="cls-26" x="145.56" y="59.83" width="94.26" height="0.31"/><rect class="cls-27" x="145.56" y="59.52" width="94.26" height="0.31"/><rect class="cls-28" x="145.56" y="59.2" width="94.26" height="0.31"/><rect class="cls-29" x="145.56" y="58.89" width="94.26" height="0.31"/><rect class="cls-30" x="145.56" y="58.58" width="94.26" height="0.31"/><rect class="cls-31" x="145.56" y="58.26" width="94.26" height="0.31"/><rect class="cls-32" x="145.56" y="57.95" width="94.26" height="0.31"/><rect class="cls-33" x="145.56" y="57.64" width="94.26" height="0.31"/><rect class="cls-34" x="145.56" y="57.32" width="94.26" height="0.31"/><rect class="cls-35" x="145.56" y="57.01" width="94.26" height="0.31"/><rect class="cls-36" x="145.56" y="56.7" width="94.26" height="0.31"/><rect class="cls-37" x="145.56" y="56.38" width="94.26" height="0.31"/><rect class="cls-38" x="145.56" y="56.07" width="94.26" height="0.31"/><rect class="cls-39" x="145.56" y="55.76" width="94.26" height="0.31"/><rect class="cls-40" x="145.56" y="55.44" width="94.26" height="0.31"/><rect class="cls-41" x="145.56" y="55.13" width="94.26" height="0.31"/><rect class="cls-42" x="145.56" y="54.82" width="94.26" height="0.31"/><rect class="cls-43" x="145.56" y="54.5" width="94.26" height="0.31"/><rect class="cls-44" x="145.56" y="54.19" width="94.26" height="0.31"/><rect class="cls-45" x="145.56" y="53.88" width="94.26" height="0.31"/><rect class="cls-46" x="145.56" y="53.56" width="94.26" height="0.31"/><rect class="cls-47" x="145.56" y="53.25" width="94.26" height="0.31"/><rect class="cls-48" x="145.56" y="52.94" width="94.26" height="0.31"/><rect class="cls-49" x="145.56" y="52.62" width="94.26" height="0.31"/><rect class="cls-50" x="145.56" y="52.31" width="94.26" height="0.31"/><rect class="cls-51" x="145.56" y="52" width="94.26" height="0.31"/><rect class="cls-52" x="145.56" y="51.68" width="94.26" height="0.31"/><rect class="cls-53" x="145.56" y="51.37" width="94.26" height="0.31"/><rect class="cls-54" x="145.56" y="51.05" width="94.26" height="0.31"/><rect class="cls-55" x="145.56" y="50.74" width="94.26" height="0.31"/><rect class="cls-56" x="145.56" y="50.43" width="94.26" height="0.31"/><rect class="cls-57" x="145.56" y="50.11" width="94.26" height="0.31"/><rect class="cls-58" x="145.56" y="49.8" width="94.26" height="0.31"/><rect class="cls-59" x="145.56" y="49.49" width="94.26" height="0.31"/><rect class="cls-60" x="145.56" y="49.17" width="94.26" height="0.31"/><rect class="cls-61" x="145.56" y="48.86" width="94.26" height="0.31"/><rect class="cls-62" x="145.56" y="48.55" width="94.26" height="0.31"/><rect class="cls-63" x="145.56" y="48.23" width="94.26" height="0.31"/><rect class="cls-64" x="145.56" y="47.92" width="94.26" height="0.31"/><rect class="cls-65" x="145.56" y="47.61" width="94.26" height="0.31"/><rect class="cls-66" x="145.56" y="47.29" width="94.26" height="0.31"/><rect class="cls-67" x="145.56" y="46.98" width="94.26" height="0.31"/><rect class="cls-68" x="145.56" y="46.67" width="94.26" height="0.31"/><rect class="cls-69" x="145.56" y="46.35" width="94.26" height="0.31"/><rect class="cls-70" x="145.56" y="46.04" width="94.26" height="0.31"/><rect class="cls-71" x="145.56" y="45.73" width="94.26" height="0.31"/><rect class="cls-72" x="145.56" y="45.41" width="94.26" height="0.31"/><rect class="cls-73" x="145.56" y="45.1" width="94.26" height="0.31"/><rect class="cls-74" x="145.56" y="44.79" width="94.26" height="0.31"/><rect class="cls-75" x="145.56" y="44.47" width="94.26" height="0.31"/><rect class="cls-76" x="145.56" y="44.16" width="94.26" height="0.31"/><rect class="cls-77" x="145.56" y="43.85" width="94.26" height="0.31"/><rect class="cls-78" x="145.56" y="43.53" width="94.26" height="0.31"/><rect class="cls-79" x="145.56" y="43.22" width="94.26" height="0.31"/><rect class="cls-80" x="145.56" y="42.91" width="94.26" height="0.31"/><rect class="cls-81" x="145.56" y="42.59" width="94.26" height="0.31"/><rect class="cls-82" x="145.56" y="42.28" width="94.26" height="0.31"/><rect class="cls-83" x="145.56" y="41.97" width="94.26" height="0.31"/><rect class="cls-84" x="145.56" y="41.65" width="94.26" height="0.31"/><rect class="cls-85" x="145.56" y="41.34" width="94.26" height="0.31"/><rect class="cls-86" x="145.56" y="41.03" width="94.26" height="0.31"/><rect class="cls-87" x="145.56" y="40.71" width="94.26" height="0.31"/><rect class="cls-88" x="145.56" y="40.4" width="94.26" height="0.31"/><rect class="cls-89" x="145.56" y="40.09" width="94.26" height="0.31"/><rect class="cls-90" x="145.56" y="39.77" width="94.26" height="0.31"/><rect class="cls-91" x="145.56" y="39.46" width="94.26" height="0.31"/><rect class="cls-92" x="145.56" y="39.15" width="94.26" height="0.31"/><rect class="cls-93" x="145.56" y="38.83" width="94.26" height="0.31"/><rect class="cls-94" x="145.56" y="38.52" width="94.26" height="0.31"/><rect class="cls-95" x="145.56" y="38.21" width="94.26" height="0.31"/><rect class="cls-96" x="145.56" y="37.89" width="94.26" height="0.31"/><rect class="cls-97" x="145.56" y="37.58" width="94.26" height="0.31"/><rect class="cls-98" x="145.56" y="37.27" width="94.26" height="0.31"/><rect class="cls-99" x="145.56" y="36.95" width="94.26" height="0.31"/><rect class="cls-100" x="145.56" y="36.64" width="94.26" height="0.31"/><rect class="cls-101" x="145.56" y="36.33" width="94.26" height="0.31"/><rect class="cls-102" x="145.56" y="36.01" width="94.26" height="0.31"/><rect class="cls-103" x="145.56" y="35.7" width="94.26" height="0.31"/><rect class="cls-104" x="145.56" y="35.39" width="94.26" height="0.31"/><rect class="cls-105" x="145.56" y="35.07" width="94.26" height="0.31"/><rect class="cls-106" x="145.56" y="34.76" width="94.26" height="0.31"/><rect class="cls-107" x="145.56" y="34.45" width="94.26" height="0.31"/><rect class="cls-108" x="145.56" y="34.13" width="94.26" height="0.31"/><rect class="cls-109" x="145.56" y="33.82" width="94.26" height="0.31"/><rect class="cls-110" x="145.56" y="33.51" width="94.26" height="0.31"/><rect class="cls-111" x="145.56" y="33.19" width="94.26" height="0.31"/><rect class="cls-112" x="145.56" y="32.88" width="94.26" height="0.31"/><rect class="cls-113" x="145.56" y="32.57" width="94.26" height="0.31"/><rect class="cls-114" x="145.56" y="32.25" width="94.26" height="0.31"/><rect class="cls-115" x="145.56" y="31.94" width="94.26" height="0.31"/><rect class="cls-116" x="145.56" y="31.63" width="94.26" height="0.31"/><rect class="cls-117" x="145.56" y="31.31" width="94.26" height="0.31"/><rect class="cls-118" x="145.56" y="31" width="94.26" height="0.31"/><rect class="cls-119" x="145.56" y="30.69" width="94.26" height="0.31"/><rect class="cls-120" x="145.56" y="30.37" width="94.26" height="0.31"/><rect class="cls-121" x="145.56" y="30.06" width="94.26" height="0.31"/><rect class="cls-122" x="145.56" y="29.75" width="94.26" height="0.31"/><rect class="cls-123" x="145.56" y="29.43" width="94.26" height="0.31"/><rect class="cls-124" x="145.56" y="29.12" width="94.26" height="0.31"/><rect class="cls-125" x="145.56" y="28.81" width="94.26" height="0.31"/><rect class="cls-126" x="145.56" y="28.49" width="94.26" height="0.31"/><rect class="cls-127" x="145.56" y="28.18" width="94.26" height="0.31"/><rect class="cls-128" x="145.56" y="27.87" width="94.26" height="0.31"/><rect class="cls-129" x="145.56" y="27.55" width="94.26" height="0.31"/><rect class="cls-130" x="145.56" y="27.24" width="94.26" height="0.31"/><rect class="cls-131" x="145.56" y="26.93" width="94.26" height="0.31"/><rect class="cls-132" x="145.56" y="26.61" width="94.26" height="0.31"/><rect class="cls-133" x="145.56" y="26.3" width="94.26" height="0.31"/><rect class="cls-134" x="145.56" y="25.99" width="94.26" height="0.31"/><rect class="cls-135" x="145.56" y="25.67" width="94.26" height="0.31"/><rect class="cls-136" x="145.56" y="25.36" width="94.26" height="0.31"/><rect class="cls-137" x="145.56" y="25.05" width="94.26" height="0.31"/><rect class="cls-138" x="145.56" y="24.73" width="94.26" height="0.31"/><rect class="cls-139" x="145.56" y="24.42" width="94.26" height="0.31"/><rect class="cls-140" x="145.56" y="24.11" width="94.26" height="0.31"/><rect class="cls-141" x="145.56" y="23.79" width="94.26" height="0.31"/><rect class="cls-142" x="145.56" y="23.48" width="94.26" height="0.31"/><rect class="cls-143" x="145.56" y="23.17" width="94.26" height="0.31"/><rect class="cls-144" x="145.56" y="22.85" width="94.26" height="0.31"/><rect class="cls-145" x="145.56" y="22.54" width="94.26" height="0.31"/><rect class="cls-146" x="145.56" y="22.23" width="94.26" height="0.31"/><rect class="cls-147" x="145.56" y="21.91" width="94.26" height="0.31"/><rect class="cls-148" x="145.56" y="21.6" width="94.26" height="0.31"/><rect class="cls-149" x="145.56" y="21.28" width="94.26" height="0.31"/><rect class="cls-150" x="145.56" y="20.97" width="94.26" height="0.31"/><rect class="cls-151" x="145.56" y="20.66" width="94.26" height="0.31"/><rect class="cls-152" x="145.56" y="20.34" width="94.26" height="0.31"/><rect class="cls-153" x="145.56" y="20.03" width="94.26" height="0.31"/><rect class="cls-154" x="145.56" y="19.72" width="94.26" height="0.31"/><rect class="cls-155" x="145.56" y="19.4" width="94.26" height="0.31"/><rect class="cls-156" x="145.56" y="19.09" width="94.26" height="0.31"/><rect class="cls-157" x="145.56" y="18.78" width="94.26" height="0.31"/><rect class="cls-158" x="145.56" y="18.46" width="94.26" height="0.31"/><rect class="cls-159" x="145.56" y="18.15" width="94.26" height="0.31"/><rect class="cls-160" x="145.56" y="17.84" width="94.26" height="0.31"/><rect class="cls-161" x="145.56" y="17.52" width="94.26" height="0.31"/><rect class="cls-162" x="145.56" y="17.21" width="94.26" height="0.31"/><rect class="cls-163" x="145.56" y="16.9" width="94.26" height="0.31"/><rect class="cls-164" x="145.56" y="16.58" width="94.26" height="0.31"/><rect class="cls-165" x="145.56" y="16.27" width="94.26" height="0.31"/><rect class="cls-166" x="145.56" y="15.96" width="94.26" height="0.31"/><rect class="cls-167" x="145.56" y="15.64" width="94.26" height="0.31"/><rect class="cls-168" x="145.56" y="15.33" width="94.26" height="0.31"/><rect class="cls-169" x="145.56" y="15.02" width="94.26" height="0.31"/><rect class="cls-170" x="145.56" y="14.7" width="94.26" height="0.31"/><rect class="cls-171" x="145.56" y="14.39" width="94.26" height="0.31"/><rect class="cls-172" x="145.56" y="14.08" width="94.26" height="0.31"/><rect class="cls-173" x="145.56" y="13.76" width="94.26" height="0.31"/><rect class="cls-174" x="145.56" y="13.45" width="94.26" height="0.31"/><rect class="cls-175" x="145.56" y="13.14" width="94.26" height="0.31"/><rect class="cls-176" x="145.56" y="12.82" width="94.26" height="0.31"/><rect class="cls-177" x="145.56" y="12.51" width="94.26" height="0.31"/><rect class="cls-178" x="145.56" y="12.2" width="94.26" height="0.31"/><rect class="cls-179" x="145.56" y="11.88" width="94.26" height="0.31"/><rect class="cls-180" x="145.56" y="11.57" width="94.26" height="0.31"/><rect class="cls-181" x="145.56" y="11.26" width="94.26" height="0.31"/><rect class="cls-182" x="145.56" y="10.94" width="94.26" height="0.31"/><rect class="cls-183" x="145.56" y="10.63" width="94.26" height="0.31"/><rect class="cls-184" x="145.56" y="10.32" width="94.26" height="0.31"/><rect class="cls-185" x="145.56" y="10" width="94.26" height="0.31"/><rect class="cls-186" x="145.56" y="9.69" width="94.26" height="0.31"/><rect class="cls-187" x="145.56" y="9.38" width="94.26" height="0.31"/><rect class="cls-188" x="145.56" y="9.06" width="94.26" height="0.31"/><rect class="cls-189" x="145.56" y="8.75" width="94.26" height="0.31"/><rect class="cls-190" x="145.56" y="8.44" width="94.26" height="0.31"/><rect class="cls-191" x="145.56" y="8.12" width="94.26" height="0.31"/><rect class="cls-192" x="145.56" y="7.81" width="94.26" height="0.31"/><rect class="cls-193" x="145.56" y="7.5" width="94.26" height="0.31"/><rect class="cls-194" x="145.56" y="7.18" width="94.26" height="0.31"/><rect class="cls-195" x="145.56" y="6.87" width="94.26" height="0.31"/><rect class="cls-196" x="145.56" y="6.56" width="94.26" height="0.31"/><rect class="cls-197" x="145.56" y="6.24" width="94.26" height="0.31"/><rect class="cls-198" x="145.56" y="5.93" width="94.26" height="0.31"/><rect class="cls-199" x="145.56" y="5.62" width="94.26" height="0.31"/><rect class="cls-200" x="145.56" y="5.3" width="94.26" height="0.31"/><rect class="cls-201" x="145.56" y="4.99" width="94.26" height="0.31"/><rect class="cls-202" x="145.56" y="4.68" width="94.26" height="0.31"/><rect class="cls-203" x="145.56" y="4.36" width="94.26" height="0.31"/><rect class="cls-204" x="145.56" y="4.05" width="94.26" height="0.31"/><rect class="cls-205" x="145.56" y="3.74" width="94.26" height="0.31"/><rect class="cls-206" x="145.56" y="3.42" width="94.26" height="0.31"/><rect class="cls-207" x="145.56" y="3.11" width="94.26" height="0.31"/><rect class="cls-208" x="145.56" y="2.8" width="94.26" height="0.31"/><rect class="cls-208" x="145.56" width="94.26" height="2.8"/></g></g><g class="cls-209"><ellipse cx="125.6" cy="147.22" rx="37.05" ry="8.67"/></g><g class="cls-209"><ellipse cx="194.8" cy="116.16" rx="35.37" ry="11.11"/></g><g class="cls-209"><ellipse cx="300.67" cy="137.28" rx="22.14" ry="8.16"/></g><g class="cls-209"><ellipse cx="77.73" cy="118.8" rx="31.31" ry="8.48"/></g><path d="M92.35,88.63s.9-1.46,2.43-3.67,9.07-9.51,8.36-10.11-1.72-5.36,1.35-5.56,6,5,6,5l-1,1.07s-1.55-3.83-3.78-4.14-.71,2.69-1.79,4.89S95,89,92.35,88.63Z" transform="translate(0 0)"/><path class="cls-210" d="M66.55,84.74S63,96.52,62.72,97.19c0,0-12.73,7.76-13.17,8.81,0,0-3.35,1.15-3.28,2s3.28,9.29,3.28,9.29,2.44-.1,1.77-2.3-2.21-5.94-.77-6a14.5,14.5,0,0,0,6.51-1.91c3.07-1.63,8.94-4.31,10.46-7.38s5.73-10.63,5.73-10.63L86.86,99.59s2.2,14.94,3.35,16.86c0,0-1,3,0,3.73s10-1.62,10-1.62-.31-2.3-1.64-1.73-5.64.38-5.93-.38.76-1,.57-9.3.77-9.1-6.13-16-7.47-7-7.47-7Z" transform="translate(0 0)"/><path class="cls-211" d="M65.11,79.24s-1.15,4.35,1.44,5.5,15,2.06,16-1.13,1.72-13.72,1.72-13.72,4.31,5.53,10.06,8,5.43,4.41,6.5,4.17,2-2.4,1.86-2.85-.5-1.11-2.51-1.74S88.1,69.31,88.1,69.31s-3.38-9.64-4.32-10-2.56-2-3.19-1.92a19,19,0,0,1-4.75-1.41c-1.15-.52-3.26,2.2-6.51,3.33s-9.68,6-11.5,10.9-3.07,9.77-3.07,9.77-2,.54-1.34,2.14,4.41,1.76,4.41,0-.1-2.77.1-2.84,5.5-10.31,5.91-11.94,3.38-1.25,4.15-1.82S65.49,73.65,65.11,79.24Z" transform="translate(0 0)"/><path class="cls-212" d="M73.8,56.69h0s-4.19-10.56,1.75-13.34S83.12,52.07,82.16,55s-2.84,5.47-8.36,1.7" transform="translate(0 0)"/><path class="cls-213" d="M81.46,47.08s-5.61-.71-7.35.83.38,3.62,3.28,3a17.75,17.75,0,0,0,4.68-1.6Z" transform="translate(0 0)"/><path class="cls-214" d="M75.64,67.51l-1.41-2L72.74,66l-.82-1.14,7-2.08L79.79,64l-4.28,6-.81-1.14Zm-.32-2.34,1,1.43,1.73-2.28,0,0Z" transform="translate(0 0)"/><path class="cls-214" d="M75.41,70.36l5.66-4,1.38,2A2.88,2.88,0,0,1,83,70.46a2.83,2.83,0,0,1-1.22,1.88l-.94.67a2.78,2.78,0,0,1-2.18.53A2.84,2.84,0,0,1,76.8,72.3ZM81,68.09l-3.9,2.78.53.75a1.42,1.42,0,0,0,1.09.66A2,2,0,0,0,80,71.87l.95-.68a2,2,0,0,0,.82-1.1,1.45,1.45,0,0,0-.27-1.25Z" transform="translate(0 0)"/><path class="cls-214" d="M71.68,67.29l-.39-.74L69.1,67.73l-.28-.52L71,66l-.39-.73.4-.21,1.06,2Z" transform="translate(0 0)"/><path class="cls-214" d="M70.64,68.89l-1,.56-.28-.52,2.59-1.39.53,1a1.27,1.27,0,0,1,.17.81.81.81,0,0,1-.43.55.64.64,0,0,1-.4.08.85.85,0,0,1-.4-.18.61.61,0,0,1,0,.45.8.8,0,0,1-.34.31l-.19.1a1.37,1.37,0,0,0-.21.15.36.36,0,0,0-.12.2l0,0-.28-.54a.33.33,0,0,1,.14-.19,1.67,1.67,0,0,1,.24-.16l.18-.1a.5.5,0,0,0,.25-.27.46.46,0,0,0-.06-.35Zm.4-.21.24.45a.58.58,0,0,0,.27.27.36.36,0,0,0,.33,0,.4.4,0,0,0,.22-.26.51.51,0,0,0-.06-.37l-.25-.46Z" transform="translate(0 0)"/><path class="cls-214" d="M72.44,72.15,72,71.24l-.65.13L71,70.84l3.07-.5.28.53-2.11,2.28L72,72.63Zm0-1,.35.65.85-.87h0Z" transform="translate(0 0)"/><path class="cls-214" d="M74.14,75h0a1,1,0,0,1-.8.11,1.19,1.19,0,0,1-.64-.6,1.16,1.16,0,0,1-.11-.92,1.22,1.22,0,0,1,.62-.71l.51-.28a1.24,1.24,0,0,1,.93-.13,1.08,1.08,0,0,1,.7.58,1.21,1.21,0,0,1,.16.88,1,1,0,0,1-.53.63h0L74.68,74A.62.62,0,0,0,75,73.7a.57.57,0,0,0-.07-.46.48.48,0,0,0-.39-.26.82.82,0,0,0-.55.12l-.52.28a.84.84,0,0,0-.41.4.53.53,0,0,0,0,.49.51.51,0,0,0,.33.29.66.66,0,0,0,.45-.09Z" transform="translate(0 0)"/><path class="cls-214" d="M74.24,76.44l-.15-.29L73,76.74l-.28-.52,2.59-1.4.28.52-1.06.57.12.23,1.43.11.34.64-1.67-.22-.88,1.68-.34-.63Z" transform="translate(0 0)"/><path class="cls-214" d="M75,78.73l-.28-.52,2.59-1.4.28.52Z" transform="translate(0 0)"/><path class="cls-214" d="M76.1,81.52,75.82,81,77,79h0l-1.77,1L75,79.42,77.56,78l.28.52-1.2,2h0l1.77-1,.28.52Z" transform="translate(0 0)"/><path class="cls-214" d="M78.48,83.42a1,1,0,0,1-.46-.21,1.62,1.62,0,0,1-.46-.55,1.21,1.21,0,0,1-.12-.94,1.17,1.17,0,0,1,.61-.71l.54-.29a1.21,1.21,0,0,1,.92-.13A1.33,1.33,0,0,1,80.37,82a.93.93,0,0,1-.47.58h0l-.27-.49a.57.57,0,0,0,.26-.3.52.52,0,0,0-.07-.41.51.51,0,0,0-.39-.29.87.87,0,0,0-.55.11l-.54.3a.8.8,0,0,0-.4.41.56.56,0,0,0,0,.5,1,1,0,0,0,.2.27.47.47,0,0,0,.18.12l.48-.26-.25-.46.36-.19.53,1Z" transform="translate(0 0)"/><path d="M155.1,21.5l.84.43a2.61,2.61,0,0,1-1.23,1.23,5.44,5.44,0,0,1-1.54.24,4,4,0,0,1-2.43-.67,3.88,3.88,0,0,1-1.05-2.7v0a3.82,3.82,0,0,1,1.05-2.71,4.1,4.1,0,0,1,2.43-.66,4.92,4.92,0,0,1,1.68.33,2.32,2.32,0,0,1,1.08,1.15l-.85.42a1.32,1.32,0,0,0-.59-.71,4.08,4.08,0,0,0-1.34-.25,2.9,2.9,0,0,0-1.85.47,2.79,2.79,0,0,0-.68,2,3,3,0,0,0,.68,2,2.84,2.84,0,0,0,1.85.48h0a4.15,4.15,0,0,0,1.21-.18h0A1.42,1.42,0,0,0,155.1,21.5Z" transform="translate(0 0)"/><path d="M159.25,21.43V21h-.44l-1.92-3.54-.37-.7h1.07l.13.25L159.37,20h.7L161.72,17l.13-.25h1.07l-.38.7L160.63,21h-.44V23.3h-.94V21.43Z" transform="translate(0 0)"/><path d="M169,19.91l.21.15a1.88,1.88,0,0,1,.6,1.37,1.91,1.91,0,0,1-.6,1.37,2.77,2.77,0,0,1-1.64.5H164.1V16.73h3a3.21,3.21,0,0,1,1.79.5,1.91,1.91,0,0,1,.63,1.38A2,2,0,0,1,169,19.91Zm-1.89-.36a2.13,2.13,0,0,0,1.23-.31.92.92,0,0,0,0-1.26,2.13,2.13,0,0,0-1.23-.31h-2v1.88Zm-2,.94v1.88h2.49a1.72,1.72,0,0,0,1.06-.3.77.77,0,0,0,.24-.64.72.72,0,0,0-.24-.64,1.72,1.72,0,0,0-1.06-.3H165Z" transform="translate(0 0)"/><path d="M175.89,16.73h.47v.94h-4.15v1.88h3v.94h-3v1.88h4.15v.93h-5.09V16.73Z" transform="translate(0 0)"/><path d="M181.58,20.44l1.7,2.09.62.77h-1.21l-.14-.16-2.15-2.65h-1.6V23.3h-.94V16.73h2.77a4.65,4.65,0,0,1,2.21.41,2.11,2.11,0,0,1,.55,1.47,2.07,2.07,0,0,1-.55,1.48A3,3,0,0,1,181.58,20.44Zm-1.94-.89h1a4.51,4.51,0,0,0,1.63-.2,1.08,1.08,0,0,0,.19-.74,1.12,1.12,0,0,0-.19-.74,4.54,4.54,0,0,0-1.63-.2H178.8v1.88Z" transform="translate(0 0)"/><path d="M189,16.74h.66v1.32H186.2v1.31h2.86v1.32H186.2V23.3h-1.31V16.73Z" transform="translate(0 0)"/><path d="M194.82,16.73h.66v1.32h-3.8v1.31h2.77v1.32h-2.77V22h3.8V23.3h-5.11V16.73Z" transform="translate(0 0)"/><path d="M201.38,22h-3.45l-.34.88-.16.42H196l.35-.89,2.18-5.68h2.21l2.18,5.68.34.89h-1.4l-.16-.42Zm-.51-1.31-1-2.64h-.41l-1,2.64Z" transform="translate(0 0)"/><path d="M208.38,20.57l1.34,1.66.87,1.07h-1.68l-.2-.24-1.92-2.38h-1.18V23.3H204.3V16.73h2.79a4.44,4.44,0,0,1,2.18.43,2.2,2.2,0,0,1,.6,1.55,2.12,2.12,0,0,1-.6,1.54A2.08,2.08,0,0,1,208.38,20.57Zm-2.66-1.21h1.37a4.37,4.37,0,0,0,1.38-.14c.05,0,.09-.21.09-.51a.94.94,0,0,0-.09-.52,4.14,4.14,0,0,0-1.38-.14h-1.48v1.31Z" transform="translate(0 0)"/><path d="M211.23,22.84v-.46h.94v.46h0v.47h-.94v-.47Z" transform="translate(0 0)"/><path d="M218.85,21.5l.85.43a2.63,2.63,0,0,1-1.24,1.23,5.38,5.38,0,0,1-1.54.24,4,4,0,0,1-2.43-.67,3.92,3.92,0,0,1-1.05-2.7v0a3.86,3.86,0,0,1,1.05-2.71,4.1,4.1,0,0,1,2.43-.66,4.88,4.88,0,0,1,1.68.33,2.23,2.23,0,0,1,1.08,1.15l-.84.42a1.38,1.38,0,0,0-.6-.71,4,4,0,0,0-1.34-.25,2.9,2.9,0,0,0-1.85.47,2.79,2.79,0,0,0-.67,2,3,3,0,0,0,.67,2,2.84,2.84,0,0,0,1.85.48h0a4.1,4.1,0,0,0,1.21-.18h0A1.39,1.39,0,0,0,218.85,21.5Z" transform="translate(0 0)"/><path d="M220.68,20a3.92,3.92,0,0,1,.91-2.68,4,4,0,0,1,2.38-.71,3.93,3.93,0,0,1,2.36.71,3.83,3.83,0,0,1,.91,2.67,3.83,3.83,0,0,1-.91,2.67,3.93,3.93,0,0,1-2.36.71,4,4,0,0,1-2.38-.71A4,4,0,0,1,220.68,20Zm.94,0A2.85,2.85,0,0,0,222.2,22a3.37,3.37,0,0,0,3.53,0,2.76,2.76,0,0,0,.58-1.94,2.76,2.76,0,0,0-.58-1.94,3.37,3.37,0,0,0-3.53,0A2.73,2.73,0,0,0,221.62,20Z" transform="translate(0 0)"/><path d="M229.69,22.84v.46h-.94V16.73h2.07l1.84,5.64H233l1.84-5.64h2.07V23.3H236V17.67h-.46L233.7,23.3H232l-1.84-5.63h-.45Z" transform="translate(0 0)"/><path class="cls-215" d="M198.14,46.48s-7.3,3-8.2.83c0,0,2.64.07,2.54-1.65a27.62,27.62,0,0,0-.28-2.77,4.73,4.73,0,0,1-3.23-4h0a11.35,11.35,0,0,1,0-3.27c.69-6.22,9.53-6.13,10.4-.92a7.05,7.05,0,0,1,.1.73c.52,4.47-.91,5.19-2,6.36C196.16,43.14,198.14,46.48,198.14,46.48Z" transform="translate(0 0)"/><path class="cls-216" d="M199.43,35.39c-2.14-1.5-5.13-3.35-6.26,0-1.46,4.3-3.94,3.57-4.2,3.47h0a11.35,11.35,0,0,1,0-3.27c.69-6.22,9.53-6.13,10.4-.92A7.05,7.05,0,0,1,199.43,35.39Z" transform="translate(0 0)"/><path class="cls-216" d="M188.94,74.89h11.27l2.55,1.24-.95,1.12s-1.1,20.56-1.23,22.71-.63,14-.63,14,3.28,2,3.85,2.33,3.09,1.2,3,2.27-5,.13-6.12-.37a6.18,6.18,0,0,0-2.71-.82c-.63.06-1.58-.51-1.58-.82s-1.2-34-1.7-35.51-1.32-1.39-1.77-.63-1.64,34.75-1.95,35.51-1.51.88-2,.88-3.94,1.82-5.71,2.23-3.34-.28-1.82-1.22,6.05-2.84,5.92-5.49-1.19-36.52-1.19-36.52Z" transform="translate(0 0)"/><path class="cls-217" d="M187.33,75.23s11.74,2.53,13.25-.88,0-26,0-26l-1.58-3a2.12,2.12,0,0,0-1.44-.83c-1.32-.07-3.52-.52-5.11.26a6.81,6.81,0,0,1-2.16.57c-2.88.41-3,13.27-3,13.27Z" transform="translate(0 0)"/><polygon class="cls-218" points="195.63 47.37 196.25 59.36 194.83 60.88 194.79 56.4 194.83 60.88 193.31 59.36 193.93 47.37 192.69 46.15 193.93 44.36 195.63 44.36 196.87 46.15 195.63 47.37"/><path class="cls-218" d="M190.17,46.86l1.07,22.94a7.33,7.33,0,0,1-1.51,5.94c-2.27,2.77-3.15,2.65-3.91,2s-.5-6.18,0-9.59-.39-13.81-.48-15.71.86-2.36-.84-2.36-11.93-1-17.6-1.32-7.48-.38-7.48-.38V45.46s21.29,0,23.75.57,7.18-1.13,7.12-.65S190.17,46.86,190.17,46.86Z" transform="translate(0 0)"/><path class="cls-218" d="M199.12,46.86,198.05,69.8a7.33,7.33,0,0,0,1.51,5.94c2.28,2.77,3.16,2.65,3.92,2s.5-6.18,0-9.59.38-13.81.47-15.71-.85-2.36.85-2.36,11.92-1,17.6-1.32,7.47-.38,7.47-.38V45.46s-21.29,0-23.75.57-7.18-1.13-7.12-.65S199.12,46.86,199.12,46.86Z" transform="translate(0 0)"/><path class="cls-218" d="M157.84,30.41S155.76,34,153.26,35c0,0-1.2,30.82,4.39,39.79,0,0,5.64-9.27,4.94-39C162.59,35.79,159.78,34.59,157.84,30.41Z" transform="translate(0 0)"/><path class="cls-219" d="M157.86,36.36s-1.44,2.48-3.16,3.2c0,0-.83,21.25,3,27.44,0,0,3.89-6.39,3.4-26.93A7.33,7.33,0,0,1,157.86,36.36Z" transform="translate(0 0)"/><path class="cls-218" d="M229.81,30.41S227.73,34,225.23,35c0,0-1.2,30.82,4.39,39.79,0,0,5.64-9.27,4.94-39C234.56,35.79,231.75,34.59,229.81,30.41Z" transform="translate(0 0)"/><path class="cls-219" d="M229.83,36.36s-1.44,2.48-3.16,3.2c0,0-.83,21.25,3,27.44,0,0,3.89-6.39,3.4-26.93A7.33,7.33,0,0,1,229.83,36.36Z" transform="translate(0 0)"/><path class="cls-216" d="M90.88,94.67s-5,.8-7,3.31-4.47,2.16-11.93.92S46.62,97,44.63,114.08,79.27,134,85.74,122.53,87.39,103,89.38,99.81a16.82,16.82,0,0,1,5.94-5.14Z" transform="translate(0 0)"/><path class="cls-220" d="M51.62,111.33v1.78h-1v-4.46a.44.44,0,0,1,.44-.44h1.51a2,2,0,0,1,1.33.43,1.58,1.58,0,0,1,0,2.27,2,2,0,0,1-1.33.42Zm0-.75h1a.81.81,0,0,0,.62-.23.8.8,0,0,0,.21-.57.83.83,0,0,0-.21-.58.8.8,0,0,0-.62-.23h-1Z" transform="translate(0 0)"/><path class="cls-220" d="M58.13,109.26H56.54a.44.44,0,0,0-.43.44v.52a.44.44,0,0,0,.43.44h1.94v.76H55.56a.44.44,0,0,1-.43-.44v-4a.44.44,0,0,1,.43-.44h2.91v.76H56.11v1.23h2Z" transform="translate(0 0)"/><path class="cls-220" d="M60.06,111.15v2h-1v-4.46a.44.44,0,0,1,.43-.44h1.41a2,2,0,0,1,1.31.38,1.3,1.3,0,0,1,.48,1.07,1.09,1.09,0,0,1-.2.65,1.4,1.4,0,0,1-.58.44,1.11,1.11,0,0,1,.62.43,1.31,1.31,0,0,1,.19.74v.36a2.27,2.27,0,0,0,0,.43A.67.67,0,0,0,63,113v.07H62a.58.58,0,0,1-.17-.36,2.74,2.74,0,0,1,0-.48v-.35a.81.81,0,0,0-.2-.57.79.79,0,0,0-.57-.2Zm0-.76h.85a.89.89,0,0,0,.61-.17.64.64,0,0,0,.21-.52.69.69,0,0,0-.21-.53.78.78,0,0,0-.6-.2h-.86Z" transform="translate(0 0)"/><path class="cls-220" d="M66.27,112.61a.57.57,0,0,0-.2-.46,2,2,0,0,0-.7-.32,4.09,4.09,0,0,1-1.32-.6,1.12,1.12,0,0,1-.45-.94,1.17,1.17,0,0,1,.52-1,2.14,2.14,0,0,1,1.31-.38,2,2,0,0,1,1.31.43,1.28,1.28,0,0,1,.49,1.06v0h-1a.71.71,0,0,0-.22-.55,1.13,1.13,0,0,0-1.25,0,.57.57,0,0,0-.21.45.48.48,0,0,0,.23.41,3,3,0,0,0,.79.33,3.07,3.07,0,0,1,1.23.6,1.23,1.23,0,0,1,.41,1,1.15,1.15,0,0,1-.49,1,2.19,2.19,0,0,1-1.31.37,2.39,2.39,0,0,1-1.4-.42,1.27,1.27,0,0,1-.57-1.15v0h1a.78.78,0,0,0,.26.64,1.26,1.26,0,0,0,.75.2,1,1,0,0,0,.61-.16A.54.54,0,0,0,66.27,112.61Z" transform="translate(0 0)"/><path class="cls-220" d="M71.93,111.1a2.05,2.05,0,0,1-.57,1.49,2.14,2.14,0,0,1-3,0,2.09,2.09,0,0,1-.56-1.49v-.88a2.1,2.1,0,0,1,.56-1.49,2.14,2.14,0,0,1,3,0,2.07,2.07,0,0,1,.57,1.49Zm-1-.89a1.5,1.5,0,0,0-.28-.94,1,1,0,0,0-.79-.36.94.94,0,0,0-.78.36,1.56,1.56,0,0,0-.27.94v.89a1.49,1.49,0,0,0,.28,1,.89.89,0,0,0,.77.37.93.93,0,0,0,.79-.37,1.49,1.49,0,0,0,.28-1Z" transform="translate(0 0)"/><path class="cls-220" d="M76.66,111.44h-1l-2-3.35h0v3.34h-1v-4.9h1l2,3.34h0v-3.34h1Z" transform="translate(0 0)"/><path class="cls-220" d="M79.88,112.05H78.8a.42.42,0,0,0-.41.31l-.24.75h-1l1.68-4.9h1l1.67,4.9h-1l-.23-.75A.44.44,0,0,0,79.88,112.05Zm-1.16-.77H80l-.61-1.92h0Z" transform="translate(0 0)"/><path class="cls-220" d="M83,110.61a.44.44,0,0,0,.44.44h1.74v.76H82.42a.44.44,0,0,1-.44-.44v-4.46h1Z" transform="translate(0 0)"/><path class="cls-220" d="M59.75,120.72v-4a.44.44,0,0,1,.44-.43h1.25a2,2,0,0,1,1.47.57,2,2,0,0,1,.59,1.47v.81a2,2,0,0,1-.59,1.47,2,2,0,0,1-1.47.57H60.19A.44.44,0,0,1,59.75,120.72Zm1-3.71v3.39h.64a1,1,0,0,0,.83-.36,1.4,1.4,0,0,0,.3-.93v-.82a1.39,1.39,0,0,0-.3-.92,1,1,0,0,0-.83-.36Z" transform="translate(0 0)"/><path class="cls-220" d="M66.49,119.48H65.41a.42.42,0,0,0-.41.3l-.24.75h-1l1.68-4.89h1l1.67,4.89h-1l-.23-.75A.44.44,0,0,0,66.49,119.48Zm-1.16-.77h1.24L66,116.78h0Z" transform="translate(0 0)"/><path class="cls-220" d="M72,115.38H71a.43.43,0,0,0-.43.43v3.71h-1v-3.71a.44.44,0,0,0-.44-.43h-.94v-.76H72Z" transform="translate(0 0)"/><path class="cls-220" d="M74.49,119.48H73.41a.42.42,0,0,0-.41.3l-.24.75h-1l1.68-4.89h1l1.68,4.89h-1l-.23-.75A.44.44,0,0,0,74.49,119.48Zm-1.15-.77h1.23L74,116.78h0Z" transform="translate(0 0)"/><path class="cls-215" d="M130.13,94.85s-7.91,3.28-8.88.9c0,0,2.86.08,2.74-1.79s-.3-3-.3-3a5.13,5.13,0,0,1-3.5-4.37h0a13.37,13.37,0,0,1,0-3.55c.75-6.74,10.33-6.64,11.27-1,.05.28.08.53.11.79.56,4.83-1,5.62-2.15,6.88C128,91.23,130.13,94.85,130.13,94.85Z" transform="translate(0 0)"/><path class="cls-216" d="M131.52,82.84c-2.31-1.62-5.55-3.63-6.78,0-1.58,4.65-4.27,3.86-4.55,3.75h0a13.37,13.37,0,0,1,0-3.55c.75-6.74,10.33-6.64,11.27-1C131.46,82.33,131.49,82.58,131.52,82.84Z" transform="translate(0 0)"/><path class="cls-215" d="M149.4,103s5.49.89,6.11-.55.24-2.92-1.23-2.53-1.66,1.15-1.47.38,1.77-1.25.38-1.33a35.52,35.52,0,0,0-4.13.21l-3,2.5L149.4,103" transform="translate(0 0)"/><path class="cls-221" d="M131.1,94.12s2.25,5.59,8.31,5.88a29.62,29.62,0,0,0,9.65-.87l.34,3.82s-9.47,4.55-16.79,1.52A35.61,35.61,0,0,1,121,96.8S130.71,95.31,131.1,94.12Z" transform="translate(0 0)"/><path class="cls-215" d="M94.59,95.93s-2.65,2.52-3.47,2,1.41-1.08.26-1.27-2,.39-2.75-1.16S92,93.61,92.12,93s5.15-1.63,5.15-1.63l-2.68,4.57" transform="translate(0 0)"/><path class="cls-217" d="M128.61,93.84a39.12,39.12,0,0,1-5.26-1.07c-2-.63-7.24,15.22-7.24,15.22l1.18,3.3s-.47,6.93,2.28,7.46c6.07,1.19,12.62-3.38,12.62-3.38l-1.93-15.56.91-6.12-2.56.15" transform="translate(0 0)"/><path class="cls-216" d="M132.19,115.37s-14.14-3.25-15-2.15.38,3.8,2.85,11.34,4.58,13,1,15.14-12,4.09-11.31,6.26,6.71,8.81,6.67,6.85-3.09-4.4-.82-5.39,11.7-6.71,12.35-9.66S130.59,125,130.59,125s1.89-1.34,8.06,11.51c4.55,9.5,7.83,15.54,9.52,15.24s6.74-4.77,6.48-5.56-4.64-.35-5.71.7S143.44,126.35,132.19,115.37Z" transform="translate(0 0)"/><path class="cls-221" d="M123.35,92.77s4.75,5.92,1.12,12.84-12.5,12.78-13.71,13.73-4.38-2.77-1.54-6.62,6.5-4.3,5.54-9.6-7-13.36-12.53-10.4-7.64,3.21-7.64,3.21l-2.34-3.55S100.56,84.2,106,86,117.07,91,123.35,92.77Z" transform="translate(0 0)"/><path d="M295.72,137.26c0-.14-1.11-3.49,1.11-9.91,2-5.77-1.07-15-1.11-15.14l1.9-.64c.14.4,3.33,10,1.1,16.44-2,5.69-1.11,8.59-1.1,8.62Z" transform="translate(0 0)"/><path d="M282.26,63.41a15.65,15.65,0,0,1-3.25-.32c-6.17-1.35-9.24-.15-9.27-.14L269,61.11c.14-.06,3.6-1.48,10.46,0,6.25,1.36,16-2.75,16.09-2.8l.79,1.84C296,60.33,288.66,63.41,282.26,63.41Z" transform="translate(0 0)"/><rect class="cls-222" x="290.02" y="50.07" width="17.36" height="70.25" rx="3.64" transform="translate(-9.97 50.48) rotate(-9.5)"/><path class="cls-223" d="M298.92,121.1a4,4,0,0,1-2.32-.74,4,4,0,0,1-1.63-2.61l-10.4-62.11a4,4,0,0,1,.69-3A4,4,0,0,1,287.87,51l9.95-1.67a4,4,0,0,1,4.62,3.3l10.4,62.11a4,4,0,0,1-3.3,4.62l-10,1.67A5,5,0,0,1,298.92,121.1Zm-3.21-3.47a3.23,3.23,0,0,0,1.32,2.12,3.3,3.3,0,0,0,2.44.56l9.95-1.67a3.19,3.19,0,0,0,2.11-1.32,3.26,3.26,0,0,0,.57-2.44L301.7,52.77a3.28,3.28,0,0,0-3.76-2.68L288,51.76a3.27,3.27,0,0,0-2.68,3.76Z" transform="translate(0 0)"/><path class="cls-224" d="M291.49,58.15l1.59-2.31a.3.3,0,0,1,.41-.07l.49.35a.29.29,0,0,1,.08.4l-.92,1.32a.29.29,0,0,0,.08.4L297.34,61a.3.3,0,0,1,.08.41l-.34.5a.29.29,0,0,1-.4.08l-5.12-3.43A.29.29,0,0,1,291.49,58.15Z" transform="translate(0 0)"/><path d="M293.91,66.81l-.06-.35,4.22-.71.06.35Z" transform="translate(0 0)"/><path d="M298.08,67.43l-.81,0,0-.21.78-.1.59-.1,0,.29Z" transform="translate(0 0)"/><path d="M297.44,68.61l-.52.12a1.16,1.16,0,0,1,.5.33,1.23,1.23,0,0,1,.25.58,1,1,0,0,1-.08.63.91.91,0,0,1-.47.43,1.3,1.3,0,0,1,.59.32,1.13,1.13,0,0,1,.29.61,1,1,0,0,1-.2.83,1.61,1.61,0,0,1-1,.44l-1.83.31-.06-.35,1.84-.3a1.3,1.3,0,0,0,.79-.35.74.74,0,0,0,.14-.61.76.76,0,0,0-.36-.58,1.18,1.18,0,0,0-.69-.16h-.11l-1.89.31-.06-.35,1.84-.3a1.29,1.29,0,0,0,.78-.35.71.71,0,0,0,.15-.61.86.86,0,0,0-.28-.55,1,1,0,0,0-.56-.22l-2.21.37-.05-.35,3.13-.53Z" transform="translate(0 0)"/><path d="M298.56,75.34l-.54.12a1.22,1.22,0,0,1,.52.33,1.24,1.24,0,0,1,.26.58,1,1,0,0,1-.19.83,1.43,1.43,0,0,1-.93.43l-1.91.32,0-.35,1.91-.31a1.21,1.21,0,0,0,.73-.33.78.78,0,0,0,.13-.61.88.88,0,0,0-.3-.57,1.06,1.06,0,0,0-.57-.24l-2.19.36-.06-.34,3.14-.53Z" transform="translate(0 0)"/><path d="M297.51,78.4a1.67,1.67,0,0,1,1.2.19,1.25,1.25,0,0,1,.61.93,1.28,1.28,0,0,1-.27,1.08,1.68,1.68,0,0,1-1.08.57l-.09,0a1.7,1.7,0,0,1-1.2-.19,1.27,1.27,0,0,1-.62-.93,1.31,1.31,0,0,1,.28-1.09,1.72,1.72,0,0,1,1.07-.57Zm0,.36a1.5,1.5,0,0,0-.87.43.91.91,0,0,0-.24.83.9.9,0,0,0,.5.7,1.53,1.53,0,0,0,1,.12h.1a1.57,1.57,0,0,0,.86-.43.93.93,0,0,0,.25-.83.92.92,0,0,0-.51-.7,1.5,1.5,0,0,0-.95-.13Z" transform="translate(0 0)"/><path d="M300.51,82.05l-.8.14.11.69-.28.05-.12-.69-2,.34a.63.63,0,0,0-.42.18.4.4,0,0,0-.08.32.75.75,0,0,0,0,.16,1.21,1.21,0,0,0,.05.18l-.25.1a1.29,1.29,0,0,1-.09-.2,1.14,1.14,0,0,1-.06-.25.65.65,0,0,1,.12-.55,1,1,0,0,1,.63-.29l2-.34-.09-.55.29,0,.09.55.8-.14Z" transform="translate(0 0)"/><path d="M297.38,87.57l.27-.09.23-.06a1.48,1.48,0,0,1-.48-.39,1.51,1.51,0,0,1-.28-.63,1,1,0,0,1,.13-.75.84.84,0,0,1,.61-.36.8.8,0,0,1,.76.26,1.79,1.79,0,0,1,.43,1l.12.69.38-.07a.69.69,0,0,0,.5-.3.94.94,0,0,0,.09-.64,1,1,0,0,0-.29-.57.54.54,0,0,0-.48-.16l-.06-.32h0a.77.77,0,0,1,.68.21,1.51,1.51,0,0,1,.3,1.7,1,1,0,0,1-.7.44l-1.55.26-.32.07-.3.11Zm.06-1.18a1.3,1.3,0,0,0,.28.63,1,1,0,0,0,.52.34l.66-.11-.12-.7a1.27,1.27,0,0,0-.33-.72.62.62,0,0,0-.54-.2.53.53,0,0,0-.39.25A.65.65,0,0,0,297.44,86.39Z" transform="translate(0 0)"/><path d="M300.91,91.19l0-.26a.75.75,0,0,0-.27-.51,1,1,0,0,0-.56-.21l-2.16.36-.06-.35L301,89.7l0,.3-.52.13h0a1.16,1.16,0,0,1,.51.29.91.91,0,0,1,.25.52.59.59,0,0,1,0,.13s0,.08,0,.11Z" transform="translate(0 0)"/><path d="M299.74,91.72a1.77,1.77,0,0,1,1.2.19,1.4,1.4,0,0,1,.34,2,1.75,1.75,0,0,1-1.08.57l-.09,0a1.75,1.75,0,0,1-1.2-.19,1.4,1.4,0,0,1-.34-2,1.72,1.72,0,0,1,1.07-.57Zm0,.37a1.5,1.5,0,0,0-.87.43.94.94,0,0,0-.24.83.92.92,0,0,0,.5.7,1.53,1.53,0,0,0,1,.12l.1,0a1.5,1.5,0,0,0,.86-.43.91.91,0,0,0,.25-.82,1,1,0,0,0-.51-.71,1.5,1.5,0,0,0-.95-.12Z" transform="translate(0 0)"/><path d="M300.61,97.78a1.91,1.91,0,0,1-1.17-.13,1.06,1.06,0,0,1-.57-.81,1.16,1.16,0,0,1,0-.62,1,1,0,0,1,.33-.47l-.48,0-.05-.3,4.52-.76.06.35-1.88.32a1.09,1.09,0,0,1,.48.33,1.2,1.2,0,0,1,.24.55,1.06,1.06,0,0,1-.31,1,2.09,2.09,0,0,1-1.14.52Zm0-.36a1.89,1.89,0,0,0,.94-.4.78.78,0,0,0,.26-.75.91.91,0,0,0-.28-.56,1.15,1.15,0,0,0-.52-.25l-1.42.24a1,1,0,0,0-.38.42,1,1,0,0,0-.06.6.8.8,0,0,0,.45.63,1.67,1.67,0,0,0,.94.08Z" transform="translate(0 0)"/><path d="M300.85,98.34a1.67,1.67,0,0,1,1.2.19,1.37,1.37,0,0,1,.33,2,1.68,1.68,0,0,1-1.07.57l-.1,0a1.72,1.72,0,0,1-1.2-.19,1.38,1.38,0,0,1-.33-2,1.72,1.72,0,0,1,1.07-.57Zm0,.36a1.5,1.5,0,0,0-.87.43.89.89,0,0,0-.24.83.9.9,0,0,0,.5.7,1.52,1.52,0,0,0,1,.12h.09a1.56,1.56,0,0,0,.87-.43.9.9,0,0,0,.24-.83.88.88,0,0,0-.5-.7,1.51,1.51,0,0,0-.95-.13Z" transform="translate(0 0)"/><path d="M303.85,102l-.8.14.11.69-.28.05-.12-.69-2,.34a.63.63,0,0,0-.42.18.37.37,0,0,0-.08.32l0,.16.06.18-.25.1a.93.93,0,0,1-.09-.2,2.33,2.33,0,0,1-.07-.25.69.69,0,0,1,.13-.55,1,1,0,0,1,.63-.29l2-.35-.09-.54.29,0,.09.55.8-.14Z" transform="translate(0 0)"/><path class="cls-225" d="M305.27,114.68l.16,0,3-.5-1-.69a3.73,3.73,0,0,0-1.07-5.77l-1.14,1.58a1.72,1.72,0,0,1,.71.45,1.66,1.66,0,0,1,.51,1,.33.33,0,0,1,0,.14,1.81,1.81,0,0,1-.59,1.5l-1.12-.8c.2,1.22.44,2.59.52,3.15" transform="translate(0 0)"/><path class="cls-226" d="M308.33,110.36l0-.16-.5-3-.69,1a3.74,3.74,0,0,0-5.78,1.07l1.59,1.14a1.81,1.81,0,0,1,.44-.71,1.66,1.66,0,0,1,1-.5.31.31,0,0,1,.13,0,1.8,1.8,0,0,1,1.51.6l-.8,1.12c1.21-.21,2.58-.45,3.15-.53" transform="translate(0 0)"/><path class="cls-227" d="M304,107.3l-.16,0-3,.5,1,.69a3.71,3.71,0,0,0-.87,3.08,3.75,3.75,0,0,0,1.95,2.7l1.14-1.59a1.81,1.81,0,0,1-.71-.44,1.72,1.72,0,0,1-.51-1,.33.33,0,0,1,0-.14,1.81,1.81,0,0,1,.59-1.5l1.12.8c-.21-1.21-.44-2.59-.52-3.15" transform="translate(0 0)"/><path class="cls-228" d="M299,108.78a.5.5,0,0,0-.09-.24.52.52,0,0,0-.17-.16.84.84,0,0,0-.24-.07,1.09,1.09,0,0,0-.31,0l-.31.05a1.23,1.23,0,0,0-.29.09.62.62,0,0,0-.2.15.51.51,0,0,0-.12.2.63.63,0,0,0,0,.24.72.72,0,0,0,.08.22.5.5,0,0,0,.14.15.4.4,0,0,0,.19.07.65.65,0,0,0,.24,0l0-.22a.54.54,0,0,1-.18,0,.28.28,0,0,1-.13,0,.24.24,0,0,1-.08-.09.58.58,0,0,1-.05-.14.31.31,0,0,1,0-.17.27.27,0,0,1,.09-.12.51.51,0,0,1,.16-.09l.21,0,.31,0a.9.9,0,0,1,.22,0,.48.48,0,0,1,.18,0,.38.38,0,0,1,.13.09.34.34,0,0,1,.06.16.28.28,0,0,1,0,.13.37.37,0,0,1,0,.11.41.41,0,0,1-.11.07.67.67,0,0,1-.17.06l0,.22a.79.79,0,0,0,.23-.09.53.53,0,0,0,.16-.13A.37.37,0,0,0,299,109a.41.41,0,0,0,0-.22Zm.88,5.24a.43.43,0,0,0-.09-.23.44.44,0,0,0-.17-.16.61.61,0,0,0-.25-.07.77.77,0,0,0-.3,0l-.31.05a1.23,1.23,0,0,0-.29.09.62.62,0,0,0-.2.15.39.39,0,0,0-.12.19.65.65,0,0,0,0,.24.78.78,0,0,0,.08.23.32.32,0,0,0,.14.14.41.41,0,0,0,.19.08,1,1,0,0,0,.24,0l0-.21h-.18l-.13,0a.24.24,0,0,1-.08-.09.38.38,0,0,1-.05-.14.29.29,0,0,1,0-.16.38.38,0,0,1,.09-.13.8.8,0,0,1,.16-.08,1.05,1.05,0,0,1,.21-.06l.31,0a.83.83,0,0,1,.22,0,.48.48,0,0,1,.18,0,.4.4,0,0,1,.12.1.26.26,0,0,1,.07.15.33.33,0,0,1,0,.14.21.21,0,0,1-.06.1.24.24,0,0,1-.11.08l-.16.06,0,.21.24-.08a.44.44,0,0,0,.16-.14.37.37,0,0,0,.08-.18.41.41,0,0,0,0-.22Zm-.69-4-1.79-.26,0,.22.46.06.1.57-.42.21,0,.21,1.6-.82Zm.16,1-1.7.28,0,.22.66-.11.06.32a.48.48,0,0,0,.07.21.33.33,0,0,0,.12.14.49.49,0,0,0,.18.08.55.55,0,0,0,.22,0,.48.48,0,0,0,.21-.07.41.41,0,0,0,.14-.12.37.37,0,0,0,.08-.18.53.53,0,0,0,0-.22Zm.2,1.21-.19,0,.08.44-1.51.26,0,.21,1.5-.25.08.44.18,0Zm.44,2.67-1.69.28,0,.21.78-.13.11.68-.78.13,0,.22,1.69-.29,0-.21-.72.12-.12-.68.73-.12Zm.33,1.91-1.79-.26,0,.22.46.05.1.58-.42.2,0,.22,1.6-.83Zm-1.12-5.54,0,.32a.33.33,0,0,1,0,.14.33.33,0,0,1-.06.1l-.1.07-.12,0h-.14l-.11,0a.2.2,0,0,1-.08-.08.25.25,0,0,1-.05-.13l-.05-.32Zm-.3-1.07-.73.36-.07-.46Zm1.13,6.75-.73.36-.07-.46Zm-1.79-10a.22.22,0,0,0-.06-.13.27.27,0,0,0-.13-.07l.13,0,0-.2-1.26.21,0,.21.89-.15a.26.26,0,0,1,.14.06.16.16,0,0,1,.07.13.09.09,0,0,1,0,0v0l.2,0v-.07a0,0,0,0,0,0,0Zm.12.69a.52.52,0,0,0-.06-.16.27.27,0,0,0-.13-.13.52.52,0,0,0-.2-.08,1,1,0,0,0-.29,0l-.14,0a1,1,0,0,0-.24.08.42.42,0,0,0-.16.13.34.34,0,0,0-.08.17.74.74,0,0,0,0,.21.57.57,0,0,0,0,.14l.06.11.08.07.08,0,.11-.13-.07,0-.05-.06-.05-.07a.29.29,0,0,1,0-.09.27.27,0,0,1,.05-.24.49.49,0,0,1,.28-.12h0l.12.71.12,0a1.26,1.26,0,0,0,.25-.07.56.56,0,0,0,.17-.11.26.26,0,0,0,.09-.16.48.48,0,0,0,0-.21Zm-.18,0a.24.24,0,0,1,0,.12.16.16,0,0,1-.06.08l-.1.06-.13,0h0l-.08-.49H298l.12,0,.07.07a.16.16,0,0,1,0,.09Z" transform="translate(0 0)"/><path class="cls-229" d="M291.63,25.6a9.87,9.87,0,0,0-2.92,0,9.47,9.47,0,0,0-6.57,4.53l5,2.95Z" transform="translate(0 0)"/><path class="cls-230" d="M282.14,30.16A9.51,9.51,0,0,0,281,36.5a10.5,10.5,0,0,0,1.68,4.28l4.52-7.67Z" transform="translate(0 0)"/><path class="cls-226" d="M289.7,31.38a3.62,3.62,0,0,1,3.71,5.42s2.24-3.82,4.44-7.53a9.41,9.41,0,0,0-6.22-3.67l-4.47,7.51a3.73,3.73,0,0,1,2.54-1.73" transform="translate(0 0)"/><path class="cls-231" d="M290.89,38.51a3.62,3.62,0,0,1-4.17-3,3.53,3.53,0,0,1,.44-2.42l-4.52,7.67c1.32,2,3.23,3.45,5.25,5.33l5.51-9.33a3.57,3.57,0,0,1-2.51,1.73" transform="translate(0 0)"/><path class="cls-6" d="M295,47.24c2.29-5.39,5.54-8.19,4.59-13.84a9.37,9.37,0,0,0-1.77-4.13l-10,16.84c.64.6,1.31,1.3,2,2,2.39,2.61,2.16,4.44,3.37,4.24s.39-1.88,1.8-5.12" transform="translate(0 0)"/><path d="M309.87,140.9c-.05-.14-1.11-3.48,1.11-9.9,2-5.78-1.08-15.06-1.11-15.15l1.89-.64c.14.41,3.33,10,1.11,16.44-2,5.7-1.11,8.6-1.1,8.63Z" transform="translate(0 0)"/><path d="M278.15,73.44a15,15,0,0,1-3.25-.32c-6.17-1.34-9.24-.14-9.27-.13l-.77-1.84c.14-.06,3.6-1.48,10.46,0,6.25,1.36,16-2.76,16.09-2.8l.79,1.84C291.84,70.36,284.55,73.44,278.15,73.44Z" transform="translate(0 0)"/><path class="cls-218" d="M264,138.56s-1.6.35-1.69,1.56.31,1.52.42,1.66a15.84,15.84,0,0,0,0,2.63c.25.84.81,5.05,3,5.19s2.53-.53,3-1.09,1.16-1.57.94-2a11.61,11.61,0,0,0-.87-2.37,20.58,20.58,0,0,0-2-2.53c-.36-.16-1.3-.73-1.3-.73S265.43,138.87,264,138.56Z" transform="translate(0 0)"/><path d="M272.8,142h0a.46.46,0,0,0-.64,0l-1.08,1a.45.45,0,0,1-.35.11l-2.39-.24-.45-.77-.1-.15,1.95-.36a.46.46,0,0,0,.34-.29l.91-2.63a.45.45,0,0,0-.27-.57h0a.46.46,0,0,0-.58.28l-.74,2.13a.42.42,0,0,1-.34.29l-2,.38a3,3,0,0,0-.69-.36l1.2-.89a.46.46,0,0,0,.18-.32l.22-2.24a.44.44,0,0,0-.4-.49h0a.44.44,0,0,0-.49.4l-.19,1.85a.42.42,0,0,1-.17.31l-.83.61a1.8,1.8,0,0,0-.13-.75,1.74,1.74,0,0,0-.9-.91,1.35,1.35,0,0,0-.1-1.3,1.4,1.4,0,0,0-1.71-.48h0a0,0,0,0,0,0,0l.34.81.08,0a.45.45,0,0,1,.59.24.44.44,0,0,1-.24.58l-1.21.51a.45.45,0,0,1-.59-.24.46.46,0,0,1,.24-.59l.08,0-.34-.81s0,0,0,0h0a1.39,1.39,0,0,0-.86,1.54,1.32,1.32,0,0,0,.86,1,1.67,1.67,0,0,0,0,1.28,1.56,1.56,0,0,0,.44.62l-1,.16a.45.45,0,0,1-.35-.09l-1.44-1.16a.44.44,0,0,0-.63.06h0a.47.47,0,0,0,.07.64l1.76,1.41a.45.45,0,0,0,.35.09l1.48-.23a2.83,2.83,0,0,0-.23.75l-1.68,1.17a.43.43,0,0,1-.45,0l-2-1a.45.45,0,0,0-.6.21h0a.45.45,0,0,0,.21.6l2.52,1.19a.46.46,0,0,0,.45,0l1.61-1.13,0,.17.23.86-1.51,1.87a.47.47,0,0,1-.33.17l-1.47.07a.45.45,0,0,0-.43.47h0a.45.45,0,0,0,.47.43l1.88-.09a.47.47,0,0,0,.33-.17l1.35-1.68.3,1.1a3.5,3.5,0,0,0,.7,1.37,3.4,3.4,0,0,0,6-2.28,3.66,3.66,0,0,0-.51-1.71l-.57-1,2.15.22a.44.44,0,0,0,.35-.12l1.38-1.28A.45.45,0,0,0,272.8,142Zm-9-2.81a.85.85,0,0,1,1.09.45.83.83,0,0,1-.45,1.09l-.58.24a.83.83,0,0,1-1.09-.44.84.84,0,0,1,.45-1.09Zm.7,2.49a2.07,2.07,0,0,1,2.59.87l.19.31a2.93,2.93,0,0,1-1.66,1.48,2.84,2.84,0,0,1-2.22.15l-.1-.35a2.08,2.08,0,0,1,1.2-2.46Zm4.42,5.68a2.5,2.5,0,0,1-4.78-.13l-.46-1.72a4.24,4.24,0,0,0,2.28-.34,4.31,4.31,0,0,0,1.85-1.39l.9,1.54A2.48,2.48,0,0,1,268.94,147.4Z" transform="translate(0 0)"/><path class="cls-218" d="M181.86,139.81s1.35.3,1.43,1.33-.26,1.29-.35,1.41a14.61,14.61,0,0,1,0,2.24c-.22.71-.7,4.28-2.54,4.41s-2.14-.45-2.5-.93-1-1.34-.81-1.74a10,10,0,0,1,.75-2,18,18,0,0,1,1.67-2.15c.29-.14,1.1-.61,1.1-.61S180.64,140.08,181.86,139.81Z" transform="translate(0 0)"/><path d="M174.4,143.32l1.18,1.08a.35.35,0,0,0,.29.1l1.83-.18-.48.82a3,3,0,0,0-.43,1.44,2.88,2.88,0,0,0,5.08,1.94,2.92,2.92,0,0,0,.6-1.16l.25-.94,1.15,1.44a.42.42,0,0,0,.28.14l1.6.07a.38.38,0,0,0,.4-.36h0a.38.38,0,0,0-.36-.4l-1.26-.06a.38.38,0,0,1-.28-.14l-1.28-1.6.2-.72,0-.15,1.38,1a.37.37,0,0,0,.38,0l2.14-1a.37.37,0,0,0,.18-.5h0a.38.38,0,0,0-.51-.19l-1.73.82a.39.39,0,0,1-.39,0l-1.43-1a2.29,2.29,0,0,0-.19-.63l1.26.19a.34.34,0,0,0,.29-.08l1.5-1.2a.38.38,0,0,0,.06-.53h0a.38.38,0,0,0-.54-.06l-1.23,1a.39.39,0,0,1-.3.08l-.86-.14a1.47,1.47,0,0,0,.38-.53,1.44,1.44,0,0,0,0-1.08,1.16,1.16,0,0,0,.73-.84,1.19,1.19,0,0,0-.73-1.32h0s0,0,0,0l-.29.69.07,0a.38.38,0,1,1-.3.7l-1-.43a.38.38,0,0,1-.21-.5.39.39,0,0,1,.5-.2l.07,0,.29-.69s0,0,0,0h0a1.18,1.18,0,0,0-1.45.4,1.16,1.16,0,0,0-.09,1.11,1.45,1.45,0,0,0-.87,1.41l-.7-.52a.37.37,0,0,1-.16-.27l-.15-1.57a.38.38,0,0,0-.42-.34h0a.38.38,0,0,0-.34.42l.19,1.9a.36.36,0,0,0,.15.27l1,.76a2.22,2.22,0,0,0-.59.31l-1.71-.32a.37.37,0,0,1-.29-.25l-.64-1.81a.37.37,0,0,0-.48-.24h0a.39.39,0,0,0-.24.49l.78,2.23a.41.41,0,0,0,.29.25l1.65.3-.08.13-.38.65-2,.21a.41.41,0,0,1-.3-.1l-.92-.85a.37.37,0,0,0-.54,0h0A.38.38,0,0,0,174.4,143.32Zm8.1-2.72a.7.7,0,1,1-.54,1.3l-.5-.21a.7.7,0,0,1-.38-.92.71.71,0,0,1,.93-.38Zm-1.09,1.9a1.75,1.75,0,0,1,1,2.09l-.08.3a2.39,2.39,0,0,1-1.88-.13,2.52,2.52,0,0,1-1.42-1.26l.16-.26a1.77,1.77,0,0,1,2.2-.74Zm-3.57,3.09.76-1.31a3.94,3.94,0,0,0,3.52,1.47l-.4,1.47a2.12,2.12,0,1,1-3.88-1.63Z" transform="translate(0 0)"/><path class="cls-218" d="M48.09,131.61s.75,1.17.07,1.95-1.1.73-1.25.75-.92,1.22-1.58,1.58-3.52,2.55-4.91,1.33-1.21-1.84-1.12-2.43.25-1.64.66-1.8a9.85,9.85,0,0,1,2-.9,16.69,16.69,0,0,1,2.7-.34c.31.11,1.22.34,1.22.34S47,130.93,48.09,131.61Z" transform="translate(0 0)"/><path d="M40.33,128.81l.06,1.6a.42.42,0,0,0,.14.28L42,131.85l-.92.24a3,3,0,0,0-1.33.72,2.89,2.89,0,0,0,3.47,4.57l.84-.48-.2,1.82a.37.37,0,0,0,.1.3L45,140.21a.37.37,0,0,0,.54,0h0a.38.38,0,0,0,0-.54l-.84-.93a.37.37,0,0,1-.1-.3l.22-2,.66-.37.12-.08.3,1.65a.36.36,0,0,0,.25.29l2.22.8a.38.38,0,0,0,.49-.23h0a.38.38,0,0,0-.23-.49l-1.81-.65a.37.37,0,0,1-.25-.29l-.3-1.72a2.7,2.7,0,0,0,.31-.58l.75,1a.37.37,0,0,0,.27.16l1.9.2a.38.38,0,0,0,.43-.33h0a.4.4,0,0,0-.34-.43L48,135.21a.36.36,0,0,1-.27-.15l-.52-.71a1.41,1.41,0,0,0,.64-.1,1.47,1.47,0,0,0,.79-.76,1.14,1.14,0,0,0,1.11-.08A1.19,1.19,0,0,0,50.2,132h0s0,0,0,0l-.69.29,0,.07a.37.37,0,0,1-.2.49.38.38,0,0,1-.5-.2l-.42-1a.37.37,0,0,1,.2-.49.38.38,0,0,1,.5.2l0,.07.69-.28s0,0,0,0h0a1.18,1.18,0,0,0-1.31-.74,1.13,1.13,0,0,0-.84.72,1.47,1.47,0,0,0-1.09,0,1.45,1.45,0,0,0-.54.37l-.12-.87a.34.34,0,0,1,.08-.29L47,129a.38.38,0,0,0,0-.53h0a.38.38,0,0,0-.54.05L45.19,130a.47.47,0,0,0-.08.3l.19,1.26a2.8,2.8,0,0,0-.64-.2l-1-1.44a.39.39,0,0,1,0-.38l.83-1.73a.38.38,0,0,0-.18-.51h0a.39.39,0,0,0-.51.18l-1,2.13a.4.4,0,0,0,0,.38l1,1.38-.14,0-.73.19-1.59-1.29a.42.42,0,0,1-.14-.28l0-1.26a.37.37,0,0,0-.39-.37h0A.39.39,0,0,0,40.33,128.81ZM48,132.62a.7.7,0,0,1-.39.92.71.71,0,0,1-.92-.39l-.2-.49a.71.71,0,1,1,1.31-.54Zm-2.12.57a1.76,1.76,0,0,1-.75,2.2l-.27.16a2.43,2.43,0,0,1-1.25-1.42,2.52,2.52,0,0,1-.11-1.89l.3-.08a1.76,1.76,0,0,1,2.08,1Zm-4.72-.34,1.47-.38A3.95,3.95,0,0,0,44.07,136l-1.32.76a2.13,2.13,0,0,1-3-1,2.14,2.14,0,0,1,1.42-2.86Z" transform="translate(0 0)"/><path class="cls-218" d="M327.85,120.18s.26-1.71,1.52-1.89,1.62.21,1.78.31,1.86-.39,2.77-.2,5.37.48,5.68,2.75-.36,2.7-.92,3.18-1.57,1.34-2.09,1.15a12.18,12.18,0,0,1-2.56-.74,21.31,21.31,0,0,1-2.81-1.88c-.2-.35-.86-1.31-.86-1.31S328.29,121.66,327.85,120.18Z" transform="translate(0 0)"/><path d="M332.85,129.1l1.24-1.55a.46.46,0,0,0,.1-.38l-.39-2.24,1.06.52a3.75,3.75,0,0,0,1.83.41,3.58,3.58,0,0,0,.46-7.1l-1.19-.24,1.67-1.54a.52.52,0,0,0,.16-.36l-.05-2a.48.48,0,0,0-.49-.46h0a.46.46,0,0,0-.46.48l0,1.56a.48.48,0,0,1-.15.36l-1.87,1.73-.91-.18-.19,0,1.07-1.78a.48.48,0,0,0,0-.48l-1.44-2.55a.48.48,0,0,0-.65-.18h0a.46.46,0,0,0-.18.64l1.17,2.08a.46.46,0,0,1,0,.47l-1.11,1.86a3.19,3.19,0,0,0-.78.29l.14-1.56a.5.5,0,0,0-.13-.37l-1.62-1.74a.47.47,0,0,0-.67,0h0a.47.47,0,0,0,0,.67l1.33,1.43a.49.49,0,0,1,.13.36l-.09,1.08a1.82,1.82,0,0,0-2-.34,1.39,1.39,0,0,0-1.1-.83,1.46,1.46,0,0,0-1.56,1h0s0,0,0,0l.88.29,0-.08a.47.47,0,0,1,.6-.3.47.47,0,0,1,.29.6l-.44,1.31a.47.47,0,0,1-.6.3.49.49,0,0,1-.3-.61l0-.08-.88-.3h0a1.47,1.47,0,0,0,.62,1.76,1.39,1.39,0,0,0,1.38,0,1.8,1.8,0,0,0,1,.88,1.84,1.84,0,0,0,.8.08L329,123a.47.47,0,0,1-.32.21l-1.93.33a.48.48,0,0,0-.39.55h0a.48.48,0,0,0,.55.39l2.34-.41a.47.47,0,0,0,.32-.21l.85-1.33a3.14,3.14,0,0,0,.43.7l-.24,2.15a.47.47,0,0,1-.28.38l-2.19,1a.47.47,0,0,0-.25.62h0a.47.47,0,0,0,.62.25l2.7-1.16a.5.5,0,0,0,.28-.38l.23-2.07.17.08.84.42.43,2.5a.45.45,0,0,1-.09.37l-1,1.22a.49.49,0,0,0,.07.67h0A.48.48,0,0,0,332.85,129.1Zm-4.08-9.79a.88.88,0,1,1,1.66.56l-.21.63a.88.88,0,0,1-1.67-.56Zm2.45,1.18a2.19,2.19,0,0,1,2.49-1.45l.38.08a3,3,0,0,1,0,2.35,3.09,3.09,0,0,1-1.44,1.85l-.34-.17a2.19,2.19,0,0,1-1.11-2.66Zm4.14,4.15-1.69-.82a5,5,0,0,0,1.52-4.48l1.84.36a2.63,2.63,0,0,1,.5,5A2.61,2.61,0,0,1,335.36,124.64Z" transform="translate(0 0)"/><path class="cls-218" d="M229.73,134.8s1.05-1.36,2.25-.9,1.31,1,1.4,1.14a15.94,15.94,0,0,1,2.51,1.17c.69.62,4.46,3,3.63,5.17s-1.64,2.18-2.36,2.33-2,.4-2.38,0-1.57-1.27-1.88-1.9a22.16,22.16,0,0,1-1.54-3c0-.41-.11-1.56-.11-1.56S229.39,136.32,229.73,134.8Z" transform="translate(0 0)"/><path d="M229.75,145l1.84-.74a.51.51,0,0,0,.27-.29l.75-2.15.67,1a3.74,3.74,0,0,0,1.4,1.25,3.59,3.59,0,0,0,4.86-4.7,3.77,3.77,0,0,0-1-1.28l-.92-.78,2.21-.54a.44.44,0,0,0,.31-.23l.93-1.76a.47.47,0,0,0-.2-.64h0a.47.47,0,0,0-.64.19l-.73,1.39a.48.48,0,0,1-.31.24l-2.46.59L236,136l-.15-.12,1.8-1a.46.46,0,0,0,.24-.41v-2.93a.47.47,0,0,0-.48-.47h0a.47.47,0,0,0-.47.47v2.38a.49.49,0,0,1-.24.42l-1.87,1.08a2.86,2.86,0,0,0-.82-.12l.88-1.31a.45.45,0,0,0,.07-.37l-.56-2.31a.48.48,0,0,0-.58-.35h0a.46.46,0,0,0-.34.57l.46,1.9a.47.47,0,0,1-.07.38l-.6.9a1.9,1.9,0,0,0-.4-.7,1.77,1.77,0,0,0-1.21-.59,1.42,1.42,0,0,0-.56-1.27,1.47,1.47,0,0,0-1.86.14h0s0,0,0,0l.63.69.07-.06a.46.46,0,0,1,.66,0,.47.47,0,0,1,0,.67l-1,.93a.48.48,0,0,1-.67,0,.47.47,0,0,1,0-.67l.07-.06-.62-.69h0a1.46,1.46,0,0,0-.31,1.84,1.43,1.43,0,0,0,1.2.68,1.81,1.81,0,0,0,.47,1.27,1.84,1.84,0,0,0,.65.46l-.95.51a.42.42,0,0,1-.38,0l-1.85-.65a.48.48,0,0,0-.6.29h0a.48.48,0,0,0,.29.61l2.24.78a.42.42,0,0,0,.38,0l1.39-.74a3.23,3.23,0,0,0,0,.82l-1.26,1.76a.5.5,0,0,1-.44.2l-2.37-.25a.48.48,0,0,0-.52.42h0a.47.47,0,0,0,.43.52l2.91.3a.47.47,0,0,0,.44-.19l1.21-1.69.1.15.53.77-.83,2.4a.53.53,0,0,1-.27.28l-1.45.59a.47.47,0,0,0-.26.61h0A.47.47,0,0,0,229.75,145Zm1.2-10.54a.89.89,0,0,1,1.24.06.87.87,0,0,1-.06,1.24l-.49.45a.88.88,0,0,1-1.18-1.3Zm1.57,2.23a2.18,2.18,0,0,1,2.88-.05l.3.25a3,3,0,0,1-1.13,2.06,3.13,3.13,0,0,1-2.16.92l-.22-.32a2.19,2.19,0,0,1,.33-2.86Zm1.6,5.64L233,140.82a4.51,4.51,0,0,0,2.16-1.14,4.44,4.44,0,0,0,1.35-2l1.43,1.22a2.62,2.62,0,0,1,.93,2,2.62,2.62,0,0,1-2.93,2.66A2.62,2.62,0,0,1,234.12,142.36Z" transform="translate(0 0)"/><path class="cls-218" d="M249.77,105.19s.13-.87.78-1,.83.11.91.16a9.59,9.59,0,0,1,1.41-.1c.46.1,2.74.25,2.9,1.41s-.19,1.37-.47,1.62-.8.68-1.07.59a7.31,7.31,0,0,1-1.31-.38,12.15,12.15,0,0,1-1.43-1c-.1-.18-.44-.67-.44-.67S250,106,249.77,105.19Z" transform="translate(0 0)"/><path d="M252.32,109.74,253,109a.25.25,0,0,0,0-.19l-.2-1.15.54.27a2,2,0,0,0,.93.21,1.83,1.83,0,0,0,1-3.31,2.05,2.05,0,0,0-.76-.32l-.61-.12.86-.79a.23.23,0,0,0,.07-.18l0-1a.25.25,0,0,0-.25-.24h0a.25.25,0,0,0-.24.25l0,.79a.23.23,0,0,1-.07.19l-.95.88-.47-.1h-.1l.55-.91a.25.25,0,0,0,0-.25l-.73-1.3a.24.24,0,0,0-.33-.09h0a.23.23,0,0,0-.09.33l.59,1.06a.21.21,0,0,1,0,.24l-.57,1a1.43,1.43,0,0,0-.39.15l.07-.8a.26.26,0,0,0-.07-.19l-.82-.89a.24.24,0,0,0-.34,0h0a.24.24,0,0,0,0,.34l.68.73a.26.26,0,0,1,.07.19l-.05.55A.82.82,0,0,0,251,104a1,1,0,0,0-.69,0,.71.71,0,0,0-.56-.42.77.77,0,0,0-.8.52h0s0,0,0,0l.45.15v0a.24.24,0,0,1,.46.16l-.23.67a.24.24,0,0,1-.3.15.24.24,0,0,1-.15-.31v0l-.45-.15h0a.76.76,0,0,0,.32.9.7.7,0,0,0,.7,0,.91.91,0,0,0,.53.45.81.81,0,0,0,.41,0l-.3.47a.25.25,0,0,1-.16.11l-1,.17a.25.25,0,0,0-.2.28h0a.25.25,0,0,0,.28.2l1.2-.21a.21.21,0,0,0,.16-.11l.43-.68a1.69,1.69,0,0,0,.23.36l-.13,1.1a.23.23,0,0,1-.14.19l-1.12.48a.25.25,0,0,0-.13.32h0a.25.25,0,0,0,.32.13l1.38-.59a.25.25,0,0,0,.14-.2l.12-1.06.08,0,.43.21.22,1.28a.2.2,0,0,1-.05.19l-.49.62a.24.24,0,0,0,0,.34h0A.24.24,0,0,0,252.32,109.74Zm-2.08-5a.45.45,0,1,1,.85.28l-.11.32a.45.45,0,0,1-.85-.28Zm1.25.6a1.12,1.12,0,0,1,1.28-.74l.19,0a1.52,1.52,0,0,1,0,1.19,1.57,1.57,0,0,1-.74,1l-.17-.08a1.12,1.12,0,0,1-.57-1.36Zm2.12,2.12-.87-.43a2.2,2.2,0,0,0,.68-1,2.36,2.36,0,0,0,.1-1.24l.94.18a1.34,1.34,0,0,1,.25,2.56A1.32,1.32,0,0,1,253.61,107.47Z" transform="translate(0 0)"/><path class="cls-218" d="M148.32,112.87s1.13.46,1.05,1.36-.41,1.08-.51,1.17a10.62,10.62,0,0,1-.32,1.93c-.28.59-1.2,3.61-2.82,3.45s-1.79-.69-2-1.15-.66-1.3-.45-1.63a8.84,8.84,0,0,1,.93-1.64,17.35,17.35,0,0,1,1.75-1.62c.28-.07,1-.37,1-.37S147.23,112.93,148.32,112.87Z" transform="translate(0 0)"/><path d="M141.37,114.84l.86,1.11a.34.34,0,0,0,.24.13l1.61.1-.53.64A2.56,2.56,0,0,0,143,118a2.53,2.53,0,0,0,4.12,2.4,2.57,2.57,0,0,0,.68-.92l.36-.78.79,1.41a.31.31,0,0,0,.22.16l1.37.29a.33.33,0,0,0,.4-.26h0a.33.33,0,0,0-.26-.39l-1.08-.23a.34.34,0,0,1-.22-.17l-.88-1.56.28-.6a.61.61,0,0,1,.05-.12l1,1a.36.36,0,0,0,.33.08l2-.57a.34.34,0,0,0,.23-.41h0a.34.34,0,0,0-.42-.23l-1.62.46a.35.35,0,0,1-.32-.08l-1.1-1.07a1.88,1.88,0,0,0-.07-.58l1.06.35a.32.32,0,0,0,.27,0l1.46-.82a.33.33,0,0,0,.12-.46h0a.33.33,0,0,0-.45-.12l-1.21.68a.36.36,0,0,1-.27,0l-.72-.24a1.38,1.38,0,0,0,.4-.4,1.31,1.31,0,0,0,.17-.94,1,1,0,0,0,.75-.62,1,1,0,0,0-.45-1.24h0l-.34.56.05,0a.34.34,0,0,1,.11.46.33.33,0,0,1-.46.11l-.83-.52a.33.33,0,0,1,.35-.57l.06,0,.35-.56v0h0a1,1,0,0,0-1.31.14,1,1,0,0,0-.23,1,1.27,1.27,0,0,0-.77.56,1.21,1.21,0,0,0-.19.54l-.53-.55a.35.35,0,0,1-.1-.26l.09-1.38a.33.33,0,0,0-.31-.35h0a.34.34,0,0,0-.36.31l-.1,1.68a.3.3,0,0,0,.09.25l.77.8a2.72,2.72,0,0,0-.55.18l-1.44-.52a.32.32,0,0,1-.21-.25l-.29-1.66a.33.33,0,0,0-.39-.27h0a.33.33,0,0,0-.27.38l.35,2a.36.36,0,0,0,.22.26l1.38.5-.08.1-.42.51-1.79-.11a.34.34,0,0,1-.25-.13l-.67-.87a.34.34,0,0,0-.47-.06h0A.33.33,0,0,0,141.37,114.84Zm7.4-1.2a.62.62,0,0,1-.66,1l-.4-.25a.62.62,0,0,1-.2-.85.63.63,0,0,1,.86-.2Zm-1.22,1.49a1.55,1.55,0,0,1,.59,2l-.12.25a2.13,2.13,0,0,1-1.61-.37,2.19,2.19,0,0,1-1-1.29l.17-.21a1.54,1.54,0,0,1,2-.33ZM144,117.3l.85-1a3.11,3.11,0,0,0,1.18,1.25,3.19,3.19,0,0,0,1.65.53l-.56,1.21a1.86,1.86,0,1,1-3.12-2Z" transform="translate(0 0)"/></g></g></svg>