<svg width="32" height="32" viewBox="0 0 24 24" fill="none" xmlns="http://www.w3.org/2000/svg">
<path d="M7.36311 7.86474H7.88559M12.1014 7.86474H16.6354M7.36311 16.1348H7.88559M20.9995 11.3518V7.78204C20.9995 4.84276 18.9184 3 15.9733 3H8.02624C5.08113 3 3 4.83401 3 7.78204V16.2155C3 19.1645 5.08113 20.9995 8.02624 20.9995H11.1085M12.22 11.9998H3.02375M19.5201 19.523L21 20.9999M17.5196 14.4293C19.1435 14.4293 20.4599 15.7457 20.4599 17.3686C20.4599 18.9924 19.1435 20.3088 17.5196 20.3088C15.8958 20.3088 14.5794 18.9924 14.5794 17.3686C14.5794 15.7457 15.8958 14.4293 17.5196 14.4293Z" stroke="black" stroke-width="1.5" stroke-linecap="round" stroke-linejoin="round"/>
<mask id="mask0_650_9194" style="mask-type:alpha" maskUnits="userSpaceOnUse" x="2" y="2" width="20" height="20">
<path d="M7.36311 7.86474H7.88559M12.1014 7.86474H16.6354M7.36311 16.1348H7.88559M20.9995 11.3518V7.78204C20.9995 4.84276 18.9184 3 15.9733 3H8.02624C5.08113 3 3 4.83401 3 7.78204V16.2155C3 19.1645 5.08113 20.9995 8.02624 20.9995H11.1085M12.22 11.9998H3.02375M19.5201 19.523L21 20.9999M17.5196 14.4293C19.1435 14.4293 20.4599 15.7457 20.4599 17.3686C20.4599 18.9924 19.1435 20.3088 17.5196 20.3088C15.8958 20.3088 14.5794 18.9924 14.5794 17.3686C14.5794 15.7457 15.8958 14.4293 17.5196 14.4293Z" stroke="black" stroke-width="1.5" stroke-linecap="round" stroke-linejoin="round"/>
</mask>
<g mask="url(#mask0_650_9194)">
<path d="M17.5 11L24 14.5L25.5 24H15.5L12 15.5L17.5 11Z" fill="#2277F6"/>
</g>
</svg>
