<svg width="32" height="32" viewBox="0 0 24 24" fill="none" xmlns="http://www.w3.org/2000/svg">
<mask id="mask0_650_9220" style="mask-type:alpha" maskUnits="userSpaceOnUse" x="0" y="0" width="24" height="24">
<path d="M9.67445 7.73659C6.57359 7.73659 9.67445 12.0002 6.57359 12.0002C9.67445 12.0002 6.57359 16.2628 9.67445 16.2628M14.3251 7.73659C17.4259 7.73659 14.3251 12.0002 17.4259 12.0002C14.3251 12.0002 17.4259 16.2628 14.3251 16.2628M16.2169 3H7.78216C4.84281 3 3 5.08119 3 8.02638V15.9736C3 18.9188 4.83405 21 7.78216 21H16.2159C19.165 21 21 18.9188 21 15.9736V8.02638C21 5.08119 19.165 3 16.2169 3Z" stroke="black" stroke-width="1.5" stroke-linecap="round" stroke-linejoin="round"/>
</mask>
<g mask="url(#mask0_650_9220)">
<path d="M9.5 5L19 7.5L17.5 18H7.5L4 9.5L9.5 5Z" fill="#2277F6"/>
</g>
</svg>
