<svg width="32" height="32" viewBox="0 0 24 24" fill="none" xmlns="http://www.w3.org/2000/svg">
<path d="M18.5637 16.7678C19.9998 16.1188 21 14.673 21 12.9936C21 10.3977 19.1698 8.8546 16.897 8.85266C16.897 7.22001 15.6165 3.95471 12 3.95471C8.38346 3.95471 7.10303 7.22001 7.10303 8.85266C4.83308 8.87309 3 10.3977 3 12.9936C3 14.673 3.99924 16.1188 5.43632 16.7678M13.7482 15.521V14.4391C13.7364 13.473 12.9433 12.6998 11.9773 12.7116C11.0321 12.7234 10.267 13.4848 10.2507 14.4309V15.521M13.4639 20.0452H10.5342C9.73109 20.0452 9.08013 19.3943 9.08013 18.5912V16.947C9.08013 16.144 9.73109 15.493 10.5342 15.493H13.4639C14.267 15.493 14.918 16.144 14.918 16.947V18.5912C14.918 19.3943 14.267 20.0452 13.4639 20.0452Z" stroke="black" stroke-width="1.5" stroke-linecap="round" stroke-linejoin="round"/>
<mask id="mask0_1040_13544" style="mask-type:alpha" maskUnits="userSpaceOnUse" x="0" y="0" width="24" height="24">
<path d="M18.5637 16.7678C19.9998 16.1188 21 14.673 21 12.9936C21 10.3977 19.1698 8.8546 16.897 8.85266C16.897 7.22001 15.6165 3.95471 12 3.95471C8.38346 3.95471 7.10303 7.22001 7.10303 8.85266C4.83308 8.87309 3 10.3977 3 12.9936C3 14.673 3.99924 16.1188 5.43632 16.7678M13.7482 15.521V14.4391C13.7364 13.473 12.9433 12.6998 11.9773 12.7116C11.0321 12.7234 10.267 13.4848 10.2507 14.4309V15.521M13.4639 20.0452H10.5342C9.73109 20.0452 9.08013 19.3943 9.08013 18.5912V16.947C9.08013 16.144 9.73109 15.493 10.5342 15.493H13.4639C14.267 15.493 14.918 16.144 14.918 16.947V18.5912C14.918 19.3943 14.267 20.0452 13.4639 20.0452Z" stroke="black" stroke-width="1.5" stroke-linecap="round" stroke-linejoin="round"/>
</mask>
<g mask="url(#mask0_1040_13544)">
<path d="M16.6282 11.1355L16.6282 19.5L12.6422 25.8702L5.78973 18.5871L9.58198 10.2134L16.6282 11.1355Z" fill="#2277F6"/>
</g>
</svg>
