<svg width="32" height="32" viewBox="0 0 24 24" fill="none" xmlns="http://www.w3.org/2000/svg">
<path d="M7.36418 7.86486H7.88667M12.1026 7.86486H16.6367M7.36418 16.1351H7.88667M21 10.7838V7.78216C21 4.84281 18.9188 3 15.9736 3H8.02638C5.08119 3 3 4.83405 3 7.78216V16.2159C3 19.165 5.08119 21 8.02638 21H11.1088M12.2203 12H3.02375M17.6364 20.6526C17.6364 20.6526 20.5728 19.7634 20.5728 17.3115C20.5728 14.8605 20.6798 14.9384 20.4434 14.701C20.2079 14.4636 18.0217 13.7027 17.6364 13.7027C17.2511 13.7027 15.0638 14.4655 14.8284 14.701C14.5929 14.9364 14.6999 14.8596 14.6999 17.3115C14.6999 19.7634 17.6364 20.6526 17.6364 20.6526Z" stroke="black" stroke-width="1.5" stroke-linecap="round" stroke-linejoin="round"/>
<mask id="mask0_650_9174" style="mask-type:alpha" maskUnits="userSpaceOnUse" x="13" y="12" width="9" height="10">
<path fill-rule="evenodd" clip-rule="evenodd" d="M17.6365 20.6527C17.6365 20.6527 20.5729 19.7634 20.5729 17.3115C20.5729 14.8606 20.6799 14.9384 20.4435 14.701C20.2081 14.4636 18.0218 13.7028 17.6365 13.7028C17.2512 13.7028 15.0639 14.4656 14.8285 14.701C14.593 14.9365 14.7001 14.8596 14.7001 17.3115C14.7001 19.7634 17.6365 20.6527 17.6365 20.6527Z" stroke="black" stroke-width="1.5" stroke-linecap="round" stroke-linejoin="round"/>
</mask>
<g mask="url(#mask0_650_9174)">
<path d="M17 10.5L23.5 14L25 23.5H15L11.5 15L17 10.5Z" fill="#2277F6"/>
</g>
</svg>
