<svg width="32" height="32" viewBox="0 0 24 24" fill="none" xmlns="http://www.w3.org/2000/svg">
<mask id="mask0_650_9193" style="mask-type:alpha" maskUnits="userSpaceOnUse" x="0" y="0" width="24" height="24">
<path d="M8.25412 11.6153V17.1285C8.25412 18.2881 9.19419 19.2282 10.3538 19.2282H12.4613M12.4212 14.9639H8.26206M5.59782 6.10614C4.16154 6.11828 3 7.08359 3 8.72732C3 9.78981 3.63357 10.7056 4.54281 11.1168C4.925 11.2719 5.30627 11.3317 5.59595 11.3317H11.7961C12.0858 11.3317 12.468 11.2747 12.8558 11.1196C13.7651 10.7084 14.3958 9.78981 14.3958 8.72732C14.3958 7.08359 13.2352 6.11828 11.7989 6.10614C11.7989 5.07262 10.9878 3.00464 8.69838 3.00464C6.40894 3.00464 5.59782 5.07262 5.59782 6.10614ZM14.2801 13.2377H19.1802C20.1852 13.2377 21 14.0525 21 15.0576C21 16.0626 20.1852 16.8774 19.1802 16.8774H14.2799C13.2751 16.8774 12.4601 16.0636 12.4595 15.0588C12.4589 14.053 13.2743 13.2377 14.2801 13.2377ZM14.2801 17.3557H19.1802C20.1852 17.3557 21 18.1705 21 19.1756C21 20.1806 20.1852 20.9954 19.1802 20.9954H14.2799C13.2751 20.9954 12.4601 20.1816 12.4595 19.1768C12.4589 18.171 13.2743 17.3557 14.2801 17.3557Z" stroke="black" stroke-width="1.5" stroke-linecap="round" stroke-linejoin="round"/>
</mask>
<g mask="url(#mask0_650_9193)">
<path d="M3.5 0L20.5 -2L17 10.5L11.5 13H1.5L-2 4.5L3.5 0Z" fill="#2277F6"/>
<rect x="7" y="12.08" width="4" height="1" fill="white"/>
</g>
</svg>
