<svg width="24" height="24" viewBox="0 0 24 24" fill="none" xmlns="http://www.w3.org/2000/svg">
<mask id="mask0_650_9202" style="mask-type:alpha" maskUnits="userSpaceOnUse" x="2" y="2" width="20" height="20">
<path d="M20.9989 14.4066H17.1918C15.7936 14.4066 14.6602 13.2731 14.6602 11.875C14.6602 10.4779 15.7936 9.34437 17.1918 9.34437H20.9989M17.6238 11.8176H17.61M3.00048 9.73207V8.62485C3.00048 5.89963 5.21004 3.69006 7.93624 3.69006H16.0642C18.7904 3.69006 21 5.89963 21 8.62485V15.3752C21 18.1004 18.7904 20.3099 16.0642 20.3099H12.6385M7.88883 15.5714V14.4379C7.87618 13.427 7.04626 12.6165 6.03439 12.6292C5.04393 12.6418 4.2432 13.4396 4.22569 14.4301V15.5714M7.59134 20.3096H4.52266C3.68204 20.3096 3 19.6276 3 18.7869V17.0648C3 16.2232 3.68204 15.5422 4.52266 15.5422H7.59134C8.43196 15.5422 9.114 16.2232 9.114 17.0648V18.7869C9.114 19.6276 8.43196 20.3096 7.59134 20.3096Z" stroke="black" stroke-width="1.5" stroke-linecap="round" stroke-linejoin="round"/>
</mask>
<g mask="url(#mask0_650_9202)">
<path d="M11.723 15.4261L9.33214 22.4106L0.204938 25.4428L-1.42912 15.5772L6.3847 10.7353L11.723 15.4261Z" fill="#2277F6"/>
</g>
</svg>
