<svg width="32" height="32" viewBox="0 0 24 24" fill="none" xmlns="http://www.w3.org/2000/svg">
<path d="M20.7267 11.8074V7.87462C20.7267 5.01796 18.9481 3 16.0885 3H7.90772C5.05689 3 3.26953 5.01796 3.26953 7.87462V15.5816C3.26953 18.4382 5.04814 20.4562 7.90772 20.4562H9.60556M20.7267 9.29585H3.26953M6.47474 6.44248H6.41053M9.02454 6.44248H8.96032M11.5748 6.44248H11.5106M16.586 21C16.586 21 19.719 20.0513 19.719 17.436C19.719 14.8196 19.8328 14.9043 19.5818 14.6503C19.3298 14.3964 16.9966 13.5849 16.586 13.5849C16.1754 13.5849 13.8422 14.3983 13.5902 14.6503C13.3382 14.9014 13.453 14.8196 13.453 17.436C13.453 20.0513 16.586 21 16.586 21Z" stroke="black" stroke-width="1.5" stroke-linecap="round" stroke-linejoin="round"/>
<mask id="mask0_650_9129" style="mask-type:alpha" maskUnits="userSpaceOnUse" x="2" y="2" width="20" height="20">
<path d="M20.7267 11.8074V7.87462C20.7267 5.01796 18.9481 3 16.0885 3H7.90772C5.05689 3 3.26953 5.01796 3.26953 7.87462V15.5816C3.26953 18.4382 5.04814 20.4562 7.90772 20.4562H9.60556M20.7267 9.29585H3.26953M6.47474 6.44248H6.41053M9.02454 6.44248H8.96032M11.5748 6.44248H11.5106M16.586 21C16.586 21 19.719 20.0513 19.719 17.436C19.719 14.8196 19.8328 14.9043 19.5818 14.6503C19.3298 14.3964 16.9966 13.5849 16.586 13.5849C16.1754 13.5849 13.8422 14.3983 13.5902 14.6503C13.3382 14.9014 13.453 14.8196 13.453 17.436C13.453 20.0513 16.586 21 16.586 21Z" stroke="black" stroke-width="1.5" stroke-linecap="round" stroke-linejoin="round"/>
</mask>
<g mask="url(#mask0_650_9129)">
<path d="M15.5 11L22 14.5L23.5 24H13.5L10 15.5L15.5 11Z" fill="#2277F6"/>
</g>
</svg>
