<svg width="32" height="32" viewBox="0 0 24 24" fill="none" xmlns="http://www.w3.org/2000/svg">
<path d="M16.4486 9.48999V7.39376C16.4183 4.93661 14.4011 2.97011 11.9449 3.00034C9.53851 3.03058 7.59249 4.9688 7.55152 7.37425V9.48999M9.46146 15.1562L11.1207 16.8174L14.5377 13.3984M15.7265 21H8.27311C6.23053 21 4.57422 19.3437 4.57422 17.3011V13.1174C4.57422 11.0748 6.23053 9.41852 8.27311 9.41852H15.7265C17.7691 9.41852 19.4254 11.0748 19.4254 13.1174V17.3011C19.4254 19.3437 17.7691 21 15.7265 21Z" stroke="black" stroke-width="1.5" stroke-linecap="round" stroke-linejoin="round"/>
<mask id="mask0_1040_13535" style="mask-type:alpha" maskUnits="userSpaceOnUse" x="0" y="0" width="24" height="24">
<path d="M16.4486 9.48999V7.39376C16.4183 4.93661 14.4011 2.97011 11.9449 3.00034C9.53851 3.03058 7.59249 4.9688 7.55152 7.37425V9.48999M9.46146 15.1562L11.1207 16.8174L14.5377 13.3984M15.7265 21H8.27311C6.23053 21 4.57422 19.3437 4.57422 17.3011V13.1174C4.57422 11.0748 6.23053 9.41852 8.27311 9.41852H15.7265C17.7691 9.41852 19.4254 11.0748 19.4254 13.1174V17.3011C19.4254 19.3437 17.7691 21 15.7265 21Z" stroke="black" stroke-width="1.5" stroke-linecap="round" stroke-linejoin="round"/>
</mask>
<g mask="url(#mask0_1040_13535)">
<path d="M11.5 11.6923L15.8889 11.6923L17 19H9.59259L7 12.4615L11.5 11.6923Z" fill="#2277F6"/>
</g>
</svg>
