<svg width="32" height="32" viewBox="0 0 24 24" fill="none" xmlns="http://www.w3.org/2000/svg">
<path d="M10.4806 20.9995H7.88862C5.61316 20.9995 3.76953 19.1549 3.76953 16.8794V7.11909C3.76953 4.8446 5.61316 3 7.88862 3H14.9847C17.2601 3 19.1047 4.8446 19.1047 7.11909V10.4839M13.9784 9.6435H8.89599M11.5486 14.0801H8.89503M19.1043 16.6444V15.6029C19.0925 14.6728 18.3295 13.9283 17.4003 13.94C16.4898 13.9517 15.7531 14.6845 15.7375 15.5951V16.6444M18.8313 21H16.0107C15.2379 21 14.6116 20.3737 14.6116 19.5999V18.0172C14.6116 17.2444 15.2379 16.6171 16.0107 16.6171H18.8313C19.6041 16.6171 20.2314 17.2444 20.2314 18.0172V19.5999C20.2314 20.3737 19.6041 21 18.8313 21Z" stroke="black" stroke-width="1.5" stroke-linecap="round" stroke-linejoin="round"/>
<mask id="mask0_650_9123" style="mask-type:alpha" maskUnits="userSpaceOnUse" x="3" y="2" width="18" height="20">
<path d="M10.4806 20.9995H7.88862C5.61316 20.9995 3.76953 19.1549 3.76953 16.8794V7.11909C3.76953 4.8446 5.61316 3 7.88862 3H14.9847C17.2601 3 19.1047 4.8446 19.1047 7.11909V10.4839M13.9784 9.6435H8.89599M11.5486 14.0801H8.89503M19.1043 16.6444V15.6029C19.0925 14.6728 18.3295 13.9283 17.4003 13.94C16.4898 13.9517 15.7531 14.6845 15.7375 15.5951V16.6444M18.8313 21H16.0107C15.2379 21 14.6116 20.3737 14.6116 19.5999V18.0172C14.6116 17.2444 15.2379 16.6171 16.0107 16.6171H18.8313C19.6041 16.6171 20.2314 17.2444 20.2314 18.0172V19.5999C20.2314 20.3737 19.6041 21 18.8313 21Z" stroke="black" stroke-width="1.5" stroke-linecap="round" stroke-linejoin="round"/>
</mask>
<g mask="url(#mask0_650_9123)">
<path d="M16.5 12L23 15.5L24.5 25H14.5L11 16.5L16.5 12Z" fill="#2277F6"/>
</g>
</svg>
