<svg width="48" height="43" viewBox="0 0 48 43" fill="none" xmlns="http://www.w3.org/2000/svg">
<path d="M0 33.3459L4.38127 38.8853L8.76255 33.3459V42.8847H6.84439V38.8277L4.38127 42.034L1.92953 38.8277V42.8847H0V33.3459Z" fill="white"/>
<path d="M15.9926 41.6205H12.7462L12.224 42.8847H10.0447L14.3697 33.3459L18.6947 42.8847H16.5154L15.9926 41.6205ZM15.2776 39.8967L14.3697 37.6903L13.4618 39.8967H15.2776Z" fill="white"/>
<path d="M19.9756 33.5757H21.9052V42.8846H19.9756V33.5757Z" fill="white"/>
<path d="M23.994 33.5757H25.9236V40.931H29.2155V42.8846H23.994V33.5757Z" fill="white"/>
<path d="M32.4499 33.5757V39.5977C32.4499 40.4138 33.0739 41.0456 33.88 41.0456C34.686 41.0456 35.3101 40.4138 35.3101 39.5977V33.5757H37.2396V39.5977C37.2396 41.4828 35.7412 42.9998 33.8794 42.9998C32.0175 42.9998 30.5192 41.4828 30.5192 39.5977V33.5757H32.4499Z" fill="white"/>
<path d="M39.2368 33.3459L43.6187 38.8853L48 33.3459V42.8847H46.0818V38.8277L43.6187 42.034L41.167 38.8277V42.8847H39.2374V33.3459H39.2368Z" fill="white"/>
<path d="M24 0C15.6435 0 9.51111 4.16727 9.51111 4.16727C9.51111 12.3181 13.4229 18.8961 17.1813 23.3357C18.7983 22.1012 20.1912 20.8576 21.3859 19.6365C18.824 16.6024 16.1914 12.4266 15.3482 7.44447C17.4011 6.57803 20.4583 5.62913 23.9994 5.62913C27.5177 5.62913 30.5827 6.58227 32.6493 7.45356C31.5534 13.9121 27.4518 19.0156 24.397 22.0296C23.0861 23.3999 21.5668 24.789 19.8073 26.1575C22.1675 28.4694 23.9994 29.7172 23.9994 29.7172C23.9994 29.7172 38.4882 19.8535 38.4882 4.16667C38.4888 4.16728 32.3565 0 24 0Z" fill="white"/>
</svg>
