<svg width="16" height="15" viewBox="0 0 16 15" fill="none" xmlns="http://www.w3.org/2000/svg">
<g clip-path="url(#clip0_514_8253)">
<path fill-rule="evenodd" clip-rule="evenodd" d="M3.77634 0.186462H12.2293C14 0.186462 15.1893 1.38596 15.1893 3.1464V11.5994C15.1893 13.1865 14.5 14.5593 12.2293 14.5593H3.77634C1.5 14.5593 0.816406 13.3792 0.816406 11.5994V3.1464C0.816406 1.68646 1.5 0.186462 3.77634 0.186462ZM11.1059 6.44594C11.2285 6.3935 11.3603 6.36604 11.4936 6.36517L11.496 6.36353C12.543 6.36435 12.8908 7.78857 11.946 8.27855C11.9865 8.43618 12.0063 8.59844 12.0048 8.76119C12.0048 10.3732 10.2106 11.6774 8.0155 11.6774C5.82037 11.6774 4.03356 10.3732 4.03356 8.76282C4.03282 8.60336 4.04925 8.44429 4.08256 8.28835C3.11892 7.79837 3.46355 6.36517 4.51619 6.36517C4.65232 6.3651 4.78703 6.39289 4.91202 6.44681C5.03701 6.50074 5.14965 6.57968 5.243 6.67875C5.92082 6.20347 6.82239 5.89886 7.82359 5.8564L8.39524 3.21294C8.40504 3.16722 8.43252 3.12724 8.47168 3.10169C8.51084 3.07615 8.5585 3.06711 8.60429 3.07656L10.4483 3.49386C10.5091 3.37164 10.6016 3.268 10.7162 3.19373C10.8307 3.11946 10.9631 3.0773 11.0995 3.07164C11.2359 3.06598 11.3713 3.09703 11.4916 3.16155C11.6119 3.22608 11.7127 3.3217 11.7834 3.43846C11.8542 3.55521 11.8923 3.68882 11.8938 3.82532C11.8953 3.96183 11.8601 4.09624 11.792 4.21453C11.7238 4.33281 11.6252 4.43064 11.5063 4.49779C11.3875 4.56495 11.2528 4.59898 11.1163 4.59632C11.0177 4.5959 10.9202 4.57599 10.8293 4.53775C10.7385 4.4995 10.656 4.44368 10.5868 4.37348C10.5176 4.30328 10.463 4.22009 10.426 4.1287C10.3891 4.0373 10.3705 3.93951 10.3715 3.84093L8.70801 3.45629L8.18373 5.85395C9.19309 5.8907 10.1036 6.19612 10.7798 6.67059C10.8725 6.57476 10.9834 6.49839 11.1059 6.44594ZM5.73646 7.97729C5.65385 8.09933 5.60917 8.24307 5.60804 8.39043C5.60826 8.58978 5.68743 8.78092 5.82823 8.92203C5.96904 9.06314 6.16001 9.14273 6.35935 9.14337C6.50672 9.14256 6.65055 9.0982 6.77277 9.01585C6.89499 8.93351 6.99013 8.81686 7.04622 8.68059C7.10232 8.54431 7.11686 8.3945 7.08803 8.24997C7.0592 8.10545 6.98828 7.97268 6.88419 7.86837C6.7801 7.76405 6.64748 7.69284 6.50302 7.66369C6.35857 7.63455 6.20871 7.64877 6.07232 7.70457C5.93592 7.76037 5.81907 7.85525 5.73646 7.97729ZM6.3422 10.187C7.03145 10.8861 8.97587 10.8861 9.66511 10.187C9.69761 10.1532 9.71576 10.108 9.7158 10.0611C9.71583 10.0142 9.69774 9.96902 9.66529 9.9351C9.63284 9.90117 9.58855 9.88109 9.54165 9.87904C9.49475 9.87699 9.44887 9.89312 9.41358 9.92408C8.86399 10.481 7.11801 10.4712 6.59209 9.92408C6.57483 9.90767 6.5545 9.89483 6.53227 9.88628C6.51004 9.87772 6.48634 9.87364 6.46253 9.87424C6.43872 9.87485 6.41526 9.88014 6.39349 9.88981C6.37173 9.89948 6.35208 9.91335 6.33567 9.93062C6.31926 9.94788 6.30641 9.96821 6.29786 9.99044C6.28931 10.0127 6.28522 10.0364 6.28583 10.0602C6.28643 10.084 6.29173 10.1075 6.3014 10.1292C6.31107 10.151 6.32494 10.1706 6.3422 10.187ZM9.22651 9.02055C9.35199 9.10335 9.49926 9.14696 9.64959 9.14582V9.14501C9.74849 9.14544 9.84648 9.12628 9.93793 9.08864C10.0294 9.05099 10.1125 8.99561 10.1824 8.92568C10.2523 8.85575 10.3077 8.77267 10.3453 8.68122C10.383 8.58977 10.4022 8.49177 10.4017 8.39288C10.4027 8.24255 10.3589 8.09532 10.276 7.96993C10.193 7.84454 10.0747 7.74665 9.93597 7.68871C9.79725 7.63077 9.64442 7.61539 9.49694 7.64455C9.34946 7.6737 9.21397 7.74606 9.10773 7.85242C9.00148 7.95878 8.92927 8.09434 8.90028 8.24186C8.87129 8.38937 8.88682 8.54218 8.94491 8.68084C9.00301 8.8195 9.10102 8.93775 9.22651 9.02055Z" fill="white"/>
</g>
<defs>
<clipPath id="clip0_514_8253">
<rect width="14.3729" height="14.3729" fill="white" transform="translate(0.8125 0.186462)"/>
</clipPath>
</defs>
</svg>
