<svg width="17" height="17" viewBox="0 0 17 17" fill="none" xmlns="http://www.w3.org/2000/svg">
<path d="M15.4779 10.9798C15.4779 13.4064 14.0312 14.8531 11.6045 14.8531H10.8112C10.4445 14.8531 10.1445 14.5531 10.1445 14.1864V10.3398C10.1445 10.1598 10.2912 10.0064 10.4712 10.0064L11.6445 9.98645C11.7379 9.97978 11.8179 9.91312 11.8379 9.81978L12.0712 8.54645C12.0912 8.42645 11.9979 8.31311 11.8712 8.31311L10.4512 8.33311C10.2645 8.33311 10.1179 8.18645 10.1112 8.00645L10.0845 6.37311C10.0845 6.26644 10.1712 6.17312 10.2845 6.17312L11.8845 6.14644C11.9979 6.14644 12.0845 6.05978 12.0845 5.94645L12.0579 4.34644C12.0579 4.2331 11.9712 4.14644 11.8579 4.14644L10.0579 4.17312C8.95119 4.19312 8.07121 5.09977 8.09121 6.20644L8.12453 8.03977C8.1312 8.22644 7.98454 8.37311 7.79787 8.37978L6.99786 8.39311C6.88453 8.39311 6.79787 8.47977 6.79787 8.5931L6.81787 9.85978C6.81787 9.97311 6.90453 10.0598 7.01786 10.0598L7.81787 10.0464C8.00454 10.0464 8.15119 10.1931 8.15786 10.3731L8.21785 14.1731C8.22452 14.5464 7.92452 14.8531 7.55119 14.8531H6.01786C3.5912 14.8531 2.14453 13.4064 2.14453 10.9731V5.39311C2.14453 2.96644 3.5912 1.51978 6.01786 1.51978H11.6045C14.0312 1.51978 15.4779 2.96644 15.4779 5.39311V10.9798Z" fill="white"/>
</svg>
