<svg width="32" height="32" viewBox="0 0 35 35" fill="none" xmlns="http://www.w3.org/2000/svg">
<path d="M29.1354 17.2191C29.1354 17.8232 29.6251 18.3129 30.2292 18.3129C30.8332 18.3129 31.3229 17.8232 31.3229 17.2191H29.1354ZM14.0109 30.9257C14.6149 30.9257 15.1046 30.436 15.1046 29.832C15.1046 29.2279 14.6149 28.7382 14.0109 28.7382V30.9257ZM30.2292 14.6502C30.8332 14.6502 31.3229 14.1605 31.3229 13.5564C31.3229 12.9524 30.8332 12.4627 30.2292 12.4627V14.6502ZM4.77081 12.4627C4.16675 12.4627 3.67706 12.9524 3.67706 13.5564C3.67706 14.1605 4.16675 14.6502 4.77081 14.6502V12.4627ZM24.1906 30.625L23.8737 31.6718C24.0803 31.7344 24.3009 31.7344 24.5076 31.6718L24.1906 30.625ZM28.5595 21.3651L29.3374 20.5962L29.3359 20.5947L28.5595 21.3651ZM19.8218 21.3651L20.5937 22.14L20.5951 22.1385L19.8218 21.3651ZM9.44508 10.489C10.0491 10.489 10.5388 9.99934 10.5388 9.39528C10.5388 8.79122 10.0491 8.30153 9.44508 8.30153V10.489ZM9.35143 8.30153C8.74737 8.30153 8.25768 8.79122 8.25768 9.39528C8.25768 9.99934 8.74737 10.489 9.35143 10.489V8.30153ZM13.1635 10.489C13.7676 10.489 14.2573 9.99934 14.2573 9.39528C14.2573 8.79122 13.7676 8.30153 13.1635 8.30153V10.489ZM13.0699 8.30153C12.4658 8.30153 11.9761 8.79122 11.9761 9.39528C11.9761 9.99934 12.4658 10.489 13.0699 10.489V8.30153ZM16.8827 10.489C17.4867 10.489 17.9764 9.99934 17.9764 9.39528C17.9764 8.79122 17.4867 8.30153 16.8827 8.30153V10.489ZM16.789 8.30153C16.185 8.30153 15.6953 8.79122 15.6953 9.39528C15.6953 9.99934 16.185 10.489 16.789 10.489V8.30153ZM31.3229 17.2191V11.4838H29.1354V17.2191H31.3229ZM31.3229 11.4838C31.3229 9.17514 30.6017 7.11517 29.2115 5.6219C27.8131 4.11979 25.8204 3.28125 23.4652 3.28125V5.46875C25.2802 5.46875 26.6694 6.10164 27.6105 7.11245C28.5597 8.1321 29.1354 9.62653 29.1354 11.4838H31.3229ZM23.4652 3.28125H11.5348V5.46875H23.4652V3.28125ZM11.5348 3.28125C9.18525 3.28125 7.19314 4.12025 5.79375 5.62135C4.4023 7.11394 3.67706 9.17373 3.67706 11.4838H5.86456C5.86456 9.62794 6.44261 8.13332 7.39381 7.11299C8.33706 6.10118 9.72696 5.46875 11.5348 5.46875V3.28125ZM3.67706 11.4838V22.7231H5.86456V11.4838H3.67706ZM3.67706 22.7231C3.67706 25.0318 4.39827 27.0918 5.78846 28.5851C7.18688 30.0872 9.1796 30.9257 11.5348 30.9257V28.7382C9.71984 28.7382 8.33056 28.1053 7.38952 27.0945C6.44026 26.0749 5.86456 24.5804 5.86456 22.7231H3.67706ZM11.5348 30.9257H14.0109V28.7382H11.5348V30.9257ZM30.2292 12.4627H4.77081V14.6502H30.2292V12.4627ZM24.1906 30.625C24.5076 31.6718 24.508 31.6717 24.5084 31.6716C24.5086 31.6715 24.509 31.6714 24.5094 31.6713C24.51 31.6711 24.5108 31.6708 24.5116 31.6706C24.5132 31.6701 24.5151 31.6695 24.5172 31.6689C24.5216 31.6675 24.527 31.6658 24.5335 31.6638C24.5466 31.6596 24.5639 31.6541 24.5853 31.647C24.628 31.6329 24.6869 31.6128 24.7596 31.5864C24.9049 31.5337 25.1068 31.4556 25.3466 31.3497C25.8231 31.1391 26.4652 30.8115 27.1143 30.3441C28.3991 29.4187 29.8533 27.8314 29.8533 25.4275H27.6658C27.6658 26.8376 26.8356 27.849 25.8359 28.569C25.3428 28.9241 24.8426 29.1808 24.4624 29.3488C24.2739 29.4322 24.1188 29.4919 24.0143 29.5298C23.9621 29.5487 23.9228 29.5621 23.8986 29.5701C23.8865 29.5741 23.8782 29.5767 23.8739 29.5781C23.8718 29.5787 23.8707 29.5791 23.8706 29.5791C23.8706 29.5791 23.8708 29.579 23.8713 29.5789C23.8716 29.5788 23.8719 29.5787 23.8723 29.5786C23.8725 29.5785 23.8728 29.5784 23.8729 29.5784C23.8733 29.5783 23.8737 29.5782 24.1906 30.625ZM29.8533 25.4275C29.8533 24.4821 29.8636 23.7814 29.8733 23.2554C29.8829 22.7422 29.8928 22.3609 29.8905 22.0949C29.8885 21.8558 29.8805 21.545 29.7747 21.2502C29.6474 20.8953 29.4195 20.6793 29.3374 20.5962L27.7816 22.134C27.8825 22.236 27.7712 22.1435 27.7157 21.9888C27.6818 21.8943 27.7009 21.8606 27.7031 22.1138C27.7051 22.3402 27.6964 22.6666 27.6862 23.2149C27.6763 23.7504 27.6658 24.4651 27.6658 25.4275H29.8533ZM29.3359 20.5947C29.1572 20.4146 28.9226 20.2883 28.7985 20.2232C28.6343 20.1372 28.4406 20.0482 28.2372 19.9609C27.828 19.7854 27.3255 19.5939 26.8251 19.4177C26.3241 19.2413 25.8096 19.0745 25.3744 18.9503C25.1576 18.8884 24.9504 18.8342 24.7692 18.7945C24.6137 18.7605 24.3941 18.7176 24.1906 18.7176V20.9051C24.1369 20.9051 24.1545 20.8992 24.3012 20.9314C24.4221 20.9578 24.5819 20.999 24.774 21.0538C25.1567 21.163 25.628 21.3153 26.0985 21.481C26.5696 21.6469 27.024 21.8207 27.3748 21.9713C27.5515 22.047 27.6885 22.1112 27.7831 22.1608C27.9178 22.2313 27.8699 22.223 27.7831 22.1355L29.3359 20.5947ZM24.1906 18.7176C23.9869 18.7176 23.767 18.7606 23.6116 18.7947C23.4303 18.8345 23.2231 18.8889 23.0063 18.9509C22.5712 19.0753 22.0567 19.2423 21.5558 19.4189C21.0555 19.5953 20.5532 19.7867 20.1443 19.962C19.9411 20.0491 19.7477 20.1378 19.5839 20.2234C19.4601 20.2881 19.2265 20.4136 19.0484 20.5917L20.5951 22.1385C20.5089 22.2247 20.462 22.2327 20.597 22.1622C20.692 22.1126 20.8293 22.0484 21.0061 21.9726C21.3573 21.822 21.812 21.648 22.2831 21.4819C22.7537 21.316 23.225 21.1635 23.6078 21.054C23.7999 20.9991 23.9597 20.9579 24.0805 20.9314C24.2272 20.8992 24.2447 20.9051 24.1906 20.9051V18.7176ZM19.0499 20.5902C18.9664 20.6733 18.7353 20.8893 18.6064 21.2472C18.4999 21.5428 18.4922 21.855 18.4902 22.0937C18.488 22.3598 18.4981 22.7416 18.5077 23.255C18.5176 23.7813 18.5279 24.4822 18.5279 25.4275H20.7154C20.7154 24.465 20.7049 23.75 20.6948 23.214C20.6845 22.6653 20.6757 22.3386 20.6776 22.1118C20.6797 21.8576 20.699 21.8925 20.6645 21.9883C20.6076 22.1463 20.4933 22.2399 20.5937 22.14L19.0499 20.5902ZM18.5279 25.4275C18.5279 27.8314 19.9821 29.4187 21.267 30.3441C21.9161 30.8115 22.5581 31.1391 23.0346 31.3497C23.2744 31.4556 23.4763 31.5337 23.6216 31.5864C23.6944 31.6128 23.7533 31.6329 23.796 31.647C23.8173 31.6541 23.8347 31.6596 23.8477 31.6638C23.8542 31.6658 23.8597 31.6675 23.864 31.6689C23.8662 31.6695 23.8681 31.6701 23.8697 31.6706C23.8705 31.6708 23.8712 31.6711 23.8719 31.6713C23.8722 31.6714 23.8727 31.6715 23.8728 31.6716C23.8732 31.6717 23.8737 31.6718 24.1906 30.625C24.5076 29.5782 24.508 29.5783 24.5083 29.5784C24.5084 29.5784 24.5088 29.5785 24.509 29.5786C24.5093 29.5787 24.5097 29.5788 24.5099 29.5789C24.5104 29.579 24.5106 29.5791 24.5106 29.5791C24.5106 29.5791 24.5095 29.5787 24.5073 29.5781C24.5031 29.5767 24.4948 29.5741 24.4827 29.5701C24.4584 29.5621 24.4191 29.5487 24.367 29.5298C24.2624 29.4919 24.1074 29.4322 23.9188 29.3488C23.5387 29.1808 23.0385 28.9241 22.5453 28.569C21.5457 27.849 20.7154 26.8376 20.7154 25.4275H18.5279ZM9.44508 8.30153H9.35143V10.489H9.44508V8.30153ZM13.1635 8.30153H13.0699V10.489H13.1635V8.30153ZM16.8827 8.30153H16.789V10.489H16.8827V8.30153Z" fill="black"/>
</svg>
