<svg width="24" height="24" viewBox="0 0 24 24" fill="none" xmlns="http://www.w3.org/2000/svg">
<path fill-rule="evenodd" clip-rule="evenodd" d="M14.4697 4.46967C14.7626 4.17678 15.2374 4.17678 15.5303 4.46967L20.5303 9.46967C20.8232 9.76256 20.8232 10.2374 20.5303 10.5303L15.5303 15.5303C15.2374 15.8232 14.7626 15.8232 14.4697 15.5303C14.1768 15.2374 14.1768 14.7626 14.4697 14.4697L18.1893 10.75H11C9.57993 10.75 8.57133 10.7509 7.78975 10.8304C7.02071 10.9086 6.55507 11.0567 6.1944 11.2977C5.83953 11.5348 5.53484 11.8395 5.29772 12.1944C5.05673 12.5551 4.90865 13.0207 4.83041 13.7898C4.75091 14.5713 4.75 15.5799 4.75 17H3.25L3.25 16.9584C3.24999 15.5892 3.24998 14.5043 3.33812 13.6379C3.42841 12.7503 3.61739 12.0093 4.05052 11.361C4.39707 10.8424 4.84239 10.3971 5.36104 10.0505C6.00926 9.61739 6.7503 9.42841 7.63794 9.33812C8.5043 9.24998 9.58921 9.24999 10.9584 9.25H11H18.1893L14.4697 5.53033C14.1768 5.23744 14.1768 4.76256 14.4697 4.46967Z" fill="#080D13"/>
</svg>
