<svg width="20" height="20" viewBox="0 0 20 20" fill="none" xmlns="http://www.w3.org/2000/svg">
<g clip-path="url(#clip0_70_872)">
<path fill-rule="evenodd" clip-rule="evenodd" d="M6.66667 1.04224H6.63684C5.88331 1.04223 5.27558 1.04222 4.78533 1.08665C4.28005 1.13245 3.83855 1.22936 3.4375 1.46091C2.96244 1.73518 2.56795 2.12968 2.29367 2.60474C2.06213 3.00578 1.96522 3.44728 1.91942 3.95257C1.87499 4.44281 1.87499 5.05054 1.875 5.80407L1.875 5.80407L1.875 5.8339L1.875 14.1672L1.875 14.1971L1.875 14.1971C1.87499 14.9506 1.87498 15.5583 1.91942 16.0486C1.96521 16.5539 2.06213 16.9954 2.29367 17.3964C2.56795 17.8715 2.96244 18.266 3.4375 18.5402C3.83854 18.7718 4.28004 18.8687 4.78533 18.9145C5.27557 18.9589 5.8833 18.9589 6.63684 18.9589H6.66667H6.6965C7.45003 18.9589 8.05776 18.9589 8.548 18.9145C9.05329 18.8687 9.49479 18.7718 9.89583 18.5402C10.3709 18.266 10.7654 17.8715 11.0397 17.3964C11.2712 16.9954 11.3681 16.5539 11.4139 16.0486C11.4583 15.5583 11.4583 14.9506 11.4583 14.1971V14.1971V14.1672V13.3339C11.4583 12.9887 11.1785 12.7089 10.8333 12.7089C10.4882 12.7089 10.2083 12.9887 10.2083 13.3339V14.1672C10.2083 14.9576 10.2077 15.5086 10.169 15.9357C10.1311 16.3543 10.0605 16.5923 9.95713 16.7714C9.79257 17.0564 9.55587 17.2931 9.27083 17.4577C9.09175 17.5611 8.85376 17.6316 8.43517 17.6696C8.00799 17.7083 7.45702 17.7089 6.66667 17.7089C5.87632 17.7089 5.32534 17.7083 4.89816 17.6696C4.47957 17.6316 4.24158 17.5611 4.0625 17.4577C3.77746 17.2931 3.54077 17.0564 3.3762 16.7714C3.27281 16.5923 3.20225 16.3543 3.16432 15.9357C3.1256 15.5086 3.125 14.9576 3.125 14.1672L3.125 5.8339C3.125 5.04355 3.1256 4.49258 3.16432 4.0654C3.20226 3.64681 3.27281 3.40882 3.3762 3.22974C3.54077 2.9447 3.77747 2.708 4.0625 2.54344C4.24159 2.44004 4.47957 2.36949 4.89816 2.33155C5.32535 2.29284 5.87632 2.29224 6.66667 2.29224C7.45702 2.29224 8.00799 2.29284 8.43517 2.33155C8.85376 2.36949 9.09175 2.44004 9.27083 2.54344C9.55587 2.708 9.79257 2.9447 9.95713 3.22974C10.0605 3.40882 10.1311 3.64681 10.169 4.0654C10.2077 4.49258 10.2083 5.04355 10.2083 5.8339L10.2083 6.66724C10.2083 7.01241 10.4882 7.29224 10.8333 7.29224C11.1785 7.29224 11.4583 7.01241 11.4583 6.66724L11.4583 5.8339V5.80407V5.80404C11.4583 5.05052 11.4583 4.4428 11.4139 3.95257C11.3681 3.44728 11.2712 3.00578 11.0397 2.60474C10.7654 2.12968 10.3709 1.73518 9.89583 1.46091C9.49479 1.22937 9.05329 1.13245 8.548 1.08666C8.05776 1.04222 7.45003 1.04223 6.6965 1.04224H6.66667ZM14.6086 6.22489C14.3645 5.98081 13.9688 5.98081 13.7247 6.22489C13.4806 6.46897 13.4806 6.86469 13.7247 7.10877L15.9911 9.37516L6.66667 9.37516C6.32149 9.37516 6.04167 9.65498 6.04167 10.0002C6.04167 10.3453 6.32149 10.6252 6.66667 10.6252L15.9911 10.6252L13.7247 12.8916C13.4806 13.1356 13.4806 13.5314 13.7247 13.7754C13.9688 14.0195 14.3645 14.0195 14.6086 13.7754L17.9419 10.4421C18.186 10.198 18.186 9.8023 17.9419 9.55822L14.6086 6.22489Z" fill="#080D13"/>
</g>
<defs>
<clipPath id="clip0_70_872">
<rect width="20" height="20" fill="white"/>
</clipPath>
</defs>
</svg>
