<svg width="24" height="24" viewBox="0 0 24 24" fill="none" xmlns="http://www.w3.org/2000/svg">
<path d="M20.039 5.40891L20.5111 5.99169L20.5116 5.99128L20.039 5.40891ZM16.1346 8.57195L15.5762 9.07266C15.8428 9.36994 16.2955 9.40624 16.6061 9.15524L16.1346 8.57195ZM12.4403 4.41845L13.0009 3.92021L13.0008 3.92005L12.4403 4.41845ZM11.5598 4.41845L12.1202 4.91696L12.1203 4.91686L11.5598 4.41845ZM7.86556 8.57195L7.3941 9.15524C7.70463 9.40624 8.15737 9.36994 8.42394 9.07266L7.86556 8.57195ZM3.96113 5.40891L3.48854 5.99128L3.48904 5.99169L3.96113 5.40891ZM3.0096 5.96835L3.74827 5.83851L3.74824 5.83832L3.0096 5.96835ZM4.13529 13.3919L4.87758 13.2846L4.87755 13.2845L4.13529 13.3919ZM19.8649 13.3919L19.1226 13.2845L19.1226 13.2846L19.8649 13.3919ZM20.9906 5.96835L21.7293 6.0982L21.7295 6.09686L20.9906 5.96835ZM5.3345 19.0283C4.92028 19.0283 4.5845 19.3641 4.5845 19.7783C4.5845 20.1925 4.92028 20.5283 5.3345 20.5283V19.0283ZM18.6648 20.5283C19.079 20.5283 19.4148 20.1925 19.4148 19.7783C19.4148 19.3641 19.079 19.0283 18.6648 19.0283V20.5283ZM19.5669 4.82613C17.8861 6.18771 15.8505 7.83722 15.6631 7.98867L16.6061 9.15524C16.7943 9.00312 18.8314 7.35241 20.5111 5.99169L19.5669 4.82613ZM16.693 8.07124C16.5086 7.86563 14.0285 5.07631 13.0009 3.92021L11.8798 4.9167C12.9051 6.07036 15.3889 8.8638 15.5762 9.07266L16.693 8.07124ZM13.0008 3.92005C12.468 3.32092 11.5322 3.32092 10.9994 3.92005L12.1203 4.91686C12.0564 4.98865 11.9438 4.98865 11.8799 4.91686L13.0008 3.92005ZM10.9995 3.91995C9.9704 5.07669 7.49171 7.86546 7.30718 8.07124L8.42394 9.07266C8.61108 8.86397 11.0944 6.06999 12.1202 4.91696L10.9995 3.91995ZM8.33702 7.98867C8.14966 7.83722 6.11403 6.18771 4.43323 4.82613L3.48904 5.99169C5.16879 7.35241 7.2059 9.00312 7.3941 9.15524L8.33702 7.98867ZM4.43373 4.82654C3.47125 4.04549 2.05633 4.87925 2.27095 6.09839L3.74824 5.83832C3.75265 5.86338 3.74953 5.902 3.73101 5.93938C3.71465 5.97242 3.69214 5.99313 3.6716 6.00521C3.65104 6.01731 3.62194 6.02695 3.58503 6.0252C3.54325 6.02321 3.50807 6.00713 3.48854 5.99128L4.43373 4.82654ZM2.27092 6.0982C2.51558 7.49009 3.04391 11.0877 3.39303 13.4994L4.87755 13.2845C4.53005 10.884 3.99786 7.25843 3.74827 5.83851L2.27092 6.0982ZM3.393 13.4992C3.63818 15.1955 5.09185 16.4488 6.8031 16.4488V14.9488C5.83487 14.9488 5.01574 14.2406 4.87758 13.2846L3.393 13.4992ZM6.8031 16.4488H17.1971V14.9488H6.8031V16.4488ZM17.1971 16.4488C18.9083 16.4488 20.362 15.1955 20.6072 13.4992L19.1226 13.2846C18.9844 14.2406 18.1653 14.9488 17.1971 14.9488V16.4488ZM20.6071 13.4994C20.9563 11.0877 21.4846 7.49009 21.7293 6.0982L20.2519 5.83851C20.0023 7.25843 19.4701 10.884 19.1226 13.2845L20.6071 13.4994ZM21.7295 6.09686C21.9412 4.87963 20.5302 4.04446 19.5664 4.82654L20.5116 5.99128C20.4924 6.0069 20.4574 6.02302 20.4155 6.02504C20.3785 6.02682 20.3491 6.01715 20.3283 6.00492C20.3075 5.99269 20.2851 5.9719 20.2688 5.93909C20.2504 5.90201 20.2475 5.86403 20.2517 5.83985L21.7295 6.09686ZM5.3345 20.5283H18.6648V19.0283H5.3345V20.5283Z" fill="#415067"/>
</svg>
