<svg width="24" height="24" viewBox="0 0 24 24" fill="none" xmlns="http://www.w3.org/2000/svg">
<path fill-rule="evenodd" clip-rule="evenodd" d="M18.8407 3.90343C18.3639 3.47003 17.6358 3.47002 17.1591 3.9034C17.1404 3.9204 17.116 3.9445 17.0302 4.03024L16.7233 4.33714C16.699 5.4133 17.5863 6.30073 18.6624 6.2766L18.9695 5.96953C19.0552 5.88379 19.0793 5.85939 19.0963 5.84069C19.5297 5.36393 19.5297 4.63587 19.0964 4.15911C19.0794 4.14041 19.0553 4.11601 18.9695 4.03027C18.8838 3.94453 18.8594 3.92042 18.8407 3.90343ZM17.3916 7.54747C16.5063 7.20178 15.798 6.49344 15.4524 5.6081L10.097 10.9634C9.29022 11.7701 8.98963 12.0796 8.78348 12.4437C8.57734 12.8077 8.46667 13.2247 8.18995 14.3316L8.03055 14.9691L8.66816 14.8097C9.77503 14.533 10.192 14.4224 10.556 14.2162C10.9201 14.0101 11.2295 13.7095 12.0363 12.9027L17.3916 7.54747ZM16.1501 2.79344C17.199 1.83999 18.8008 1.84001 19.8497 2.79349C19.8985 2.83785 19.9503 2.88971 20.0176 2.95704L20.0176 2.95705L20.0302 2.96963L20.0427 2.98216L20.0428 2.98217C20.1101 3.04951 20.162 3.10136 20.2063 3.15017C21.1597 4.19906 21.1597 5.80079 20.2063 6.84965C20.162 6.89842 20.1102 6.95022 20.0429 7.01746L20.0428 7.01755L20.0427 7.01767L20.0302 7.03019L13.097 13.9634L13.0234 14.0369C12.3154 14.7453 11.8581 15.2028 11.2951 15.5215C10.7321 15.8403 10.1046 15.997 9.13287 16.2397L9.13286 16.2397L9.03197 16.265L7.18168 16.7275C6.9261 16.7914 6.65573 16.7165 6.46945 16.5302C6.28316 16.344 6.20827 16.0736 6.27217 15.818L6.73474 13.9678L6.75995 13.8669C7.00267 12.8951 7.15943 12.2676 7.47819 11.7046C7.79694 11.1416 8.25442 10.6843 8.96278 9.97626L8.96279 9.97625L9.03634 9.90272L15.9696 2.96957L15.9821 2.957C16.0495 2.88966 16.1013 2.8378 16.1501 2.79344ZM3.25 20.9999C3.25 20.5857 3.58579 20.2499 4 20.2499H20C20.4142 20.2499 20.75 20.5857 20.75 20.9999C20.75 21.4141 20.4142 21.7499 20 21.7499H4C3.58579 21.7499 3.25 21.4141 3.25 20.9999Z" fill="#2277F6"/>
</svg>
