<svg width="24" height="24" viewBox="0 0 24 24" fill="none" xmlns="http://www.w3.org/2000/svg">
<path d="M15.5228 9.53216C15.8157 9.23927 15.8157 8.76439 15.5228 8.4715C15.2299 8.17861 14.755 8.17861 14.4621 8.4715L15.5228 9.53216ZM8.47211 14.4615C8.17922 14.7544 8.17922 15.2293 8.47211 15.5222C8.765 15.8151 9.23988 15.8151 9.53277 15.5222L8.47211 14.4615ZM14.4697 15.5303C14.7626 15.8232 15.2374 15.8232 15.5303 15.5303C15.8232 15.2374 15.8232 14.7626 15.5303 14.4697L14.4697 15.5303ZM9.53033 8.46967C9.23744 8.17678 8.76256 8.17678 8.46967 8.46967C8.17678 8.76256 8.17678 9.23744 8.46967 9.53033L9.53033 8.46967ZM14.4621 8.4715L8.47211 14.4615L9.53277 15.5222L15.5228 9.53216L14.4621 8.4715ZM15.5303 14.4697L9.53033 8.46967L8.46967 9.53033L14.4697 15.5303L15.5303 14.4697Z" fill="#415067"/>
</svg>
