<svg width="24" height="24" viewBox="0 0 24 24" fill="none" xmlns="http://www.w3.org/2000/svg">
<path fill-rule="evenodd" clip-rule="evenodd" d="M4.09448 11.3952C4.09448 7.57021 7.19521 4.46948 11.0202 4.46948C14.8451 4.46948 17.9458 7.57021 17.9458 11.3952C17.9458 15.2201 14.8451 18.3208 11.0202 18.3208C7.19521 18.3208 4.09448 15.2201 4.09448 11.3952ZM11.0202 2.96948C6.36679 2.96948 2.59448 6.74179 2.59448 11.3952C2.59448 16.0485 6.36679 19.8208 11.0202 19.8208C13.0768 19.8208 14.9613 19.084 16.4242 17.8598L19.125 20.5606C19.4179 20.8535 19.8927 20.8535 20.1856 20.5606C20.4785 20.2677 20.4785 19.7929 20.1856 19.5L17.4848 16.7992C18.709 15.3363 19.4458 13.4518 19.4458 11.3952C19.4458 6.74179 15.6735 2.96948 11.0202 2.96948Z" fill="white"/>
</svg>
