<?xml version="1.0" encoding="utf-8"?>
<!-- Generator: Adobe Illustrator 25.4.1, SVG Export Plug-In . SVG Version: 6.00 Build 0)  -->
<svg version="1.1" id="Layer_1" xmlns="http://www.w3.org/2000/svg" xmlns:xlink="http://www.w3.org/1999/xlink" x="0px" y="0px"
	 viewBox="0 0 24 24" style="enable-background:new 0 0 24 24;" xml:space="preserve">
<style type="text/css">
	.st0{fill-rule:evenodd;clip-rule:evenodd;fill:#FFFFFF;}
</style>
<path class="st0" d="M3.9,12c0-4.5,3.6-8.1,8.1-8.1c2.7,0,4.7,1.1,6,2.2c0.2,0.2,0.4,0.4,0.6,0.5V5.1c0-0.4,0.3-0.8,0.8-0.8
	c0.4,0,0.8,0.3,0.8,0.8v3.7c0,0.4-0.3,0.8-0.8,0.8h-3.3c-0.4,0-0.8-0.3-0.8-0.8c0-0.4,0.3-0.8,0.8-0.8h1.7c-0.2-0.2-0.5-0.5-0.8-0.7
	c-1.1-0.9-2.8-1.9-5-1.9c-3.7,0-6.6,2.9-6.6,6.6c0,3.6,2.9,6.6,6.6,6.6c3.6,0,6.6-2.9,6.6-6.6c0-0.4,0.3-0.8,0.8-0.8
	c0.4,0,0.8,0.3,0.8,0.8c0,4.5-3.6,8.1-8.1,8.1C7.5,20.1,3.9,16.5,3.9,12z"/>
</svg>
