<svg width="24" height="24" viewBox="0 0 24 24" fill="none" xmlns="http://www.w3.org/2000/svg">
<path fill-rule="evenodd" clip-rule="evenodd" d="M14.2929 9.29289C14.6834 8.90237 15.3166 8.90237 15.7071 9.29289C16.0676 9.65338 16.0953 10.2206 15.7903 10.6129L15.7071 10.7071L11.7071 14.7071C11.3466 15.0676 10.7794 15.0953 10.3871 14.7903L10.2929 14.7071L8.29289 12.7071C7.90237 12.3166 7.90237 11.6834 8.29289 11.2929C8.65338 10.9324 9.22061 10.9047 9.6129 11.2097L9.70711 11.2929L11 12.585L14.2929 9.29289Z" fill="white"/>
<path opacity="0.2" fill-rule="evenodd" clip-rule="evenodd" d="M12 2C6.47715 2 2 6.47715 2 12C2 17.5228 6.47715 22 12 22C17.5228 22 22 17.5228 22 12C22 6.47715 17.5228 2 12 2Z" fill="white"/>
</svg>
