<svg width="16" height="16" viewBox="0 0 16 16" fill="none" xmlns="http://www.w3.org/2000/svg">
<path d="M16 3.06727C15.4 3.33394 14.8 3.53394 14.1333 3.6006C14.8 3.2006 15.3333 2.53394 15.6 1.8006C14.9333 2.2006 14.2667 2.46727 13.5333 2.6006C12.9333 1.93394 12.0667 1.53394 11.1333 1.53394C9.33333 1.53394 7.86667 3.0006 7.86667 4.8006C7.86667 5.06727 7.86667 5.33394 7.93333 5.53394C5.13333 5.4006 2.73333 4.06727 1.13333 2.06727C0.8 2.6006 0.666667 3.13394 0.666667 3.73394C0.666667 4.86727 1.26667 5.86727 2.13333 6.46727C1.6 6.46727 1.06667 6.33394 0.666667 6.06727C0.666667 6.06727 0.666667 6.06727 0.666667 6.13394C0.666667 7.73394 1.8 9.06727 3.26667 9.33394C3 9.4006 2.73333 9.46727 2.4 9.46727C2.2 9.46727 2 9.46727 1.8 9.4006C2.2 10.7339 3.4 11.6673 4.86667 11.6673C3.73333 12.5339 2.33333 13.0673 0.8 13.0673C0.533333 13.0673 0.266667 13.0673 0 13.0006C1.46667 13.9339 3.2 14.4673 5 14.4673C11.0667 14.4673 14.3333 9.46727 14.3333 5.13394C14.3333 5.0006 14.3333 4.86727 14.3333 4.73394C15 4.26727 15.5333 3.66727 16 3.06727Z" fill="white"/>
</svg>
