<svg width="24" height="24" viewBox="0 0 24 24" fill="none" xmlns="http://www.w3.org/2000/svg">
<path fill-rule="evenodd" clip-rule="evenodd" d="M12.7494 1.99951C12.7494 1.5853 12.4136 1.24951 11.9994 1.24951C11.5852 1.24951 11.2494 1.5853 11.2494 1.99951V10.1889L9.52974 8.46918C9.23685 8.17629 8.76197 8.17629 8.46908 8.46918C8.17619 8.76207 8.17619 9.23695 8.46908 9.52984L11.4691 12.5298C11.762 12.8227 12.2368 12.8227 12.5297 12.5298L15.5297 9.52984C15.8226 9.23695 15.8226 8.76207 15.5297 8.46918C15.2368 8.17629 14.762 8.17629 14.4691 8.46918L12.7494 10.1889V1.99951ZM8.57837 3.24951L8.62251 3.24951H8.74941C9.16362 3.24951 9.49941 3.5853 9.49941 3.99951C9.49941 4.41373 9.16362 4.74951 8.74941 4.74951H8.62251C7.8543 4.74951 7.34436 4.75076 6.95636 4.79715C6.58839 4.84116 6.41523 4.9178 6.2917 5.01426C6.16816 5.11071 6.05181 5.26011 5.91987 5.60642C5.78076 5.97158 5.65587 6.46599 5.46955 7.21127L4.26065 12.0469C4.10501 12.6694 4.03723 12.9427 3.99128 13.2156L3.98565 13.2495H6.19693L6.30388 13.2495C6.91342 13.2489 7.39332 13.2485 7.83668 13.4035C8.10574 13.4975 8.35854 13.6328 8.58604 13.8046C8.9609 14.0875 9.22677 14.487 9.56446 14.9945L9.62374 15.0835C10.0499 15.7227 10.1717 15.8875 10.317 15.9972C10.4204 16.0753 10.5353 16.1368 10.6576 16.1795C10.8296 16.2396 11.0343 16.2495 11.8025 16.2495H12.1969C12.9651 16.2495 13.1699 16.2396 13.3418 16.1795C13.4641 16.1368 13.579 16.0753 13.6824 15.9972C13.8277 15.8875 13.9495 15.7227 14.3757 15.0835L14.4349 14.9945C14.7726 14.487 15.0385 14.0875 15.4134 13.8046C15.6409 13.6328 15.8937 13.4975 16.1627 13.4035C16.6061 13.2485 17.086 13.2489 17.6955 13.2495L17.8025 13.2495H20.0132L20.0075 13.2156C19.9616 12.9427 19.8938 12.6694 19.7382 12.0469L18.5293 7.21127C18.3429 6.466 18.2181 5.97158 18.0789 5.60642C17.947 5.26011 17.8307 5.11071 17.7071 5.01426C17.5836 4.9178 17.4104 4.84116 17.0425 4.79715C16.6545 4.75076 16.1445 4.74951 15.3763 4.74951H15.2494C14.8352 4.74951 14.4994 4.41373 14.4994 3.99951C14.4994 3.5853 14.8352 3.24951 15.2494 3.24951H15.3763L15.4204 3.24951C16.1328 3.24949 16.733 3.24947 17.2206 3.30777C17.7382 3.36966 18.2112 3.50481 18.6302 3.83195C19.0492 4.15909 19.2951 4.58526 19.4807 5.0724C19.6555 5.53125 19.801 6.11358 19.9738 6.80462L19.9845 6.84747L21.1934 11.6831L21.2017 11.7164C21.3468 12.2967 21.4299 12.629 21.4867 12.9665C21.5985 13.6304 21.6333 14.305 21.5904 14.9769C21.5686 15.3185 21.5202 15.6576 21.4356 16.2498L21.4307 16.2837L21.4119 16.4157C21.2433 17.5975 21.1355 18.3533 20.8467 18.982C20.2753 20.2262 19.1948 21.1633 17.8824 21.553C17.2191 21.75 16.4557 21.7498 15.2619 21.7495L15.1286 21.7495H8.87023L8.73694 21.7495C7.5431 21.7498 6.77972 21.75 6.11643 21.553C4.80398 21.1633 3.72352 20.2262 3.1521 18.982C2.86331 18.3533 2.75552 17.5975 2.58694 16.4156L2.56811 16.2837L2.56325 16.2497C2.47865 15.6576 2.4302 15.3185 2.4084 14.9769C2.36551 14.305 2.40031 13.6304 2.5121 12.9665C2.56894 12.629 2.65203 12.2966 2.79712 11.7163L2.80544 11.6831L4.01434 6.84747L4.02504 6.80464C4.19778 6.11359 4.34334 5.53125 4.51815 5.0724C4.70374 4.58526 4.94959 4.15908 5.36858 3.83195C5.78757 3.50481 6.26064 3.36966 6.77826 3.30777C7.2658 3.24947 7.86606 3.24949 8.57837 3.24951ZM3.90535 14.8813C3.90255 14.8374 3.90014 14.7935 3.89814 14.7495H6.19693C6.96514 14.7495 7.16986 14.7594 7.34176 14.8195C7.46406 14.8623 7.57898 14.9238 7.68238 15.0018C7.82773 15.1115 7.94954 15.2763 8.37567 15.9155L8.43494 16.0046C8.77264 16.512 9.0385 16.9115 9.41337 17.1945C9.64086 17.3662 9.89367 17.5015 10.1627 17.5955C10.6061 17.7505 11.086 17.7501 11.6955 17.7496L11.8025 17.7495H12.1969L12.3039 17.7496C12.9134 17.7501 13.3933 17.7505 13.8367 17.5955C14.1057 17.5015 14.3585 17.3662 14.586 17.1945C14.9609 16.9115 15.2268 16.512 15.5645 16.0046L15.6237 15.9155C16.0499 15.2763 16.1717 15.1115 16.317 15.0018C16.4204 14.9238 16.5353 14.8623 16.6576 14.8195C16.8296 14.7594 17.0343 14.7495 17.8025 14.7495H20.1007C20.0987 14.7935 20.0963 14.8374 20.0935 14.8813C20.0758 15.1575 20.0365 15.4363 19.9458 16.0716C19.7516 17.4308 19.6695 17.9512 19.4836 18.356C19.0926 19.2072 18.3534 19.8484 17.4554 20.115C17.0284 20.2418 16.5017 20.2495 15.1286 20.2495H8.87023C7.49716 20.2495 6.97039 20.2418 6.54343 20.115C5.64544 19.8484 4.90618 19.2072 4.5152 18.356C4.32931 17.9512 4.24721 17.4308 4.05303 16.0716C3.96228 15.4363 3.92298 15.1575 3.90535 14.8813Z" fill="#415067"/>
</svg>
