<?xml version="1.0" encoding="utf-8"?>
<!-- Generator: Adobe Illustrator 25.4.1, SVG Export Plug-In . SVG Version: 6.00 Build 0)  -->
<svg version="1.1" id="Layer_1" xmlns="http://www.w3.org/2000/svg" xmlns:xlink="http://www.w3.org/1999/xlink" x="0px" y="0px"
	 viewBox="0 0 24 24" style="enable-background:new 0 0 24 24;" xml:space="preserve">
<style type="text/css">
	.st0{fill-rule:evenodd;clip-rule:evenodd;fill:#FFFFFF;}
</style>
<path class="st0" d="M10.4,2.2L10.4,2.2h3.2h0c0.3,0,0.6,0,0.9,0c0.3,0,0.6,0.1,0.8,0.3c0.3,0.2,0.4,0.5,0.6,0.7
	c0.1,0.2,0.2,0.5,0.3,0.8v0v0l0,0l0.4,1.1H19h2c0.4,0,0.8,0.3,0.8,0.8S21.4,6.8,21,6.8h-1.3l-0.6,8.7l0,0.1
	c-0.1,1.3-0.2,2.3-0.3,3.1c-0.2,0.8-0.5,1.6-1,2.1c-0.6,0.6-1.3,0.8-2.2,0.9c-0.8,0.1-1.9,0.1-3.1,0.1h-0.1h-0.8h-0.1
	c-1.3,0-2.3,0-3.1-0.1c-0.9-0.1-1.6-0.4-2.2-0.9c-0.6-0.6-0.9-1.3-1-2.1C5,17.8,5,16.8,4.9,15.5l0-0.1L4.3,6.8H3
	C2.6,6.8,2.2,6.4,2.2,6S2.6,5.2,3,5.2h2h2.5l0.4-1.1l0,0l0,0C7.9,3.8,8,3.5,8.1,3.3C8.3,3,8.4,2.8,8.7,2.6C9,2.4,9.3,2.3,9.5,2.3
	C9.8,2.2,10.1,2.2,10.4,2.2z M9,5.2H15l-0.2-0.6c-0.1-0.3-0.2-0.5-0.2-0.7c0-0.1,0-0.1-0.1-0.1c0,0,0,0,0,0l0,0l0,0c0,0,0,0,0,0
	c0,0-0.1,0-0.1,0c-0.2,0-0.4,0-0.7,0h-3.1c-0.4,0-0.6,0-0.7,0c-0.1,0-0.1,0-0.1,0c0,0,0,0,0,0l0,0l0,0c0,0,0,0,0,0c0,0,0,0-0.1,0.1
	C9.4,4.1,9.4,4.3,9.3,4.6L9,5.2z M5.8,6.8l0.6,8.6c0.1,1.3,0.2,2.3,0.3,3c0.1,0.7,0.3,1,0.6,1.3c0.3,0.3,0.6,0.4,1.3,0.5
	c0.7,0.1,1.7,0.1,3,0.1h0.8c1.4,0,2.3,0,3-0.1c0.7-0.1,1.1-0.3,1.3-0.5c0.3-0.3,0.5-0.6,0.6-1.3c0.1-0.7,0.2-1.6,0.3-3l0.6-8.6H16H8
	H5.8z M10,9.2c0.4,0,0.8,0.3,0.8,0.8v7c0,0.4-0.3,0.8-0.8,0.8c-0.4,0-0.8-0.3-0.8-0.8v-7C9.2,9.6,9.6,9.2,10,9.2z M14.8,10
	c0-0.4-0.3-0.8-0.8-0.8s-0.8,0.3-0.8,0.8v4c0,0.4,0.3,0.8,0.8,0.8s0.8-0.3,0.8-0.8V10z"/>
</svg>
