<?xml version="1.0" encoding="utf-8"?>
<!-- Generator: Adobe Illustrator 25.4.1, SVG Export Plug-In . SVG Version: 6.00 Build 0)  -->
<svg version="1.1" id="Layer_1" xmlns="http://www.w3.org/2000/svg" xmlns:xlink="http://www.w3.org/1999/xlink" x="0px" y="0px"
	 viewBox="0 0 20 20" style="enable-background:new 0 0 20 20;" xml:space="preserve">
<style type="text/css">
	.st0{fill-rule:evenodd;clip-rule:evenodd;fill:#FFFFFF;}
</style>
<path class="st0" d="M6.7,1L6.7,1C5.5,1,4.6,1,3.8,1.1C3.1,1.2,2.5,1.5,2,2S1.2,3.1,1.1,3.8C1,4.6,1,5.5,1,6.6v0v1.7v0
	c0,1.1,0,2.1,0.1,2.8C1.2,11.9,1.5,12.5,2,13c0.5,0.5,1.1,0.7,1.9,0.8C4.4,13.9,5.2,14,6,14c0,0.9,0,1.6,0.1,2.2
	c0.1,0.7,0.3,1.3,0.7,1.8C6.9,18,7,18.1,7.1,18.1c0.5,0.5,1.1,0.6,1.8,0.7C9.5,19,10.4,19,11.5,19h0h1.8h0c1.1,0,2.1,0,2.8-0.1
	c0.8-0.1,1.4-0.3,1.9-0.8s0.7-1.1,0.8-1.9c0.1-0.7,0.1-1.6,0.1-2.8v0v0v-1.8v0c0-1.1,0-1.9-0.1-2.6c-0.1-0.7-0.3-1.3-0.7-1.8
	C18.1,7,18,6.9,17.9,6.9c-0.5-0.5-1.1-0.6-1.8-0.7C15.6,6.1,14.8,6,14,6c0-0.9,0-1.6-0.1-2.2C13.8,3.1,13.5,2.5,13,2
	c-0.5-0.5-1.1-0.7-1.9-0.8C10.4,1,9.5,1,8.4,1h0H6.7z M14,7.3v1v0v0c0,1.1,0,2.1-0.1,2.8c-0.1,0.8-0.3,1.4-0.8,1.9
	c-0.5,0.5-1.1,0.7-1.9,0.8C10.4,14,9.5,14,8.4,14h0h0h-1c0,0.9,0,1.5,0.1,2c0.1,0.6,0.2,0.9,0.4,1.1c0,0,0.1,0.1,0.1,0.1
	c0.2,0.2,0.5,0.3,1.1,0.4c0.6,0.1,1.4,0.1,2.5,0.1h1.8c1.2,0,2,0,2.7-0.1c0.6-0.1,0.9-0.2,1.2-0.5c0.2-0.2,0.4-0.6,0.5-1.2
	c0.1-0.6,0.1-1.5,0.1-2.7v-1.8c0-1.1,0-1.9-0.1-2.5c-0.1-0.6-0.2-0.9-0.4-1.1c0,0-0.1-0.1-0.1-0.1c-0.2-0.2-0.5-0.3-1.1-0.4
	C15.5,7.3,14.8,7.3,14,7.3z M2.8,2.8C3.1,2.6,3.4,2.5,4,2.4c0.6-0.1,1.5-0.1,2.7-0.1h1.7c1.2,0,2,0,2.7,0.1c0.6,0.1,0.9,0.2,1.2,0.5
	c0.2,0.2,0.4,0.6,0.5,1.2c0.1,0.6,0.1,1.5,0.1,2.7v1.7c0,1.2,0,2-0.1,2.7c-0.1,0.6-0.2,0.9-0.5,1.2c-0.2,0.2-0.6,0.4-1.2,0.5
	c-0.6,0.1-1.5,0.1-2.7,0.1H6.7c-1.2,0-2,0-2.7-0.1c-0.6-0.1-0.9-0.2-1.2-0.5c-0.2-0.2-0.4-0.6-0.5-1.2c-0.1-0.6-0.1-1.5-0.1-2.7V6.7
	c0-1.2,0-2,0.1-2.7C2.5,3.4,2.6,3.1,2.8,2.8z"/>
</svg>
