<svg width="16" height="16" viewBox="0 0 16 16" fill="none" xmlns="http://www.w3.org/2000/svg">
<path fill-rule="evenodd" clip-rule="evenodd" d="M3.99995 1.49979L3.92275 1.49977C3.37745 1.49959 3.00534 1.49947 2.68624 1.58497C1.82351 1.81614 1.14964 2.49001 0.91847 3.35274C0.832966 3.67185 0.833088 4.04395 0.833268 4.58926L0.833285 4.66646V9.33312L0.833285 9.3697C0.833271 10.2814 0.83326 11.0163 0.910967 11.5943C0.991644 12.1944 1.16424 12.6996 1.56552 13.1009C1.9668 13.5022 2.47205 13.6748 3.07212 13.7554C3.31242 13.7877 3.57984 13.8066 3.87582 13.8176C3.91597 13.8279 3.95763 13.8333 3.99991 13.8333H10.7207H10.753C10.8594 13.8333 10.963 13.8333 11.0638 13.8331H12C12.0495 13.8331 12.0974 13.8259 12.1427 13.8125C12.3119 13.8036 12.4698 13.7909 12.6167 13.7729C13.1294 13.7099 13.5681 13.5758 13.9453 13.2666C14.3224 12.9574 14.54 12.5536 14.7023 12.0632C14.858 11.5925 14.9784 10.9902 15.127 10.2475L15.127 10.2475L15.1333 10.2158L15.1856 9.95432L15.1932 9.9165C15.3343 9.21084 15.4508 8.62841 15.4766 8.16266C15.5036 7.67495 15.4382 7.22015 15.1246 6.83764C14.811 6.45512 14.3779 6.30186 13.8944 6.23266C13.8739 6.22974 13.8532 6.22694 13.8322 6.22427C13.8286 5.86801 13.813 5.59501 13.7481 5.35259C13.5169 4.48998 12.8431 3.81621 11.9805 3.58502C11.6613 3.49947 11.2891 3.49959 10.7437 3.49977L10.6665 3.49979H8.7475C8.14243 3.49979 7.93648 3.49533 7.75052 3.44233C7.63979 3.41077 7.53306 3.36656 7.43244 3.31057C7.26347 3.21657 7.11468 3.07408 6.68684 2.64624L6.51527 2.47466L6.48746 2.44685C6.27557 2.23487 6.12907 2.08831 5.96301 1.96908C5.6502 1.74446 5.28973 1.59515 4.90972 1.53279C4.70798 1.49968 4.50076 1.49972 4.20103 1.49978L4.16171 1.49979H3.99995ZM12.8309 6.16947C12.8265 5.87743 12.8144 5.73181 12.7821 5.61147C12.6434 5.0939 12.2392 4.68964 11.7216 4.55092C11.5468 4.50409 11.3188 4.49979 10.6665 4.49979H8.7475L8.68034 4.4998C8.16823 4.49998 7.81345 4.5001 7.4764 4.40402C7.29184 4.35142 7.11395 4.27773 6.94625 4.18443C6.63998 4.01403 6.3892 3.76308 6.02721 3.40084L5.97973 3.35334L5.80816 3.18177C5.55803 2.93164 5.47136 2.84714 5.37975 2.78136C5.19206 2.64659 4.97578 2.55701 4.74778 2.51959C4.63648 2.50132 4.51545 2.49979 4.16171 2.49979H3.99995C3.34778 2.49979 3.11978 2.50408 2.94506 2.5509C2.42742 2.6896 2.0231 3.09392 1.8844 3.61156C1.83758 3.78628 1.83328 4.01428 1.83328 4.66646V9.33312C1.83328 10.2901 1.83435 10.9575 1.90205 11.461C1.96782 11.9502 2.08812 12.2093 2.27262 12.3938C2.45713 12.5783 2.71618 12.6986 3.20536 12.7644C3.32571 12.7805 3.45541 12.7929 3.59619 12.8024L4.19985 9.7841L4.20617 9.75246C4.35471 9.00971 4.47516 8.40742 4.6309 7.93674C4.79318 7.44632 5.01071 7.04247 5.38788 6.73326C5.76505 6.42406 6.20372 6.28995 6.71644 6.22701C7.20853 6.1666 7.82273 6.16661 8.58018 6.16662H8.58019L8.61246 6.16662H12.0804L12.119 6.16662C12.3719 6.16661 12.6093 6.1666 12.8309 6.16947ZM11.0243 12.8331H9.99995H5.33328C5.07142 12.8331 4.83124 12.833 4.61016 12.8315L5.18043 9.98021C5.33682 9.19825 5.44607 8.6565 5.58028 8.25088C5.71017 7.85834 5.84608 7.65072 6.02187 7.5066C6.19766 7.36249 6.4279 7.26994 6.83829 7.21956C7.26235 7.1675 7.81501 7.16662 8.61246 7.16662H12.0804C12.8484 7.16662 13.3702 7.16783 13.7527 7.22258C14.1217 7.27538 14.2648 7.36613 14.3513 7.47163C14.4378 7.57713 14.4987 7.73527 14.4781 8.10744C14.4568 8.49327 14.3556 9.00515 14.205 9.7582L14.1527 10.0197C13.9963 10.8017 13.8871 11.3434 13.7529 11.749C13.623 12.1416 13.4871 12.3492 13.3113 12.4933C13.1355 12.6374 12.9053 12.73 12.4949 12.7803C12.1268 12.8255 11.662 12.8322 11.0243 12.8331Z" fill="white" fill-opacity="0.5"/>
</svg>
