<?xml version="1.0" encoding="utf-8"?>
<!-- Generator: Adobe Illustrator 25.4.1, SVG Export Plug-In . SVG Version: 6.00 Build 0)  -->
<svg version="1.1" id="Layer_1" xmlns="http://www.w3.org/2000/svg" xmlns:xlink="http://www.w3.org/1999/xlink" x="0px" y="0px"
	 viewBox="0 0 24 24" style="enable-background:new 0 0 24 24;" xml:space="preserve">
<style type="text/css">
	.st0{fill-rule:evenodd;clip-rule:evenodd;fill:#FFFFFF;}
</style>
<path class="st0" d="M14.5,4.5c0.3-0.3,0.8-0.3,1.1,0l5,5c0.3,0.3,0.3,0.8,0,1.1l-5,5c-0.3,0.3-0.8,0.3-1.1,0s-0.3-0.8,0-1.1
	l3.7-3.7H11c-1.4,0-2.4,0-3.2,0.1c-0.8,0.1-1.2,0.2-1.6,0.5c-0.4,0.2-0.7,0.5-0.9,0.9c-0.2,0.4-0.4,0.8-0.5,1.6
	c-0.1,0.8-0.1,1.8-0.1,3.2H3.2v0c0-1.4,0-2.5,0.1-3.3c0.1-0.9,0.3-1.6,0.7-2.3c0.3-0.5,0.8-1,1.3-1.3C6,9.6,6.8,9.4,7.6,9.3
	c0.9-0.1,2-0.1,3.3-0.1h0h7.2l-3.7-3.7C14.2,5.2,14.2,4.8,14.5,4.5z"/>
</svg>
