<svg width="24" height="24" viewBox="0 0 24 24" fill="none" xmlns="http://www.w3.org/2000/svg">
<path d="M15.6981 9.4895C15.6981 9.90372 16.0339 10.2395 16.4481 10.2395C16.8623 10.2395 17.1981 9.90372 17.1981 9.4895H15.6981ZM16.4481 7.39327H17.1982L17.198 7.38404L16.4481 7.39327ZM11.9445 2.99986L11.9352 2.24991L11.935 2.24992L11.9445 2.99986ZM7.55105 7.37376L6.80105 7.36099V7.37376H7.55105ZM6.80105 9.4895C6.80105 9.90372 7.13683 10.2395 7.55105 10.2395C7.96526 10.2395 8.30105 9.90372 8.30105 9.4895H6.80105ZM12.7506 14.1257C12.7506 13.7115 12.4148 13.3757 12.0006 13.3757C11.5864 13.3757 11.2506 13.7115 11.2506 14.1257H12.7506ZM11.2506 16.2922C11.2506 16.7064 11.5864 17.0422 12.0006 17.0422C12.4148 17.0422 12.7506 16.7064 12.7506 16.2922H11.2506ZM17.1981 9.4895V7.39327H15.6981V9.4895H17.1981ZM17.198 7.38404C17.1627 4.51244 14.8053 2.21458 11.9352 2.24991L11.9537 3.7498C13.9959 3.72466 15.673 5.35979 15.6982 7.4025L17.198 7.38404ZM11.935 2.24992C9.12297 2.28525 6.84903 4.55013 6.80116 7.36099L8.30094 7.38653C8.335 5.38649 9.9531 3.77494 11.9539 3.7498L11.935 2.24992ZM6.80105 7.37376V9.4895H8.30105V7.37376H6.80105ZM15.7265 20.2495H8.27311V21.7495H15.7265V20.2495ZM8.27311 20.2495C6.64474 20.2495 5.32422 18.929 5.32422 17.3006H3.82422C3.82422 19.7574 5.81631 21.7495 8.27311 21.7495V20.2495ZM5.32422 17.3006V13.1169H3.82422V17.3006H5.32422ZM5.32422 13.1169C5.32422 11.4886 6.64474 10.168 8.27311 10.168V8.66803C5.81631 8.66803 3.82422 10.6601 3.82422 13.1169H5.32422ZM8.27311 10.168H15.7265V8.66803H8.27311V10.168ZM15.7265 10.168C17.3549 10.168 18.6754 11.4886 18.6754 13.1169H20.1754C20.1754 10.6601 18.1833 8.66803 15.7265 8.66803V10.168ZM18.6754 13.1169V17.3006H20.1754V13.1169H18.6754ZM18.6754 17.3006C18.6754 18.929 17.3549 20.2495 15.7265 20.2495V21.7495C18.1833 21.7495 20.1754 19.7574 20.1754 17.3006H18.6754ZM11.2506 14.1257V16.2922H12.7506V14.1257H11.2506Z" fill="#415067"/>
</svg>
