<svg width="16" height="16" viewBox="0 0 16 16" fill="none" xmlns="http://www.w3.org/2000/svg">
<g opacity="0.6">
<path fill-rule="evenodd" clip-rule="evenodd" d="M11.4178 2.69661C10.5717 1.85048 9.19981 1.85048 8.35367 2.69661L3.63963 7.41066C2.27279 8.77749 2.27279 10.9936 3.63963 12.3604C5.00646 13.7272 7.22254 13.7272 8.58937 12.3604L13.7748 7.17496C13.9701 6.97969 14.2867 6.97969 14.4819 7.17496C14.6772 7.37022 14.6772 7.6868 14.4819 7.88206L9.29648 13.0675C7.53912 14.8249 4.68988 14.8249 2.93252 13.0675C1.17516 11.3102 1.17516 8.46091 2.93252 6.70355L7.64657 1.98951C8.88323 0.752845 10.8882 0.752848 12.1249 1.98951C13.3616 3.22617 13.3616 5.23119 12.1249 6.46785L7.41087 11.1819C6.6949 11.8979 5.5341 11.8979 4.81814 11.1819C4.10218 10.4659 4.10218 9.30513 4.81814 8.58917L9.53218 3.87513C9.72745 3.67986 10.044 3.67986 10.2393 3.87513C10.4346 4.07039 10.4346 4.38697 10.2393 4.58223L5.52525 9.29628C5.19981 9.62171 5.19981 10.1494 5.52525 10.4748C5.85068 10.8002 6.37832 10.8002 6.70376 10.4748L11.4178 5.76074C12.2639 4.91461 12.2639 3.54275 11.4178 2.69661Z" fill="#080D13"/>
</g>
</svg>
