<svg width="16" height="13" viewBox="0 0 16 13" fill="none" xmlns="http://www.w3.org/2000/svg">
<path fill-rule="evenodd" clip-rule="evenodd" d="M3.99995 0.499789L3.92275 0.499772C3.37745 0.499592 3.00534 0.49947 2.68624 0.584974C1.82351 0.816142 1.14964 1.49001 0.91847 2.35274C0.832966 2.67185 0.833088 3.04395 0.833268 3.58926L0.833285 3.66646V8.33312L0.833285 8.3697C0.833271 9.28143 0.83326 10.0163 0.910967 10.5943C0.991644 11.1944 1.16424 11.6996 1.56552 12.1009C1.9668 12.5022 2.47205 12.6748 3.07212 12.7554C3.31242 12.7877 3.57984 12.8066 3.87582 12.8176C3.91597 12.8279 3.95763 12.8333 3.99991 12.8333H10.7207H10.753C10.8594 12.8333 10.963 12.8333 11.0638 12.8331H12C12.0495 12.8331 12.0974 12.8259 12.1427 12.8125C12.3119 12.8036 12.4698 12.7909 12.6167 12.7729C13.1294 12.7099 13.5681 12.5758 13.9453 12.2666C14.3224 11.9574 14.54 11.5536 14.7023 11.0632C14.858 10.5925 14.9784 9.99024 15.127 9.24752L15.127 9.24745L15.1333 9.21581L15.1856 8.95432L15.1932 8.9165C15.3343 8.21084 15.4508 7.62841 15.4766 7.16266C15.5036 6.67495 15.4382 6.22015 15.1246 5.83764C14.811 5.45512 14.3779 5.30186 13.8944 5.23266C13.8739 5.22974 13.8532 5.22694 13.8322 5.22427C13.8286 4.86801 13.813 4.59501 13.7481 4.35259C13.5169 3.48998 12.8431 2.81621 11.9805 2.58502C11.6613 2.49947 11.2891 2.49959 10.7437 2.49977L10.6665 2.49979H8.7475C8.14243 2.49979 7.93648 2.49533 7.75052 2.44233C7.63979 2.41077 7.53306 2.36656 7.43244 2.31057C7.26347 2.21657 7.11468 2.07408 6.68684 1.64624L6.51527 1.47466L6.48746 1.44685C6.27557 1.23487 6.12907 1.08831 5.96301 0.969076C5.6502 0.744465 5.28973 0.595154 4.90972 0.532789C4.70798 0.499682 4.50076 0.499724 4.20103 0.499784L4.16171 0.499789H3.99995ZM12.8309 5.16947C12.8265 4.87743 12.8144 4.73181 12.7821 4.61147C12.6434 4.0939 12.2392 3.68964 11.7216 3.55092C11.5468 3.50409 11.3188 3.49979 10.6665 3.49979H8.7475L8.68034 3.4998C8.16823 3.49998 7.81345 3.5001 7.4764 3.40402C7.29184 3.35142 7.11395 3.27773 6.94625 3.18443C6.63998 3.01403 6.3892 2.76308 6.02721 2.40084L5.97973 2.35334L5.80816 2.18177C5.55803 1.93164 5.47136 1.84714 5.37975 1.78136C5.19206 1.64659 4.97578 1.55701 4.74778 1.51959C4.63648 1.50132 4.51545 1.49979 4.16171 1.49979H3.99995C3.34778 1.49979 3.11978 1.50408 2.94506 1.5509C2.42742 1.6896 2.0231 2.09392 1.8844 2.61156C1.83758 2.78628 1.83328 3.01428 1.83328 3.66646V8.33312C1.83328 9.29006 1.83435 9.95747 1.90205 10.461C1.96782 10.9502 2.08812 11.2093 2.27262 11.3938C2.45713 11.5783 2.71618 11.6986 3.20536 11.7644C3.32571 11.7805 3.45541 11.7929 3.59619 11.8024L4.19985 8.7841L4.20617 8.75246C4.35471 8.00971 4.47516 7.40742 4.6309 6.93674C4.79318 6.44632 5.01071 6.04247 5.38788 5.73326C5.76505 5.42406 6.20372 5.28995 6.71644 5.22701C7.20853 5.1666 7.82273 5.16661 8.58018 5.16662H8.58019L8.61246 5.16662H12.0804L12.119 5.16662C12.3719 5.16661 12.6093 5.1666 12.8309 5.16947ZM11.0243 11.8331H9.99995H5.33328C5.07142 11.8331 4.83124 11.833 4.61016 11.8315L5.18043 8.98021C5.33682 8.19825 5.44607 7.6565 5.58028 7.25088C5.71017 6.85834 5.84608 6.65072 6.02187 6.5066C6.19766 6.36249 6.4279 6.26994 6.83829 6.21956C7.26235 6.1675 7.81501 6.16662 8.61246 6.16662H12.0804C12.8484 6.16662 13.3702 6.16783 13.7527 6.22258C14.1217 6.27538 14.2648 6.36613 14.3513 6.47163C14.4378 6.57713 14.4987 6.73527 14.4781 7.10744C14.4568 7.49327 14.3556 8.00515 14.205 8.7582L14.1527 9.01969C13.9963 9.80165 13.8871 10.3434 13.7529 10.749C13.623 11.1416 13.4871 11.3492 13.3113 11.4933C13.1355 11.6374 12.9053 11.73 12.4949 11.7803C12.1268 11.8255 11.662 11.8322 11.0243 11.8331Z" fill="#415067" fill-opacity="0.5"/>
</svg>
