<svg width="24" height="24" viewBox="0 0 24 24" fill="none" xmlns="http://www.w3.org/2000/svg">
<path d="M13.2727 12.0912C13.2727 11.1874 12.5401 10.4548 11.6364 10.4548C10.7326 10.4548 10 11.1874 10 12.0912C10 12.9949 10.7326 13.7275 11.6364 13.7275C12.5401 13.7275 13.2727 12.9949 13.2727 12.0912Z" fill="#2277F6"/>
<path d="M13.2727 18.3636C13.2727 17.4599 12.5401 16.7273 11.6364 16.7273C10.7326 16.7273 10 17.4599 10 18.3636C10 19.2674 10.7326 20 11.6364 20C12.5401 20 13.2727 19.2674 13.2727 18.3636Z" fill="#2277F6"/>
<path d="M13.2727 5.81823C13.2727 4.91449 12.5401 4.18186 11.6364 4.18186C10.7326 4.18186 10 4.91449 10 5.81823C10 6.72196 10.7326 7.45459 11.6364 7.45459C12.5401 7.45459 13.2727 6.72196 13.2727 5.81823Z" fill="#2277F6"/>
</svg>
