<svg width="24" height="24" viewBox="0 0 24 24" fill="none" xmlns="http://www.w3.org/2000/svg">
<path fill-rule="evenodd" clip-rule="evenodd" d="M3.91235 12C3.91235 7.53492 7.50772 3.91235 12 3.91235C14.6685 3.91235 16.6669 5.02737 17.9834 6.12442C18.2032 6.30757 18.4046 6.49068 18.5877 6.66874V5.07C18.5877 4.65579 18.9234 4.32 19.3377 4.32C19.7519 4.32 20.0877 4.65579 20.0877 5.07V8.73883C20.0877 9.15304 19.7519 9.48883 19.3377 9.48883H16.0765C15.6623 9.48883 15.3265 9.15304 15.3265 8.73883C15.3265 8.32461 15.6623 7.98882 16.0765 7.98882H17.7843C17.5682 7.76236 17.3144 7.51952 17.0231 7.27676C15.8937 6.33557 14.2233 5.41235 12 5.41235C8.33934 5.41235 5.41235 8.36014 5.41235 12C5.41235 15.6383 8.36174 18.5877 12 18.5877C15.6383 18.5877 18.5877 15.6383 18.5877 12C18.5877 11.5858 18.9234 11.25 19.3377 11.25C19.7519 11.25 20.0877 11.5858 20.0877 12C20.0877 16.4667 16.4667 20.0877 12 20.0877C7.53332 20.0877 3.91235 16.4667 3.91235 12Z" fill="#22282F"/>
</svg>
