<svg width="24" height="24" viewBox="0 0 24 24" fill="none" xmlns="http://www.w3.org/2000/svg">
<path d="M16.3493 3.6665H9.46598C9.13264 3.6665 8.81595 3.78317 8.55762 3.98317L6.73262 5.44151C5.99928 6.02484 5.99928 7.13316 6.73262 7.71649L8.55762 9.17482C8.81595 9.38316 9.14098 9.4915 9.46598 9.4915H16.3493C17.1576 9.4915 17.8076 8.8415 17.8076 8.03316V5.1165C17.8076 4.3165 17.1576 3.6665 16.3493 3.6665Z" stroke="#68A353" stroke-width="1.25" stroke-linecap="round" stroke-linejoin="round"/>
<path d="M7.66634 12H14.5497C14.883 12 15.1997 12.1167 15.458 12.3167L17.283 13.775C18.0164 14.3583 18.0164 15.4667 17.283 16.05L15.458 17.5083C15.1997 17.7167 14.8747 17.825 14.5497 17.825H7.66634C6.85801 17.825 6.20801 17.175 6.20801 16.3667V13.45C6.20801 12.65 6.85801 12 7.66634 12Z" stroke="#68A353" stroke-width="1.25" stroke-linecap="round" stroke-linejoin="round"/>
<path d="M12 12V9.5" stroke="#68A353" stroke-width="1.25" stroke-linecap="round" stroke-linejoin="round"/>
<path d="M12 20.3335V17.8335" stroke="#68A353" stroke-width="1.25" stroke-linecap="round" stroke-linejoin="round"/>
<path d="M9.5 20.3335H14.5" stroke="#68A353" stroke-width="1.25" stroke-linecap="round" stroke-linejoin="round"/>
</svg>
