<svg width="16" height="16" viewBox="0 0 16 16" fill="none" xmlns="http://www.w3.org/2000/svg">
<g opacity="0.1">
<path fill-rule="evenodd" clip-rule="evenodd" d="M8.6734 1.00299C8.54739 0.746078 8.28618 0.583252 8.00003 0.583252C7.71387 0.583252 7.45266 0.746077 7.32665 1.00299L5.50041 4.72653L1.89079 5.25792C1.61006 5.29924 1.37669 5.49546 1.28778 5.76493C1.19888 6.0344 1.26966 6.33096 1.47068 6.53123L4.17678 9.22729L3.26863 13.2273C3.20408 13.5116 3.31017 13.8076 3.54064 13.9862C3.77112 14.1648 4.08421 14.1936 4.34342 14.0601L8.00002 12.1769L11.6566 14.0601C11.9158 14.1936 12.2289 14.1648 12.4594 13.9862C12.6899 13.8076 12.796 13.5116 12.7314 13.2273L11.8233 9.22729L14.5294 6.53123C14.7304 6.33096 14.8012 6.0344 14.7123 5.76493C14.6234 5.49546 14.39 5.29924 14.1093 5.25792L10.4996 4.72653L8.6734 1.00299Z" fill="#080D13"/>
</g>
</svg>
