<?xml version="1.0" encoding="utf-8"?>
<!-- Generator: Adobe Illustrator 25.4.1, SVG Export Plug-In . SVG Version: 6.00 Build 0)  -->
<svg version="1.1" id="Layer_1" xmlns="http://www.w3.org/2000/svg" xmlns:xlink="http://www.w3.org/1999/xlink" x="0px" y="0px"
	 viewBox="0 0 20 20" style="enable-background:new 0 0 20 20;" xml:space="preserve">
<style type="text/css">
	.st0{clip-path:url(#SVGID_00000171694147773835590290000011209371332963138489_);}
	.st1{fill-rule:evenodd;clip-rule:evenodd;fill:#FFFFFF;}
</style>
<g>
	<defs>
		<rect id="SVGID_1_" width="20" height="20"/>
	</defs>
	<clipPath id="SVGID_00000033368200444132218130000003891686125415286158_">
		<use xlink:href="#SVGID_1_"  style="overflow:visible;"/>
	</clipPath>
	<g style="clip-path:url(#SVGID_00000033368200444132218130000003891686125415286158_);">
		<path class="st1" d="M6.7,1L6.7,1c-0.8,0-1.4,0-1.9,0c-0.5,0-0.9,0.1-1.3,0.4C3,1.7,2.6,2.1,2.3,2.6C2.1,3,2,3.4,1.9,4
			c0,0.5,0,1.1,0,1.9l0,0v0v8.3v0l0,0c0,0.8,0,1.4,0,1.9c0,0.5,0.1,0.9,0.4,1.3c0.3,0.5,0.7,0.9,1.1,1.1c0.4,0.2,0.8,0.3,1.3,0.4
			c0.5,0,1.1,0,1.9,0h0h0c0.8,0,1.4,0,1.9,0c0.5,0,0.9-0.1,1.3-0.4c0.5-0.3,0.9-0.7,1.1-1.1c0.2-0.4,0.3-0.8,0.4-1.3
			c0-0.5,0-1.1,0-1.9l0,0v0v-0.8c0-0.3-0.3-0.6-0.6-0.6c-0.3,0-0.6,0.3-0.6,0.6v0.8c0,0.8,0,1.3,0,1.8c0,0.4-0.1,0.7-0.2,0.8
			c-0.2,0.3-0.4,0.5-0.7,0.7c-0.2,0.1-0.4,0.2-0.8,0.2c-0.4,0-1,0-1.8,0s-1.3,0-1.8,0c-0.4,0-0.7-0.1-0.8-0.2
			c-0.3-0.2-0.5-0.4-0.7-0.7c-0.1-0.2-0.2-0.4-0.2-0.8c0-0.4,0-1,0-1.8V5.8c0-0.8,0-1.3,0-1.8c0-0.4,0.1-0.7,0.2-0.8
			c0.2-0.3,0.4-0.5,0.7-0.7c0.2-0.1,0.4-0.2,0.8-0.2c0.4,0,1,0,1.8,0s1.3,0,1.8,0c0.4,0,0.7,0.1,0.8,0.2C9.6,2.7,9.8,2.9,10,3.2
			c0.1,0.2,0.2,0.4,0.2,0.8c0,0.4,0,1,0,1.8v0.8c0,0.3,0.3,0.6,0.6,0.6c0.3,0,0.6-0.3,0.6-0.6V5.8v0v0c0-0.8,0-1.4,0-1.9
			c0-0.5-0.1-0.9-0.4-1.3c-0.3-0.5-0.7-0.9-1.1-1.1C9.5,1.2,9.1,1.1,8.5,1.1C8.1,1,7.5,1,6.7,1L6.7,1z M14.6,6.2
			C14.4,6,14,6,13.7,6.2c-0.2,0.2-0.2,0.6,0,0.9L16,9.4H6.7C6.3,9.4,6,9.7,6,10c0,0.3,0.3,0.6,0.6,0.6H16l-2.3,2.3
			c-0.2,0.2-0.2,0.6,0,0.9c0.2,0.2,0.6,0.2,0.9,0l3.3-3.3c0.2-0.2,0.2-0.6,0-0.9L14.6,6.2z"/>
	</g>
</g>
</svg>
