<svg width="32" height="32" viewBox="0 0 32 32" fill="none" xmlns="http://www.w3.org/2000/svg">
<path d="M7.46376 8.14148L7.47222 9.14144C8.02118 9.1368 8.46376 8.69046 8.46376 8.14148H7.46376ZM6.05707 14.8223L5.64504 15.7335C5.65692 15.7388 5.66891 15.744 5.681 15.7489L6.05707 14.8223ZM17.1411 14.826L17.5125 15.7545C17.5262 15.749 17.5397 15.7433 17.5531 15.7372L17.1411 14.826ZM15.7319 8.14148H14.7319C14.7319 8.69046 15.1745 9.1368 15.7235 9.14144L15.7319 8.14148ZM12.0055 15.487C12.0055 14.9347 11.5578 14.487 11.0055 14.487C10.4532 14.487 10.0055 14.9347 10.0055 15.487H12.0055ZM16.615 26.6375C17.1673 26.6375 17.615 26.1898 17.615 25.6375C17.615 25.0853 17.1673 24.6375 16.615 24.6375V26.6375ZM16.6127 20.0784L15.6127 20.0789L16.6127 20.0784ZM16.6127 25.569L15.6127 25.5696L16.6127 25.569ZM16.5616 20.9518C17.1138 20.9518 17.5616 20.5041 17.5616 19.9518C17.5616 19.3995 17.1138 18.9518 16.5616 18.9518V20.9518ZM11.0161 18.9518C10.4638 18.9518 10.0161 19.3995 10.0161 19.9518C10.0161 20.5041 10.4638 20.9518 11.0161 20.9518V18.9518ZM7.4553 7.14152C6.27712 7.15148 5.15679 7.5546 4.32347 8.3496C3.48161 9.15274 3 10.2923 3 11.6364H5C5 10.7888 5.29275 10.189 5.70402 9.79669C6.12382 9.39619 6.73537 9.14768 7.47222 9.14144L7.4553 7.14152ZM3 11.6364C3 13.4605 4.08825 15.0295 5.64504 15.7335L6.46911 13.9111C5.60127 13.5187 5 12.6456 5 11.6364H3ZM5.681 15.7489C6.31446 16.006 6.95095 16.1089 7.46127 16.1089V14.1089C7.19909 14.1089 6.81888 14.0523 6.43315 13.8957L5.681 15.7489ZM7.46127 16.1089H15.7282V14.1089H7.46127V16.1089ZM15.7282 16.1089C16.2338 16.1089 16.8702 16.0114 17.5125 15.7545L16.7697 13.8976C16.3779 14.0543 15.9951 14.1089 15.7282 14.1089V16.1089ZM17.5531 15.7372C19.1128 15.0319 20.1944 13.4574 20.1944 11.6364H18.1944C18.1944 12.6487 17.594 13.5237 16.7291 13.9149L17.5531 15.7372ZM20.1944 11.6364C20.1944 10.2926 19.7133 9.15301 18.8718 8.34977C18.0387 7.55463 16.9186 7.15148 15.7404 7.14152L15.7235 9.14144C16.4603 9.14768 17.0714 9.39616 17.4909 9.79652C17.9018 10.1888 18.1944 10.7885 18.1944 11.6364H20.1944ZM16.7319 8.14148C16.7319 7.24239 16.395 5.99501 15.607 4.95365C14.7882 3.87151 13.4723 3.00615 11.5978 3.00615V5.00615C12.7759 5.00615 13.5271 5.51944 14.0122 6.16046C14.5281 6.84225 14.7319 7.66254 14.7319 8.14148H16.7319ZM11.5978 3.00615C9.72335 3.00615 8.40749 3.87151 7.58865 4.95365C6.80066 5.99501 6.46376 7.24239 6.46376 8.14148H8.46376C8.46376 7.66254 8.66761 6.84225 9.18351 6.16046C9.66856 5.51944 10.4197 5.00615 11.5978 5.00615V3.00615ZM10.0055 15.487V22.8379H12.0055V15.487H10.0055ZM13.8051 26.6375H16.615V24.6375H13.8051V26.6375ZM10.0055 22.8379C10.0055 24.9364 11.7066 26.6375 13.8051 26.6375V24.6375C12.8112 24.6375 12.0055 23.8318 12.0055 22.8379H10.0055ZM19.0401 18.6503H25.5735V16.6503H19.0401V18.6503ZM25.5735 21.5032H19.0398V23.5032H25.5735V21.5032ZM19.0398 21.5032C18.2517 21.5032 17.6131 20.865 17.6127 20.0778L15.6127 20.0789C15.6138 21.9712 17.1485 23.5032 19.0398 23.5032V21.5032ZM25.5735 23.5032C27.4659 23.5032 29 21.9691 29 20.0767H27C27 20.8645 26.3614 21.5032 25.5735 21.5032V23.5032ZM25.5735 18.6503C26.3614 18.6503 27 19.2889 27 20.0767H29C29 18.1843 27.4659 16.6503 25.5735 16.6503V18.6503ZM19.0401 16.6503C17.147 16.6503 15.6116 18.185 15.6127 20.0789L17.6127 20.0778C17.6122 19.2897 18.2512 18.6503 19.0401 18.6503V16.6503ZM19.0401 24.1409H25.5735V22.1409H19.0401V24.1409ZM25.5735 26.9938H19.0398V28.9938H25.5735V26.9938ZM19.0398 26.9938C18.2517 26.9938 17.6131 26.3556 17.6127 25.5684L15.6127 25.5696C15.6138 27.4618 17.1485 28.9938 19.0398 28.9938V26.9938ZM25.5735 28.9938C27.4659 28.9938 29 27.4598 29 25.5674H27C27 26.3552 26.3614 26.9938 25.5735 26.9938V28.9938ZM25.5735 24.1409C26.3614 24.1409 27 24.7796 27 25.5674H29C29 23.675 27.4659 22.1409 25.5735 22.1409V24.1409ZM19.0401 22.1409C17.147 22.1409 15.6116 23.6757 15.6127 25.5696L17.6127 25.5684C17.6122 24.7803 18.2512 24.1409 19.0401 24.1409V22.1409ZM16.5616 18.9518H11.0161V20.9518H16.5616V18.9518Z" fill="black"/>
</svg>
