<svg width="24" height="23" viewBox="0 0 24 23" fill="none" xmlns="http://www.w3.org/2000/svg">
<g opacity="0.5">
<path fill-rule="evenodd" clip-rule="evenodd" d="M11.7758 12.4291C11.1068 12.4291 10.4398 12.2251 9.88176 11.8171L5.39676 8.4793C5.07376 8.2393 5.02376 7.80268 5.28276 7.50545C5.54376 7.20914 6.01576 7.16207 6.33776 7.40114L10.8188 10.7353C11.3818 11.147 12.1748 11.147 12.7418 10.7316L17.1778 7.40299C17.4998 7.16022 17.9718 7.20638 18.2338 7.50361C18.4948 7.79991 18.4458 8.23561 18.1248 8.47745L13.6808 11.8116C13.1188 12.2233 12.4468 12.4291 11.7758 12.4291" fill="#415067"/>
<mask id="mask0_136_811" style="mask-type:alpha" maskUnits="userSpaceOnUse" x="1" y="1" width="22" height="19">
<path fill-rule="evenodd" clip-rule="evenodd" d="M1 1.84619H22.4999V19.8462H1V1.84619Z" fill="white"/>
</mask>
<g mask="url(#mask0_136_811)">
<path fill-rule="evenodd" clip-rule="evenodd" d="M6.839 18.4616H16.659C16.661 18.4597 16.669 18.4616 16.675 18.4616C17.816 18.4616 18.828 18.085 19.604 17.3696C20.505 16.5416 21 15.3517 21 14.0197V7.68004C21 5.10188 19.174 3.23081 16.659 3.23081H6.841C4.326 3.23081 2.5 5.10188 2.5 7.68004V14.0197C2.5 15.3517 2.996 16.5416 3.896 17.3696C4.672 18.085 5.685 18.4616 6.825 18.4616H6.839ZM6.822 19.8462C5.279 19.8462 3.901 19.3293 2.837 18.3508C1.652 17.2597 1 15.7219 1 14.0197V7.68004C1 4.35419 3.511 1.84619 6.841 1.84619H16.659C19.989 1.84619 22.5 4.35419 22.5 7.68004V14.0197C22.5 15.7219 21.848 17.2597 20.663 18.3508C19.6 19.3283 18.221 19.8462 16.675 19.8462H16.659H6.841H6.822Z" fill="#415067"/>
</g>
</g>
</svg>
