<svg width="24" height="24" viewBox="0 0 24 24" fill="none" xmlns="http://www.w3.org/2000/svg">
<path d="M19.5303 7.71783C19.8232 7.42494 19.8232 6.95006 19.5303 6.65717C19.2374 6.36428 18.7626 6.36428 18.4697 6.65717L19.5303 7.71783ZM9.375 16.8125L8.84467 17.3428C9.13756 17.6357 9.61244 17.6357 9.90533 17.3428L9.375 16.8125ZM5.53033 11.9072C5.23744 11.6143 4.76256 11.6143 4.46967 11.9072C4.17678 12.2001 4.17678 12.6749 4.46967 12.9678L5.53033 11.9072ZM18.4697 6.65717L8.84467 16.2822L9.90533 17.3428L19.5303 7.71783L18.4697 6.65717ZM9.90533 16.2822L5.53033 11.9072L4.46967 12.9678L8.84467 17.3428L9.90533 16.2822Z" fill="#415067"/>
</svg>
