<svg width="24" height="24" viewBox="0 0 24 24" fill="none" xmlns="http://www.w3.org/2000/svg">
<path fill-rule="evenodd" clip-rule="evenodd" d="M9.53033 4.46967C9.82322 4.76256 9.82322 5.23744 9.53033 5.53033L5.81066 9.25H13H13.0416C14.4108 9.24999 15.4957 9.24998 16.3621 9.33812C17.2497 9.42841 17.9907 9.61739 18.639 10.0505C19.1576 10.3971 19.6029 10.8424 19.9495 11.361C20.3826 12.0093 20.5716 12.7503 20.6619 13.6379C20.75 14.5043 20.75 15.5892 20.75 16.9584V17H19.25C19.25 15.5799 19.2491 14.5713 19.1696 13.7898C19.0914 13.0207 18.9433 12.5551 18.7023 12.1944C18.4652 11.8395 18.1605 11.5348 17.8056 11.2977C17.4449 11.0567 16.9793 10.9086 16.2102 10.8304C15.4287 10.7509 14.4201 10.75 13 10.75H5.81066L9.53033 14.4697C9.82322 14.7626 9.82322 15.2374 9.53033 15.5303C9.23744 15.8232 8.76256 15.8232 8.46967 15.5303L3.46967 10.5303C3.17678 10.2374 3.17678 9.76256 3.46967 9.46967L8.46967 4.46967C8.76256 4.17678 9.23744 4.17678 9.53033 4.46967Z" fill="#080D13"/>
</svg>
