<svg width="20" height="20" viewBox="0 0 20 20" fill="none" xmlns="http://www.w3.org/2000/svg">
<path fill-rule="evenodd" clip-rule="evenodd" d="M6.66675 1.04175L6.62102 1.04175C5.48136 1.04173 4.56276 1.04172 3.84029 1.13885C3.0902 1.2397 2.45864 1.45544 1.95704 1.95704C1.45544 2.45864 1.2397 3.0902 1.13885 3.84029C1.04172 4.56276 1.04173 5.48136 1.04175 6.62102V6.66675V8.33342V8.37914C1.04173 9.5188 1.04172 10.4374 1.13885 11.1599C1.2397 11.91 1.45544 12.5415 1.95704 13.0431C2.45864 13.5447 3.0902 13.7605 3.84029 13.8613C4.43613 13.9414 5.16537 13.9555 6.04199 13.9579C6.04347 14.8308 6.05402 15.5527 6.12885 16.1408C6.21918 16.8506 6.412 17.4527 6.86276 17.9446C6.92418 18.0117 6.9885 18.076 7.05553 18.1374C7.54744 18.5882 8.1496 18.781 8.85938 18.8713C9.54404 18.9584 10.4103 18.9584 11.4849 18.9584H11.5279H13.3334H13.3792C14.5188 18.9584 15.4374 18.9584 16.1599 18.8613C16.91 18.7605 17.5415 18.5447 18.0431 18.0431C18.5447 17.5415 18.7605 16.91 18.8613 16.1599C18.9584 15.4374 18.9584 14.5189 18.9584 13.3793V13.3791V13.3334V11.5279V11.4849C18.9584 10.4103 18.9584 9.54404 18.8713 8.85938C18.781 8.1496 18.5882 7.54744 18.1374 7.05553C18.076 6.9885 18.0117 6.92418 17.9446 6.86276C17.4527 6.412 16.8506 6.21918 16.1408 6.12885C15.5527 6.05402 14.8308 6.04347 13.9579 6.04199C13.9555 5.16537 13.9414 4.43613 13.8613 3.84029C13.7605 3.0902 13.5447 2.45864 13.0431 1.95704C12.5415 1.45544 11.91 1.2397 11.1599 1.13885C10.4374 1.04172 9.5188 1.04173 8.37914 1.04175L8.33341 1.04175H6.66675ZM13.9584 7.29208V8.33341V8.37915V8.37917C13.9584 9.51881 13.9584 10.4374 13.8613 11.1599C13.7605 11.91 13.5447 12.5415 13.0431 13.0431C12.5415 13.5447 11.91 13.7605 11.1599 13.8613C10.4374 13.9584 9.51881 13.9584 8.37917 13.9584H8.37915H8.33342H7.29208C7.2938 14.8323 7.30435 15.4762 7.36885 15.983C7.44273 16.5635 7.5783 16.8753 7.78435 17.1001C7.82121 17.1404 7.8598 17.179 7.90002 17.2158C8.12488 17.4219 8.43666 17.5574 9.01718 17.6313C9.61371 17.7072 10.4001 17.7084 11.5279 17.7084H13.3334C14.5296 17.7084 15.3639 17.7071 15.9933 17.6225C16.6048 17.5402 16.9286 17.3899 17.1592 17.1592C17.3899 16.9286 17.5402 16.6048 17.6225 15.9933C17.7071 15.3639 17.7084 14.5296 17.7084 13.3334V11.5279C17.7084 10.4001 17.7072 9.61371 17.6313 9.01718C17.5574 8.43666 17.4219 8.12488 17.2158 7.90002C17.179 7.8598 17.1404 7.82121 17.1001 7.78435C16.8753 7.5783 16.5635 7.44273 15.983 7.36885C15.4762 7.30435 14.8322 7.2938 13.9584 7.29208ZM2.84092 2.84092C3.07156 2.61029 3.39537 2.45992 4.00685 2.3777C4.63631 2.29308 5.47057 2.29175 6.66675 2.29175H8.33341C9.52959 2.29175 10.3639 2.29308 10.9933 2.3777C11.6048 2.45992 11.9286 2.61029 12.1592 2.84092C12.3899 3.07156 12.5402 3.39537 12.6225 4.00685C12.7071 4.63631 12.7084 5.47057 12.7084 6.66675V8.33341C12.7084 9.52959 12.7071 10.3639 12.6225 10.9933C12.5402 11.6048 12.3899 11.9286 12.1592 12.1592C11.9286 12.3899 11.6048 12.5402 10.9933 12.6225C10.3639 12.7071 9.52959 12.7084 8.33342 12.7084H6.66675C5.47057 12.7084 4.63631 12.7071 4.00685 12.6225C3.39537 12.5402 3.07156 12.3899 2.84092 12.1592C2.61029 11.9286 2.45992 11.6048 2.3777 10.9933C2.29308 10.3639 2.29175 9.5296 2.29175 8.33342V6.66675C2.29175 5.47057 2.29308 4.63631 2.3777 4.00685C2.45992 3.39537 2.61029 3.07156 2.84092 2.84092Z" fill="#2277F6"/>
</svg>
