<svg width="24" height="24" viewBox="0 0 24 24" fill="none" xmlns="http://www.w3.org/2000/svg">
<path fill-rule="evenodd" clip-rule="evenodd" d="M12.75 2C12.75 1.58579 12.4142 1.25 12 1.25C11.5858 1.25 11.25 1.58579 11.25 2V10.1893L9.53035 8.46967C9.23746 8.17678 8.76258 8.17678 8.46969 8.46967C8.1768 8.76256 8.1768 9.23744 8.46969 9.53033L11.4697 12.5303C11.7626 12.8232 12.2375 12.8232 12.5303 12.5303L15.5303 9.53033C15.8232 9.23744 15.8232 8.76256 15.5303 8.46967C15.2375 8.17678 14.7626 8.17678 14.4697 8.46967L12.75 10.1893V2ZM8.57898 3.25L8.62312 3.25H8.75002C9.16423 3.25 9.50002 3.58579 9.50002 4C9.50002 4.41421 9.16423 4.75 8.75002 4.75H8.62312C7.85491 4.75 7.34497 4.75125 6.95697 4.79764C6.589 4.84164 6.41584 4.91829 6.29231 5.01474C6.16877 5.11119 6.05242 5.2606 5.92048 5.60691C5.78137 5.97207 5.65648 6.46648 5.47016 7.21176L4.26126 12.0473C4.10562 12.6699 4.03784 12.9432 3.99189 13.2161L3.98626 13.25H6.19754L6.30449 13.2499C6.91403 13.2494 7.39393 13.249 7.83729 13.404C8.10635 13.498 8.35915 13.6333 8.58665 13.805C8.96151 14.088 9.22738 14.4875 9.56507 14.995L9.62435 15.084C10.0505 15.7232 10.1723 15.888 10.3176 15.9977C10.421 16.0758 10.536 16.1373 10.6583 16.18C10.8302 16.2401 11.0349 16.25 11.8031 16.25H12.1975C12.9658 16.25 13.1705 16.2401 13.3424 16.18C13.4647 16.1373 13.5796 16.0758 13.683 15.9977C13.8283 15.888 13.9501 15.7232 14.3763 15.084L14.4356 14.9949C14.7732 14.4875 15.0391 14.088 15.414 13.805C15.6415 13.6333 15.8943 13.498 16.1633 13.404C16.6067 13.249 17.0866 13.2494 17.6961 13.2499L17.8031 13.25H20.0138L20.0082 13.2161C19.9622 12.9432 19.8944 12.6699 19.7388 12.0473L18.5299 7.21176C18.3436 6.46648 18.2187 5.97207 18.0796 5.60691C17.9476 5.2606 17.8313 5.11119 17.7077 5.01474C17.5842 4.91829 17.411 4.84164 17.0431 4.79764C16.6551 4.75125 16.1451 4.75 15.3769 4.75H15.25C14.8358 4.75 14.5 4.41421 14.5 4C14.5 3.58579 14.8358 3.25 15.25 3.25H15.3769L15.4211 3.25C16.1334 3.24997 16.7336 3.24995 17.2212 3.30825C17.7388 3.37015 18.2119 3.5053 18.6308 3.83244C19.0498 4.15957 19.2957 4.58574 19.4813 5.07289C19.6561 5.53174 19.8016 6.11407 19.9744 6.80511L19.9851 6.84796L21.194 11.6835L21.2023 11.7169C21.3474 12.2971 21.4305 12.6295 21.4873 12.967C21.5991 13.6309 21.6339 14.3055 21.591 14.9774C21.5692 15.319 21.5208 15.6581 21.4362 16.2503L21.4313 16.2842L21.4125 16.4161C21.2439 17.598 21.1361 18.3538 20.8473 18.9825C20.2759 20.2267 19.1954 21.1637 17.883 21.5535C17.2197 21.7504 16.4563 21.7503 15.2625 21.75L15.1292 21.75H8.87084L8.73755 21.75C7.54371 21.7503 6.78033 21.7504 6.11704 21.5535C4.80459 21.1637 3.72413 20.2267 3.15271 18.9825C2.86392 18.3538 2.75613 17.598 2.58755 16.4161L2.56872 16.2842L2.56386 16.2502C2.47926 15.6581 2.43081 15.3189 2.40901 14.9774C2.36612 14.3055 2.40092 13.6309 2.51271 12.967C2.56955 12.6295 2.65264 12.2971 2.79773 11.7168L2.80605 11.6835L4.01495 6.84795L4.02565 6.80513C4.19839 6.11408 4.34395 5.53174 4.51876 5.07289C4.70435 4.58574 4.9502 4.15957 5.36919 3.83244C5.78818 3.5053 6.26125 3.37015 6.77887 3.30825C7.26641 3.24995 7.86667 3.24997 8.57898 3.25ZM3.90596 14.8818C3.90316 14.8379 3.90075 14.7939 3.89875 14.75H6.19754C6.96575 14.75 7.17047 14.7599 7.34237 14.82C7.46467 14.8627 7.57959 14.9242 7.68299 15.0023C7.82834 15.112 7.95015 15.2768 8.37628 15.916L8.43555 16.005C8.77325 16.5125 9.03911 16.912 9.41398 17.195C9.64147 17.3667 9.89428 17.502 10.1633 17.596C10.6067 17.751 11.0866 17.7506 11.6961 17.7501L11.8031 17.75H12.1975L12.3045 17.7501C12.914 17.7506 13.3939 17.751 13.8373 17.596C14.1063 17.502 14.3592 17.3667 14.5866 17.195C14.9615 16.912 15.2274 16.5125 15.5651 16.0051L15.6244 15.916C16.0505 15.2768 16.1723 15.112 16.3176 15.0023C16.421 14.9242 16.536 14.8627 16.6583 14.82C16.8302 14.7599 17.0349 14.75 17.8031 14.75H20.1013C20.0993 14.7939 20.0969 14.8379 20.0941 14.8818C20.0764 15.158 20.0372 15.4368 19.9464 16.0721C19.7522 17.4313 19.6701 17.9517 19.4842 18.3565C19.0933 19.2077 18.354 19.8489 17.456 20.1155C17.029 20.2423 16.5023 20.25 15.1292 20.25H8.87084C7.49778 20.25 6.971 20.2423 6.54404 20.1155C5.64605 19.8489 4.90679 19.2077 4.51581 18.3565C4.32992 17.9517 4.24782 17.4313 4.05364 16.0721C3.96289 15.4368 3.92359 15.158 3.90596 14.8818Z" fill="#2277F7"/>
</svg>
