<?xml version="1.0" encoding="utf-8"?>
<!-- Generator: Adobe Illustrator 25.4.1, SVG Export Plug-In . SVG Version: 6.00 Build 0)  -->
<svg version="1.1" id="Layer_1" xmlns="http://www.w3.org/2000/svg" xmlns:xlink="http://www.w3.org/1999/xlink" x="0px" y="0px"
	 viewBox="0 0 24 24" style="enable-background:new 0 0 24 24;" xml:space="preserve">
<style type="text/css">
	.st0{fill:#2277F6;}
</style>
<path class="st0" d="M1.2,3.2h21.7c0.6,0,1.1,0.5,1.1,1.1l0,0c0,0.6-0.5,1.1-1.1,1.1H1.2C0.5,5.4,0,4.9,0,4.3l0,0
	C0,3.7,0.5,3.2,1.2,3.2z"/>
<path class="st0" d="M1.2,11.3h21.7c0.6,0,1.1,0.5,1.1,1.1l0,0c0,0.6-0.5,1.1-1.1,1.1H1.2C0.5,13.5,0,13,0,12.4l0,0
	C0,11.8,0.5,11.3,1.2,11.3z"/>
<path class="st0" d="M1.2,19.4h21.7c0.6,0,1.1,0.5,1.1,1.1l0,0c0,0.6-0.5,1.1-1.1,1.1H1.2c-0.6,0-1.1-0.5-1.1-1.1l0,0
	C0,19.9,0.5,19.4,1.2,19.4z"/>
</svg>
