<svg width="24" height="24" viewBox="0 0 24 24" fill="none" xmlns="http://www.w3.org/2000/svg">
<path fill-rule="evenodd" clip-rule="evenodd" d="M20.5306 2.46969C20.7315 2.67057 20.8016 2.9677 20.7118 3.2372L14.7115 21.2372C14.6156 21.525 14.3558 21.7266 14.0532 21.7481C13.7506 21.7696 13.4648 21.6068 13.3292 21.3354L9.44099 13.559L1.6646 9.67084C1.39328 9.53518 1.23039 9.24944 1.2519 8.94685C1.2734 8.64427 1.47506 8.38443 1.76284 8.28851L19.7631 2.28851C20.0326 2.19867 20.3297 2.26882 20.5306 2.46969ZM10.9126 13.1481L13.8611 19.0451L18.8144 4.18587L3.95493 9.13896L9.85193 12.0875L12.9699 8.96971C13.2628 8.67683 13.7376 8.67684 14.0305 8.96974C14.3234 9.26264 14.3234 9.73752 14.0305 10.0304L10.9126 13.1481Z" fill="white"/>
</svg>
