<svg width="20" height="20" viewBox="0 0 20 20" fill="none" xmlns="http://www.w3.org/2000/svg">
<g id="Iconly/Light/Filter">
<g id="Filter">
<path id="Stroke 1" d="M8.60607 13.8274H3.35547" stroke="white" stroke-width="1.25" stroke-linecap="round" stroke-linejoin="round"/>
<path id="Stroke 3" d="M10.9492 5.75023H16.1998" stroke="white" stroke-width="1.25" stroke-linecap="round" stroke-linejoin="round"/>
<path id="Stroke 5" fill-rule="evenodd" clip-rule="evenodd" d="M7.2706 5.70521C7.2706 4.6255 6.3888 3.75 5.30132 3.75C4.21383 3.75 3.33203 4.6255 3.33203 5.70521C3.33203 6.78492 4.21383 7.66042 5.30132 7.66042C6.3888 7.66042 7.2706 6.78492 7.2706 5.70521Z" stroke="white" stroke-width="1.25" stroke-linecap="round" stroke-linejoin="round"/>
<path id="Stroke 7" fill-rule="evenodd" clip-rule="evenodd" d="M16.6651 13.7951C16.6651 12.7153 15.784 11.8398 14.6965 11.8398C13.6084 11.8398 12.7266 12.7153 12.7266 13.7951C12.7266 14.8748 13.6084 15.7503 14.6965 15.7503C15.784 15.7503 16.6651 14.8748 16.6651 13.7951Z" stroke="white" stroke-width="1.25" stroke-linecap="round" stroke-linejoin="round"/>
</g>
</g>
</svg>
