<svg width="32" height="32" viewBox="0 0 32 32" fill="none" xmlns="http://www.w3.org/2000/svg">
<path d="M27.9986 20.2088C28.5508 20.2088 28.9986 19.7611 28.9986 19.2088C28.9986 18.6565 28.5508 18.2088 27.9986 18.2088V20.2088ZM27.9986 13.4591C28.5508 13.4591 28.9986 13.0114 28.9986 12.4591C28.9986 11.9069 28.5508 11.4591 27.9986 11.4591V13.4591ZM23.4984 16.7568C24.0507 16.7568 24.4984 16.3091 24.4984 15.7568C24.4984 15.2045 24.0507 14.7568 23.4984 14.7568V16.7568ZM23.48 14.7568C22.9277 14.7568 22.48 15.2045 22.48 15.7568C22.48 16.3091 22.9277 16.7568 23.48 16.7568V14.7568ZM3.00063 12.9761C3.00063 13.5284 3.44835 13.9761 4.00063 13.9761C4.55292 13.9761 5.00063 13.5284 5.00063 12.9761H3.00063ZM16.8513 26.0799C16.299 26.0799 15.8513 26.5276 15.8513 27.0799C15.8513 27.6322 16.299 28.0799 16.8513 28.0799V26.0799ZM9.51844 20.7618C9.51844 21.3141 9.96616 21.7618 10.5184 21.7618C11.0707 21.7618 11.5184 21.3141 11.5184 20.7618H9.51844ZM10.5184 19.2505H11.5185L11.5184 19.238L10.5184 19.2505ZM8.04586 16.8389L8.03336 15.839L8.03309 15.839L8.04586 16.8389ZM5.63425 19.2401L4.6344 19.2224C4.6343 19.2283 4.63425 19.2342 4.63425 19.2401L5.63425 19.2401ZM4.63425 20.7618C4.63425 21.3141 5.08196 21.7618 5.63425 21.7618C6.18653 21.7618 6.63425 21.3141 6.63425 20.7618H4.63425ZM27.9986 18.2088H22.9224V20.2088H27.9986V18.2088ZM22.9224 18.2088C21.6105 18.2088 20.5469 17.1452 20.5469 15.8333H18.5469C18.5469 18.2498 20.5059 20.2088 22.9224 20.2088V18.2088ZM20.5469 15.8333C20.5469 14.523 21.6102 13.4591 22.9224 13.4591V11.4591C20.5062 11.4591 18.5469 13.4179 18.5469 15.8333H20.5469ZM22.9224 13.4591H27.9986V11.4591H22.9224V13.4591ZM23.4984 14.7568H23.48V16.7568H23.4984V14.7568ZM5.00063 12.9761V11.4998H3.00063V12.9761H5.00063ZM5.00063 11.4998C5.00063 8.41857 7.49887 5.92007 10.5816 5.92007V3.92007C6.39456 3.92007 3.00063 7.31375 3.00063 11.4998H5.00063ZM10.5816 5.92007H21.419V3.92007H10.5816V5.92007ZM21.419 5.92007C24.5018 5.92007 27 8.41857 27 11.4998H29C29 7.31375 25.6061 3.92007 21.419 3.92007V5.92007ZM27 11.4998V20.5002H29V11.4998H27ZM27 20.5002C27 23.5814 24.5018 26.0799 21.419 26.0799V28.0799C25.6061 28.0799 29 24.6863 29 20.5002H27ZM21.419 26.0799H16.8513V28.0799H21.419V26.0799ZM11.5184 20.7618V19.2505H9.51844V20.7618H11.5184ZM11.5184 19.238C11.4946 17.3383 9.93516 15.8152 8.03336 15.839L8.05836 17.8388C8.85487 17.8288 9.50856 18.467 9.51852 19.263L11.5184 19.238ZM8.03309 15.839C6.17135 15.8627 4.6673 17.3622 4.6344 19.2224L6.63409 19.2578C6.6479 18.4768 7.27915 17.8487 8.05863 17.8388L8.03309 15.839ZM4.63425 19.2401V20.7618H6.63425V19.2401H4.63425ZM10.1218 26.0795H6.03022V28.0795H10.1218V26.0795ZM6.03022 26.0795C5.46167 26.0795 5 25.6178 5 25.0492H3C3 26.7224 4.3571 28.0795 6.03022 28.0795V26.0795ZM5 25.0492V22.7531H3V25.0492H5ZM5 22.7531C5 22.1837 5.46125 21.7229 6.03022 21.7229V19.7229C4.35751 19.7229 3 21.0783 3 22.7531H5ZM6.03022 21.7229H10.1218V19.7229H6.03022V21.7229ZM10.1218 21.7229C10.6908 21.7229 11.152 22.1837 11.152 22.7531H13.152C13.152 21.0783 11.7945 19.7229 10.1218 19.7229V21.7229ZM11.152 22.7531V25.0492H13.152V22.7531H11.152ZM11.152 25.0492C11.152 25.6178 10.6903 26.0795 10.1218 26.0795V28.0795C11.7949 28.0795 13.152 26.7224 13.152 25.0492H11.152Z" fill="black"/>
</svg>
