<svg width="32" height="32" viewBox="0 0 32 32" fill="none" xmlns="http://www.w3.org/2000/svg">
<path d="M12.8993 11.3155C13.4516 11.3155 13.8993 10.8677 13.8993 10.3155C13.8993 9.76317 13.4516 9.31546 12.8993 9.31546V11.3155ZM8.76478 15.0002C8.2125 15.0002 7.76478 15.4479 7.76478 16.0002C7.76478 16.5525 8.2125 17.0002 8.76478 17.0002V15.0002ZM12.8993 22.6837C13.4516 22.6837 13.8993 22.236 13.8993 21.6837C13.8993 21.1314 13.4516 20.6837 12.8993 20.6837V22.6837ZM19.1001 9.31546C18.5478 9.31546 18.1001 9.76317 18.1001 10.3155C18.1001 10.8677 18.5478 11.3155 19.1001 11.3155V9.31546ZM23.2346 17.0002C23.7869 17.0002 24.2346 16.5525 24.2346 16.0002C24.2346 15.4479 23.7869 15.0002 23.2346 15.0002V17.0002ZM19.1001 20.6837C18.5478 20.6837 18.1001 21.1314 18.1001 21.6837C18.1001 22.236 18.5478 22.6837 19.1001 22.6837V20.6837ZM21.6225 3H10.3762V5H21.6225V3ZM10.3762 3C8.16893 3 6.29957 3.78822 4.98693 5.19649C3.68155 6.59695 3 8.53074 3 10.7018H5C5 8.94601 5.54699 7.52889 6.44994 6.56016C7.34562 5.59924 8.66437 5 10.3762 5V3ZM3 10.7018V21.2982H5V10.7018H3ZM3 21.2982C3 23.468 3.67789 25.402 4.9821 26.803C6.29384 28.2122 8.16374 29 10.3762 29V27C8.65788 27 7.33967 26.4004 6.44601 25.4403C5.54481 24.4722 5 23.0552 5 21.2982H3ZM10.3762 29H21.6212V27H10.3762V29ZM21.6212 29C23.8342 29 25.7047 28.2123 27.0169 26.8032C28.3217 25.4022 29 23.4681 29 21.2982H27C27 23.0551 26.455 24.472 25.5533 25.4402C24.6592 26.4003 23.3403 27 21.6212 27V29ZM29 21.2982V10.7018H27V21.2982H29ZM29 10.7018C29 8.53185 28.3217 6.59788 27.0172 5.19686C25.7051 3.78779 23.8349 3 21.6225 3V5C23.3408 5 24.6594 5.59967 25.5534 6.55979C26.4549 7.52796 27 8.94491 27 10.7018H29ZM12.8993 9.31546C12.2743 9.31546 11.711 9.42206 11.2326 9.67787C10.7374 9.94269 10.4025 10.3305 10.1906 10.7674C9.81108 11.5502 9.83202 12.5217 9.83202 13.1578C9.83202 13.9429 9.81108 14.3926 9.67381 14.6757C9.62724 14.7717 9.57454 14.828 9.48837 14.8741C9.38538 14.9292 9.17341 15.0002 8.76478 15.0002V17.0002C9.38978 17.0002 9.95302 16.8936 10.4314 16.6378C10.9267 16.373 11.2616 15.9852 11.4734 15.5483C11.853 14.7655 11.832 13.7939 11.832 13.1578C11.832 12.3728 11.853 11.9231 11.9902 11.64C12.0368 11.5439 12.0895 11.4876 12.1757 11.4416C12.2787 11.3865 12.4906 11.3155 12.8993 11.3155V9.31546ZM8.76478 17.0002C9.17344 17.0002 9.38544 17.0712 9.48846 17.1263C9.57463 17.1724 9.62731 17.2287 9.67385 17.3246C9.81107 17.6076 9.83202 18.057 9.83202 18.8419C9.83202 19.4779 9.81107 20.4493 10.1907 21.232C10.4025 21.6689 10.7375 22.0566 11.2327 22.3214C11.7111 22.5771 12.2743 22.6837 12.8993 22.6837V20.6837C12.4906 20.6837 12.2786 20.6126 12.1756 20.5576C12.0894 20.5115 12.0367 20.4552 11.9902 20.3593C11.853 20.0763 11.832 19.6269 11.832 18.8419C11.832 18.206 11.853 17.2346 11.4734 16.4519C11.2615 16.015 10.9266 15.6273 10.4314 15.3625C9.95295 15.1068 9.38975 15.0002 8.76478 15.0002V17.0002ZM19.1001 11.3155C19.5087 11.3155 19.7207 11.3865 19.8237 11.4416C19.9098 11.4876 19.9625 11.5439 20.0091 11.64C20.1464 11.9231 20.1673 12.3728 20.1673 13.1578C20.1673 13.7939 20.1464 14.7655 20.5259 15.5483C20.7378 15.9852 21.0727 16.373 21.5679 16.6378C22.0463 16.8936 22.6096 17.0002 23.2346 17.0002V15.0002C22.8259 15.0002 22.614 14.9292 22.511 14.8741C22.4248 14.828 22.3721 14.7717 22.3255 14.6757C22.1883 14.3926 22.1673 13.9429 22.1673 13.1578C22.1673 12.5217 22.1883 11.5502 21.8087 10.7674C21.5969 10.3305 21.262 9.94269 20.7667 9.67787C20.2883 9.42206 19.7251 9.31546 19.1001 9.31546V11.3155ZM23.2346 15.0002C22.6096 15.0002 22.0464 15.1068 21.568 15.3625C21.0728 15.6273 20.7378 16.015 20.526 16.4519C20.1464 17.2346 20.1673 18.206 20.1673 18.8419C20.1673 19.6269 20.1464 20.0763 20.0092 20.3593C19.9626 20.4552 19.9099 20.5115 19.8238 20.5576C19.7207 20.6126 19.5087 20.6837 19.1001 20.6837V22.6837C19.725 22.6837 20.2883 22.5771 20.7667 22.3214C21.2619 22.0566 21.5968 21.6689 21.8087 21.232C22.1883 20.4493 22.1673 19.4779 22.1673 18.8419C22.1673 18.057 22.1883 17.6076 22.3255 17.3246C22.372 17.2287 22.4247 17.1724 22.5109 17.1263C22.6139 17.0712 22.8259 17.0002 23.2346 17.0002V15.0002Z" fill="black"/>
</svg>
