<svg width="24" height="24" viewBox="0 0 24 24" fill="none" xmlns="http://www.w3.org/2000/svg">
<g opacity="0.5">
<path d="M21 16.8088L21.75 16.8092V16.8088H21ZM21 14.1818H21.75C21.75 13.7675 21.4142 13.4318 21 13.4318V14.1818ZM18.8215 12.0033H19.5715V12.0027L18.8215 12.0033ZM20.999 9.82479V10.5748C21.4131 10.5748 21.7489 10.2392 21.749 9.82507L20.999 9.82479ZM21 7.19971L20.25 7.19811V7.19943L21 7.19971ZM17.7075 3.8916L17.7091 3.1416H17.7075V3.8916ZM3 7.19192L2.25 7.19152V7.19192H3ZM3 9.90652H2.25C2.25 10.11 2.33268 10.3048 2.47908 10.4461C2.62547 10.5874 2.82301 10.6632 3.02637 10.6561L3 9.90652ZM5.17654 11.9371H5.92654C5.92654 11.9283 5.92639 11.9195 5.92608 11.9107L5.17654 11.9371ZM5.17654 12.0013H4.42654L4.42654 12.0019L5.17654 12.0013ZM3.00584 14.1798L3.00401 13.4298C2.59116 13.4308 2.25676 13.7653 2.25584 14.1781L3.00584 14.1798ZM3 16.8068L2.25 16.8052L2.25 16.8064L3 16.8068ZM17.6987 20.8581C19.9351 20.8581 21.7488 19.0457 21.75 16.8092L20.25 16.8084C20.2492 18.2167 19.1071 19.3581 17.6987 19.3581V20.8581ZM21.75 16.8088V14.1818H20.25V16.8088H21.75ZM21 13.4318C20.2106 13.4318 19.5715 12.7926 19.5715 12.0033H18.0715C18.0715 13.6211 19.3822 14.9318 21 14.9318V13.4318ZM19.5715 12.0027C19.5709 11.2147 20.2098 10.5748 20.999 10.5748V9.07479C19.3811 9.07479 18.0702 10.3867 18.0715 12.0039L19.5715 12.0027ZM21.749 9.82507L21.75 7.19999L20.25 7.19943L20.249 9.82451L21.749 9.82507ZM21.75 7.20131C21.7548 4.96404 19.9459 3.14638 17.7091 3.1416L17.7059 4.6416C19.1137 4.64461 20.253 5.78868 20.25 7.19811L21.75 7.20131ZM6.30227 3.1416C4.06492 3.1416 2.25119 4.95406 2.25 7.19152L3.75 7.19232C3.75075 5.78309 4.89292 4.6416 6.30227 4.6416V3.1416ZM2.25 7.19192V9.90652H3.75V7.19192H2.25ZM3.02637 10.6561C3.77319 10.6298 4.40067 11.2148 4.427 11.9635L5.92608 11.9107C5.87068 10.336 4.55027 9.10152 2.97363 9.15698L3.02637 10.6561ZM4.42654 11.9371V12.0013H5.92654V11.9371H4.42654ZM4.42654 12.0019C4.42718 12.7892 3.79059 13.4279 3.00401 13.4298L3.00766 14.9298C4.62238 14.9259 5.92785 13.6148 5.92654 12.0007L4.42654 12.0019ZM2.25584 14.1781L2.25 16.8052L3.75 16.8085L3.75584 14.1815L2.25584 14.1781ZM2.25 16.8064C2.24881 19.0431 4.06255 20.8581 6.29935 20.8581V19.3581C4.8914 19.3581 3.74925 18.2153 3.75 16.8072L2.25 16.8064ZM6.29935 20.8581H17.6987V19.3581H6.29935V20.8581ZM17.7075 3.1416H6.30227V4.6416H17.7075V3.1416Z" fill="#415067"/>
</g>
</svg>
