<svg width="24" height="23" viewBox="0 0 24 23" fill="none" xmlns="http://www.w3.org/2000/svg">
<g opacity="0.5">
<mask id="mask0_136_827" style="mask-type:alpha" maskUnits="userSpaceOnUse" x="4" y="13" width="16" height="8">
<path fill-rule="evenodd" clip-rule="evenodd" d="M4 13.3809H19.8399V20.1876H4V13.3809Z" fill="white"/>
</mask>
<g mask="url(#mask0_136_827)">
<path fill-rule="evenodd" clip-rule="evenodd" d="M11.921 14.7655C7.66 14.7655 5.5 15.4412 5.5 16.775C5.5 18.1209 7.66 18.803 11.921 18.803C16.181 18.803 18.34 18.1273 18.34 16.7935C18.34 15.4476 16.181 14.7655 11.921 14.7655M11.921 20.1876C9.962 20.1876 4 20.1876 4 16.775C4 13.7326 8.521 13.3809 11.921 13.3809C13.88 13.3809 19.84 13.3809 19.84 16.7935C19.84 19.8359 15.32 20.1876 11.921 20.1876" fill="white"/>
</g>
<mask id="mask1_136_827" style="mask-type:alpha" maskUnits="userSpaceOnUse" x="6" y="1" width="12" height="11">
<path fill-rule="evenodd" clip-rule="evenodd" d="M6.60938 1.84619H17.2294V11.648H6.60938V1.84619Z" fill="white"/>
</mask>
<g mask="url(#mask1_136_827)">
<path fill-rule="evenodd" clip-rule="evenodd" d="M11.9204 3.16386C9.77941 3.16386 8.03741 4.77093 8.03741 6.74724C8.03041 8.71709 9.75941 10.3232 11.8914 10.3306L11.9204 10.9897V10.3306C14.0604 10.3306 15.8014 8.72263 15.8014 6.74724C15.8014 4.77093 14.0604 3.16386 11.9204 3.16386M11.9204 11.6479H11.8884C8.96641 11.6396 6.59941 9.43986 6.60941 6.74447C6.60941 4.04447 8.99141 1.8457 11.9204 1.8457C14.8484 1.8457 17.2294 4.04447 17.2294 6.74724C17.2294 9.45001 14.8484 11.6479 11.9204 11.6479" fill="white"/>
</g>
</g>
</svg>
