<svg width="20" height="20" viewBox="0 0 20 20" fill="none" xmlns="http://www.w3.org/2000/svg">
<g clip-path="url(#clip0_70_872)">
<path fill-rule="evenodd" clip-rule="evenodd" d="M6.66668 1.04224H6.63686C5.88332 1.04223 5.27559 1.04222 4.78535 1.08665C4.28006 1.13245 3.83856 1.22936 3.43752 1.46091C2.96246 1.73518 2.56796 2.12968 2.29369 2.60474C2.06215 3.00578 1.96523 3.44728 1.91944 3.95257C1.875 4.44281 1.87501 5.05054 1.87502 5.80407L1.87502 5.80407L1.87502 5.8339L1.87502 14.1672L1.87502 14.1971L1.87502 14.1971C1.87501 14.9506 1.875 15.5583 1.91943 16.0486C1.96523 16.5539 2.06214 16.9954 2.29369 17.3964C2.56796 17.8715 2.96246 18.266 3.43752 18.5402C3.83856 18.7718 4.28006 18.8687 4.78535 18.9145C5.27559 18.9589 5.88332 18.9589 6.63685 18.9589H6.66668H6.69651C7.45005 18.9589 8.05777 18.9589 8.54802 18.9145C9.05331 18.8687 9.49481 18.7718 9.89585 18.5402C10.3709 18.266 10.7654 17.8715 11.0397 17.3964C11.2712 16.9954 11.3681 16.5539 11.4139 16.0486C11.4584 15.5583 11.4584 14.9506 11.4583 14.1971V14.1971V14.1672V13.3339C11.4583 12.9887 11.1785 12.7089 10.8333 12.7089C10.4882 12.7089 10.2083 12.9887 10.2083 13.3339V14.1672C10.2083 14.9576 10.2077 15.5086 10.169 15.9357C10.1311 16.3543 10.0605 16.5923 9.95715 16.7714C9.79258 17.0564 9.55588 17.2931 9.27085 17.4577C9.09176 17.5611 8.85378 17.6316 8.43519 17.6696C8.00801 17.7083 7.45703 17.7089 6.66668 17.7089C5.87633 17.7089 5.32536 17.7083 4.89818 17.6696C4.47959 17.6316 4.2416 17.5611 4.06252 17.4577C3.77748 17.2931 3.54078 17.0564 3.37622 16.7714C3.27282 16.5923 3.20227 16.3543 3.16433 15.9357C3.12561 15.5086 3.12502 14.9576 3.12502 14.1672L3.12502 5.8339C3.12502 5.04355 3.12562 4.49258 3.16433 4.0654C3.20227 3.64681 3.27283 3.40882 3.37622 3.22974C3.54079 2.9447 3.77748 2.708 4.06252 2.54344C4.2416 2.44004 4.47959 2.36949 4.89818 2.33155C5.32536 2.29284 5.87634 2.29224 6.66668 2.29224C7.45703 2.29224 8.00801 2.29284 8.43519 2.33155C8.85378 2.36949 9.09176 2.44004 9.27085 2.54344C9.55589 2.708 9.79258 2.9447 9.95715 3.22974C10.0605 3.40882 10.1311 3.64681 10.169 4.0654C10.2078 4.49258 10.2083 5.04355 10.2083 5.8339L10.2083 6.66724C10.2083 7.01241 10.4882 7.29224 10.8333 7.29224C11.1785 7.29224 11.4583 7.01241 11.4583 6.66724L11.4583 5.8339V5.80407V5.80404C11.4584 5.05052 11.4584 4.4428 11.4139 3.95257C11.3681 3.44728 11.2712 3.00578 11.0397 2.60474C10.7654 2.12968 10.3709 1.73518 9.89585 1.46091C9.49481 1.22936 9.05331 1.13245 8.54802 1.08665C8.05778 1.04222 7.45004 1.04223 6.69651 1.04224H6.66668ZM14.6086 6.22489C14.3645 5.98081 13.9688 5.98081 13.7247 6.22489C13.4807 6.46897 13.4807 6.86469 13.7247 7.10877L15.9911 9.37516L6.66668 9.37516C6.3215 9.37516 6.04168 9.65498 6.04168 10.0002C6.04168 10.3453 6.3215 10.6252 6.66668 10.6252L15.9911 10.6252L13.7247 12.8916C13.4807 13.1356 13.4807 13.5314 13.7247 13.7754C13.9688 14.0195 14.3645 14.0195 14.6086 13.7754L17.942 10.4421C18.186 10.198 18.186 9.8023 17.942 9.55822L14.6086 6.22489Z" fill="#CE5353"/>
</g>
<defs>
<clipPath id="clip0_70_872">
<rect width="20" height="20" fill="white"/>
</clipPath>
</defs>
</svg>
