<?xml version="1.0" encoding="utf-8"?>
<!-- Generator: Adobe Illustrator 25.4.1, SVG Export Plug-In . SVG Version: 6.00 Build 0)  -->
<svg version="1.1" id="Layer_1" xmlns="http://www.w3.org/2000/svg" xmlns:xlink="http://www.w3.org/1999/xlink" x="0px" y="0px"
	 viewBox="0 0 24 24" style="enable-background:new 0 0 24 24;" xml:space="preserve">
<style type="text/css">
	.st0{fill-rule:evenodd;clip-rule:evenodd;fill:#FFFFFF;}
</style>
<path class="st0" d="M12,2.2c-3.8,0-7,2.8-7.5,6.6l-1,7.9c-0.2,1.6,1,3,2.6,3h1.4l0.1,0.1c0.8,1.8,2.5,2.9,4.4,2.9s3.7-1.1,4.4-2.9
	l0.1-0.1h1.4c1.6,0,2.8-1.4,2.6-3l-1-7.9C19,5.1,15.8,2.2,12,2.2z M16,18.2C16,18.2,16,18.2,16,18.2H8c0,0,0,0,0,0H6.2
	c-0.7,0-1.2-0.6-1.1-1.3L6,9c0.4-3,3-5.3,6-5.3c3,0,5.6,2.3,6,5.3l1,7.9c0.1,0.7-0.4,1.3-1.1,1.3H16z M9.2,19.8h5.6
	c-0.6,0.9-1.7,1.5-2.8,1.5S9.8,20.7,9.2,19.8z"/>
</svg>
