<?xml version="1.0" encoding="utf-8"?>
<!-- Generator: Adobe Illustrator 25.4.1, SVG Export Plug-In . SVG Version: 6.00 Build 0)  -->
<svg version="1.1" id="Layer_1" xmlns="http://www.w3.org/2000/svg" xmlns:xlink="http://www.w3.org/1999/xlink" x="0px" y="0px"
	 viewBox="0 0 22 16" style="enable-background:new 0 0 22 16;" xml:space="preserve">
<style type="text/css">
	.st0{fill:#FFFFFF;}
</style>
<path class="st0" d="M11,0.5C6,0.5,1.7,3.6,0,8c1.7,4.4,6,7.5,11,7.5s9.3-3.1,11-7.5C20.3,3.6,16,0.5,11,0.5z M11,13
	c-2.8,0-5-2.2-5-5s2.2-5,5-5s5,2.2,5,5S13.8,13,11,13z M11,5C9.3,5,8,6.3,8,8s1.3,3,3,3s3-1.3,3-3S12.7,5,11,5z"/>
</svg>
