<svg width="24" height="24" viewBox="0 0 24 24" fill="none" xmlns="http://www.w3.org/2000/svg">
<g id="Iconly/Light-Outline/Edit Square">
<g id="Edit Square">
<path id="Fill 1" fill-rule="evenodd" clip-rule="evenodd" d="M16.577 22.3691H7.753C4.312 22.3691 2 19.9541 2 16.3601V8.04611C2 4.45211 4.312 2.03711 7.753 2.03711H11.492C11.906 2.03711 12.242 2.37311 12.242 2.78711C12.242 3.20111 11.906 3.53711 11.492 3.53711H7.753C5.169 3.53711 3.5 5.30711 3.5 8.04611V16.3601C3.5 19.0991 5.169 20.8691 7.753 20.8691H16.577C19.161 20.8691 20.831 19.0991 20.831 16.3601V12.3321C20.831 11.9181 21.167 11.5821 21.581 11.5821C21.995 11.5821 22.331 11.9181 22.331 12.3321V16.3601C22.331 19.9541 20.018 22.3691 16.577 22.3691Z" fill="#2277F6"/>
<path id="Fill 3" fill-rule="evenodd" clip-rule="evenodd" d="M8.86689 15.4285H11.8439C12.2239 15.4285 12.5799 15.2815 12.8489 15.0125L20.3579 7.50349C20.6659 7.19549 20.8359 6.78549 20.8359 6.34949C20.8359 5.91249 20.6659 5.50149 20.3579 5.19349L19.1409 3.97649C18.5039 3.34149 17.4679 3.34149 16.8299 3.97649L9.35689 11.4495C9.09789 11.7085 8.95089 12.0525 8.94189 12.4175L8.86689 15.4285ZM11.8439 16.9285H8.09789C7.89589 16.9285 7.70189 16.8465 7.56089 16.7015C7.41989 16.5575 7.34289 16.3625 7.34789 16.1595L7.44189 12.3805C7.46089 11.6285 7.76389 10.9215 8.29589 10.3885H8.29689L15.7699 2.91549C16.9919 1.69549 18.9789 1.69549 20.2009 2.91549L21.4179 4.13249C22.0109 4.72449 22.3369 5.51149 22.3359 6.34949C22.3359 7.18749 22.0099 7.97349 21.4179 8.56449L13.9089 16.0735C13.3579 16.6245 12.6239 16.9285 11.8439 16.9285Z" fill="#2277F6"/>
<path id="Fill 5" fill-rule="evenodd" clip-rule="evenodd" d="M19.7298 9.91685C19.5378 9.91685 19.3458 9.84385 19.1998 9.69685L14.6338 5.13085C14.3408 4.83785 14.3408 4.36285 14.6338 4.06985C14.9268 3.77685 15.4008 3.77685 15.6938 4.06985L20.2598 8.63685C20.5528 8.92985 20.5528 9.40385 20.2598 9.69685C20.1138 9.84385 19.9218 9.91685 19.7298 9.91685Z" fill="#2277F6"/>
</g>
</g>
</svg>
