<svg width="24" height="24" viewBox="0 0 24 24" fill="none" xmlns="http://www.w3.org/2000/svg">
<path d="M8.56049 11.5016C8.28526 11.1921 7.8112 11.1643 7.50165 11.4395C7.1921 11.7147 7.16428 12.1888 7.43951 12.4984L8.56049 11.5016ZM10.6674 15L10.1069 15.4984C10.2493 15.6584 10.4533 15.75 10.6675 15.75C10.8817 15.75 11.0857 15.6584 11.228 15.4982L10.6674 15ZM16.5606 9.49823C16.8358 9.18863 16.8078 8.71458 16.4982 8.43941C16.1886 8.16424 15.7146 8.19216 15.4394 8.50177L16.5606 9.49823ZM7.43951 12.4984L10.1069 15.4984L11.2279 14.5016L8.56049 11.5016L7.43951 12.4984ZM11.228 15.4982L16.5606 9.49823L15.4394 8.50177L10.1068 14.5018L11.228 15.4982Z" fill="#68A353"/>
</svg>
