<svg width="24" height="24" viewBox="0 0 24 24" fill="none" xmlns="http://www.w3.org/2000/svg">
<path d="M18.1482 11.8162C18.1591 12.2302 17.8322 12.5747 17.4182 12.5855C17.0041 12.5964 16.6596 12.2695 16.6488 11.8555L18.1482 11.8162ZM15.7005 14.9699C15.942 14.6333 16.4105 14.5562 16.7471 14.7977C17.0837 15.0391 17.1608 15.5077 16.9193 15.8442L15.7005 14.9699ZM18.3127 8.3936C18.4785 8.01403 18.9207 7.84074 19.3002 8.00656C19.6798 8.17238 19.8531 8.6145 19.6873 8.99408L18.3127 8.3936ZM17.5926 11.9155L18.2799 12.2157C18.1168 12.589 17.6856 12.7639 17.3086 12.6096L17.5926 11.9155ZM13.9983 11.255C13.6149 11.0981 13.4313 10.6602 13.5882 10.2768C13.7451 9.89348 14.183 9.70988 14.5664 9.86676L13.9983 11.255ZM16.6488 11.8555C16.5752 9.04802 14.187 6.75 11.1992 6.75V5.25C14.955 5.25 18.0522 8.15152 18.1482 11.8162L16.6488 11.8555ZM11.1992 6.75C8.16893 6.75 5.75 9.12583 5.75 12H4.25C4.25 8.25159 7.38707 5.25 11.1992 5.25V6.75ZM5.75 12C5.75 14.8805 8.16836 17.25 11.1992 17.25V18.75C7.38764 18.75 4.25 15.7558 4.25 12H5.75ZM11.1992 17.25C13.0734 17.25 14.7146 16.3442 15.7005 14.9699L16.9193 15.8442C15.6573 17.6034 13.5663 18.75 11.1992 18.75V17.25ZM19.6873 8.99408L18.2799 12.2157L16.9053 11.6153L18.3127 8.3936L19.6873 8.99408ZM17.3086 12.6096L13.9983 11.255L14.5664 9.86676L17.8767 11.2214L17.3086 12.6096Z" fill="#2277F6"/>
</svg>
