<svg width="20" height="21" viewBox="0 0 20 21" fill="none" xmlns="http://www.w3.org/2000/svg">
<path fill-rule="evenodd" clip-rule="evenodd" d="M10.75 1C10.75 0.585786 10.4142 0.25 10 0.25C9.5858 0.25 9.25002 0.585786 9.25002 1V9.18934L7.53035 7.46967C7.23746 7.17678 6.76258 7.17678 6.46969 7.46967C6.1768 7.76256 6.1768 8.23744 6.46969 8.53033L9.46969 11.5303C9.76258 11.8232 10.2375 11.8232 10.5303 11.5303L13.5303 8.53033C13.8232 8.23744 13.8232 7.76256 13.5303 7.46967C13.2375 7.17678 12.7626 7.17678 12.4697 7.46967L10.75 9.18934V1ZM6.57898 2.25L6.62312 2.25H6.75002C7.16423 2.25 7.50002 2.58579 7.50002 3C7.50002 3.41421 7.16423 3.75 6.75002 3.75H6.62312C5.85491 3.75 5.34497 3.75125 4.95697 3.79764C4.589 3.84164 4.41584 3.91829 4.29231 4.01474C4.16877 4.11119 4.05242 4.2606 3.92048 4.60691C3.78137 4.97207 3.65648 5.46648 3.47016 6.21176L2.26126 11.0473C2.10562 11.6699 2.03784 11.9432 1.99189 12.2161L1.98626 12.25H4.19754L4.30449 12.2499C4.91403 12.2494 5.39393 12.249 5.83729 12.404C6.10635 12.498 6.35915 12.6333 6.58665 12.805C6.96151 13.088 7.22738 13.4875 7.56507 13.995L7.62435 14.084C8.05048 14.7232 8.17229 14.888 8.31764 14.9977C8.42104 15.0758 8.53595 15.1373 8.65825 15.18C8.83016 15.2401 9.03488 15.25 9.80309 15.25H10.1975C10.9658 15.25 11.1705 15.2401 11.3424 15.18C11.4647 15.1373 11.5796 15.0758 11.683 14.9977C11.8283 14.888 11.9501 14.7232 12.3763 14.084L12.4356 13.9949C12.7732 13.4875 13.0391 13.088 13.414 12.805C13.6415 12.6333 13.8943 12.498 14.1633 12.404C14.6067 12.249 15.0866 12.2494 15.6961 12.2499L15.8031 12.25H18.0138L18.0082 12.2161C17.9622 11.9432 17.8944 11.6699 17.7388 11.0473L16.5299 6.21176C16.3436 5.46648 16.2187 4.97207 16.0796 4.60691C15.9476 4.2606 15.8313 4.11119 15.7077 4.01474C15.5842 3.91829 15.411 3.84164 15.0431 3.79764C14.6551 3.75125 14.1451 3.75 13.3769 3.75H13.25C12.8358 3.75 12.5 3.41421 12.5 3C12.5 2.58579 12.8358 2.25 13.25 2.25H13.3769L13.4211 2.25C14.1334 2.24997 14.7336 2.24995 15.2212 2.30825C15.7388 2.37015 16.2119 2.5053 16.6308 2.83244C17.0498 3.15957 17.2957 3.58574 17.4813 4.07289C17.6561 4.53174 17.8016 5.11407 17.9744 5.80511L17.9851 5.84796L19.194 10.6835L19.2023 10.7169C19.3474 11.2971 19.4305 11.6295 19.4873 11.967C19.5991 12.6309 19.6339 13.3055 19.591 13.9774C19.5692 14.319 19.5208 14.6581 19.4362 15.2503L19.4313 15.2842L19.4125 15.4161C19.2439 16.598 19.1361 17.3538 18.8473 17.9825C18.2759 19.2267 17.1954 20.1637 15.883 20.5535C15.2197 20.7504 14.4563 20.7503 13.2625 20.75L13.1292 20.75H6.87084L6.73755 20.75C5.54371 20.7503 4.78033 20.7504 4.11704 20.5535C2.80459 20.1637 1.72413 19.2267 1.15271 17.9825C0.863921 17.3538 0.756127 16.598 0.587547 15.4161L0.568718 15.2842L0.563865 15.2502C0.479262 14.6581 0.43081 14.3189 0.409006 13.9774C0.366121 13.3055 0.40092 12.6309 0.512711 11.967C0.56955 11.6295 0.652641 11.2971 0.797729 10.7168L0.80605 10.6835L2.01495 5.84795L2.02565 5.80513C2.19839 5.11408 2.34395 4.53174 2.51876 4.07289C2.70435 3.58574 2.9502 3.15957 3.36919 2.83244C3.78818 2.5053 4.26125 2.37015 4.77887 2.30825C5.26641 2.24995 5.86667 2.24997 6.57898 2.25ZM1.90596 13.8818C1.90316 13.8379 1.90075 13.7939 1.89875 13.75H4.19754C4.96575 13.75 5.17047 13.7599 5.34237 13.82C5.46467 13.8627 5.57959 13.9242 5.68299 14.0023C5.82834 14.112 5.95015 14.2768 6.37628 14.916L6.43555 15.005C6.77325 15.5125 7.03911 15.912 7.41398 16.195C7.64147 16.3667 7.89428 16.502 8.16334 16.596C8.6067 16.751 9.0866 16.7506 9.69614 16.7501L9.80309 16.75H10.1975L10.3045 16.7501C10.914 16.7506 11.3939 16.751 11.8373 16.596C12.1063 16.502 12.3592 16.3667 12.5866 16.195C12.9615 15.912 13.2274 15.5125 13.5651 15.0051L13.6244 14.916C14.0505 14.2768 14.1723 14.112 14.3176 14.0023C14.421 13.9242 14.536 13.8627 14.6583 13.82C14.8302 13.7599 15.0349 13.75 15.8031 13.75H18.1013C18.0993 13.7939 18.0969 13.8379 18.0941 13.8818C18.0764 14.158 18.0372 14.4368 17.9464 15.0721C17.7522 16.4313 17.6701 16.9517 17.4842 17.3565C17.0933 18.2077 16.354 18.8489 15.456 19.1155C15.029 19.2423 14.5023 19.25 13.1292 19.25H6.87084C5.49778 19.25 4.971 19.2423 4.54404 19.1155C3.64605 18.8489 2.90679 18.2077 2.51581 17.3565C2.32992 16.9517 2.24782 16.4313 2.05364 15.0721C1.96289 14.4368 1.92359 14.158 1.90596 13.8818Z" fill="white"/>
</svg>
