<?xml version="1.0" encoding="utf-8"?>
<!-- Generator: Adobe Illustrator 25.4.1, SVG Export Plug-In . SVG Version: 6.00 Build 0)  -->
<svg version="1.1" id="Layer_1" xmlns="http://www.w3.org/2000/svg" xmlns:xlink="http://www.w3.org/1999/xlink" x="0px" y="0px"
	 viewBox="0 0 16 16" style="enable-background:new 0 0 16 16;" xml:space="preserve">
<style type="text/css">
	.st0{fill-rule:evenodd;clip-rule:evenodd;fill:#FFFFFF;}
</style>
<g>
	<path class="st0" d="M8.7,1C8.5,0.7,8.3,0.6,8,0.6C7.7,0.6,7.5,0.7,7.3,1L5.5,4.7L1.9,5.3c-0.3,0-0.5,0.2-0.6,0.5
		C1.2,6,1.3,6.3,1.5,6.5l2.7,2.7l-0.9,4c-0.1,0.3,0,0.6,0.3,0.8c0.2,0.2,0.5,0.2,0.8,0.1L8,12.2l3.7,1.9c0.3,0.1,0.6,0.1,0.8-0.1
		c0.2-0.2,0.3-0.5,0.3-0.8l-0.9-4l2.7-2.7c0.2-0.2,0.3-0.5,0.2-0.8c-0.1-0.3-0.3-0.5-0.6-0.5l-3.6-0.5L8.7,1z"/>
</g>
</svg>
