<?xml version="1.0" encoding="utf-8"?>
<!-- Generator: Adobe Illustrator 25.4.1, SVG Export Plug-In . SVG Version: 6.00 Build 0)  -->
<svg version="1.1" id="Layer_1" xmlns="http://www.w3.org/2000/svg" xmlns:xlink="http://www.w3.org/1999/xlink" x="0px" y="0px"
	 viewBox="0 0 24 24" style="enable-background:new 0 0 24 24;" xml:space="preserve">
<style type="text/css">
	.st0{fill-rule:evenodd;clip-rule:evenodd;fill:#FFFFFF;}
</style>
<path class="st0" d="M9.5,4.5c0.3,0.3,0.3,0.8,0,1.1L5.8,9.2H13h0c1.4,0,2.5,0,3.3,0.1c0.9,0.1,1.6,0.3,2.3,0.7
	c0.5,0.3,1,0.8,1.3,1.3c0.4,0.6,0.6,1.4,0.7,2.3c0.1,0.9,0.1,2,0.1,3.3v0h-1.5c0-1.4,0-2.4-0.1-3.2c-0.1-0.8-0.2-1.2-0.5-1.6
	c-0.2-0.4-0.5-0.7-0.9-0.9c-0.4-0.2-0.8-0.4-1.6-0.5c-0.8-0.1-1.8-0.1-3.2-0.1H5.8l3.7,3.7c0.3,0.3,0.3,0.8,0,1.1
	c-0.3,0.3-0.8,0.3-1.1,0l-5-5c-0.3-0.3-0.3-0.8,0-1.1l5-5C8.8,4.2,9.2,4.2,9.5,4.5z"/>
</svg>
