<svg width="24" height="24" viewBox="0 0 24 24" fill="none" xmlns="http://www.w3.org/2000/svg">
<g opacity="0.5">
<path d="M16.35 8.6413C16.35 8.22708 16.0142 7.8913 15.6 7.8913C15.1858 7.8913 14.85 8.22708 14.85 8.6413H16.35ZM17.497 20.0529C17.8391 19.8192 17.927 19.3526 17.6934 19.0105C17.4598 18.6685 16.9931 18.5806 16.6511 18.8142L17.497 20.0529ZM11.9998 9.14933C13.5734 9.14933 14.8498 10.4258 14.8498 11.9993H16.3498C16.3498 9.59734 14.4018 7.64933 11.9998 7.64933V9.14933ZM14.8498 11.9993C14.8498 13.5737 13.5735 14.8493 11.9998 14.8493V16.3493C14.4017 16.3493 16.3498 14.4024 16.3498 11.9993H14.8498ZM11.9998 14.8493C10.4261 14.8493 9.14981 13.5737 9.14981 11.9993H7.64981C7.64981 14.4024 9.59794 16.3493 11.9998 16.3493V14.8493ZM9.14981 11.9993C9.14981 10.4258 10.4262 9.14933 11.9998 9.14933V7.64933C9.59781 7.64933 7.64981 9.59734 7.64981 11.9993H9.14981ZM14.85 8.6413V12.899H16.35V8.6413H14.85ZM14.85 12.899C14.85 14.8048 16.3942 16.349 18.3 16.349V14.849C17.2226 14.849 16.35 13.9764 16.35 12.899H14.85ZM18.3 16.349C19.3587 16.349 20.2579 15.9028 20.8709 15.0899C21.4664 14.3002 21.75 13.2239 21.75 12H20.25C20.25 13.013 20.0131 13.7362 19.6733 14.1868C19.351 14.6141 18.9002 14.849 18.3 14.849V16.349ZM21.75 12C21.75 6.51936 17.3791 2.25 11.999 2.25V3.75C16.5608 3.75 20.25 7.35783 20.25 12H21.75ZM11.999 2.25C6.61471 2.25 2.25 6.616 2.25 12.001H3.75C3.75 7.44411 7.44345 3.75 11.999 3.75V2.25ZM2.25 12.001C2.25 17.3853 6.616 21.75 12.001 21.75V20.25C7.44411 20.25 3.75 16.5565 3.75 12.001H2.25ZM12.001 21.75C13.9657 21.75 15.881 21.1566 17.497 20.0529L16.6511 18.8142C15.284 19.7478 13.6635 20.25 12.001 20.25V21.75Z" fill="#415067"/>
</g>
</svg>
