<svg width="24" height="24" viewBox="0 0 24 24" fill="none" xmlns="http://www.w3.org/2000/svg">
<path fill-rule="evenodd" clip-rule="evenodd" d="M8.94513 3.25H9H15H15.0549C16.4225 3.24998 17.5248 3.24996 18.3918 3.36652C19.2919 3.48754 20.0497 3.74643 20.6517 4.34835C21.2536 4.95027 21.5125 5.70814 21.6335 6.60825C21.75 7.47522 21.75 8.57754 21.75 9.94513V10V20C21.75 20.2599 21.6154 20.5013 21.3943 20.638C21.1732 20.7746 20.8971 20.7871 20.6646 20.6708L18.3538 19.5154C17.4828 19.0799 17.1513 18.9193 16.8024 18.8369C16.4536 18.7546 16.0852 18.75 15.1115 18.75H9H8.94513H8.94512H8.94511C7.57753 18.75 6.47521 18.75 5.60825 18.6335C4.70814 18.5125 3.95027 18.2536 3.34835 17.6517C2.74643 17.0497 2.48754 16.2919 2.36652 15.3918C2.24996 14.5248 2.24998 13.4225 2.25 12.0549V12V10V9.94513C2.24998 8.57754 2.24996 7.47522 2.36652 6.60825C2.48754 5.70814 2.74643 4.95027 3.34835 4.34835C3.95027 3.74643 4.70814 3.48754 5.60825 3.36652C6.47522 3.24996 7.57754 3.24998 8.94513 3.25ZM5.80812 4.85315C5.07434 4.9518 4.68577 5.13225 4.40901 5.40901C4.13225 5.68577 3.9518 6.07434 3.85315 6.80812C3.75159 7.56347 3.75 8.56458 3.75 10V12C3.75 13.4354 3.75159 14.4365 3.85315 15.1919C3.9518 15.9257 4.13225 16.3142 4.40901 16.591C4.68577 16.8678 5.07434 17.0482 5.80812 17.1469C6.56347 17.2484 7.56458 17.25 9 17.25H15.1115L15.2 17.25C16.0554 17.2498 16.6077 17.2498 17.1471 17.3771C17.6864 17.5044 18.1803 17.7515 18.9454 18.1341L19.0246 18.1738L20.25 18.7865V10C20.25 8.56458 20.2484 7.56347 20.1469 6.80812C20.0482 6.07434 19.8678 5.68577 19.591 5.40901C19.3142 5.13225 18.9257 4.9518 18.1919 4.85315C17.4365 4.75159 16.4354 4.75 15 4.75H9C7.56458 4.75 6.56347 4.75159 5.80812 4.85315ZM13 14C13 14.5523 12.5523 15 12 15C11.4477 15 11 14.5523 11 14C11 13.4477 11.4477 13 12 13C12.5523 13 13 13.4477 13 14ZM12.75 7C12.75 6.58579 12.4142 6.25 12 6.25C11.5858 6.25 11.25 6.58579 11.25 7V11C11.25 11.4142 11.5858 11.75 12 11.75C12.4142 11.75 12.75 11.4142 12.75 11V7Z" fill="#2277F6"/>
</svg>
