<?xml version="1.0" encoding="utf-8"?>
<!-- Generator: Adobe Illustrator 25.4.1, SVG Export Plug-In . SVG Version: 6.00 Build 0)  -->
<svg version="1.1" id="Layer_1" xmlns="http://www.w3.org/2000/svg" xmlns:xlink="http://www.w3.org/1999/xlink" x="0px" y="0px"
	 viewBox="0 0 16 16" style="enable-background:new 0 0 16 16;" xml:space="preserve">
<style type="text/css">
	.st0{opacity:0.6;}
	.st1{fill-rule:evenodd;clip-rule:evenodd;fill:#FFFFFF;}
</style>
<g class="st0">
	<path class="st1" d="M11.4,2.7c-0.8-0.8-2.2-0.8-3.1,0L3.6,7.4c-1.4,1.4-1.4,3.6,0,4.9c1.4,1.4,3.6,1.4,4.9,0l5.2-5.2
		C14,7,14.3,7,14.5,7.2c0.2,0.2,0.2,0.5,0,0.7l-5.2,5.2c-1.8,1.8-4.6,1.8-6.4,0c-1.8-1.8-1.8-4.6,0-6.4L7.6,2c1.2-1.2,3.2-1.2,4.5,0
		c1.2,1.2,1.2,3.2,0,4.5l-4.7,4.7c-0.7,0.7-1.9,0.7-2.6,0s-0.7-1.9,0-2.6l4.7-4.7c0.2-0.2,0.5-0.2,0.7,0c0.2,0.2,0.2,0.5,0,0.7
		L5.5,9.3c-0.3,0.3-0.3,0.9,0,1.2c0.3,0.3,0.9,0.3,1.2,0l4.7-4.7C12.3,4.9,12.3,3.5,11.4,2.7z"/>
</g>
</svg>
