<svg width="24" height="24" viewBox="0 0 24 24" fill="none" xmlns="http://www.w3.org/2000/svg">
<path d="M8.2886 7.22703C7.9957 6.93414 7.52083 6.93414 7.22794 7.22703C6.93504 7.51992 6.93504 7.9948 7.22794 8.28769L8.2886 7.22703ZM15.7132 16.773C16.0061 17.0659 16.481 17.0659 16.7739 16.773C17.0668 16.4801 17.0668 16.0052 16.7739 15.7123L15.7132 16.773ZM7.22794 15.7123C6.93504 16.0052 6.93504 16.4801 7.22794 16.773C7.52083 17.0659 7.9957 17.0659 8.2886 16.773L7.22794 15.7123ZM16.7739 8.28769C17.0668 7.9948 17.0668 7.51992 16.7739 7.22703C16.481 6.93414 16.0061 6.93414 15.7132 7.22703L16.7739 8.28769ZM7.22794 8.28769L15.7132 16.773L16.7739 15.7123L8.2886 7.22703L7.22794 8.28769ZM8.2886 16.773L16.7739 8.28769L15.7132 7.22703L7.22794 15.7123L8.2886 16.773Z" fill="white"/>
</svg>
