<?xml version="1.0" encoding="utf-8"?>
<!-- Generator: Adobe Illustrator 26.3.1, SVG Export Plug-In . SVG Version: 6.00 Build 0)  -->
<svg version="1.1" id="Layer_1" xmlns="http://www.w3.org/2000/svg" xmlns:xlink="http://www.w3.org/1999/xlink" x="0px" y="0px"
	 viewBox="0 0 546.1 175.5" style="enable-background:new 0 0 546.1 175.5;" xml:space="preserve">
<style type="text/css">
	.st0{fill:#FFFFFF;fill-opacity:7.000000e-02;}
	.st1{fill:none;stroke:#FFFFFF;stroke-opacity:0.1;stroke-dasharray:10,10;}
	.st2{fill:#FFFFFF;}
	.st3{fill:#4CBFFF;}
	.st4{opacity:0.5;}
	.st5{fill:#080D13;}
	.st6{opacity:0.6;}
	.st7{fill-rule:evenodd;clip-rule:evenodd;fill:#FFB84C;}
	.st8{fill-rule:evenodd;clip-rule:evenodd;fill:#080D13;}
	.st9{opacity:0.1;}
</style>
<path class="st0" d="M34,14.6c0-7.8,6.3-14.2,14.2-14.2h482.5c7.8,0,14.2,6.3,14.2,14.2v122.7c0,7.8-6.3,14.2-14.2,14.2H48.2
	c-7.8,0-14.2-6.3-14.2-14.2V14.6z"/>
<path class="st1" d="M48.2,151c-1.9,0-3.6-0.4-5.2-1l-0.2,0.5c-3.5-1.4-6.2-4.2-7.7-7.7l0.5-0.2c-0.7-1.6-1-3.4-1-5.2v-5.1H34V122
	h0.5v-10.2H34v-10.2h0.5V91.3H34V81.1h0.5V70.9H34V60.7h0.5V50.4H34V40.2h0.5V30H34V19.8h0.5v-5.1c0-1.9,0.4-3.6,1-5.2l-0.5-0.2
	c1.4-3.5,4.2-6.2,7.7-7.7L42.9,2c1.6-0.7,3.4-1,5.2-1h5V0.5h10.1V1h10.1V0.5h10.1V1h10.1V0.5h10.1V1h10.1V0.5h10.1V1h10.1V0.5h10.1
	V1h10.1V0.5h10.1V1h10.1V0.5h10.1V1h10.1V0.5H204V1H214V0.5h10.1V1h10.1V0.5h10.1V1h10.1V0.5h10.1V1h10.1V0.5h10.1V1h10.1V0.5h10.1
	V1h10.1V0.5h10.1V1h10.1V0.5h10.1V1h10.1V0.5h10.1V1h10.1V0.5h10.1V1h10.1V0.5H405V1h10.1V0.5h10.1V1h10.1V0.5h10.1V1h10.1V0.5h10.1
	V1h10.1V0.5h10.1V1h10.1V0.5h10.1V1h10.1V0.5h10.1V1h5c1.9,0,3.6,0.4,5.2,1l0.2-0.5c3.5,1.4,6.2,4.2,7.7,7.7l-0.5,0.2
	c0.7,1.6,1,3.4,1,5.2v5.1h0.5V30h-0.5v10.2h0.5v10.2h-0.5v10.2h0.5v10.2h-0.5v10.2h0.5v10.2h-0.5v10.2h0.5v10.2h-0.5V122h0.5v10.2
	h-0.5v5.1c0,1.9-0.4,3.6-1,5.2l0.5,0.2c-1.4,3.5-4.2,6.2-7.7,7.7l-0.2-0.5c-1.6,0.7-3.4,1-5.2,1h-5v0.5h-10.1V151h-10.1v0.5h-10.1
	V151h-10.1v0.5h-10.1V151h-10.1v0.5h-10.1V151h-10.1v0.5h-10.1V151h-10.1v0.5h-10.1V151H405v0.5h-10.1V151h-10.1v0.5h-10.1V151
	h-10.1v0.5h-10.1V151h-10.1v0.5h-10.1V151h-10.1v0.5h-10.1V151h-10.1v0.5h-10.1V151h-10.1v0.5h-10.1V151h-10.1v0.5h-10.1V151h-10.1
	v0.5h-10.1V151h-10.1v0.5H214V151H204v0.5h-10.1V151h-10.1v0.5h-10.1V151h-10.1v0.5h-10.1V151h-10.1v0.5h-10.1V151h-10.1v0.5h-10.1
	V151h-10.1v0.5H93.4V151H83.3v0.5H73.3V151H63.2v0.5H53.2V151H48.2z"/>
<g>
	<path class="st2" d="M0,38.6c0-7.8,6.3-14.2,14.2-14.2h482.5c7.8,0,14.2,6.3,14.2,14.2v122.7c0,7.8-6.3,14.2-14.2,14.2H14.2
		c-7.8,0-14.2-6.3-14.2-14.2V38.6z"/>
</g>
<path class="st3" d="M0,58.7L0,58.7c3.3,0,6,2.7,6,6v70.6c0,3.3-2.7,6-6,6l0,0V58.7z"/>
<g class="st4">
	<path class="st5" d="M88.1,63.1l-3-10.5h1.5l2.5,9.3h-0.3l2.6-9.3h1.5l2.6,9.3h-0.4l2.5-9.3h1.5l-3,10.5h-1.5l-2.6-9.2h0.4
		l-2.6,9.2H88.1z"/>
	<path class="st5" d="M102.8,63.3c-0.7,0-1.4-0.2-2-0.5c-0.6-0.3-1-0.8-1.4-1.4c-0.3-0.6-0.5-1.3-0.5-2.1c0-0.8,0.2-1.4,0.5-2
		c0.3-0.6,0.8-1.1,1.3-1.4c0.6-0.3,1.2-0.5,1.9-0.5c0.6,0,1.1,0.1,1.5,0.3c0.4,0.2,0.8,0.5,1.1,0.8c0.3,0.3,0.5,0.7,0.7,1.2
		c0.2,0.4,0.3,0.9,0.3,1.4c0,0.1,0,0.2,0,0.4c0,0.1,0,0.2,0,0.4h-6.3v-1.1h5.5l-0.6,0.5c0.1-0.5,0-0.9-0.1-1.3
		c-0.2-0.4-0.4-0.7-0.8-0.9c-0.3-0.2-0.7-0.3-1.2-0.3c-0.4,0-0.9,0.1-1.2,0.3c-0.4,0.2-0.7,0.6-0.9,1c-0.2,0.4-0.3,0.9-0.2,1.5
		c0,0.6,0,1,0.3,1.5c0.2,0.4,0.5,0.7,0.9,1c0.4,0.2,0.8,0.3,1.3,0.3c0.5,0,0.9-0.1,1.3-0.4c0.4-0.2,0.6-0.5,0.9-0.9l1.1,0.6
		c-0.2,0.3-0.4,0.7-0.7,1c-0.3,0.3-0.7,0.5-1.1,0.7C103.8,63.2,103.3,63.3,102.8,63.3z"/>
	<path class="st5" d="M111.6,63.3c-0.6,0-1.2-0.1-1.7-0.4c-0.5-0.3-0.9-0.7-1.2-1.2l0.2-0.2v1.6h-1.3V52.4h1.3v4.7l-0.2-0.3
		c0.3-0.5,0.7-0.8,1.2-1.1c0.5-0.3,1.1-0.4,1.7-0.4c0.7,0,1.4,0.2,1.9,0.5c0.6,0.3,1,0.8,1.4,1.4c0.3,0.6,0.5,1.3,0.5,2
		c0,0.7-0.2,1.4-0.5,2c-0.3,0.6-0.8,1.1-1.4,1.4C113,63.1,112.3,63.3,111.6,63.3z M111.5,62c0.5,0,0.9-0.1,1.3-0.4
		c0.4-0.2,0.7-0.6,0.9-1c0.2-0.4,0.3-0.9,0.3-1.4c0-0.5-0.1-1-0.3-1.4c-0.2-0.4-0.5-0.7-0.9-1c-0.4-0.2-0.8-0.4-1.3-0.4
		c-0.5,0-0.9,0.1-1.3,0.4c-0.4,0.2-0.7,0.6-0.9,1c-0.2,0.4-0.3,0.9-0.3,1.4c0,0.5,0.1,1,0.3,1.4c0.2,0.4,0.5,0.7,0.9,1
		C110.6,61.9,111,62,111.5,62z"/>
	<path class="st5" d="M117.4,63.1v-6.4H116v-1.3h1.5v-0.5c0-0.5,0.1-1,0.4-1.4c0.2-0.4,0.6-0.7,1-0.9c0.4-0.2,0.9-0.3,1.3-0.3
		c0.1,0,0.2,0,0.3,0c0.1,0,0.2,0,0.3,0v1.2c-0.1,0-0.2,0-0.3,0c-0.1,0-0.2,0-0.2,0c-0.4,0-0.8,0.1-1.1,0.3c-0.3,0.2-0.4,0.6-0.4,1
		v0.5h1.8v1.3h-1.8v6.4H117.4z"/>
	<path class="st5" d="M122,63.1V52.4h1.3v10.7H122z"/>
	<path class="st5" d="M128.7,63.3c-0.7,0-1.4-0.2-2-0.5c-0.6-0.3-1.1-0.8-1.4-1.4c-0.3-0.6-0.5-1.3-0.5-2.1c0-0.8,0.2-1.4,0.5-2
		c0.3-0.6,0.8-1.1,1.4-1.4c0.6-0.3,1.3-0.5,2-0.5c0.7,0,1.4,0.2,2,0.5c0.6,0.3,1.1,0.8,1.4,1.4c0.3,0.6,0.5,1.3,0.5,2.1
		c0,0.8-0.2,1.5-0.5,2.1c-0.4,0.6-0.8,1.1-1.4,1.4C130,63.1,129.4,63.3,128.7,63.3z M128.7,62c0.5,0,0.9-0.1,1.3-0.4
		c0.4-0.2,0.7-0.6,0.9-1c0.2-0.4,0.3-0.9,0.3-1.4c0-0.5-0.1-1-0.3-1.4c-0.2-0.4-0.5-0.7-0.9-1c-0.4-0.2-0.8-0.4-1.3-0.4
		c-0.5,0-0.9,0.1-1.3,0.4c-0.4,0.2-0.7,0.6-0.9,1c-0.2,0.4-0.3,0.9-0.3,1.4c0,0.5,0.1,1,0.3,1.4c0.2,0.4,0.5,0.7,0.9,1
		C127.7,61.9,128.2,62,128.7,62z"/>
	<path class="st5" d="M135.6,63.1l-2.6-7.6h1.5l2.1,6.4l-0.5,0l2-6.4h1.2l2,6.4l-0.5,0l2.1-6.4h1.4l-2.6,7.6h-1.3l-2-6.4h0.4l-2,6.4
		H135.6z"/>
</g>
<path class="st5" d="M88.4,94.6l-3.3-12.3h2.4l2.6,10.5h-0.6l2.7-10.5h2.3l2.7,10.5h-0.6l2.6-10.5h2.4l-3.3,12.3h-2.6L93,84.4h0.7
	L91,94.6H88.4z"/>
<path class="st5" d="M106.2,94.8c-0.9,0-1.7-0.2-2.4-0.6c-0.7-0.4-1.2-1-1.6-1.7c-0.4-0.7-0.6-1.5-0.6-2.4c0-0.9,0.2-1.7,0.6-2.4
	c0.4-0.7,0.9-1.3,1.6-1.7c0.7-0.4,1.4-0.6,2.3-0.6c0.7,0,1.3,0.1,1.8,0.3c0.5,0.2,1,0.6,1.4,1c0.4,0.4,0.7,0.9,0.9,1.4
	c0.2,0.5,0.3,1.1,0.3,1.7c0,0.2,0,0.3,0,0.5c0,0.2,0,0.3-0.1,0.4h-6.9V89h5.7l-1,0.8c0.1-0.5,0.1-1-0.1-1.4
	c-0.1-0.4-0.4-0.7-0.7-0.9c-0.3-0.2-0.7-0.3-1.2-0.3c-0.5,0-0.9,0.1-1.2,0.3c-0.4,0.2-0.6,0.6-0.8,1c-0.2,0.4-0.2,1-0.2,1.6
	c0,0.6,0,1,0.2,1.5c0.2,0.4,0.5,0.7,0.9,1c0.4,0.2,0.8,0.3,1.3,0.3c0.5,0,0.9-0.1,1.3-0.3c0.4-0.2,0.6-0.5,0.8-0.8l1.8,0.9
	c-0.2,0.4-0.5,0.8-0.8,1.1c-0.4,0.3-0.8,0.6-1.3,0.8C107.4,94.7,106.8,94.8,106.2,94.8z"/>
<path class="st5" d="M111.7,94.6V82.1h2.2v12.5H111.7z"/>
<path class="st5" d="M119.9,94.8c-0.9,0-1.7-0.2-2.4-0.6c-0.7-0.4-1.3-1-1.7-1.7c-0.4-0.7-0.6-1.5-0.6-2.4s0.2-1.7,0.6-2.4
	c0.4-0.7,1-1.3,1.7-1.7c0.7-0.4,1.5-0.6,2.4-0.6c0.6,0,1.2,0.1,1.8,0.3c0.6,0.2,1,0.5,1.4,0.9c0.4,0.4,0.7,0.8,0.9,1.4l-1.9,0.8
	c-0.2-0.5-0.4-0.8-0.8-1.1c-0.4-0.3-0.8-0.4-1.3-0.4c-0.5,0-0.9,0.1-1.3,0.3c-0.4,0.2-0.6,0.6-0.9,1c-0.2,0.4-0.3,0.9-0.3,1.4
	c0,0.5,0.1,1,0.3,1.4c0.2,0.4,0.5,0.7,0.9,1c0.4,0.2,0.8,0.3,1.3,0.3c0.5,0,1-0.1,1.4-0.4c0.4-0.3,0.7-0.6,0.8-1.1l1.9,0.9
	c-0.2,0.5-0.5,1-0.9,1.4c-0.4,0.4-0.9,0.7-1.4,0.9C121.1,94.7,120.5,94.8,119.9,94.8z"/>
<path class="st5" d="M129.6,94.8c-0.9,0-1.7-0.2-2.4-0.6c-0.7-0.4-1.3-1-1.7-1.7c-0.4-0.7-0.6-1.5-0.6-2.4s0.2-1.7,0.6-2.4
	c0.4-0.7,1-1.3,1.7-1.7c0.7-0.4,1.5-0.6,2.4-0.6c0.9,0,1.7,0.2,2.4,0.6c0.7,0.4,1.3,1,1.7,1.7c0.4,0.7,0.6,1.5,0.6,2.4
	c0,0.9-0.2,1.7-0.6,2.4c-0.4,0.7-1,1.3-1.7,1.7S130.5,94.8,129.6,94.8z M129.6,92.8c0.5,0,0.9-0.1,1.3-0.3c0.4-0.2,0.7-0.6,0.9-1
	c0.2-0.4,0.3-0.9,0.3-1.4c0-0.5-0.1-1-0.3-1.4c-0.2-0.4-0.5-0.7-0.9-1c-0.4-0.2-0.8-0.4-1.3-0.4c-0.5,0-0.9,0.1-1.3,0.4
	c-0.4,0.2-0.7,0.6-0.9,1c-0.2,0.4-0.3,0.9-0.3,1.4c0,0.5,0.1,1,0.3,1.4c0.2,0.4,0.5,0.7,0.9,1C128.7,92.7,129.1,92.8,129.6,92.8z"/>
<path class="st5" d="M135.7,94.6v-9h2v2.1l-0.2-0.3c0.2-0.6,0.5-1.1,1-1.5c0.5-0.3,1.1-0.5,1.8-0.5c0.7,0,1.4,0.2,1.9,0.6
	c0.6,0.4,0.9,0.9,1.1,1.5l-0.6,0c0.3-0.7,0.7-1.2,1.2-1.6c0.6-0.4,1.2-0.5,1.9-0.5c0.6,0,1.2,0.1,1.7,0.4c0.5,0.3,0.9,0.7,1.2,1.2
	c0.3,0.5,0.4,1.1,0.4,1.8v5.8H147v-5.3c0-0.4-0.1-0.7-0.2-1c-0.1-0.3-0.3-0.5-0.6-0.7c-0.3-0.2-0.6-0.2-0.9-0.2
	c-0.3,0-0.6,0.1-0.9,0.2c-0.3,0.2-0.5,0.4-0.6,0.7c-0.1,0.3-0.2,0.6-0.2,1v5.3h-2.2v-5.3c0-0.4-0.1-0.7-0.2-1
	c-0.1-0.3-0.3-0.5-0.6-0.7c-0.3-0.2-0.6-0.2-0.9-0.2c-0.3,0-0.6,0.1-0.9,0.2c-0.3,0.2-0.5,0.4-0.6,0.7c-0.1,0.3-0.2,0.6-0.2,1v5.3
	H135.7z"/>
<path class="st5" d="M154.9,94.8c-0.9,0-1.7-0.2-2.4-0.6c-0.7-0.4-1.2-1-1.6-1.7c-0.4-0.7-0.6-1.5-0.6-2.4c0-0.9,0.2-1.7,0.6-2.4
	c0.4-0.7,0.9-1.3,1.6-1.7c0.7-0.4,1.4-0.6,2.3-0.6c0.7,0,1.3,0.1,1.9,0.3c0.5,0.2,1,0.6,1.4,1c0.4,0.4,0.7,0.9,0.9,1.4
	c0.2,0.5,0.3,1.1,0.3,1.7c0,0.2,0,0.3,0,0.5c0,0.2,0,0.3-0.1,0.4H152V89h5.7l-1,0.8c0.1-0.5,0.1-1-0.1-1.4c-0.1-0.4-0.4-0.7-0.7-0.9
	c-0.3-0.2-0.7-0.3-1.2-0.3c-0.5,0-0.9,0.1-1.2,0.3c-0.4,0.2-0.6,0.6-0.8,1c-0.2,0.4-0.2,1-0.2,1.6c0,0.6,0,1,0.2,1.5
	c0.2,0.4,0.5,0.7,0.9,1c0.4,0.2,0.8,0.3,1.3,0.3c0.5,0,0.9-0.1,1.3-0.3c0.4-0.2,0.6-0.5,0.8-0.8l1.8,0.9c-0.2,0.4-0.5,0.8-0.8,1.1
	c-0.4,0.3-0.8,0.6-1.3,0.8C156.1,94.7,155.5,94.8,154.9,94.8z"/>
<path class="st5" d="M167.1,94.7c-1,0-1.8-0.3-2.4-0.8c-0.6-0.6-0.8-1.3-0.8-2.4v-4h-1.6v-1.9h0.2c0.4,0,0.8-0.1,1-0.3
	c0.2-0.2,0.4-0.6,0.4-1v-0.7h2.2v2h2.1v1.9h-2.1v3.8c0,0.3,0,0.6,0.1,0.8c0.1,0.2,0.3,0.4,0.5,0.5c0.2,0.1,0.5,0.2,0.9,0.2
	c0.1,0,0.2,0,0.3,0c0.1,0,0.2,0,0.3,0v1.9c-0.2,0-0.3,0-0.5,0.1C167.5,94.7,167.3,94.7,167.1,94.7z"/>
<path class="st5" d="M173.8,94.8c-0.9,0-1.7-0.2-2.4-0.6c-0.7-0.4-1.3-1-1.7-1.7c-0.4-0.7-0.6-1.5-0.6-2.4s0.2-1.7,0.6-2.4
	c0.4-0.7,1-1.3,1.7-1.7c0.7-0.4,1.5-0.6,2.4-0.6c0.9,0,1.7,0.2,2.4,0.6c0.7,0.4,1.3,1,1.7,1.7c0.4,0.7,0.6,1.5,0.6,2.4
	c0,0.9-0.2,1.7-0.6,2.4c-0.4,0.7-1,1.3-1.7,1.7C175.5,94.6,174.7,94.8,173.8,94.8z M173.8,92.8c0.5,0,0.9-0.1,1.3-0.3
	c0.4-0.2,0.7-0.6,0.9-1c0.2-0.4,0.3-0.9,0.3-1.4c0-0.5-0.1-1-0.3-1.4c-0.2-0.4-0.5-0.7-0.9-1c-0.4-0.2-0.8-0.4-1.3-0.4
	c-0.5,0-0.9,0.1-1.3,0.4c-0.4,0.2-0.7,0.6-0.9,1c-0.2,0.4-0.3,0.9-0.3,1.4c0,0.5,0.1,1,0.3,1.4c0.2,0.4,0.5,0.7,0.9,1
	C172.9,92.7,173.3,92.8,173.8,92.8z"/>
<path class="st5" d="M184.9,94.6l-3.3-12.3h2.4l2.6,10.5H186l2.7-10.5h2.3l2.7,10.5h-0.6l2.6-10.5h2.4l-3.3,12.3h-2.6l-2.7-10.2h0.7
	l-2.7,10.2H184.9z"/>
<path class="st5" d="M202.7,94.8c-0.9,0-1.7-0.2-2.4-0.6c-0.7-0.4-1.2-1-1.6-1.7c-0.4-0.7-0.6-1.5-0.6-2.4c0-0.9,0.2-1.7,0.6-2.4
	c0.4-0.7,0.9-1.3,1.6-1.7c0.7-0.4,1.4-0.6,2.3-0.6c0.7,0,1.3,0.1,1.9,0.3c0.5,0.2,1,0.6,1.4,1c0.4,0.4,0.7,0.9,0.9,1.4
	c0.2,0.5,0.3,1.1,0.3,1.7c0,0.2,0,0.3,0,0.5c0,0.2,0,0.3-0.1,0.4h-6.9V89h5.7l-1,0.8c0.1-0.5,0.1-1-0.1-1.4
	c-0.1-0.4-0.4-0.7-0.7-0.9c-0.3-0.2-0.7-0.3-1.2-0.3c-0.5,0-0.9,0.1-1.2,0.3c-0.4,0.2-0.6,0.6-0.8,1c-0.2,0.4-0.2,1-0.2,1.6
	c0,0.6,0,1,0.2,1.5c0.2,0.4,0.5,0.7,0.9,1c0.4,0.2,0.8,0.3,1.3,0.3c0.5,0,0.9-0.1,1.3-0.3c0.4-0.2,0.6-0.5,0.8-0.8l1.8,0.9
	c-0.2,0.4-0.5,0.8-0.8,1.1c-0.4,0.3-0.8,0.6-1.3,0.8C203.9,94.7,203.3,94.8,202.7,94.8z"/>
<path class="st5" d="M213.1,94.8c-0.6,0-1.2-0.1-1.8-0.4c-0.5-0.3-1-0.6-1.3-1.1l0.2-0.4v1.7h-2V82.1h2.2v5.3l-0.3-0.4
	c0.3-0.5,0.7-0.9,1.3-1.1c0.5-0.3,1.1-0.4,1.8-0.4c0.8,0,1.6,0.2,2.3,0.6c0.7,0.4,1.2,1,1.6,1.7c0.4,0.7,0.6,1.5,0.6,2.4
	c0,0.9-0.2,1.7-0.6,2.4c-0.4,0.7-0.9,1.3-1.6,1.7C214.8,94.6,214,94.8,213.1,94.8z M212.9,92.8c0.5,0,0.9-0.1,1.3-0.3
	c0.4-0.2,0.7-0.6,0.9-1c0.2-0.4,0.3-0.9,0.3-1.4c0-0.5-0.1-1-0.3-1.4c-0.2-0.4-0.5-0.7-0.9-1c-0.4-0.2-0.8-0.4-1.3-0.4
	c-0.5,0-0.9,0.1-1.3,0.3c-0.4,0.2-0.7,0.6-0.9,1c-0.2,0.4-0.3,0.9-0.3,1.4c0,0.5,0.1,1,0.3,1.4c0.2,0.4,0.5,0.7,0.9,1
	C212,92.7,212.4,92.8,212.9,92.8z"/>
<path class="st5" d="M219.8,94.6v-7.1h-1.6v-1.9h1.6v-0.3c0-0.7,0.1-1.3,0.4-1.7c0.3-0.5,0.7-0.9,1.2-1.1c0.5-0.3,1.1-0.4,1.8-0.4
	c0.1,0,0.3,0,0.4,0c0.2,0,0.3,0,0.4,0V84c-0.1,0-0.2,0-0.3,0c-0.1,0-0.2,0-0.2,0c-0.5,0-0.9,0.1-1.1,0.3c-0.3,0.2-0.4,0.5-0.4,1v0.3
	h2v1.9h-2v7.1H219.8z"/>
<path class="st5" d="M225.2,94.6V82.1h2.2v12.5H225.2z"/>
<path class="st5" d="M233.4,94.8c-0.9,0-1.7-0.2-2.4-0.6c-0.7-0.4-1.3-1-1.7-1.7c-0.4-0.7-0.6-1.5-0.6-2.4s0.2-1.7,0.6-2.4
	c0.4-0.7,1-1.3,1.7-1.7c0.7-0.4,1.5-0.6,2.4-0.6c0.9,0,1.7,0.2,2.4,0.6c0.7,0.4,1.3,1,1.7,1.7c0.4,0.7,0.6,1.5,0.6,2.4
	c0,0.9-0.2,1.7-0.6,2.4c-0.4,0.7-1,1.3-1.7,1.7C235.1,94.6,234.3,94.8,233.4,94.8z M233.4,92.8c0.5,0,0.9-0.1,1.3-0.3
	c0.4-0.2,0.7-0.6,0.9-1c0.2-0.4,0.3-0.9,0.3-1.4c0-0.5-0.1-1-0.3-1.4c-0.2-0.4-0.5-0.7-0.9-1c-0.4-0.2-0.8-0.4-1.3-0.4
	c-0.5,0-0.9,0.1-1.3,0.4c-0.4,0.2-0.7,0.6-0.9,1c-0.2,0.4-0.3,0.9-0.3,1.4c0,0.5,0.1,1,0.3,1.4c0.2,0.4,0.5,0.7,0.9,1
	C232.5,92.7,232.9,92.8,233.4,92.8z"/>
<path class="st5" d="M241.6,94.6l-3.1-9h2.3l2.3,6.8l-0.8,0l2.4-6.8h1.9l2.4,6.8l-0.8,0l2.3-6.8h2.3l-3.1,9h-1.9l-2.4-7.1h0.7
	l-2.5,7.1H241.6z"/>
<path class="st5" d="M254.6,90.8l-0.1-8.6h2.2l-0.1,8.6H254.6z M254.5,94.6v-2.3h2.2v2.3H254.5z"/>
<g class="st6">
	<path class="st5" d="M86.1,124.2v-10.5h1.2l6.1,8.5l-0.5,0.1v-8.6h1.4v10.5H93l-6-8.6l0.5-0.1v8.6H86.1z"/>
	<path class="st5" d="M99.7,124.4c-0.7,0-1.4-0.2-2-0.5c-0.6-0.3-1.1-0.8-1.4-1.4c-0.3-0.6-0.5-1.3-0.5-2.1c0-0.8,0.2-1.4,0.5-2
		c0.3-0.6,0.8-1.1,1.4-1.4c0.6-0.3,1.3-0.5,2-0.5c0.7,0,1.4,0.2,2,0.5c0.6,0.3,1.1,0.8,1.4,1.4c0.4,0.6,0.5,1.3,0.5,2.1
		c0,0.8-0.2,1.5-0.5,2.1c-0.4,0.6-0.8,1.1-1.4,1.4C101.1,124.2,100.5,124.4,99.7,124.4z M99.7,123.1c0.5,0,0.9-0.1,1.3-0.4
		c0.4-0.2,0.7-0.6,0.9-1c0.2-0.4,0.3-0.9,0.3-1.4c0-0.5-0.1-1-0.3-1.4c-0.2-0.4-0.5-0.7-0.9-1c-0.4-0.2-0.8-0.4-1.3-0.4
		c-0.5,0-0.9,0.1-1.3,0.4c-0.4,0.2-0.7,0.6-0.9,1c-0.2,0.4-0.3,0.9-0.3,1.4c0,0.5,0.1,1,0.3,1.4c0.2,0.4,0.5,0.7,0.9,1
		C98.8,123,99.3,123.1,99.7,123.1z"/>
	<path class="st5" d="M106.7,124.2l-2.6-7.6h1.5l2.1,6.4l-0.5,0l2-6.4h1.2l2,6.4l-0.5,0l2.1-6.4h1.4l-2.6,7.6h-1.3l-2-6.4h0.4
		l-2,6.4H106.7z"/>
	<path class="st5" d="M121.6,124.3c-0.7,0-1.3-0.2-1.7-0.6c-0.4-0.4-0.6-1-0.6-1.8v-4h-1.4v-1.3h0.3c0.3,0,0.6-0.1,0.8-0.3
		c0.2-0.2,0.3-0.5,0.3-0.8v-0.6h1.3v1.8h1.7v1.3h-1.7v4c0,0.3,0,0.5,0.1,0.7c0.1,0.2,0.2,0.3,0.4,0.5c0.2,0.1,0.4,0.2,0.8,0.2
		c0.1,0,0.1,0,0.2,0c0.1,0,0.2,0,0.3,0v1.2c-0.1,0-0.3,0-0.4,0.1C121.9,124.3,121.7,124.3,121.6,124.3z"/>
	<path class="st5" d="M123.9,124.2v-10.7h1.3v4.6l-0.2-0.1c0.2-0.5,0.5-0.9,0.9-1.1c0.4-0.3,0.9-0.4,1.5-0.4c0.5,0,1,0.1,1.5,0.4
		c0.4,0.2,0.8,0.6,1,1c0.3,0.4,0.4,0.9,0.4,1.5v4.9h-1.3v-4.5c0-0.4-0.1-0.8-0.2-1.1c-0.2-0.3-0.4-0.5-0.6-0.7
		c-0.3-0.2-0.6-0.3-0.9-0.3c-0.4,0-0.7,0.1-0.9,0.3c-0.3,0.2-0.5,0.4-0.7,0.7c-0.2,0.3-0.2,0.6-0.2,1.1v4.5H123.9z"/>
	<path class="st5" d="M134,124.4c-0.5,0-0.9-0.1-1.3-0.3c-0.4-0.2-0.7-0.4-0.9-0.8c-0.2-0.3-0.3-0.7-0.3-1.1c0-0.4,0.1-0.8,0.3-1.1
		c0.2-0.3,0.5-0.6,0.8-0.8c0.4-0.2,0.8-0.4,1.4-0.5l2.8-0.5v1.1l-2.5,0.4c-0.5,0.1-0.9,0.2-1.1,0.5c-0.2,0.2-0.3,0.5-0.3,0.8
		c0,0.3,0.1,0.6,0.4,0.8c0.3,0.2,0.6,0.3,0.9,0.3c0.5,0,0.9-0.1,1.2-0.3c0.4-0.2,0.6-0.5,0.8-0.8c0.2-0.3,0.3-0.7,0.3-1.2v-1.9
		c0-0.4-0.2-0.8-0.5-1c-0.3-0.3-0.7-0.4-1.2-0.4c-0.4,0-0.8,0.1-1.2,0.3c-0.3,0.2-0.6,0.5-0.7,0.9l-1.1-0.6c0.1-0.3,0.4-0.7,0.7-0.9
		c0.3-0.3,0.7-0.5,1.1-0.7c0.4-0.2,0.8-0.2,1.3-0.2c0.6,0,1.1,0.1,1.5,0.3c0.4,0.2,0.8,0.5,1,0.9c0.3,0.4,0.4,0.8,0.4,1.4v5.2h-1.3
		v-1.4l0.2,0.1c-0.2,0.3-0.4,0.6-0.7,0.8c-0.3,0.2-0.6,0.4-1,0.5C134.9,124.4,134.5,124.4,134,124.4z"/>
	<path class="st5" d="M142.6,124.3c-0.7,0-1.3-0.2-1.7-0.6c-0.4-0.4-0.6-1-0.6-1.8v-4h-1.4v-1.3h0.3c0.3,0,0.6-0.1,0.8-0.3
		c0.2-0.2,0.3-0.5,0.3-0.8v-0.6h1.3v1.8h1.7v1.3h-1.7v4c0,0.3,0,0.5,0.1,0.7c0.1,0.2,0.2,0.3,0.4,0.5c0.2,0.1,0.4,0.2,0.8,0.2
		c0.1,0,0.1,0,0.2,0c0.1,0,0.2,0,0.3,0v1.2c-0.1,0-0.3,0-0.4,0.1C142.9,124.3,142.7,124.3,142.6,124.3z"/>
	<path class="st5" d="M147.4,127.4c-0.2,0-0.3,0-0.5,0c-0.2,0-0.3-0.1-0.5-0.1V126c0.1,0,0.2,0,0.4,0.1c0.2,0,0.3,0,0.5,0
		c0.4,0,0.8-0.1,1-0.3c0.2-0.2,0.5-0.5,0.7-1l0.5-1.1l0,1.1l-3.3-8.2h1.4l2.5,6.5h-0.4l2.5-6.5h1.5l-3.4,8.5
		c-0.2,0.4-0.4,0.8-0.6,1.1c-0.2,0.3-0.5,0.6-0.9,0.8C148.3,127.3,147.9,127.4,147.4,127.4z"/>
	<path class="st5" d="M158,124.4c-0.7,0-1.4-0.2-2-0.5c-0.6-0.3-1.1-0.8-1.4-1.4c-0.4-0.6-0.5-1.3-0.5-2.1c0-0.8,0.2-1.4,0.5-2
		c0.4-0.6,0.8-1.1,1.4-1.4c0.6-0.3,1.3-0.5,2-0.5c0.7,0,1.4,0.2,2,0.5c0.6,0.3,1.1,0.8,1.4,1.4c0.3,0.6,0.5,1.3,0.5,2.1
		c0,0.8-0.2,1.5-0.5,2.1c-0.4,0.6-0.8,1.1-1.4,1.4C159.4,124.2,158.8,124.4,158,124.4z M158,123.1c0.5,0,0.9-0.1,1.3-0.4
		c0.4-0.2,0.7-0.6,0.9-1c0.2-0.4,0.3-0.9,0.3-1.4c0-0.5-0.1-1-0.3-1.4c-0.2-0.4-0.5-0.7-0.9-1c-0.4-0.2-0.8-0.4-1.3-0.4
		c-0.5,0-0.9,0.1-1.3,0.4c-0.4,0.2-0.7,0.6-0.9,1c-0.2,0.4-0.3,0.9-0.3,1.4c0,0.5,0.1,1,0.3,1.4c0.2,0.4,0.5,0.7,0.9,1
		C157.1,123,157.6,123.1,158,123.1z"/>
	<path class="st5" d="M166.1,124.4c-0.5,0-1-0.1-1.5-0.4c-0.4-0.3-0.8-0.6-1-1.1c-0.2-0.5-0.4-1-0.4-1.6v-4.8h1.3v4.6
		c0,0.4,0.1,0.7,0.2,1c0.2,0.3,0.4,0.5,0.7,0.7c0.3,0.2,0.6,0.2,1,0.2c0.4,0,0.7-0.1,0.9-0.2c0.3-0.2,0.5-0.4,0.7-0.7
		c0.2-0.3,0.2-0.7,0.2-1.1v-4.5h1.3v7.6h-1.3v-1.5l0.2,0.1c-0.2,0.5-0.5,0.9-0.9,1.1C167.1,124.3,166.7,124.4,166.1,124.4z"/>
	<path class="st5" d="M171.6,117.2v-0.6c0.3-0.1,0.5-0.2,0.7-0.4c0.2-0.2,0.2-0.5,0.3-0.8h-0.6v-1.7h1.4v1.2c0,0.6-0.1,1.1-0.4,1.5
		C172.5,116.8,172.1,117.1,171.6,117.2z"/>
	<path class="st5" d="M175.3,124.2v-7.6h1.3v1.4l-0.1-0.2c0.2-0.4,0.5-0.8,0.8-1c0.4-0.2,0.8-0.3,1.3-0.3h0.5v1.2h-0.7
		c-0.5,0-1,0.2-1.3,0.5c-0.3,0.3-0.5,0.8-0.5,1.4v4.5H175.3z"/>
	<path class="st5" d="M183.5,124.4c-0.7,0-1.4-0.2-2-0.5c-0.6-0.3-1-0.8-1.4-1.4c-0.3-0.6-0.5-1.3-0.5-2.1c0-0.8,0.2-1.4,0.5-2
		c0.3-0.6,0.8-1.1,1.3-1.4c0.6-0.3,1.2-0.5,1.9-0.5c0.6,0,1.1,0.1,1.5,0.3c0.4,0.2,0.8,0.5,1.1,0.8c0.3,0.3,0.5,0.7,0.7,1.2
		c0.2,0.4,0.3,0.9,0.3,1.4c0,0.1,0,0.2,0,0.4c0,0.1,0,0.2,0,0.4h-6.3v-1.1h5.5l-0.6,0.5c0.1-0.5,0-0.9-0.1-1.3
		c-0.2-0.4-0.4-0.7-0.8-0.9c-0.3-0.2-0.7-0.3-1.2-0.3c-0.4,0-0.9,0.1-1.2,0.3c-0.4,0.2-0.7,0.6-0.9,1c-0.2,0.4-0.3,0.9-0.2,1.5
		c0,0.6,0,1,0.3,1.5c0.2,0.4,0.5,0.7,0.9,1c0.4,0.2,0.8,0.3,1.3,0.3c0.5,0,0.9-0.1,1.3-0.4c0.3-0.2,0.6-0.5,0.8-0.9l1.1,0.6
		c-0.2,0.3-0.4,0.7-0.7,1c-0.3,0.3-0.7,0.5-1.1,0.7C184.5,124.3,184,124.4,183.5,124.4z"/>
	<path class="st5" d="M190.5,124.2v-10.7h1.3v4.6l-0.2-0.1c0.2-0.5,0.5-0.9,0.9-1.1c0.4-0.3,0.9-0.4,1.5-0.4c0.5,0,1,0.1,1.5,0.4
		c0.4,0.2,0.8,0.6,1,1c0.3,0.4,0.4,0.9,0.4,1.5v4.9h-1.3v-4.5c0-0.4-0.1-0.8-0.2-1.1c-0.2-0.3-0.4-0.5-0.6-0.7
		c-0.3-0.2-0.6-0.3-0.9-0.3c-0.4,0-0.7,0.1-0.9,0.3c-0.3,0.2-0.5,0.4-0.7,0.7c-0.2,0.3-0.2,0.6-0.2,1.1v4.5H190.5z"/>
	<path class="st5" d="M202,124.4c-0.7,0-1.4-0.2-2-0.5c-0.6-0.3-1-0.8-1.4-1.4c-0.3-0.6-0.5-1.3-0.5-2.1c0-0.8,0.2-1.4,0.5-2
		c0.3-0.6,0.8-1.1,1.3-1.4c0.6-0.3,1.2-0.5,1.9-0.5c0.6,0,1.1,0.1,1.5,0.3c0.4,0.2,0.8,0.5,1.1,0.8c0.3,0.3,0.5,0.7,0.7,1.2
		c0.2,0.4,0.3,0.9,0.3,1.4c0,0.1,0,0.2,0,0.4c0,0.1,0,0.2,0,0.4h-6.3v-1.1h5.5l-0.6,0.5c0.1-0.5,0-0.9-0.1-1.3
		c-0.2-0.4-0.4-0.7-0.8-0.9c-0.3-0.2-0.7-0.3-1.2-0.3c-0.4,0-0.9,0.1-1.2,0.3c-0.4,0.2-0.7,0.6-0.9,1c-0.2,0.4-0.3,0.9-0.2,1.5
		c0,0.6,0,1,0.3,1.5c0.2,0.4,0.5,0.7,0.9,1c0.4,0.2,0.8,0.3,1.3,0.3c0.5,0,0.9-0.1,1.3-0.4c0.3-0.2,0.6-0.5,0.9-0.9l1.1,0.6
		c-0.2,0.3-0.4,0.7-0.7,1c-0.3,0.3-0.7,0.5-1.1,0.7C203,124.3,202.5,124.4,202,124.4z"/>
	<path class="st5" d="M206.9,124.2v-7.6h1.3v1.4l-0.1-0.2c0.2-0.4,0.5-0.8,0.8-1c0.4-0.2,0.8-0.3,1.3-0.3h0.5v1.2H210
		c-0.5,0-1,0.2-1.3,0.5c-0.3,0.3-0.5,0.8-0.5,1.4v4.5H206.9z"/>
	<path class="st5" d="M215,124.4c-0.7,0-1.4-0.2-2-0.5c-0.6-0.3-1-0.8-1.4-1.4c-0.3-0.6-0.5-1.3-0.5-2.1c0-0.8,0.2-1.4,0.5-2
		c0.3-0.6,0.8-1.1,1.3-1.4c0.6-0.3,1.2-0.5,1.9-0.5c0.6,0,1.1,0.1,1.5,0.3c0.4,0.2,0.8,0.5,1.1,0.8c0.3,0.3,0.5,0.7,0.7,1.2
		c0.2,0.4,0.3,0.9,0.3,1.4c0,0.1,0,0.2,0,0.4c0,0.1,0,0.2,0,0.4h-6.3v-1.1h5.5l-0.6,0.5c0.1-0.5,0-0.9-0.1-1.3
		c-0.2-0.4-0.4-0.7-0.8-0.9c-0.3-0.2-0.7-0.3-1.2-0.3c-0.4,0-0.8,0.1-1.2,0.3c-0.4,0.2-0.7,0.6-0.9,1c-0.2,0.4-0.3,0.9-0.2,1.5
		c0,0.6,0,1,0.3,1.5c0.2,0.4,0.5,0.7,0.9,1c0.4,0.2,0.8,0.3,1.3,0.3c0.5,0,0.9-0.1,1.3-0.4c0.3-0.2,0.6-0.5,0.8-0.9l1.1,0.6
		c-0.2,0.3-0.4,0.7-0.7,1c-0.3,0.3-0.7,0.5-1.1,0.7C216,124.3,215.6,124.4,215,124.4z"/>
	<path class="st5" d="M220.2,126.2v-0.6c0.3-0.1,0.5-0.2,0.7-0.4c0.2-0.2,0.2-0.5,0.3-0.9h-0.6v-1.7h1.4v1.2c0,0.7-0.1,1.2-0.4,1.6
		C221.1,125.8,220.7,126.1,220.2,126.2z"/>
	<path class="st5" d="M226,124.2v-7.6h1.3v7.6H226z M226,115.4v-1.7h1.3v1.7H226z"/>
	<path class="st5" d="M232.2,124.3c-0.7,0-1.3-0.2-1.7-0.6c-0.4-0.4-0.6-1-0.6-1.8v-4h-1.4v-1.3h0.3c0.3,0,0.6-0.1,0.8-0.3
		c0.2-0.2,0.3-0.5,0.3-0.8v-0.6h1.3v1.8h1.7v1.3h-1.7v4c0,0.3,0,0.5,0.1,0.7c0.1,0.2,0.2,0.3,0.4,0.5c0.2,0.1,0.4,0.2,0.8,0.2
		c0.1,0,0.1,0,0.2,0c0.1,0,0.2,0,0.3,0v1.2c-0.1,0-0.3,0-0.4,0.1C232.5,124.3,232.3,124.3,232.2,124.3z"/>
	<path class="st5" d="M234.7,117.2v-0.6c0.3-0.1,0.5-0.2,0.7-0.4c0.2-0.2,0.2-0.5,0.3-0.8H235v-1.7h1.4v1.2c0,0.6-0.1,1.1-0.4,1.5
		C235.6,116.8,235.2,117.1,234.7,117.2z"/>
	<path class="st5" d="M241.1,124.4c-0.8,0-1.4-0.2-2-0.6c-0.6-0.4-1-0.9-1.2-1.5l1-0.5c0.2,0.5,0.5,0.8,0.9,1.1
		c0.4,0.3,0.8,0.4,1.3,0.4c0.4,0,0.8-0.1,1-0.3c0.3-0.2,0.4-0.5,0.4-0.8c0-0.2-0.1-0.4-0.2-0.5c-0.1-0.1-0.3-0.2-0.5-0.3
		c-0.2-0.1-0.3-0.1-0.5-0.2l-1.1-0.3c-0.7-0.2-1.2-0.5-1.5-0.8c-0.3-0.4-0.5-0.8-0.5-1.3c0-0.5,0.1-0.8,0.3-1.2
		c0.2-0.3,0.6-0.6,0.9-0.8c0.4-0.2,0.9-0.3,1.4-0.3c0.7,0,1.3,0.2,1.8,0.5c0.5,0.3,0.9,0.8,1.1,1.4l-1.1,0.5
		c-0.2-0.4-0.4-0.7-0.8-0.9c-0.3-0.2-0.7-0.4-1.1-0.4c-0.4,0-0.7,0.1-0.9,0.3c-0.2,0.2-0.3,0.4-0.3,0.7c0,0.2,0.1,0.4,0.2,0.5
		c0.1,0.1,0.2,0.2,0.4,0.3c0.2,0.1,0.3,0.1,0.5,0.2l1.2,0.4c0.6,0.2,1.1,0.5,1.4,0.8c0.3,0.4,0.5,0.8,0.5,1.4c0,0.4-0.1,0.8-0.4,1.1
		c-0.2,0.3-0.6,0.6-1,0.8C242.2,124.3,241.7,124.4,241.1,124.4z"/>
	<path class="st5" d="M250.6,124.3c-0.7,0-1.3-0.2-1.7-0.6c-0.4-0.4-0.6-1-0.6-1.8v-4h-1.4v-1.3h0.3c0.3,0,0.6-0.1,0.8-0.3
		c0.2-0.2,0.3-0.5,0.3-0.8v-0.6h1.3v1.8h1.7v1.3h-1.7v4c0,0.3,0,0.5,0.1,0.7c0.1,0.2,0.2,0.3,0.4,0.5c0.2,0.1,0.4,0.2,0.8,0.2
		c0.1,0,0.1,0,0.2,0c0.1,0,0.2,0,0.3,0v1.2c-0.1,0-0.3,0-0.4,0.1C250.8,124.3,250.7,124.3,250.6,124.3z"/>
	<path class="st5" d="M252.8,124.2v-7.6h1.3v7.6H252.8z M252.8,115.4v-1.7h1.3v1.7H252.8z"/>
	<path class="st5" d="M255.9,124.2v-7.6h1.3v1.6l-0.2-0.2c0.2-0.5,0.5-0.8,0.9-1.1c0.4-0.3,0.9-0.4,1.4-0.4c0.6,0,1.1,0.2,1.6,0.5
		c0.5,0.3,0.8,0.8,1,1.3l-0.4,0c0.2-0.6,0.5-1,1-1.3c0.5-0.3,1-0.5,1.6-0.5c0.5,0,1,0.1,1.4,0.4c0.4,0.2,0.8,0.6,1,1
		c0.3,0.4,0.4,0.9,0.4,1.5v4.9h-1.3v-4.5c0-0.4-0.1-0.8-0.2-1.1c-0.2-0.3-0.4-0.5-0.6-0.7c-0.3-0.2-0.6-0.3-0.9-0.3
		c-0.3,0-0.6,0.1-0.9,0.3c-0.3,0.2-0.5,0.4-0.6,0.7c-0.2,0.3-0.2,0.6-0.2,1.1v4.5h-1.3v-4.5c0-0.4-0.1-0.8-0.2-1.1
		c-0.2-0.3-0.4-0.5-0.6-0.7c-0.3-0.2-0.6-0.3-0.9-0.3c-0.3,0-0.6,0.1-0.9,0.3c-0.3,0.2-0.5,0.4-0.6,0.7c-0.2,0.3-0.2,0.6-0.2,1.1
		v4.5H255.9z"/>
	<path class="st5" d="M272.1,124.4c-0.7,0-1.4-0.2-2-0.5c-0.6-0.3-1-0.8-1.4-1.4c-0.3-0.6-0.5-1.3-0.5-2.1c0-0.8,0.2-1.4,0.5-2
		c0.3-0.6,0.8-1.1,1.3-1.4c0.6-0.3,1.2-0.5,1.9-0.5c0.6,0,1.1,0.1,1.5,0.3c0.4,0.2,0.8,0.5,1.1,0.8c0.3,0.3,0.5,0.7,0.7,1.2
		c0.2,0.4,0.3,0.9,0.3,1.4c0,0.1,0,0.2,0,0.4c0,0.1,0,0.2,0,0.4h-6.3v-1.1h5.5l-0.6,0.5c0.1-0.5,0-0.9-0.1-1.3
		c-0.2-0.4-0.4-0.7-0.8-0.9c-0.3-0.2-0.7-0.3-1.2-0.3s-0.8,0.1-1.2,0.3c-0.4,0.2-0.7,0.6-0.9,1c-0.2,0.4-0.3,0.9-0.2,1.5
		c0,0.6,0,1,0.3,1.5c0.2,0.4,0.5,0.7,0.9,1c0.4,0.2,0.8,0.3,1.3,0.3c0.5,0,0.9-0.1,1.3-0.4c0.3-0.2,0.6-0.5,0.8-0.9l1.1,0.6
		c-0.2,0.3-0.4,0.7-0.7,1c-0.3,0.3-0.7,0.5-1.1,0.7C273.1,124.3,272.6,124.4,272.1,124.4z"/>
	<path class="st5" d="M282.2,124.3c-0.7,0-1.3-0.2-1.7-0.6c-0.4-0.4-0.6-1-0.6-1.8v-4h-1.4v-1.3h0.3c0.3,0,0.6-0.1,0.8-0.3
		c0.2-0.2,0.3-0.5,0.3-0.8v-0.6h1.3v1.8h1.7v1.3h-1.7v4c0,0.3,0,0.5,0.1,0.7c0.1,0.2,0.2,0.3,0.4,0.5c0.2,0.1,0.4,0.2,0.8,0.2
		c0.1,0,0.1,0,0.2,0c0.1,0,0.2,0,0.3,0v1.2c-0.1,0-0.3,0-0.4,0.1C282.5,124.3,282.3,124.3,282.2,124.3z"/>
	<path class="st5" d="M287.9,124.4c-0.7,0-1.4-0.2-2-0.5c-0.6-0.3-1.1-0.8-1.4-1.4c-0.3-0.6-0.5-1.3-0.5-2.1c0-0.8,0.2-1.4,0.5-2
		c0.3-0.6,0.8-1.1,1.4-1.4c0.6-0.3,1.3-0.5,2-0.5c0.7,0,1.4,0.2,2,0.5c0.6,0.3,1.1,0.8,1.4,1.4c0.3,0.6,0.5,1.3,0.5,2.1
		c0,0.8-0.2,1.5-0.5,2.1c-0.4,0.6-0.8,1.1-1.4,1.4C289.2,124.2,288.6,124.4,287.9,124.4z M287.9,123.1c0.5,0,0.9-0.1,1.3-0.4
		c0.4-0.2,0.7-0.6,0.9-1c0.2-0.4,0.3-0.9,0.3-1.4c0-0.5-0.1-1-0.3-1.4c-0.2-0.4-0.5-0.7-0.9-1c-0.4-0.2-0.8-0.4-1.3-0.4
		c-0.5,0-0.9,0.1-1.3,0.4c-0.4,0.2-0.7,0.6-0.9,1c-0.2,0.4-0.3,0.9-0.3,1.4c0,0.5,0.1,1,0.3,1.4c0.2,0.4,0.5,0.7,0.9,1
		C287,123,287.4,123.1,287.9,123.1z"/>
	<path class="st5" d="M299.4,124.4c-0.6,0-1.2-0.1-1.7-0.4c-0.5-0.3-0.9-0.7-1.2-1.2l0.2-0.2v1.6h-1.3v-10.7h1.3v4.7l-0.2-0.3
		c0.3-0.5,0.7-0.8,1.2-1.1c0.5-0.3,1.1-0.4,1.7-0.4c0.7,0,1.4,0.2,1.9,0.5c0.6,0.3,1,0.8,1.4,1.4c0.3,0.6,0.5,1.3,0.5,2
		c0,0.7-0.2,1.4-0.5,2c-0.3,0.6-0.8,1.1-1.4,1.4C300.7,124.2,300.1,124.4,299.4,124.4z M299.3,123.1c0.5,0,0.9-0.1,1.3-0.4
		c0.4-0.2,0.7-0.6,0.9-1c0.2-0.4,0.3-0.9,0.3-1.4c0-0.5-0.1-1-0.3-1.4c-0.2-0.4-0.5-0.7-0.9-1c-0.4-0.2-0.8-0.4-1.3-0.4
		c-0.5,0-0.9,0.1-1.3,0.4c-0.4,0.2-0.7,0.6-0.9,1c-0.2,0.4-0.3,0.9-0.3,1.4c0,0.5,0.1,1,0.3,1.4c0.2,0.4,0.5,0.7,0.9,1
		C298.3,123,298.8,123.1,299.3,123.1z"/>
	<path class="st5" d="M307.3,124.4c-0.5,0-1-0.1-1.5-0.4c-0.4-0.3-0.8-0.6-1-1.1c-0.2-0.5-0.4-1-0.4-1.6v-4.8h1.3v4.6
		c0,0.4,0.1,0.7,0.2,1c0.2,0.3,0.4,0.5,0.7,0.7c0.3,0.2,0.6,0.2,1,0.2c0.4,0,0.7-0.1,0.9-0.2c0.3-0.2,0.5-0.4,0.7-0.7
		c0.2-0.3,0.2-0.7,0.2-1.1v-4.5h1.3v7.6h-1.3v-1.5l0.2,0.1c-0.2,0.5-0.5,0.9-0.9,1.1C308.3,124.3,307.8,124.4,307.3,124.4z"/>
	<path class="st5" d="M312.5,124.2v-7.6h1.3v7.6H312.5z M312.5,115.4v-1.7h1.3v1.7H312.5z"/>
	<path class="st5" d="M315.6,124.2v-10.7h1.3v10.7H315.6z"/>
	<path class="st5" d="M322.1,124.4c-0.7,0-1.4-0.2-1.9-0.5c-0.6-0.3-1-0.8-1.3-1.4c-0.3-0.6-0.5-1.3-0.5-2c0-0.8,0.2-1.4,0.5-2
		c0.3-0.6,0.8-1.1,1.3-1.4c0.6-0.3,1.2-0.5,1.9-0.5c0.6,0,1.2,0.1,1.7,0.4c0.5,0.3,0.9,0.6,1.2,1.1l-0.2,0.3v-4.7h1.3v10.7h-1.3
		v-1.6l0.2,0.2c-0.3,0.5-0.7,0.9-1.2,1.2C323.3,124.3,322.8,124.4,322.1,124.4z M322.2,123.1c0.5,0,0.9-0.1,1.3-0.4
		c0.4-0.2,0.7-0.6,0.9-1c0.2-0.4,0.3-0.9,0.3-1.4c0-0.5-0.1-1-0.3-1.4c-0.2-0.4-0.5-0.7-0.9-1c-0.4-0.2-0.8-0.4-1.3-0.4
		c-0.5,0-0.9,0.1-1.3,0.4c-0.4,0.2-0.7,0.6-0.9,1c-0.2,0.4-0.3,0.9-0.3,1.4c0,0.5,0.1,1,0.3,1.4c0.2,0.4,0.5,0.7,0.9,1
		C321.3,123,321.8,123.1,322.2,123.1z"/>
	<path class="st5" d="M328.1,126.2v-0.6c0.3-0.1,0.5-0.2,0.7-0.4c0.2-0.2,0.2-0.5,0.3-0.9h-0.6v-1.7h1.4v1.2c0,0.7-0.1,1.2-0.4,1.6
		C329,125.8,328.6,126.1,328.1,126.2z"/>
	<path class="st5" d="M334,124.2v-10.7h1.3v10.7H334z"/>
	<path class="st5" d="M339.3,124.4c-0.5,0-0.9-0.1-1.3-0.3c-0.4-0.2-0.7-0.4-0.9-0.8c-0.2-0.3-0.3-0.7-0.3-1.1
		c0-0.4,0.1-0.8,0.3-1.1c0.2-0.3,0.5-0.6,0.8-0.8c0.4-0.2,0.8-0.4,1.4-0.5l2.8-0.5v1.1l-2.5,0.4c-0.5,0.1-0.8,0.2-1.1,0.5
		c-0.2,0.2-0.3,0.5-0.3,0.8c0,0.3,0.1,0.6,0.4,0.8c0.3,0.2,0.6,0.3,0.9,0.3c0.5,0,0.9-0.1,1.2-0.3c0.4-0.2,0.6-0.5,0.8-0.8
		c0.2-0.3,0.3-0.7,0.3-1.2v-1.9c0-0.4-0.2-0.8-0.5-1c-0.3-0.3-0.7-0.4-1.2-0.4c-0.4,0-0.8,0.1-1.2,0.3c-0.3,0.2-0.6,0.5-0.7,0.9
		l-1.1-0.6c0.1-0.3,0.4-0.7,0.7-0.9c0.3-0.3,0.7-0.5,1.1-0.7c0.4-0.2,0.8-0.2,1.3-0.2c0.6,0,1.1,0.1,1.5,0.3c0.4,0.2,0.8,0.5,1,0.9
		c0.3,0.4,0.4,0.8,0.4,1.4v5.2h-1.3v-1.4l0.2,0.1c-0.2,0.3-0.4,0.6-0.7,0.8c-0.3,0.2-0.6,0.4-1,0.5
		C340.1,124.4,339.7,124.4,339.3,124.4z"/>
	<path class="st5" d="M347.6,124.4c-0.5,0-1-0.1-1.5-0.4c-0.4-0.3-0.8-0.6-1-1.1c-0.2-0.5-0.4-1-0.4-1.6v-4.8h1.3v4.6
		c0,0.4,0.1,0.7,0.2,1c0.2,0.3,0.4,0.5,0.7,0.7c0.3,0.2,0.6,0.2,1,0.2c0.4,0,0.7-0.1,0.9-0.2c0.3-0.2,0.5-0.4,0.7-0.7
		c0.2-0.3,0.2-0.7,0.2-1.1v-4.5h1.3v7.6h-1.3v-1.5l0.2,0.1c-0.2,0.5-0.5,0.9-0.9,1.1C348.7,124.3,348.2,124.4,347.6,124.4z"/>
	<path class="st5" d="M352.8,124.2v-7.6h1.3v1.5l-0.2-0.1c0.2-0.5,0.5-0.9,0.9-1.1c0.4-0.3,0.9-0.4,1.5-0.4c0.5,0,1,0.1,1.5,0.4
		c0.4,0.2,0.8,0.6,1,1c0.3,0.4,0.4,0.9,0.4,1.5v4.9h-1.3v-4.5c0-0.4-0.1-0.8-0.2-1.1c-0.2-0.3-0.4-0.5-0.7-0.7
		c-0.3-0.2-0.6-0.3-0.9-0.3c-0.4,0-0.7,0.1-1,0.3c-0.3,0.2-0.5,0.4-0.7,0.7c-0.2,0.3-0.2,0.6-0.2,1.1v4.5H352.8z"/>
	<path class="st5" d="M364.3,124.4c-0.7,0-1.4-0.2-2-0.5c-0.6-0.3-1-0.8-1.4-1.4c-0.3-0.6-0.5-1.3-0.5-2c0-0.8,0.2-1.4,0.5-2
		c0.3-0.6,0.8-1.1,1.4-1.4c0.6-0.3,1.3-0.5,2-0.5c0.5,0,1,0.1,1.4,0.3c0.4,0.2,0.8,0.4,1.1,0.7c0.3,0.3,0.6,0.7,0.7,1.1l-1.2,0.6
		c-0.2-0.4-0.5-0.7-0.8-1c-0.4-0.3-0.8-0.4-1.3-0.4c-0.5,0-0.9,0.1-1.3,0.4c-0.4,0.2-0.7,0.6-0.9,1c-0.2,0.4-0.3,0.9-0.3,1.4
		c0,0.5,0.1,1,0.3,1.4c0.2,0.4,0.5,0.7,0.9,1c0.4,0.2,0.8,0.4,1.3,0.4c0.5,0,0.9-0.1,1.3-0.4c0.4-0.3,0.6-0.6,0.8-1l1.2,0.6
		c-0.2,0.4-0.4,0.8-0.7,1.1c-0.3,0.3-0.7,0.5-1.1,0.7C365.3,124.3,364.8,124.4,364.3,124.4z"/>
	<path class="st5" d="M369,124.2v-10.7h1.3v4.6l-0.2-0.1c0.2-0.5,0.5-0.9,0.9-1.1c0.4-0.3,0.9-0.4,1.5-0.4c0.5,0,1,0.1,1.5,0.4
		c0.4,0.2,0.8,0.6,1,1c0.3,0.4,0.4,0.9,0.4,1.5v4.9H374v-4.5c0-0.4-0.1-0.8-0.2-1.1c-0.2-0.3-0.4-0.5-0.6-0.7
		c-0.3-0.2-0.6-0.3-0.9-0.3c-0.3,0-0.7,0.1-0.9,0.3c-0.3,0.2-0.5,0.4-0.7,0.7c-0.2,0.3-0.2,0.6-0.2,1.1v4.5H369z"/>
	<path class="st5" d="M377.2,126.2v-0.6c0.3-0.1,0.5-0.2,0.7-0.4c0.2-0.2,0.2-0.5,0.3-0.9h-0.6v-1.7h1.4v1.2c0,0.7-0.1,1.2-0.4,1.6
		C378.1,125.8,377.7,126.1,377.2,126.2z"/>
	<path class="st5" d="M88.2,144.4c-0.5,0-0.9-0.1-1.3-0.3c-0.4-0.2-0.7-0.4-0.9-0.8c-0.2-0.3-0.3-0.7-0.3-1.1c0-0.4,0.1-0.8,0.3-1.1
		c0.2-0.3,0.5-0.6,0.8-0.8c0.4-0.2,0.9-0.4,1.4-0.5l2.8-0.5v1.1l-2.5,0.4c-0.5,0.1-0.8,0.2-1.1,0.5c-0.2,0.2-0.3,0.5-0.3,0.8
		c0,0.3,0.1,0.6,0.4,0.8c0.3,0.2,0.6,0.3,0.9,0.3c0.5,0,0.9-0.1,1.2-0.3c0.4-0.2,0.6-0.5,0.8-0.8c0.2-0.3,0.3-0.7,0.3-1.2v-1.9
		c0-0.4-0.2-0.8-0.5-1c-0.3-0.3-0.7-0.4-1.2-0.4c-0.4,0-0.8,0.1-1.2,0.3c-0.3,0.2-0.6,0.5-0.7,0.9l-1.1-0.6c0.1-0.3,0.4-0.7,0.7-0.9
		c0.3-0.3,0.7-0.5,1.1-0.7c0.4-0.2,0.8-0.2,1.3-0.2c0.6,0,1.1,0.1,1.5,0.3c0.4,0.2,0.8,0.5,1,0.9c0.3,0.4,0.4,0.8,0.4,1.4v5.2h-1.3
		v-1.4l0.2,0.1c-0.2,0.3-0.4,0.6-0.7,0.8c-0.3,0.2-0.6,0.4-1,0.5C89,144.4,88.6,144.4,88.2,144.4z"/>
	<path class="st5" d="M93.8,144.2v-7.6h1.3v1.5l-0.2-0.1c0.2-0.5,0.5-0.9,0.9-1.1c0.4-0.3,0.9-0.4,1.5-0.4c0.5,0,1,0.1,1.5,0.4
		c0.4,0.2,0.8,0.6,1,1c0.3,0.4,0.4,0.9,0.4,1.5v4.9h-1.3v-4.5c0-0.4-0.1-0.8-0.2-1.1c-0.2-0.3-0.4-0.5-0.7-0.7
		c-0.3-0.2-0.6-0.3-0.9-0.3c-0.4,0-0.7,0.1-1,0.3c-0.3,0.2-0.5,0.4-0.7,0.7c-0.2,0.3-0.2,0.6-0.2,1.1v4.5H93.8z"/>
	<path class="st5" d="M105.2,144.4c-0.7,0-1.4-0.2-1.9-0.5c-0.6-0.3-1-0.8-1.3-1.4s-0.5-1.3-0.5-2c0-0.8,0.2-1.4,0.5-2
		c0.3-0.6,0.8-1.1,1.3-1.4c0.6-0.3,1.2-0.5,1.9-0.5c0.6,0,1.2,0.1,1.7,0.4c0.5,0.3,0.9,0.6,1.2,1.1l-0.2,0.3v-4.7h1.3v10.7h-1.3
		v-1.6l0.2,0.2c-0.3,0.5-0.7,0.9-1.2,1.2C106.4,144.3,105.8,144.4,105.2,144.4z M105.3,143.1c0.5,0,0.9-0.1,1.3-0.4
		c0.4-0.2,0.7-0.6,0.9-1c0.2-0.4,0.3-0.9,0.3-1.4c0-0.5-0.1-1-0.3-1.4c-0.2-0.4-0.5-0.7-0.9-1c-0.4-0.2-0.8-0.4-1.3-0.4
		c-0.5,0-0.9,0.1-1.3,0.4c-0.4,0.2-0.7,0.6-0.9,1c-0.2,0.4-0.3,0.9-0.3,1.4c0,0.5,0.1,1,0.3,1.4c0.2,0.4,0.5,0.7,0.9,1
		C104.4,143,104.8,143.1,105.3,143.1z"/>
	<path class="st5" d="M116.7,147.4c-0.5,0-1-0.1-1.5-0.3c-0.5-0.2-0.8-0.4-1.2-0.7c-0.3-0.3-0.6-0.6-0.7-1l1.2-0.6
		c0.1,0.4,0.4,0.7,0.8,0.9c0.4,0.3,0.8,0.4,1.4,0.4c0.4,0,0.8-0.1,1.2-0.3c0.4-0.2,0.6-0.4,0.8-0.7c0.2-0.3,0.3-0.7,0.3-1.2v-1.7
		l0.2,0.3c-0.3,0.5-0.6,0.9-1.1,1.2c-0.5,0.3-1,0.4-1.6,0.4c-0.7,0-1.4-0.2-1.9-0.5c-0.6-0.3-1-0.8-1.3-1.4
		c-0.3-0.6-0.5-1.2-0.5-1.9c0-0.7,0.2-1.4,0.5-1.9c0.3-0.6,0.8-1,1.3-1.4c0.6-0.3,1.2-0.5,1.9-0.5c0.6,0,1.1,0.1,1.6,0.4
		c0.5,0.3,0.9,0.6,1.2,1.1l-0.2,0.4v-1.7h1.3v7.3c0,0.7-0.2,1.3-0.5,1.8c-0.3,0.5-0.7,0.9-1.3,1.2
		C118.1,147.2,117.4,147.4,116.7,147.4z M116.6,142.8c0.5,0,0.9-0.1,1.2-0.3c0.4-0.2,0.7-0.5,0.9-0.9c0.2-0.4,0.3-0.8,0.3-1.3
		c0-0.5-0.1-0.9-0.3-1.3c-0.2-0.4-0.5-0.7-0.9-0.9c-0.4-0.2-0.8-0.3-1.2-0.3c-0.5,0-0.9,0.1-1.3,0.3c-0.4,0.2-0.7,0.5-0.9,0.9
		c-0.2,0.4-0.3,0.8-0.3,1.3s0.1,0.9,0.3,1.3c0.2,0.4,0.5,0.7,0.9,0.9C115.7,142.7,116.2,142.8,116.6,142.8z"/>
	<path class="st5" d="M122.1,144.2v-7.6h1.3v1.4l-0.1-0.2c0.2-0.4,0.5-0.8,0.8-1c0.4-0.2,0.8-0.3,1.3-0.3h0.5v1.2h-0.7
		c-0.5,0-1,0.2-1.3,0.5c-0.3,0.3-0.5,0.8-0.5,1.4v4.5H122.1z"/>
	<path class="st5" d="M130.4,144.4c-0.7,0-1.4-0.2-2-0.5c-0.6-0.3-1.1-0.8-1.4-1.4c-0.3-0.6-0.5-1.3-0.5-2.1c0-0.8,0.2-1.4,0.5-2
		c0.3-0.6,0.8-1.1,1.4-1.4c0.6-0.3,1.3-0.5,2-0.5c0.7,0,1.4,0.2,2,0.5c0.6,0.3,1.1,0.8,1.4,1.4c0.3,0.6,0.5,1.3,0.5,2.1
		c0,0.8-0.2,1.5-0.5,2.1c-0.4,0.6-0.8,1.1-1.4,1.4C131.8,144.2,131.2,144.4,130.4,144.4z M130.4,143.1c0.5,0,0.9-0.1,1.3-0.4
		c0.4-0.2,0.7-0.6,0.9-1c0.2-0.4,0.3-0.9,0.3-1.4c0-0.5-0.1-1-0.3-1.4c-0.2-0.4-0.5-0.7-0.9-1c-0.4-0.2-0.8-0.4-1.3-0.4
		c-0.5,0-0.9,0.1-1.3,0.4c-0.4,0.2-0.7,0.6-0.9,1c-0.2,0.4-0.3,0.9-0.3,1.4c0,0.5,0.1,1,0.3,1.4c0.2,0.4,0.5,0.7,0.9,1
		C129.5,143,130,143.1,130.4,143.1z"/>
	<path class="st5" d="M137.4,144.2l-2.6-7.6h1.5l2.1,6.4l-0.5,0l2-6.4h1.2l2,6.4l-0.5,0l2.1-6.4h1.4l-2.6,7.6h-1.3l-2-6.4h0.4
		l-2,6.4H137.4z"/>
	<path class="st5" d="M149.6,147.4c-0.2,0-0.3,0-0.5,0c-0.2,0-0.3-0.1-0.5-0.1V146c0.1,0,0.2,0,0.4,0.1c0.2,0,0.3,0,0.5,0
		c0.4,0,0.8-0.1,1-0.3c0.2-0.2,0.5-0.5,0.7-1l0.5-1.1l0,1.1l-3.3-8.2h1.4l2.5,6.5h-0.4l2.5-6.5h1.5l-3.4,8.5
		c-0.2,0.4-0.4,0.8-0.6,1.1c-0.2,0.3-0.5,0.6-0.9,0.8C150.6,147.3,150.1,147.4,149.6,147.4z"/>
	<path class="st5" d="M160.3,144.4c-0.7,0-1.4-0.2-2-0.5c-0.6-0.3-1.1-0.8-1.4-1.4c-0.3-0.6-0.5-1.3-0.5-2.1c0-0.8,0.2-1.4,0.5-2
		c0.3-0.6,0.8-1.1,1.4-1.4c0.6-0.3,1.3-0.5,2-0.5c0.7,0,1.4,0.2,2,0.5c0.6,0.3,1.1,0.8,1.4,1.4c0.3,0.6,0.5,1.3,0.5,2.1
		c0,0.8-0.2,1.5-0.5,2.1c-0.4,0.6-0.8,1.1-1.4,1.4C161.6,144.2,161,144.4,160.3,144.4z M160.3,143.1c0.5,0,0.9-0.1,1.3-0.4
		c0.4-0.2,0.7-0.6,0.9-1c0.2-0.4,0.3-0.9,0.3-1.4c0-0.5-0.1-1-0.3-1.4c-0.2-0.4-0.5-0.7-0.9-1c-0.4-0.2-0.8-0.4-1.3-0.4
		c-0.5,0-0.9,0.1-1.3,0.4c-0.4,0.2-0.7,0.6-0.9,1c-0.2,0.4-0.3,0.9-0.3,1.4c0,0.5,0.1,1,0.3,1.4c0.2,0.4,0.5,0.7,0.9,1
		C159.3,143,159.8,143.1,160.3,143.1z"/>
	<path class="st5" d="M168.3,144.4c-0.5,0-1-0.1-1.5-0.4c-0.4-0.3-0.8-0.6-1-1.1c-0.2-0.5-0.4-1-0.4-1.6v-4.8h1.3v4.6
		c0,0.4,0.1,0.7,0.2,1c0.2,0.3,0.4,0.5,0.7,0.7c0.3,0.2,0.6,0.2,1,0.2c0.4,0,0.7-0.1,0.9-0.2c0.3-0.2,0.5-0.4,0.7-0.7
		c0.2-0.3,0.2-0.7,0.2-1.1v-4.5h1.3v7.6h-1.3v-1.5l0.2,0.1c-0.2,0.5-0.5,0.9-0.9,1.1C169.4,144.3,168.9,144.4,168.3,144.4z"/>
	<path class="st5" d="M173.5,144.2v-7.6h1.3v1.4l-0.1-0.2c0.2-0.4,0.5-0.8,0.8-1c0.4-0.2,0.8-0.3,1.3-0.3h0.5v1.2h-0.7
		c-0.5,0-1,0.2-1.3,0.5c-0.3,0.3-0.5,0.8-0.5,1.4v4.5H173.5z"/>
	<path class="st5" d="M182.1,144.2l-2.6-7.6h1.5l2.1,6.4l-0.5,0l2-6.4h1.2l2,6.4l-0.5,0l2.1-6.4h1.4l-2.6,7.6H187l-2-6.4h0.4l-2,6.4
		H182.1z"/>
	<path class="st5" d="M195.2,144.4c-0.7,0-1.4-0.2-2-0.5c-0.6-0.3-1-0.8-1.4-1.4c-0.3-0.6-0.5-1.3-0.5-2.1c0-0.8,0.2-1.4,0.5-2
		c0.3-0.6,0.8-1.1,1.3-1.4c0.6-0.3,1.2-0.5,1.9-0.5c0.6,0,1.1,0.1,1.5,0.3c0.4,0.2,0.8,0.5,1.1,0.8c0.3,0.3,0.5,0.7,0.7,1.2
		c0.2,0.4,0.3,0.9,0.3,1.4c0,0.1,0,0.2,0,0.4c0,0.1,0,0.2,0,0.4h-6.3v-1.1h5.5l-0.6,0.5c0.1-0.5,0-0.9-0.1-1.3
		c-0.2-0.4-0.4-0.7-0.8-0.9c-0.4-0.2-0.7-0.3-1.2-0.3c-0.4,0-0.8,0.1-1.2,0.3c-0.4,0.2-0.7,0.6-0.9,1c-0.2,0.4-0.3,0.9-0.2,1.5
		c0,0.6,0,1,0.3,1.5c0.2,0.4,0.5,0.7,0.9,1c0.4,0.2,0.8,0.3,1.3,0.3c0.5,0,0.9-0.1,1.3-0.4c0.3-0.2,0.6-0.5,0.8-0.9l1.1,0.6
		c-0.2,0.3-0.4,0.7-0.7,1c-0.3,0.3-0.7,0.5-1.1,0.7C196.2,144.3,195.7,144.4,195.2,144.4z"/>
	<path class="st5" d="M204,144.4c-0.6,0-1.2-0.1-1.7-0.4c-0.5-0.3-0.9-0.7-1.2-1.2l0.2-0.2v1.6h-1.3v-10.7h1.3v4.7l-0.2-0.3
		c0.3-0.5,0.7-0.8,1.2-1.1c0.5-0.3,1.1-0.4,1.7-0.4c0.7,0,1.4,0.2,1.9,0.5c0.6,0.3,1,0.8,1.4,1.4c0.3,0.6,0.5,1.3,0.5,2
		c0,0.7-0.2,1.4-0.5,2c-0.3,0.6-0.8,1.1-1.4,1.4C205.4,144.2,204.7,144.4,204,144.4z M203.9,143.1c0.5,0,0.9-0.1,1.3-0.4
		c0.4-0.2,0.7-0.6,0.9-1c0.2-0.4,0.3-0.9,0.3-1.4c0-0.5-0.1-1-0.3-1.4c-0.2-0.4-0.5-0.7-0.9-1c-0.4-0.2-0.8-0.4-1.3-0.4
		s-0.9,0.1-1.3,0.4c-0.4,0.2-0.7,0.6-0.9,1c-0.2,0.4-0.3,0.9-0.3,1.4c0,0.5,0.1,1,0.3,1.4c0.2,0.4,0.5,0.7,0.9,1
		C203,143,203.4,143.1,203.9,143.1z"/>
	<path class="st5" d="M212,144.4c-0.8,0-1.4-0.2-2-0.6c-0.6-0.4-1-0.9-1.2-1.5l1-0.5c0.2,0.5,0.5,0.8,0.9,1.1
		c0.4,0.3,0.8,0.4,1.3,0.4c0.4,0,0.8-0.1,1-0.3c0.3-0.2,0.4-0.5,0.4-0.8c0-0.2-0.1-0.4-0.2-0.5c-0.1-0.1-0.3-0.2-0.5-0.3
		c-0.2-0.1-0.3-0.1-0.5-0.2l-1.1-0.3c-0.7-0.2-1.2-0.5-1.5-0.8c-0.3-0.4-0.5-0.8-0.5-1.3c0-0.5,0.1-0.8,0.3-1.2
		c0.2-0.3,0.6-0.6,0.9-0.8c0.4-0.2,0.9-0.3,1.4-0.3c0.7,0,1.3,0.2,1.8,0.5c0.5,0.3,0.9,0.8,1.1,1.4l-1.1,0.5
		c-0.2-0.4-0.4-0.7-0.8-0.9c-0.3-0.2-0.7-0.4-1.1-0.4c-0.4,0-0.7,0.1-0.9,0.3c-0.2,0.2-0.3,0.4-0.3,0.7c0,0.2,0.1,0.4,0.2,0.5
		c0.1,0.1,0.2,0.2,0.4,0.3c0.2,0.1,0.3,0.1,0.5,0.2l1.2,0.4c0.6,0.2,1.1,0.5,1.4,0.8c0.3,0.4,0.5,0.8,0.5,1.4c0,0.4-0.1,0.8-0.4,1.1
		c-0.2,0.3-0.6,0.6-1,0.8C213,144.3,212.5,144.4,212,144.4z"/>
	<path class="st5" d="M216.2,144.2v-7.6h1.3v7.6H216.2z M216.2,135.4v-1.7h1.3v1.7H216.2z"/>
	<path class="st5" d="M222.4,144.3c-0.7,0-1.3-0.2-1.7-0.6c-0.4-0.4-0.6-1-0.6-1.8v-4h-1.4v-1.3h0.3c0.3,0,0.6-0.1,0.8-0.3
		c0.2-0.2,0.3-0.5,0.3-0.8v-0.6h1.3v1.8h1.7v1.3h-1.7v4c0,0.3,0,0.5,0.1,0.7c0.1,0.2,0.2,0.3,0.4,0.5c0.2,0.1,0.4,0.2,0.8,0.2
		c0.1,0,0.1,0,0.2,0c0.1,0,0.2,0,0.3,0v1.2c-0.1,0-0.3,0-0.4,0.1C222.6,144.3,222.5,144.3,222.4,144.3z"/>
	<path class="st5" d="M227.9,144.4c-0.7,0-1.4-0.2-2-0.5c-0.6-0.3-1-0.8-1.4-1.4c-0.3-0.6-0.5-1.3-0.5-2.1c0-0.8,0.2-1.4,0.5-2
		c0.3-0.6,0.8-1.1,1.3-1.4c0.6-0.3,1.2-0.5,1.9-0.5c0.6,0,1.1,0.1,1.5,0.3c0.4,0.2,0.8,0.5,1.1,0.8c0.3,0.3,0.5,0.7,0.7,1.2
		c0.2,0.4,0.3,0.9,0.3,1.4c0,0.1,0,0.2,0,0.4c0,0.1,0,0.2,0,0.4H225v-1.1h5.5l-0.6,0.5c0.1-0.5,0-0.9-0.1-1.3
		c-0.2-0.4-0.4-0.7-0.8-0.9c-0.3-0.2-0.7-0.3-1.2-0.3c-0.4,0-0.8,0.1-1.2,0.3c-0.4,0.2-0.7,0.6-0.9,1c-0.2,0.4-0.3,0.9-0.2,1.5
		c0,0.6,0,1,0.3,1.5c0.2,0.4,0.5,0.7,0.9,1c0.4,0.2,0.8,0.3,1.3,0.3c0.5,0,0.9-0.1,1.3-0.4c0.3-0.2,0.6-0.5,0.8-0.9l1.1,0.6
		c-0.2,0.3-0.4,0.7-0.7,1c-0.3,0.3-0.7,0.5-1.1,0.7C228.9,144.3,228.4,144.4,227.9,144.4z"/>
	<path class="st5" d="M241.1,147.1v-4.5l0.2,0.2c-0.3,0.5-0.7,0.9-1.2,1.2c-0.5,0.3-1.1,0.4-1.7,0.4c-0.7,0-1.4-0.2-1.9-0.5
		c-0.6-0.3-1-0.8-1.3-1.4c-0.3-0.6-0.5-1.3-0.5-2c0-0.8,0.2-1.4,0.5-2c0.3-0.6,0.8-1.1,1.3-1.4c0.6-0.3,1.2-0.5,1.9-0.5
		c0.6,0,1.2,0.1,1.7,0.4c0.5,0.3,0.9,0.6,1.2,1.1l-0.2,0.3v-1.6h1.3v10.5H241.1z M238.5,143.1c0.5,0,0.9-0.1,1.3-0.4
		c0.4-0.2,0.7-0.6,0.9-1c0.2-0.4,0.3-0.9,0.3-1.4c0-0.5-0.1-1-0.3-1.4c-0.2-0.4-0.5-0.7-0.9-1c-0.4-0.2-0.8-0.4-1.3-0.4
		c-0.5,0-0.9,0.1-1.3,0.4c-0.4,0.2-0.7,0.6-0.9,1c-0.2,0.4-0.3,0.9-0.3,1.4c0,0.5,0.1,1,0.3,1.4c0.2,0.4,0.5,0.7,0.9,1
		C237.6,143,238.1,143.1,238.5,143.1z"/>
	<path class="st5" d="M246.9,144.4c-0.5,0-1-0.1-1.5-0.4c-0.4-0.3-0.8-0.6-1-1.1c-0.2-0.5-0.4-1-0.4-1.6v-4.8h1.3v4.6
		c0,0.4,0.1,0.7,0.2,1c0.2,0.3,0.4,0.5,0.7,0.7c0.3,0.2,0.6,0.2,1,0.2c0.4,0,0.7-0.1,0.9-0.2c0.3-0.2,0.5-0.4,0.7-0.7
		c0.2-0.3,0.2-0.7,0.2-1.1v-4.5h1.3v7.6H249v-1.5l0.2,0.1c-0.2,0.5-0.5,0.9-0.9,1.1C247.9,144.3,247.4,144.4,246.9,144.4z"/>
	<path class="st5" d="M252.1,144.2v-7.6h1.3v7.6H252.1z M252.1,135.4v-1.7h1.3v1.7H252.1z"/>
	<path class="st5" d="M258.7,144.4c-0.7,0-1.4-0.2-2-0.5c-0.6-0.3-1-0.8-1.4-1.4c-0.3-0.6-0.5-1.3-0.5-2c0-0.8,0.2-1.4,0.5-2
		c0.3-0.6,0.8-1.1,1.4-1.4c0.6-0.3,1.3-0.5,2-0.5c0.5,0,1,0.1,1.4,0.3c0.4,0.2,0.8,0.4,1.1,0.7c0.3,0.3,0.6,0.7,0.7,1.1l-1.2,0.6
		c-0.2-0.4-0.5-0.7-0.8-1c-0.4-0.3-0.8-0.4-1.3-0.4c-0.5,0-0.9,0.1-1.3,0.4c-0.4,0.2-0.7,0.6-0.9,1c-0.2,0.4-0.3,0.9-0.3,1.4
		c0,0.5,0.1,1,0.3,1.4c0.2,0.4,0.5,0.7,0.9,1c0.4,0.2,0.8,0.4,1.3,0.4c0.5,0,0.9-0.1,1.3-0.4c0.4-0.3,0.6-0.6,0.8-1l1.2,0.6
		c-0.2,0.4-0.4,0.8-0.7,1.1c-0.3,0.3-0.7,0.5-1.1,0.7C259.7,144.3,259.2,144.4,258.7,144.4z"/>
	<path class="st5" d="M263.4,144.2v-10.7h1.3v7.3l-0.5-0.1l4-4.1h1.7l-2.9,3.1l3.1,4.6h-1.6l-2.9-4.1l0.8,0l-2.2,2.3l0.4-1v2.8
		H263.4z"/>
	<path class="st5" d="M271,144.2v-10.7h1.3v10.7H271z"/>
	<path class="st5" d="M274.5,147.4c-0.2,0-0.3,0-0.5,0c-0.2,0-0.3-0.1-0.5-0.1V146c0.1,0,0.2,0,0.4,0.1c0.2,0,0.3,0,0.5,0
		c0.4,0,0.8-0.1,1-0.3c0.2-0.2,0.5-0.5,0.7-1l0.5-1.1l0,1.1l-3.3-8.2h1.4l2.5,6.5h-0.4l2.5-6.5h1.5l-3.4,8.5
		c-0.2,0.4-0.4,0.8-0.6,1.1c-0.2,0.3-0.5,0.6-0.9,0.8C275.4,147.3,275,147.4,274.5,147.4z"/>
	<path class="st5" d="M283.9,141v-1.2h10.9v1.2H283.9z"/>
	<path class="st5" d="M300.5,144.2l-2.6-7.6h1.5l2.1,6.4l-0.5,0l2-6.4h1.2l2,6.4l-0.5,0l2.1-6.4h1.4l-2.6,7.6h-1.3l-2-6.4h0.4
		l-2,6.4H300.5z"/>
	<path class="st5" d="M310.2,144.2v-7.6h1.3v7.6H310.2z M310.2,135.4v-1.7h1.3v1.7H310.2z"/>
	<path class="st5" d="M316.4,144.3c-0.7,0-1.3-0.2-1.7-0.6c-0.4-0.4-0.6-1-0.6-1.8v-4h-1.4v-1.3h0.3c0.3,0,0.6-0.1,0.8-0.3
		c0.2-0.2,0.3-0.5,0.3-0.8v-0.6h1.3v1.8h1.7v1.3h-1.7v4c0,0.3,0,0.5,0.1,0.7c0.1,0.2,0.2,0.3,0.4,0.5c0.2,0.1,0.4,0.2,0.8,0.2
		c0.1,0,0.1,0,0.2,0c0.1,0,0.2,0,0.3,0v1.2c-0.1,0-0.3,0-0.4,0.1C316.6,144.3,316.5,144.3,316.4,144.3z"/>
	<path class="st5" d="M318.6,144.2v-10.7h1.3v4.6l-0.2-0.1c0.2-0.5,0.5-0.9,0.9-1.1c0.4-0.3,0.9-0.4,1.5-0.4c0.5,0,1,0.1,1.5,0.4
		c0.4,0.2,0.8,0.6,1,1c0.3,0.4,0.4,0.9,0.4,1.5v4.9h-1.3v-4.5c0-0.4-0.1-0.8-0.2-1.1c-0.2-0.3-0.4-0.5-0.6-0.7
		c-0.3-0.2-0.6-0.3-0.9-0.3c-0.3,0-0.7,0.1-0.9,0.3c-0.3,0.2-0.5,0.4-0.7,0.7c-0.2,0.3-0.2,0.6-0.2,1.1v4.5H318.6z"/>
	<path class="st5" d="M330.2,144.4c-0.7,0-1.4-0.2-2-0.5c-0.6-0.3-1.1-0.8-1.4-1.4c-0.3-0.6-0.5-1.3-0.5-2.1c0-0.8,0.2-1.4,0.5-2
		c0.3-0.6,0.8-1.1,1.4-1.4c0.6-0.3,1.3-0.5,2-0.5c0.7,0,1.4,0.2,2,0.5c0.6,0.3,1.1,0.8,1.4,1.4c0.4,0.6,0.5,1.3,0.5,2.1
		c0,0.8-0.2,1.5-0.5,2.1c-0.4,0.6-0.8,1.1-1.4,1.4C331.5,144.2,330.9,144.4,330.2,144.4z M330.2,143.1c0.5,0,0.9-0.1,1.3-0.4
		c0.4-0.2,0.7-0.6,0.9-1c0.2-0.4,0.3-0.9,0.3-1.4c0-0.5-0.1-1-0.3-1.4c-0.2-0.4-0.5-0.7-0.9-1c-0.4-0.2-0.8-0.4-1.3-0.4
		c-0.5,0-0.9,0.1-1.3,0.4c-0.4,0.2-0.7,0.6-0.9,1c-0.2,0.4-0.3,0.9-0.3,1.4c0,0.5,0.1,1,0.3,1.4c0.2,0.4,0.5,0.7,0.9,1
		C329.2,143,329.7,143.1,330.2,143.1z"/>
	<path class="st5" d="M338.2,144.4c-0.5,0-1-0.1-1.5-0.4c-0.4-0.3-0.8-0.6-1-1.1c-0.2-0.5-0.4-1-0.4-1.6v-4.8h1.3v4.6
		c0,0.4,0.1,0.7,0.2,1c0.2,0.3,0.4,0.5,0.7,0.7c0.3,0.2,0.6,0.2,1,0.2c0.4,0,0.7-0.1,0.9-0.2c0.3-0.2,0.5-0.4,0.7-0.7
		c0.2-0.3,0.2-0.7,0.2-1.1v-4.5h1.3v7.6h-1.3v-1.5l0.2,0.1c-0.2,0.5-0.5,0.9-0.9,1.1C339.3,144.3,338.8,144.4,338.2,144.4z"/>
	<path class="st5" d="M344,144.2v-1.7h1.4v1.7H344z"/>
	<path class="st5" d="M348.2,144.2v-1.7h1.4v1.7H348.2z"/>
	<path class="st5" d="M352.4,144.2v-1.7h1.4v1.7H352.4z"/>
</g>
<g class="st4">
	<path class="st5" d="M445.2,63.1v-1l2.9-3.2c0.6-0.6,1-1.1,1.4-1.5c0.3-0.4,0.6-0.8,0.8-1.1c0.2-0.3,0.2-0.6,0.2-1
		c0-0.6-0.2-1-0.5-1.3c-0.3-0.3-0.8-0.5-1.3-0.5c-0.6,0-1,0.2-1.4,0.5c-0.4,0.3-0.7,0.8-0.8,1.4l-1.3-0.3c0.1-0.6,0.3-1.1,0.7-1.5
		c0.3-0.4,0.7-0.7,1.2-1c0.5-0.2,1-0.3,1.6-0.3c0.6,0,1.2,0.1,1.7,0.4c0.5,0.2,0.9,0.6,1.1,1c0.3,0.4,0.4,1,0.4,1.5
		c0,0.4-0.1,0.8-0.2,1.1c-0.2,0.4-0.4,0.8-0.7,1.2c-0.3,0.4-0.7,0.9-1.2,1.4l-2.6,2.8h5v1.2H445.2z"/>
	<path class="st5" d="M455.1,63.1v-9.3h-2v-1.2h3.4v10.5H455.1z"/>
	<path class="st5" d="M460.9,63.1v-7.6h1.3V57l-0.2-0.2c0.2-0.5,0.5-0.8,0.9-1.1c0.4-0.3,0.9-0.4,1.4-0.4c0.6,0,1.1,0.2,1.6,0.5
		c0.5,0.3,0.8,0.8,1,1.3l-0.4,0c0.2-0.6,0.5-1,1-1.3c0.5-0.3,1-0.5,1.6-0.5c0.5,0,1,0.1,1.4,0.4c0.4,0.2,0.8,0.6,1,1
		c0.3,0.4,0.4,0.9,0.4,1.5v4.9h-1.3v-4.5c0-0.4-0.1-0.8-0.2-1.1c-0.2-0.3-0.4-0.5-0.6-0.7c-0.3-0.2-0.6-0.3-0.9-0.3
		c-0.3,0-0.6,0.1-0.9,0.3c-0.3,0.2-0.5,0.4-0.6,0.7c-0.2,0.3-0.2,0.6-0.2,1.1v4.5h-1.3v-4.5c0-0.4-0.1-0.8-0.2-1.1
		c-0.2-0.3-0.4-0.5-0.6-0.7c-0.3-0.2-0.6-0.3-0.9-0.3c-0.3,0-0.6,0.1-0.9,0.3c-0.3,0.2-0.5,0.4-0.6,0.7c-0.2,0.3-0.2,0.6-0.2,1.1
		v4.5H460.9z"/>
	<path class="st5" d="M473.5,63.1v-7.6h1.3v7.6H473.5z M473.5,54.2v-1.7h1.3v1.7H473.5z"/>
	<path class="st5" d="M476.6,63.1v-7.6h1.3v1.5l-0.2-0.1c0.2-0.5,0.5-0.9,0.9-1.1c0.4-0.3,0.9-0.4,1.5-0.4c0.5,0,1,0.1,1.5,0.4
		c0.4,0.2,0.8,0.6,1,1c0.3,0.4,0.4,0.9,0.4,1.5v4.9h-1.3v-4.5c0-0.4-0.1-0.8-0.2-1.1c-0.2-0.3-0.4-0.5-0.7-0.7
		c-0.3-0.2-0.6-0.3-0.9-0.3c-0.4,0-0.7,0.1-1,0.3c-0.3,0.2-0.5,0.4-0.7,0.7c-0.2,0.3-0.2,0.6-0.2,1.1v4.5H476.6z"/>
	<path class="st5" d="M487.3,63.3c-0.8,0-1.4-0.2-2-0.6c-0.6-0.4-1-0.9-1.2-1.5l1-0.5c0.2,0.5,0.5,0.8,0.9,1.1
		c0.4,0.3,0.8,0.4,1.3,0.4c0.4,0,0.8-0.1,1-0.3c0.3-0.2,0.4-0.5,0.4-0.8c0-0.2-0.1-0.4-0.2-0.5c-0.1-0.1-0.3-0.2-0.5-0.3
		c-0.2-0.1-0.3-0.1-0.5-0.2l-1.1-0.3c-0.7-0.2-1.2-0.5-1.5-0.8c-0.3-0.4-0.5-0.8-0.5-1.3c0-0.5,0.1-0.8,0.3-1.2
		c0.2-0.3,0.6-0.6,0.9-0.8c0.4-0.2,0.9-0.3,1.4-0.3c0.7,0,1.3,0.2,1.8,0.5c0.5,0.3,0.9,0.8,1.1,1.4l-1.1,0.5
		c-0.2-0.4-0.4-0.7-0.8-0.9c-0.3-0.2-0.7-0.4-1.1-0.4c-0.4,0-0.7,0.1-0.9,0.3c-0.2,0.2-0.3,0.4-0.3,0.7c0,0.2,0.1,0.4,0.2,0.5
		c0.1,0.1,0.3,0.2,0.4,0.3c0.2,0.1,0.3,0.1,0.5,0.2l1.2,0.4c0.6,0.2,1.1,0.5,1.4,0.8c0.3,0.4,0.5,0.8,0.5,1.4c0,0.4-0.1,0.8-0.4,1.1
		c-0.2,0.3-0.6,0.6-1,0.8C488.3,63.2,487.8,63.3,487.3,63.3z"/>
</g>
<path class="st7" d="M482.1,130.7c-0.1-0.3-0.5-0.5-0.8-0.5c-0.3,0-0.6,0.2-0.8,0.5l-2.2,4.4l-4.3,0.6c-0.3,0-0.6,0.3-0.7,0.6
	c-0.1,0.3,0,0.7,0.2,0.9l3.2,3.2l-1.1,4.7c-0.1,0.3,0,0.7,0.3,0.9c0.3,0.2,0.6,0.2,0.9,0.1l4.3-2.2l4.3,2.2c0.3,0.2,0.7,0.1,0.9-0.1
	c0.3-0.2,0.4-0.6,0.3-0.9l-1.1-4.7l3.2-3.2c0.2-0.2,0.3-0.6,0.2-0.9c-0.1-0.3-0.4-0.5-0.7-0.6l-4.3-0.6L482.1,130.7z"/>
<g class="st4">
	<path class="st8" d="M168,51.3c-1-1-2.6-1-3.6,0l-5.6,5.6c-1.6,1.6-1.6,4.2,0,5.8c1.6,1.6,4.2,1.6,5.8,0l6.1-6.1
		c0.2-0.2,0.6-0.2,0.8,0c0.2,0.2,0.2,0.6,0,0.8l-6.1,6.1c-2.1,2.1-5.4,2.1-7.5,0c-2.1-2.1-2.1-5.4,0-7.5l5.6-5.6
		c1.5-1.5,3.8-1.5,5.3,0c1.5,1.5,1.5,3.8,0,5.3l-5.6,5.6c-0.8,0.8-2.2,0.8-3.1,0c-0.8-0.8-0.8-2.2,0-3.1l5.6-5.6
		c0.2-0.2,0.6-0.2,0.8,0c0.2,0.2,0.2,0.6,0,0.8l-5.6,5.6c-0.4,0.4-0.4,1,0,1.4c0.4,0.4,1,0.4,1.4,0l5.6-5.6
		C169,53.9,169,52.3,168,51.3z"/>
</g>
<g class="st9">
	<path class="st8" d="M49.5,51.9L49.5,51.9h4.8h0.1c1.6,0,2.9,0,3.9,0.1c1.1,0.1,2,0.4,2.7,1.2c0.7,0.7,1,1.6,1.2,2.7
		c0.1,1,0.1,2.3,0.1,3.9v0.1v4.7v0.1c0,1.6,0,2.9-0.1,3.9c-0.1,1.1-0.4,2-1.2,2.7c-0.7,0.7-1.6,1-2.7,1.2c-1,0.1-2.3,0.1-3.9,0.1
		h-0.1h-4.7h-0.1c-1.6,0-2.9,0-3.9-0.1c-1.1-0.1-2-0.4-2.7-1.2c-0.7-0.7-1-1.6-1.2-2.7c-0.1-1-0.1-2.3-0.1-3.9v-0.1v-4.7v-0.1
		c0-1.6,0-2.9,0.1-3.9c0.1-1.1,0.4-2,1.2-2.7c0.7-0.7,1.6-1,2.7-1.2C46.6,51.9,47.9,51.9,49.5,51.9z M45.8,53.8
		c-0.9,0.1-1.3,0.3-1.7,0.7c-0.3,0.3-0.5,0.8-0.7,1.7c-0.1,0.9-0.1,2.1-0.1,3.8v4.7c0,1.7,0,2.9,0.1,3.8c0.1,0.9,0.3,1.3,0.7,1.7
		c0.3,0.3,0.8,0.5,1.7,0.7c0.9,0.1,2.1,0.1,3.8,0.1h4.7c1.7,0,2.9,0,3.8-0.1c0.9-0.1,1.3-0.3,1.6-0.7c0.3-0.3,0.5-0.8,0.7-1.7
		c0.1-0.9,0.1-2.1,0.1-3.8v-4.7c0-1.7,0-2.9-0.1-3.8c-0.1-0.9-0.3-1.3-0.7-1.7c-0.3-0.3-0.8-0.5-1.6-0.7c-0.9-0.1-2.1-0.1-3.8-0.1
		h-4.7C47.9,53.7,46.7,53.7,45.8,53.8z"/>
</g>
</svg>
