<?xml version="1.0" encoding="utf-8"?>
<!-- Generator: Adobe Illustrator 25.4.1, SVG Export Plug-In . SVG Version: 6.00 Build 0)  -->
<svg version="1.0" id="katman_1" xmlns="http://www.w3.org/2000/svg" xmlns:xlink="http://www.w3.org/1999/xlink" x="0px" y="0px"
	 viewBox="0 0 543.3 396" style="enable-background:new 0 0 543.3 396;" xml:space="preserve">
<style type="text/css">
	.st0{fill:#010202;}
</style>
<g transform="translate(-1)">
	<g transform="translate(113 20)">
		<path class="st0" d="M263,153h-21.1c-1.4,0-2.7,1-2.9,2.5l-8.5,53.5c-0.1,0.5,0.1,1,0.4,1.4c0.3,0.4,0.8,0.6,1.3,0.6H243
			c1,0,1.9-0.7,2-1.7l2.4-15.2c0.2-1.4,1.5-2.5,2.9-2.4h6.7c13.9,0,21.9-6.7,24-19.8c0.9-5.8,0-10.3-2.7-13.5
			C275.4,154.9,270.1,153,263,153z M265.4,172.6c-1.2,7.5-6.9,7.5-12.5,7.5h-3.2l2.2-14c0.1-0.9,0.9-1.5,1.7-1.5h1.5
			c3.8,0,7.4,0,9.3,2.1C265.5,168,265.9,169.9,265.4,172.6z M112.4,153H91.3c-1.4,0-2.7,1-2.9,2.5L79.8,209c-0.1,0.5,0.1,1,0.4,1.4
			c0.3,0.4,0.8,0.6,1.3,0.6h10.1c1.4,0,2.7-1,2.9-2.4l2.3-14.4c0.2-1.4,1.5-2.5,2.9-2.4h6.7c13.9,0,21.9-6.7,24-19.8
			c0.9-5.8,0-10.3-2.7-13.5C124.8,154.9,119.5,153,112.4,153z M114.9,172.6c-1.2,7.5-6.9,7.5-12.5,7.5h-3.2l2.2-14
			c0.1-0.9,0.9-1.5,1.7-1.5h1.5c3.8,0,7.4,0,9.3,2.1C114.9,168,115.3,169.9,114.9,172.6L114.9,172.6z M175.5,172.3h-10.1
			c-0.9,0-1.6,0.6-1.7,1.5l-0.4,2.8l-0.7-1c-2.2-3.1-7.1-4.2-11.9-4.2c-11.2,0-20.7,8.4-22.6,20.1c-1,5.9,0.4,11.4,3.8,15.3
			c3.1,3.6,7.5,5.1,12.7,5.1c5.2,0.1,10.3-2,14-5.7L158,209c-0.1,0.5,0.1,1,0.4,1.4c0.3,0.4,0.8,0.6,1.3,0.6h9.1
			c1.4,0,2.7-1,2.9-2.4l5.5-34.2c0.1-0.5-0.1-1-0.4-1.4S176,172.3,175.5,172.3L175.5,172.3z M161.4,191.8c-0.9,5.6-5.7,9.7-11.4,9.5
			c-2.6,0.2-5-0.8-6.8-2.7c-1.5-2-2.1-4.5-1.6-7c0.8-5.6,5.7-9.7,11.3-9.6c2.5-0.2,5,0.8,6.7,2.7C161.4,186.7,162,189.3,161.4,191.8
			L161.4,191.8z M326.1,172.3H316c-0.9,0-1.6,0.6-1.7,1.5l-0.4,2.8l-0.7-1c-2.2-3.1-7.1-4.2-11.9-4.2c-11.2,0-20.7,8.4-22.6,20.1
			c-1,5.9,0.4,11.4,3.8,15.3c3.1,3.6,7.5,5.1,12.7,5.1c5.2,0.1,10.3-2,14-5.7l-0.4,2.8c-0.1,0.5,0.1,1,0.4,1.4
			c0.3,0.4,0.8,0.6,1.3,0.6h9.1c1.4,0,2.7-1.1,2.9-2.5l5.5-34.2c0.1-0.5-0.1-1-0.4-1.4C327.1,172.5,326.6,172.3,326.1,172.3
			L326.1,172.3z M312,191.8c-0.9,5.6-5.7,9.7-11.4,9.5c-2.6,0.2-5-0.8-6.8-2.7c-1.5-2-2.1-4.5-1.6-7c0.8-5.6,5.7-9.7,11.3-9.6
			c2.5-0.2,5,0.8,6.7,2.7C312,186.7,312.6,189.3,312,191.8L312,191.8z M229.4,172.3h-10.2c-1,0-1.9,0.5-2.4,1.3l-14,20.4l-5.9-19.6
			c-0.4-1.2-1.5-2.1-2.8-2.1h-10c-0.6,0-1.1,0.3-1.4,0.7c-0.3,0.5-0.4,1-0.2,1.6l11.2,32.4L183,221.7c-0.4,0.5-0.4,1.2-0.1,1.8
			c0.3,0.6,0.9,0.9,1.6,0.9h10.2c1,0,1.9-0.5,2.4-1.2l33.8-48.2c0.4-0.5,0.4-1.2,0.1-1.8C230.6,172.7,230,172.3,229.4,172.3
			L229.4,172.3z M338,154.5l-8.7,54.4c-0.1,0.5,0.1,1,0.4,1.4c0.3,0.4,0.8,0.6,1.3,0.6h8.7c1.4,0,2.7-1,2.9-2.4l8.6-53.4
			c0.1-0.5-0.1-1-0.4-1.4c-0.3-0.4-0.8-0.6-1.3-0.6h-9.8C338.9,153,338.2,153.6,338,154.5L338,154.5z"/>
	</g>
	<path class="st0" d="M111.2,171.6c0.7-0.4,1.6-0.5,2.4-0.5h22.7c2.6,0,5.2,0.2,7.8,0.6c0.7,0.1,1.3,0.2,2,0.4
		c0.7,0.1,1.3,0.3,1.9,0.5l0.9,0.3c0.3,0.1,0.6,0.2,0.9,0.3c0.5-6.1-1.3-10.4-4.3-13.7c-4.4-4.8-12.1-6.9-22.1-6.9h-27
		c-2,0-3.8,1.5-4.1,3.4l-12,75.6c-0.1,0.7,0.1,1.4,0.6,2s1.2,0.9,1.9,0.8h15.9l9.4-58.6C108.4,173.9,109.5,172.3,111.2,171.6z"/>
	<path class="st0" d="M147.7,176.3l-0.8-0.2c-0.5-0.2-1.1-0.3-1.7-0.4c-0.6-0.1-1.2-0.2-1.8-0.3c-2.4-0.4-4.8-0.5-7.2-0.5h-21.1
		c-0.5,0-1.1,0.1-1.6,0.3c-1.1,0.5-1.8,1.5-2,2.7l-3.8,23.9c0.4-0.1,0.9-0.1,1.3-0.1h8.5c4.1,0.1,8.1-0.5,12.1-1.5
		c9-2.6,15-8.3,18.1-17.5c0.6-1.9,1.1-3.8,1.5-5.7C148.8,176.7,148.2,176.5,147.7,176.3z"/>
	<path class="st0" d="M155.5,180.7c-0.8-0.8-1.6-1.5-2.6-2.1c-2.3,11.2-9.4,27-35.6,27h-6.5c-2,0-3.8,1.5-4.1,3.4
		c0,0-5.1,31.5-5.3,33.1c-0.1,0.6,0.1,1.2,0.5,1.7s1,0.7,1.6,0.7h13.1c1.8,0,3.3-1.3,3.6-3l3.2-19.5c0.3-1.7,1.8-3,3.6-3h2.2
		c14.6,0,26-5.9,29.4-22.8c0.1-0.5,0.2-1,0.3-1.5C159.5,188.9,158.6,184.2,155.5,180.7z"/>
</g>
</svg>
