<svg xmlns="http://www.w3.org/2000/svg" viewBox="0 0 170.55 26.65"><defs><style>.cls-1{fill:#fff;}.cls-2{fill:#3b3c39;}.cls-3{fill:#c1c2bf;}</style></defs><title>Asset 13</title><g id="Layer_2" data-name="Layer 2"><g id="Layer_8" data-name="Layer 8"><path d="M50.48,20.23h0l-.21.57-.06.16h-.52l.12-.33L51,17.55h1l1.16,3.08.12.33h-.52l-.06-.16-.21-.57h-2Zm1.83-.48L51.66,18h-.37l-.65,1.71Z"/><path d="M54.44,20.71V21H54V17.55h1l1.39,2.92h.22V17.55h.49V21H56L54.65,18h-.21Z"/><path d="M57.64,19.26a2,2,0,0,1,.47-1.39,2,2,0,0,1,1.24-.37,2,2,0,0,1,1.22.37A2,2,0,0,1,61,19.25a2,2,0,0,1-.47,1.39,2.05,2.05,0,0,1-1.22.37,2.09,2.09,0,0,1-1.24-.37A2.08,2.08,0,0,1,57.64,19.26Zm.49,0a1.45,1.45,0,0,0,.3,1,1.74,1.74,0,0,0,1.83,0,1.43,1.43,0,0,0,.3-1,1.42,1.42,0,0,0-.3-1,1.74,1.74,0,0,0-1.83,0A1.39,1.39,0,0,0,58.13,19.25Z"/><path d="M62.31,20.71V21h-.49V17.55h1l1.39,2.92h.22V17.55h.49V21h-1L62.52,18h-.21Z"/><path d="M66.71,20v-.23h-.23l-1-1.84-.19-.36h.55l.07.13.86,1.58h.36L68,17.68l.07-.13h.56l-.2.36-1,1.84H67.2V21h-.49V20Z"/><path d="M69.71,20.71V21h-.48V17.55H70.3l1,2.92h.19l1-2.92h1.08V21H73V18h-.24L71.8,21h-.89L70,18h-.24Z"/><path d="M74.06,19.26a1.94,1.94,0,0,1,.47-1.39,2,2,0,0,1,1.23-.37,2,2,0,0,1,1.23.37,2.28,2.28,0,0,1,0,2.77,2.08,2.08,0,0,1-1.23.37,2.06,2.06,0,0,1-1.23-.37A2,2,0,0,1,74.06,19.26Zm.48,0a1.5,1.5,0,0,0,.3,1,1.42,1.42,0,0,0,.92.26,1.37,1.37,0,0,0,.91-.26,1.43,1.43,0,0,0,.3-1,1.42,1.42,0,0,0-.3-1,1.37,1.37,0,0,0-.91-.26,1.42,1.42,0,0,0-.92.26A1.44,1.44,0,0,0,74.54,19.25Z"/><path d="M78.14,17.79v-.24h.48v2a1.14,1.14,0,0,0,.29.76,1.65,1.65,0,0,0,1.5,0,1.07,1.07,0,0,0,.29-.76v-2h.48v2a1.59,1.59,0,0,1-.49,1.15,2.1,2.1,0,0,1-2.06,0,1.61,1.61,0,0,1-.49-1.15Z"/><path d="M84.56,18.54l-.49.06c0-.24,0-.36-.16-.44a1.18,1.18,0,0,0-.67-.17,1.54,1.54,0,0,0-.72.13h0a.41.41,0,0,0-.16.38c0,.51,2.27.51,2.27,1.51a1,1,0,0,1-.35.78,2.11,2.11,0,0,1-1,.22,2.28,2.28,0,0,1-1-.24,1.46,1.46,0,0,1-.45-.76l.48-.11a.77.77,0,0,0,.25.47,1.7,1.7,0,0,0,.76.15,1.63,1.63,0,0,0,.75-.13c.11-.08.14-.19.14-.38,0-.52-2.27-.52-2.27-1.51a.94.94,0,0,1,.4-.78,2,2,0,0,1,1-.22,1.77,1.77,0,0,1,1,.26A1.11,1.11,0,0,1,84.56,18.54Z"/><path d="M89.48,17.55h.25V18H87.58v1h1.57v.49H87.58v1h2.15V21H87.09V17.55Z"/><path d="M91,20.71V21H90.5V17.55h1.08l1,2.92h.19l1-2.92h1.07V21h-.48V18H94l-1,2.92h-.89l-1-2.92H91Z"/><path d="M96,20.23h0l-.21.57L95.7,21h-.52l.12-.33,1.16-3.08h1.05l1.16,3.08.12.33h-.52l0-.16L98,20.23H96Zm1.82-.48L97.17,18H96.8l-.65,1.71Z"/><path d="M99.44,17.79v-.24h.49V21h-.49V17.79Z"/><path d="M100.82,17.79v-.24h.49v2.92h1.83V21h-2.32Z"/><path d="M108.11,18.54l-.49.06c0-.24,0-.36-.16-.44a1.16,1.16,0,0,0-.67-.17,1.6,1.6,0,0,0-.72.13h0a.41.41,0,0,0-.17.38c0,.51,2.27.51,2.27,1.51a1,1,0,0,1-.35.78,2.09,2.09,0,0,1-1,.22,2.24,2.24,0,0,1-1-.24,1.4,1.4,0,0,1-.45-.76l.48-.11a.73.73,0,0,0,.25.47,1.65,1.65,0,0,0,.75.15,1.63,1.63,0,0,0,.75-.13c.11-.08.14-.19.14-.38,0-.52-2.27-.52-2.27-1.51a1,1,0,0,1,.4-.78,2.05,2.05,0,0,1,1-.22,1.74,1.74,0,0,1,.95.26A1.07,1.07,0,0,1,108.11,18.54Z"/><path d="M111.34,17.55h.24V18h-2.15v1H111v.49h-1.58v1h2.15V21H109V17.55Z"/><path d="M114.29,19.47l.88,1.09.33.4h-.63l-.08-.09-1.11-1.37h-.83V21h-.49V17.55h1.44a2.34,2.34,0,0,1,1.14.21,1.15,1.15,0,0,1,0,1.53A1.45,1.45,0,0,1,114.29,19.47Zm-1-.46h.51a2.36,2.36,0,0,0,.84-.1.54.54,0,0,0,.1-.39.53.53,0,0,0-.1-.38,2.25,2.25,0,0,0-.84-.1h-1v1Z"/><path d="M115.77,17.87l-.1-.32h.51l.06.17.83,2.75h.3l.84-2.75.05-.17h.51l-.09.32-1,3.09h-1Z"/><path d="M119.44,17.79v-.24h.48V21h-.48V17.79Z"/><path d="M123.43,20l.44.23a1.34,1.34,0,0,1-.64.63,2.79,2.79,0,0,1-.8.13,2.08,2.08,0,0,1-1.26-.35,2,2,0,0,1-.55-1.4h0a2,2,0,0,1,.55-1.41,2.14,2.14,0,0,1,1.26-.34,2.77,2.77,0,0,1,.87.17,1.12,1.12,0,0,1,.56.6l-.44.22a.66.66,0,0,0-.3-.37,2.09,2.09,0,0,0-.7-.13,1.54,1.54,0,0,0-1,.24,1.42,1.42,0,0,0-.35,1,1.55,1.55,0,0,0,.35,1,1.48,1.48,0,0,0,1,.25h0a2,2,0,0,0,.63-.09h0A.76.76,0,0,0,123.43,20Z"/><path d="M127,17.55h.24V18h-2.15v1h1.57v.49h-1.57v1h2.15V21h-2.64V17.55Z"/><path d="M56.57,13.26l1.18.6A3.73,3.73,0,0,1,56,15.58a7.45,7.45,0,0,1-2.14.32A5.62,5.62,0,0,1,50.49,15c-.92-.7-1.41-2.46-1.46-3.77v0A5.42,5.42,0,0,1,50.49,7.4a5.76,5.76,0,0,1,3.39-.91A6.8,6.8,0,0,1,56.22,7a3.12,3.12,0,0,1,1.5,1.6l-1.18.58a1.84,1.84,0,0,0-.82-1,5.57,5.57,0,0,0-1.87-.35,4.07,4.07,0,0,0-2.58.65,3.9,3.9,0,0,0-.94,2.73,4.2,4.2,0,0,0,.94,2.75,4.07,4.07,0,0,0,2.58.67h0a5.88,5.88,0,0,0,1.69-.25h0A1.94,1.94,0,0,0,56.57,13.26Z"/><path d="M62.35,13.16v-.64h-.62L59.06,7.59l-.52-1H60l.18.34,2.31,4.25h1L65.79,7,66,6.62h1.49l-.52,1-2.67,4.93h-.62v3.25h-1.3V13.16Z"/><path d="M75.87,11a2.43,2.43,0,0,1,.29.21,2.59,2.59,0,0,1,0,3.82,3.8,3.8,0,0,1-2.28.7H69.1V6.62h4.14a4.43,4.43,0,0,1,2.49.69,2.64,2.64,0,0,1,.88,1.92A2.73,2.73,0,0,1,75.87,11Zm-2.63-.5A3,3,0,0,0,75,10.11a1.05,1.05,0,0,0,.35-.88A1,1,0,0,0,75,8.36a3,3,0,0,0-1.71-.43H70.41v2.61Zm-2.83,1.31v2.62h3.47a2.34,2.34,0,0,0,1.47-.42,1,1,0,0,0,.34-.89,1,1,0,0,0-.34-.89,2.34,2.34,0,0,0-1.47-.42H70.41Z"/><path d="M85.52,6.62h.66V7.93H80.4v2.61h4.22v1.31H80.4v2.62h5.78v1.3H79.09V6.62Z"/><path d="M93.45,11.78l2.37,2.92.87,1.07H95l-.2-.23-3-3.69H89.57v3.92h-1.3V6.62h3.85a6.55,6.55,0,0,1,3.09.56A3,3,0,0,1,96,9.23a2.87,2.87,0,0,1-.76,2.06A4.23,4.23,0,0,1,93.45,11.78Zm-2.7-1.24h1.37a6.82,6.82,0,0,0,2.28-.27,1.54,1.54,0,0,0,.26-1,1.58,1.58,0,0,0-.26-1,6.27,6.27,0,0,0-2.28-.27H89.57v2.61Z"/><path d="M103.74,6.63h.92V8.46H99.89v1.83h4v1.83h-4v3.66H98.06V6.62Z"/><path d="M111.89,6.62h.91V8.45h-5.28v1.83h3.86v1.83h-3.86v1.83h5.28v1.83h-7.11V6.62Z"/><path d="M121,14h-4.81l-.47,1.22-.22.59h-2l.48-1.24,3-7.91h3.08l3,7.91.48,1.24h-2l-.22-.59Zm-.7-1.84-1.41-3.67h-.58l-1.41,3.67Z"/><path d="M130.77,12l1.88,2.32,1.2,1.49h-2.34l-.28-.34-2.68-3.32h-1.63v3.66h-1.83V6.62H129a6.18,6.18,0,0,1,3,.59,3.07,3.07,0,0,1,.83,2.16,3,3,0,0,1-.83,2.15A3.11,3.11,0,0,1,130.77,12Zm-3.7-1.68H129a5.92,5.92,0,0,0,1.91-.2c.08-.06.13-.3.13-.71s-.05-.66-.13-.72a5.64,5.64,0,0,0-1.91-.2h-2.06v1.83Z"/><path d="M134.75,15.13v-.65h1.3V15.8h-1.3v-.67Z"/><path d="M145.36,13.26l1.18.6a3.64,3.64,0,0,1-1.73,1.72,7.35,7.35,0,0,1-2.14.32,5.62,5.62,0,0,1-3.39-.92c-.91-.7-1.41-2.46-1.46-3.77v0a5.42,5.42,0,0,1,1.46-3.78,5.76,5.76,0,0,1,3.39-.91A6.8,6.8,0,0,1,145,7a3.12,3.12,0,0,1,1.5,1.6l-1.17.58a1.91,1.91,0,0,0-.83-1,5.57,5.57,0,0,0-1.87-.35,4,4,0,0,0-2.57.65,3.85,3.85,0,0,0-.94,2.73,4.09,4.09,0,0,0,.94,2.75,4,4,0,0,0,2.57.67h0a5.81,5.81,0,0,0,1.68-.25h0A2,2,0,0,0,145.36,13.26Z"/><path d="M147.91,11.21a5.39,5.39,0,0,1,1.27-3.74,6,6,0,0,1,6.6,0,5.37,5.37,0,0,1,1.27,3.73c0,1.29-.42,3-1.27,3.72a6,6,0,0,1-6.6,0C148.33,14.22,147.92,12.46,147.91,11.21Zm1.31,0A4,4,0,0,0,150,13.9a3.89,3.89,0,0,0,2.48.7,3.82,3.82,0,0,0,2.45-.7,3.88,3.88,0,0,0,.8-2.7,3.9,3.9,0,0,0-.8-2.71,3.82,3.82,0,0,0-2.45-.69,3.89,3.89,0,0,0-2.48.69A3.81,3.81,0,0,0,149.22,11.18Z"/><path d="M160.45,15.12v.65h-1.31V6.62H162l2.56,7.85h.51l2.56-7.85h2.89v9.15h-1.3V7.93h-.64L166,15.77h-2.39l-2.56-7.84h-.64Z"/><path d="M2.06,3.2,15.75,14.28,2.06,23.66ZM32.82,17.44l-.49-.34-1.61,1.38,2,1.42-1-1.32ZM0,0V26.65H43.44V0ZM28,14l.88-.71a9.21,9.21,0,0,1-1.14-1.72l-6,4.89L3.94,2.06H39.49L37.55,3.63a4.38,4.38,0,0,1,1,1.84l2.8-2.27V23.58L39.21,22a18.77,18.77,0,0,0-2.35.85l2.37,1.71H4.37l13.05-8.95,4.3,3.47,4.64-3.76m6,1.75-1.61,1.38,2,1.42-1-1.32,1.08-1.14Z"/><path d="M43.05,21c.05.12-.85.15-2.2.26V20.3H39.23v1.1l-1,.14v-.43H37.7v.49h.18c-.56.09-1.14.2-1.71.35v-.27h-.48v.39a13.39,13.39,0,0,0-1.31.43c-.62.24-1.26.45-1.91.64v-.66H30.85v1.06a13.84,13.84,0,0,1-2.74.3V23.6h-.48v.22a6.49,6.49,0,0,1-1.69-.29V22.24H24.31v.37a3.54,3.54,0,0,1-.45-.49A22.93,22.93,0,0,1,24.92,19v.15h.78v-.77h-.39c.72-.78,2.88-1.18,4.2-1.58l.41-.12v.17h.48v-.34c.54-.22.6-.39.65-.83a2.72,2.72,0,0,0,0-.83s.35.48.6.48a8.44,8.44,0,0,1-1.13-1.72,8.76,8.76,0,0,1-.4-1s-.05.09-.12.06a2.6,2.6,0,0,1-.69-1.35A6.79,6.79,0,0,1,29,9.93c0-.27.2-.39.33-.28s.42.38.42.38-.27-2.74-.22-3.13A4.73,4.73,0,0,1,29.84,6s.11.16.19.13,0-.29.09-.32.17,0,.24,0,0-.2-.07-.21.11-.12.19-.1,0-.17.06-.22.1.08.18.07.1-.18.19-.23a.19.19,0,0,1,.16,0s.05-.3.12-.35-.05.14,0,.18.18-.2.19-.24.1,0,.14,0,.26-.09.26-.22.13,0,.16,0,0-.22,0-.28.19,0,.26.11.34-.54.39-.56.07.26.19.2.11-.32.11-.32a3.24,3.24,0,0,1,.35.15c.07.05.3-.17.33-.26s0,.24.09.26.32-.33.32-.33,0,.28.09.32a1,1,0,0,0,.42-.07s-.1.11-.06.18.16,0,.16,0,0,.2.14.08a5.3,5.3,0,0,1,.52-.28s-.38.67-.15.7A2.41,2.41,0,0,0,36,4.2c0,.07-.25.47-.16.5a1.56,1.56,0,0,0,.39,0s0,.09,0,.1-.14.23,0,.23.86.14.86.14-.36.14-.28.16.12.21.22.16a.71.71,0,0,1,.19,0s-.28.39-.18.42a1.67,1.67,0,0,0,.43-.09S37.1,6,37.16,6s.34,0,.34,0-.34.3-.3.4,0,.72,0,.84-.09.08-.13.06l.11.22-.17,0a.89.89,0,0,1,.14.32C37.16,7.9,37,10,37,10s.3-.18.35-.28.2-.13.3.05a.87.87,0,0,1,0,.6c-.06.28-.36,1.69-.36,1.86s0,.31-.08.39-.23.2-.29.17a.9.9,0,0,1-.14-.24s-.82,2.21-1,2.47c0,0,.26-.09.28-.16,0,.09-.05,1.26,0,1.39A1.19,1.19,0,0,0,36.2,16a5.89,5.89,0,0,1,.74.65v.45h.48v-.29a6.68,6.68,0,0,1,1,.27c.42.18,2.65.87,2.76,1s.61.28.71.56a1.28,1.28,0,0,0,.07.16h-.4v.78h.76C42.66,20.12,43,20.8,43.05,21Z"/><rect class="cls-1" x="33.92" y="19.91" width="0.78" height="0.78"/><rect class="cls-1" x="27.87" y="20.09" width="0.48" height="0.48"/><rect class="cls-1" x="31.42" y="6.65" width="0.48" height="0.48"/><rect class="cls-1" x="35.21" y="8.51" width="0.48" height="0.48"/><rect class="cls-1" x="31.9" y="10.52" width="0.48" height="0.48"/><rect class="cls-1" x="32.14" y="8.51" width="0.48" height="0.48"/><rect class="cls-1" x="34.7" y="10.27" width="0.48" height="0.48"/><rect class="cls-1" x="35.45" y="11.89" width="0.48" height="0.48"/><rect class="cls-1" x="32.14" y="12.53" width="0.48" height="0.48"/><rect class="cls-1" x="34.07" y="6.65" width="0.48" height="0.48"/><rect class="cls-1" x="35.93" y="10.03" width="0.48" height="0.48"/><rect class="cls-1" x="30.87" y="9.17" width="0.48" height="0.48"/><rect class="cls-2" x="25.42" y="20.57" width="1.1" height="1.1"/><rect class="cls-2" x="39.75" y="18.58" width="1.1" height="1.1"/><rect class="cls-2" x="32.71" y="21.12" width="1.1" height="1.1"/><rect class="cls-2" x="31.83" y="6.34" width="1.1" height="1.1"/><rect class="cls-2" x="36.84" y="18.98" width="1.1" height="1.1"/><rect class="cls-2" x="28.35" y="17.64" width="1.1" height="1.1"/><rect class="cls-2" x="25.42" y="24.52" width="0.64" height="0.64"/><rect class="cls-2" x="35.37" y="22.92" width="0.64" height="0.64"/><rect class="cls-2" x="31.34" y="22.78" width="0.64" height="0.64"/><rect class="cls-2" x="41.58" y="21.9" width="0.64" height="0.64"/><rect class="cls-2" x="33.14" y="23.52" width="0.64" height="0.64"/><rect class="cls-2" x="24.78" y="22.92" width="0.64" height="0.64"/><rect class="cls-2" x="32.61" y="8.43" width="0.64" height="0.64"/><rect class="cls-2" x="32.39" y="10.36" width="0.64" height="0.64"/><rect class="cls-2" x="34.62" y="9.71" width="0.64" height="0.64"/><rect class="cls-2" x="28.58" y="24.05" width="0.64" height="0.64"/><rect class="cls-2" x="39.43" y="20.8" width="0.64" height="0.64"/><rect class="cls-2" x="31.66" y="11" width="0.64" height="0.64"/><rect class="cls-2" x="34.62" y="8.43" width="0.64" height="0.64"/><rect class="cls-2" x="34.62" y="6.58" width="0.64" height="0.64"/><rect class="cls-2" x="31.58" y="8.19" width="0.64" height="0.64"/><rect class="cls-3" x="33.75" y="10.2" width="0.64" height="0.64"/><rect class="cls-3" x="31.82" y="9.4" width="0.64" height="0.64"/><rect class="cls-3" x="33.6" y="7.55" width="0.64" height="0.64"/><rect class="cls-3" x="35.05" y="18.67" width="0.64" height="0.64"/><rect class="cls-3" x="30.8" y="23.73" width="0.64" height="0.64"/><rect class="cls-3" x="27" y="25.5" width="0.64" height="0.64"/><rect class="cls-3" x="26.68" y="24.37" width="0.64" height="0.64"/><rect class="cls-3" x="24.78" y="25.82" width="0.64" height="0.64"/><rect class="cls-3" x="32.61" y="9.33" width="0.64" height="0.64"/><rect class="cls-1" x="30.77" y="7.66" width="0.48" height="0.48"/><rect class="cls-1" x="34.55" y="9.51" width="0.48" height="0.48"/><rect class="cls-1" x="31.25" y="11.52" width="0.48" height="0.48"/><rect class="cls-1" x="31.49" y="9.51" width="0.48" height="0.48"/><rect class="cls-1" x="34.04" y="11.28" width="0.48" height="0.48"/><rect class="cls-1" x="34.79" y="12.9" width="0.48" height="0.48"/><rect class="cls-1" x="31.49" y="13.53" width="0.48" height="0.48"/><rect class="cls-1" x="33.41" y="7.66" width="0.48" height="0.48"/><rect class="cls-1" x="35.27" y="11.04" width="0.48" height="0.48"/><rect class="cls-1" x="30.22" y="10.17" width="0.48" height="0.48"/><rect class="cls-2" x="31.18" y="7.35" width="1.1" height="1.1"/><rect class="cls-2" x="31.96" y="9.43" width="0.64" height="0.64"/><rect class="cls-2" x="31.74" y="11.36" width="0.64" height="0.64"/><rect class="cls-2" x="33.96" y="10.72" width="0.64" height="0.64"/><rect class="cls-2" x="31.01" y="12" width="0.64" height="0.64"/><rect class="cls-2" x="33.96" y="9.43" width="0.64" height="0.64"/><rect class="cls-2" x="33.96" y="7.58" width="0.64" height="0.64"/><rect class="cls-2" x="30.93" y="9.19" width="0.64" height="0.64"/><rect class="cls-3" x="33.09" y="11.2" width="0.64" height="0.64"/><rect class="cls-3" x="31.17" y="10.4" width="0.64" height="0.64"/><rect class="cls-3" x="32.94" y="8.55" width="0.64" height="0.64"/><rect class="cls-3" x="31.96" y="10.34" width="0.64" height="0.64"/><rect class="cls-1" x="35.2" y="13.37" width="0.48" height="0.48" transform="translate(70.88 27.23) rotate(180)"/><rect class="cls-1" x="31.41" y="11.52" width="0.48" height="0.48" transform="translate(63.31 23.53) rotate(180)"/><rect class="cls-1" x="34.72" y="9.51" width="0.48" height="0.48" transform="translate(69.92 19.51) rotate(180)"/><rect class="cls-1" x="34.48" y="11.52" width="0.48" height="0.48" transform="translate(69.44 23.53) rotate(180)"/><rect class="cls-1" x="31.92" y="9.75" width="0.48" height="0.48" transform="translate(64.33 19.99) rotate(180)"/><rect class="cls-1" x="31.17" y="8.13" width="0.48" height="0.48" transform="translate(62.82 16.75) rotate(180)"/><rect class="cls-1" x="34.48" y="7.5" width="0.48" height="0.48" transform="translate(69.44 15.49) rotate(180)"/><rect class="cls-1" x="32.47" y="11.28" width="0.48" height="0.48" transform="translate(65.42 23.03) rotate(180)"/><rect class="cls-1" x="30.69" y="9.99" width="0.48" height="0.48" transform="translate(61.86 20.47) rotate(180)"/><rect class="cls-1" x="35.74" y="10.86" width="0.48" height="0.48" transform="translate(71.97 22.19) rotate(180)"/><rect class="cls-2" x="32.53" y="9.66" width="1.1" height="1.1"/><rect class="cls-2" x="32.71" y="12.21" width="0.64" height="0.64"/><rect class="cls-2" x="34.07" y="9.51" width="0.64" height="0.64"/><rect class="cls-2" x="31.84" y="10.16" width="0.64" height="0.64"/><rect class="cls-2" x="34.8" y="8.87" width="0.64" height="0.64"/><rect class="cls-2" x="31.84" y="11.44" width="0.64" height="0.64"/><rect class="cls-2" x="33.03" y="11.12" width="0.64" height="0.64"/><rect class="cls-2" x="34.88" y="11.68" width="0.64" height="0.64"/><rect class="cls-3" x="32.71" y="9.68" width="0.64" height="0.64"/><rect class="cls-3" x="34.64" y="10.48" width="0.64" height="0.64"/><rect class="cls-3" x="33.72" y="12.97" width="0.64" height="0.64"/><rect class="cls-3" x="33.14" y="10.54" width="0.64" height="0.64"/><rect class="cls-2" x="33.49" y="8.27" width="1.1" height="1.1"/><rect class="cls-2" x="32.91" y="12.74" width="1.1" height="1.1"/><rect class="cls-2" x="33.26" y="11.34" width="1.1" height="1.1"/><rect class="cls-2" x="32.02" y="9.01" width="1.1" height="1.1"/><rect class="cls-2" x="33.37" y="6.58" width="1.1" height="1.1"/></g></g></svg>