<?xml version="1.0" standalone="no"?>
<!DOCTYPE svg PUBLIC "-//W3C//DTD SVG 1.1//EN" "http://www.w3.org/Graphics/SVG/1.1/DTD/svg11.dtd" >
<svg xmlns="http://www.w3.org/2000/svg" xmlns:xlink="http://www.w3.org/1999/xlink" version="1.1">
<metadata>
Created by FontForge 20170731 at Sat Feb 22 19:45:23 2020
 By Aleksey,,,
Copyright 2020 The Plus Jakarta Display Project Authors (https://github.com/tokotype/PlusJakartaSans)
</metadata>
<defs>
<font id="PlusJakartaDisplay-Medium" horiz-adv-x="0" >
  <font-face 
    font-family="Plus Jakarta Display Medium"
    font-weight="500"
    font-stretch="normal"
    units-per-em="1000"
    panose-1="0 0 6 0 0 0 0 0 0 0"
    ascent="800"
    descent="-200"
    x-height="539"
    cap-height="745"
    bbox="-720 -240 1197 1059"
    underline-thickness="79"
    underline-position="-454"
    unicode-range="U+000D-FB02"
  />
<missing-glyph horiz-adv-x="640" 
d="M60 675v70h520v-70h-520zM60 450v70h520v-70h-520zM60 225v70h520v-70h-520zM60 0v70h520v-70h-520z" />
    <glyph glyph-name="fi" unicode="fi" horiz-adv-x="595" 
d="M105 0v431h-97v108h97v31q0 89 53.5 139.5t143.5 50.5q30 0 52 -5v-104q-18 3 -37 3q-43 0 -67.5 -21.5t-24.5 -62.5v-31h122v-108h-122v-431h-120zM422 610v135h120v-135h-120zM422 0v539h120v-539h-120z" />
    <glyph glyph-name="fl" unicode="fl" horiz-adv-x="603" 
d="M105 0v431h-97v108h97v31q0 89 53.5 139.5t143.5 50.5q30 0 52 -5v-104q-18 3 -37 3q-43 0 -67.5 -21.5t-24.5 -62.5v-31h122v-108h-122v-431h-120zM426 0v745h120v-745h-120z" />
    <glyph glyph-name=".notdef" horiz-adv-x="640" 
d="M60 675v70h520v-70h-520zM60 450v70h520v-70h-520zM60 225v70h520v-70h-520zM60 0v70h520v-70h-520z" />
    <glyph glyph-name=".null" 
 />
    <glyph glyph-name="nonmarkingreturn" horiz-adv-x="333" 
 />
    <glyph glyph-name="NULL" 
 />
    <glyph glyph-name="NULL" 
 />
    <glyph glyph-name="CR" unicode="&#xd;" horiz-adv-x="176" 
 />
    <glyph glyph-name="space" unicode=" " horiz-adv-x="176" 
 />
    <glyph glyph-name="exclam" unicode="!" horiz-adv-x="274" 
d="M83 224l-8 521h124l-8 -521h-108zM75 0v135h124v-135h-124z" />
    <glyph glyph-name="quotedbl" unicode="&#x22;" horiz-adv-x="473" 
d="M80 480v265h111v-265h-111zM281 480v265h112v-265h-112z" />
    <glyph glyph-name="numbersign" unicode="#" horiz-adv-x="787" 
d="M77 0l48 169h-120v107h151l55 193h-120v108h151l49 168h123l-48 -168h172l48 168h124l-48 -168h120v-108h-151l-55 -193h120v-107h-152l-47 -169h-124l48 169h-172l-49 -169h-123zM279 276h173l55 193h-172z" />
    <glyph glyph-name="dollar" unicode="$" horiz-adv-x="640" 
d="M603 204q0 -87 -59.5 -144.5t-158.5 -68.5v-91h-89v90q-95 11 -166 66.5t-97 137.5l108 49q21 -57 62 -93t93 -47v216l-56 17q-91 27 -137 80.5t-46 126.5q0 91 66 150t173 64v93h89v-100q77 -16 133.5 -64t80.5 -114l-109 -50q-29 84 -105 112v-216l32 -10
q186 -57 186 -204zM276 451l20 -6v200q-51 -4 -81.5 -30.5t-30.5 -65.5q0 -70 92 -98zM385 104q43 9 67 33.5t24 57.5q0 69 -90 96h-1v-187z" />
    <glyph glyph-name="percent" unicode="%" horiz-adv-x="1053" 
d="M273 387q-77 0 -131 54.5t-54 130.5q0 77 54 131t131 54q76 0 130 -54t54 -131q0 -76 -54 -130.5t-130 -54.5zM295 0l333 745h121l-333 -745h-121zM273 488q35 0 59.5 25t24.5 59t-24.5 59t-59.5 25t-59.5 -24.5t-24.5 -59.5t24.5 -59.5t59.5 -24.5zM780 -12
q-77 0 -130.5 54t-53.5 131t54 130.5t130 53.5q77 0 131 -53.5t54 -130.5t-54 -131t-131 -54zM780 89q35 0 59.5 24.5t24.5 59.5t-24.5 59.5t-59.5 24.5q-34 0 -59 -24.5t-25 -59.5t24.5 -59.5t59.5 -24.5z" />
    <glyph glyph-name="ampersand" unicode="&#x26;" horiz-adv-x="868" 
d="M786 0h-145l-94 100q-56 -58 -111.5 -85t-123.5 -27q-103 0 -166 55t-63 145q0 136 157 212l17 9q-74 86 -74 161q0 79 59 133t146 54q85 0 142 -51.5t57 -128.5q0 -59 -38.5 -102t-127.5 -89l129 -137l100 106h124l-157 -177zM291 571q0 -45 63 -114h1q69 34 96.5 61
t27.5 60q0 35 -26 58.5t-65 23.5q-41 0 -69 -25.5t-28 -63.5zM321 89q43 0 78.5 20t78.5 64l-154 164l-26 -13q-92 -45 -92 -129q0 -49 31 -77.5t84 -28.5z" />
    <glyph glyph-name="quotesingle" unicode="'" horiz-adv-x="271" 
d="M80 480v265h111v-265h-111z" />
    <glyph glyph-name="parenleft" unicode="(" horiz-adv-x="375" 
d="M253 -165q-168 195 -168 456q0 262 168 454h102q-143 -214 -143 -454q0 -244 143 -456h-102z" />
    <glyph glyph-name="parenright" unicode=")" horiz-adv-x="375" 
d="M20 -165q143 212 143 456q0 240 -143 454h103q167 -193 167 -454q0 -262 -167 -456h-103z" />
    <glyph glyph-name="asterisk" unicode="*" horiz-adv-x="468" 
d="M158 367l-76 56l75 102l-117 40l30 89l116 -38v129h96v-129l117 38l29 -89l-117 -40l76 -102l-77 -56l-76 102z" />
    <glyph glyph-name="plus" unicode="+" horiz-adv-x="610" 
d="M252 139v170h-169v106h169v169h107v-169h169v-106h-169v-170h-107z" />
    <glyph glyph-name="comma" unicode="," horiz-adv-x="307" 
d="M70 -117l40 252h117l-74 -252h-83z" />
    <glyph glyph-name="hyphen" unicode="-" horiz-adv-x="553" 
d="M70 215v108h413v-108h-413z" />
    <glyph glyph-name="period" unicode="." horiz-adv-x="284" 
d="M80 0v135h124v-135h-124z" />
    <glyph glyph-name="slash" unicode="/" horiz-adv-x="457" 
d="M-5 0l333 745h134l-333 -745h-134z" />
    <glyph glyph-name="zero" unicode="0" horiz-adv-x="687" 
d="M344 -12q-134 0 -216.5 106t-82.5 279t82 278.5t216 105.5q135 0 217 -105.5t82 -278.5t-81.5 -279t-216.5 -106zM344 104q80 0 126.5 72t46.5 197t-46.5 196.5t-127.5 71.5q-80 0 -126 -72t-46 -196t46.5 -196.5t126.5 -72.5z" />
    <glyph glyph-name="one" unicode="1" horiz-adv-x="425" 
d="M164 0v637h-140v107l267 1v-745h-127z" />
    <glyph glyph-name="two" unicode="2" horiz-adv-x="583" 
d="M38 0l-1 94l203 211q94 97 125 142t31 89q0 50 -30 78.5t-83 28.5t-91 -27.5t-55 -77.5l-101 55q26 76 94 120t159 44q104 0 169 -58t65 -151q0 -59 -34.5 -117.5t-110.5 -137.5l-178 -185h336v-108h-498z" />
    <glyph glyph-name="three" unicode="3" horiz-adv-x="599" 
d="M366 461q83 -14 134 -75t51 -148q0 -108 -75 -179t-190 -71q-88 0 -155.5 44t-96.5 120l101 55q19 -50 58.5 -77.5t92.5 -27.5q62 0 100.5 36.5t38.5 96.5q0 59 -38 94.5t-101 35.5q-40 0 -73 -13l-25 63l192 222l-311 1v107h453v-101z" />
    <glyph glyph-name="four" unicode="4" horiz-adv-x="660" 
d="M629 272v-106h-114v-166h-123v166h-358v106l352 473h129v-473h114zM160 272h232v317z" />
    <glyph glyph-name="five" unicode="5" horiz-adv-x="604" 
d="M310 484q108 0 177 -67t69 -172q0 -112 -75 -184.5t-190 -72.5q-90 0 -159.5 44.5t-97.5 119.5l100 55q19 -48 61.5 -76.5t95.5 -28.5q61 0 99.5 38t38.5 99t-38.5 98.5t-100.5 37.5q-84 0 -115 -65l-95 23l59 412h394v-107l-306 1l-26 -184q44 29 109 29z" />
    <glyph glyph-name="six" unicode="6" horiz-adv-x="588" 
d="M311 472q101 0 170 -71t69 -170q0 -105 -72.5 -174t-183.5 -69q-112 0 -184 70t-72 177q0 95 79 202l223 308h143l-200 -275q18 2 28 2zM294 102q55 0 92 37.5t37 94.5q0 58 -37 94.5t-92 36.5q-56 0 -93 -36.5t-37 -94.5q0 -57 37.5 -94.5t92.5 -37.5z" />
    <glyph glyph-name="seven" unicode="7" horiz-adv-x="536" 
d="M70 0l315 639h-361v107h488v-107l-308 -639h-134z" />
    <glyph glyph-name="eight" unicode="8" horiz-adv-x="631" 
d="M468 399q116 -60 116 -180q0 -100 -76.5 -165.5t-192.5 -65.5q-115 0 -191 65.5t-76 165.5q0 59 29.5 105.5t85.5 74.5q-40 24 -62.5 66t-22.5 91q0 87 67 144t170 57t170 -56.5t67 -144.5q0 -49 -22.5 -90.5t-61.5 -66.5zM315 650q-47 0 -77.5 -28.5t-30.5 -73.5
q0 -44 30 -72t78 -28q47 0 77.5 28t30.5 72q0 45 -30.5 73.5t-77.5 28.5zM315 96q62 0 101.5 34t39.5 88t-39.5 88t-101.5 34t-101 -34t-39 -88t39 -88t101 -34z" />
    <glyph glyph-name="nine" unicode="9" horiz-adv-x="588" 
d="M294 757q112 0 184 -70t72 -177q0 -94 -79 -202l-223 -308h-143l200 275q-20 -2 -29 -2q-100 0 -169 71.5t-69 169.5q0 105 72.5 174t183.5 69zM294 380q55 0 92 37t37 94q0 58 -37 95t-92 37t-92.5 -37t-37.5 -95q0 -57 37.5 -94t92.5 -37z" />
    <glyph glyph-name="colon" unicode=":" horiz-adv-x="284" 
d="M80 403v135h124v-135h-124zM80 0v135h124v-135h-124z" />
    <glyph glyph-name="semicolon" unicode=";" horiz-adv-x="321" 
d="M118 403v135h123v-135h-123zM80 -117l40 252h117l-74 -252h-83z" />
    <glyph glyph-name="less" unicode="&#x3c;" horiz-adv-x="563" 
d="M507 0l-450 210v118l450 211v-125l-301 -145l301 -144v-125z" />
    <glyph glyph-name="equal" unicode="=" horiz-adv-x="641" 
d="M108 429v106h426v-106h-426zM108 189v106h426v-106h-426z" />
    <glyph glyph-name="greater" unicode="&#x3e;" horiz-adv-x="543" 
d="M57 0v125l300 144l-300 145v125l450 -211v-118z" />
    <glyph glyph-name="question" unicode="?" horiz-adv-x="561" 
d="M206 224v18q0 60 25 102.5t70 86.5q3 3 15.5 15t16 16t13.5 14.5t13.5 16t10 15t9 17t4.5 17t2 18.5q0 37 -27.5 60t-77.5 23q-107 0 -140 -105l-100 55q24 74 89.5 119t150.5 45q105 0 168 -58.5t63 -139.5q0 -23 -7.5 -46t-14 -37t-27 -37.5t-26 -29t-32.5 -31.5
q-39 -37 -60 -69.5t-21 -72.5v-12h-117zM204 0v135h124v-135h-124z" />
    <glyph glyph-name="at" unicode="@" horiz-adv-x="942" 
d="M472 757q181 0 305 -122.5t124 -301.5q0 -109 -49.5 -173t-133.5 -64q-48 0 -85.5 22.5t-50.5 59.5q-44 -55 -137 -55q-86 0 -146 61t-60 154q0 92 60.5 154.5t145.5 62.5q43 0 78 -15t53 -41v46h98v-282q0 -33 13.5 -52.5t36.5 -19.5q32 0 50 38t18 104
q0 147 -88.5 237.5t-231.5 90.5q-142 0 -232 -91.5t-90 -236.5q0 -143 90.5 -236t231.5 -93q96 0 168 45l44 -84q-90 -57 -212 -57q-184 0 -307.5 122t-123.5 303q0 180 124 302t307 122zM458 215q50 0 84 36t34 89q0 52 -33.5 86t-84.5 36q-52 2 -86.5 -33.5t-34.5 -90.5
q0 -53 34.5 -88t86.5 -35z" />
    <glyph glyph-name="A" unicode="A" horiz-adv-x="708" 
d="M434 745l262 -745h-134l-56 164h-304l-55 -164h-134l261 745h160zM239 275h230l-115 338z" />
    <glyph glyph-name="B" unicode="B" horiz-adv-x="677" 
d="M549 401q94 -59 94 -175q0 -106 -70 -166t-192 -60h-313v745h313q107 0 169.5 -55.5t62.5 -150.5q0 -86 -64 -138zM194 638v-186h191q45 0 72 25.5t27 67.5q0 41 -27 67t-72 26h-191zM392 111q55 0 89 31.5t34 83.5t-34 83.5t-89 31.5h-198v-230h198z" />
    <glyph glyph-name="C" unicode="C" horiz-adv-x="763" 
d="M414 -12q-160 0 -265.5 109.5t-105.5 275.5t105 275t266 109q113 0 197 -56t114 -138l-112 -54q-24 61 -76 97.5t-123 36.5q-109 0 -177 -75t-68 -195q0 -121 68 -196t177 -75q71 0 123 36.5t76 97.5l112 -54q-30 -82 -114 -138t-197 -56z" />
    <glyph glyph-name="D" unicode="D" horiz-adv-x="739" 
d="M68 0v745h243q174 0 279.5 -103t105.5 -269t-105.5 -269.5t-279.5 -103.5h-243zM194 111h120q116 0 185 71.5t69 190.5t-69 190t-185 71h-120v-523z" />
    <glyph glyph-name="E" unicode="E" horiz-adv-x="608" 
d="M68 0v745h493v-111h-367v-205h347v-111h-347v-207h367l-1 -111h-492z" />
    <glyph glyph-name="F" unicode="F" horiz-adv-x="594" 
d="M68 0v745h498v-111h-372v-218h334v-110h-334v-306h-126z" />
    <glyph glyph-name="G" unicode="G" horiz-adv-x="785" 
d="M424 -12q-165 0 -273 109.5t-108 275.5q0 165 105.5 274.5t265.5 109.5q111 0 195 -54.5t116 -139.5l-112 -54q-24 62 -76.5 98t-122.5 36q-109 0 -177 -75.5t-68 -194.5q0 -121 70 -196t185 -75q75 0 128 30t73 78v86h-200v111h322v-207q-28 -94 -113.5 -153t-209.5 -59
z" />
    <glyph glyph-name="H" unicode="H" horiz-adv-x="720" 
d="M68 0v745h126v-334h332v334h127v-745h-127v300h-332v-300h-126z" />
    <glyph glyph-name="I" unicode="I" horiz-adv-x="262" 
d="M68 0v745h126v-745h-126z" />
    <glyph glyph-name="J" unicode="J" horiz-adv-x="363" 
d="M18 0v118h44q49 0 78 28.5t29 76.5v522h127v-518q0 -103 -63.5 -165t-170.5 -62h-44z" />
    <glyph glyph-name="K" unicode="K" horiz-adv-x="664" 
d="M380 469l276 -469h-144l-215 370l-103 -118v-252h-126v745h126v-318l275 318h147z" />
    <glyph glyph-name="L" unicode="L" horiz-adv-x="555" 
d="M68 0v745h126v-634h334v-111h-460z" />
    <glyph glyph-name="M" unicode="M" horiz-adv-x="870" 
d="M683 745h120v-745h-127v520l-234 -315h-14l-234 323v-528h-126v745h120l247 -337z" />
    <glyph glyph-name="N" unicode="N" horiz-adv-x="726" 
d="M532 745h127v-745h-101l-364 506v-506h-126v745h100l364 -501v501z" />
    <glyph glyph-name="O" unicode="O" horiz-adv-x="859" 
d="M429 -12q-164 0 -275 110t-111 275t110.5 274.5t275.5 109.5t276 -109.5t111 -274.5t-111 -275t-276 -110zM429 104q112 0 186 76.5t74 192.5q0 115 -74 191.5t-186 76.5t-186 -76.5t-74 -191.5q0 -116 74 -192.5t186 -76.5z" />
    <glyph glyph-name="P" unicode="P" horiz-adv-x="648" 
d="M68 0v745h287q117 0 188.5 -62.5t71.5 -171.5q0 -108 -72 -170.5t-188 -62.5h-161v-278h-126zM194 388h161q59 0 95.5 34t36.5 89t-36.5 89t-95.5 34h-161v-246z" />
    <glyph glyph-name="Q" unicode="Q" horiz-adv-x="859" 
d="M816 373q0 -101 -44.5 -184.5t-121.5 -135.5l105 -183h-136l-75 134q-58 -16 -115 -16q-164 0 -275 110t-111 275t110.5 274.5t275.5 109.5t276 -109.5t111 -274.5zM429 104q29 0 56 6l-105 188h130l80 -140q99 78 99 215q0 115 -74 191.5t-186 76.5t-186 -76.5
t-74 -191.5q0 -116 74 -192.5t186 -76.5z" />
    <glyph glyph-name="R" unicode="R" horiz-adv-x="681" 
d="M68 0v745h287q117 0 188.5 -62.5t71.5 -171.5q0 -76 -36.5 -130.5t-101.5 -80.5l172 -300h-144l-157 278h-154v-278h-126zM194 388h161q59 0 95.5 34t36.5 89t-36.5 89t-95.5 34h-161v-246z" />
    <glyph glyph-name="S" unicode="S" horiz-adv-x="640" 
d="M338 -12q-109 0 -192.5 57.5t-112.5 148.5l108 49q26 -68 79 -106t118 -38q62 0 100 27t38 69q0 69 -90 96l-146 45q-91 27 -137 80.5t-46 126.5q0 95 71 154.5t185 59.5q103 0 180 -52t106 -133l-109 -50q-20 59 -66 91.5t-110 32.5q-58 0 -94 -27t-36 -70q0 -70 92 -98
l141 -43q186 -57 186 -204q0 -97 -73 -156.5t-192 -59.5z" />
    <glyph glyph-name="T" unicode="T" horiz-adv-x="561" 
d="M218 0v634h-195v111h516v-111h-194v-634h-127z" />
    <glyph glyph-name="U" unicode="U" horiz-adv-x="715" 
d="M520 745h128v-481q0 -121 -80.5 -198.5t-209.5 -77.5q-130 0 -210 77.5t-80 198.5v481h127v-481q0 -72 45.5 -117t117.5 -45q71 0 116.5 45.5t45.5 116.5v481z" />
    <glyph glyph-name="V" unicode="V" horiz-adv-x="694" 
d="M541 745h140l-249 -745h-170l-249 745h140l194 -606z" />
    <glyph glyph-name="W" unicode="W" horiz-adv-x="1037" 
d="M885 745h130l-196 -745h-158l-142 576l-143 -576h-158l-195 745h136l146 -579l140 579h153l140 -579z" />
    <glyph glyph-name="X" unicode="X" horiz-adv-x="661" 
d="M638 0h-141l-166 264l-167 -264h-141l237 376l-234 369h142l163 -257l162 257h142l-234 -369z" />
    <glyph glyph-name="Y" unicode="Y" horiz-adv-x="657" 
d="M503 745h142l-252 -411v-334h-127v333l-253 412h141l175 -288z" />
    <glyph glyph-name="Z" unicode="Z" horiz-adv-x="577" 
d="M171 111h389v-111h-542v97l378 537h-357v111h511v-96z" />
    <glyph glyph-name="bracketleft" unicode="[" horiz-adv-x="375" 
d="M85 -165v910h250v-107h-126v-696h126v-107h-250z" />
    <glyph glyph-name="backslash" unicode="\" horiz-adv-x="457" 
d="M328 0l-333 745h134l333 -745h-134z" />
    <glyph glyph-name="bracketright" unicode="]" horiz-adv-x="375" 
d="M40 -165v107h126v696h-126v107h250v-910h-250z" />
    <glyph glyph-name="asciicircum" unicode="^" horiz-adv-x="621" 
d="M539 421h-135l-93 178l-93 -178h-135l170 324h116z" />
    <glyph glyph-name="underscore" unicode="_" horiz-adv-x="461" 
d="M471 0v-108h-481v108h481z" />
    <glyph glyph-name="grave" unicode="`" horiz-adv-x="222" 
d="M202 640h-88l-94 158h112z" />
    <glyph glyph-name="a" unicode="a" horiz-adv-x="535" 
d="M276 551q98 0 159.5 -53.5t61.5 -137.5v-360h-113v60q-60 -72 -160 -72q-89 0 -142.5 45t-53.5 115q0 119 172 157l177 38v17q0 37 -28 60t-73 23q-43 0 -76 -22t-48 -61l-104 52q23 62 85.5 100.5t142.5 38.5zM238 83q60 0 99.5 38.5t39.5 95.5v35l-153 -34
q-34 -7 -52.5 -25.5t-18.5 -43.5q0 -31 23 -48.5t62 -17.5z" />
    <glyph glyph-name="b" unicode="b" horiz-adv-x="649" 
d="M350 551q114 0 193 -81t79 -201q0 -119 -78.5 -200t-194.5 -81q-118 0 -178 76v-64h-113v745h120v-265q60 71 172 71zM337 99q69 0 114.5 48t45.5 122t-45.5 122.5t-114.5 48.5q-70 0 -114.5 -48.5t-44.5 -122.5q0 -75 44.5 -122.5t114.5 -47.5z" />
    <glyph glyph-name="c" unicode="c" horiz-adv-x="564" 
d="M305 -12q-119 0 -198 80.5t-79 201.5t79 201t198 80q85 0 150.5 -43t90.5 -112l-104 -52q-16 44 -52.5 70t-84.5 26q-66 0 -109 -48t-43 -123q0 -74 43 -122t109 -48q49 0 85 25.5t52 70.5l104 -53q-25 -67 -90.5 -110.5t-150.5 -43.5z" />
    <glyph glyph-name="d" unicode="d" horiz-adv-x="649" 
d="M472 745h120v-745h-114v63q-62 -75 -177 -75q-116 0 -194.5 81t-78.5 200q0 120 79 201t193 81q113 0 172 -72v266zM313 99q69 0 114 47.5t45 122.5q0 74 -45 122.5t-114 48.5q-70 0 -115 -48.5t-45 -122.5t45 -122t115 -48z" />
    <glyph glyph-name="e" unicode="e" horiz-adv-x="573" 
d="M555 289q0 -30 -6 -54h-396q4 -64 46.5 -102.5t105.5 -38.5q90 0 131 75l99 -48q-25 -59 -87.5 -96t-143.5 -37q-121 0 -198.5 81t-77.5 201q0 121 76.5 201t190.5 80q112 0 186 -76.5t74 -185.5zM155 328h271q-3 53 -41 88t-90 35q-54 0 -92 -32.5t-48 -90.5z" />
    <glyph glyph-name="f" unicode="f" horiz-adv-x="368" 
d="M105 0v431h-97v108h97v31q0 89 53.5 139.5t143.5 50.5q30 0 52 -5v-104q-18 3 -37 3q-43 0 -67.5 -21.5t-24.5 -62.5v-31h122v-108h-122v-431h-120z" />
    <glyph glyph-name="g" unicode="g" horiz-adv-x="635" 
d="M464 539h114v-513q0 -109 -78 -178t-192 -69q-87 0 -153.5 42t-92.5 111l104 52q15 -43 51.5 -69t89.5 -26q65 0 108 37.5t43 99.5v67q-60 -66 -164 -66q-111 0 -188.5 74.5t-77.5 188.5q0 115 77 188t187 73q111 0 172 -77v65zM306 138q67 0 109.5 42.5t42.5 108.5
t-43.5 108.5t-109.5 42.5q-65 0 -108.5 -42t-43.5 -109t43 -109t110 -42z" />
    <glyph glyph-name="h" unicode="h" horiz-adv-x="575" 
d="M324 551q90 0 146.5 -56t56.5 -145v-350h-120v320q0 54 -31.5 87t-82.5 33q-52 0 -83.5 -32.5t-31.5 -87.5v-320h-120v745h120v-259q48 65 146 65z" />
    <glyph glyph-name="i" unicode="i" horiz-adv-x="228" 
d="M54 610v135h120v-135h-120zM54 0v539h120v-539h-120z" />
    <glyph glyph-name="j" unicode="j" horiz-adv-x="222" 
d="M64 610v135h120v-135h-120zM-13 -221q-35 0 -52 4v104q18 -3 38 -3q43 0 67 21.5t24 62.5v571h120v-571q0 -90 -53.5 -139.5t-143.5 -49.5z" />
    <glyph glyph-name="k" unicode="k" horiz-adv-x="535" 
d="M537 539l-197 -217l197 -322h-133l-142 236l-84 -91v-145h-120v745h120v-438l218 232h141z" />
    <glyph glyph-name="l" unicode="l" horiz-adv-x="235" 
d="M58 0v745h120v-745h-120z" />
    <glyph glyph-name="m" unicode="m" horiz-adv-x="889" 
d="M649 551q84 0 138 -55.5t54 -145.5v-350h-120v320q0 56 -29 88t-77 32t-77 -32t-29 -88v-320h-120v320q0 56 -29 88t-77 32t-76.5 -32t-28.5 -88v-320h-120v539h113v-66q43 78 145 78q111 0 165 -89q24 42 68.5 65.5t99.5 23.5z" />
    <glyph glyph-name="n" unicode="n" horiz-adv-x="575" 
d="M324 551q90 0 146.5 -56t56.5 -145v-350h-120v320q0 54 -31.5 87t-82.5 33q-52 0 -83.5 -32.5t-31.5 -87.5v-320h-120v539h113v-65q46 77 153 77z" />
    <glyph glyph-name="o" unicode="o" horiz-adv-x="621" 
d="M311 -12q-119 0 -201 80.5t-82 201.5t81.5 201t201.5 80t201.5 -80t81.5 -201t-82 -201.5t-201 -80.5zM311 99q68 0 113 48t45 122t-45 122.5t-113 48.5q-69 0 -113.5 -48.5t-44.5 -122.5t44.5 -122t113.5 -48z" />
    <glyph glyph-name="p" unicode="p" horiz-adv-x="649" 
d="M349 551q115 0 194 -81t79 -200q0 -120 -79 -201t-195 -81q-109 0 -170 67v-255h-120v739h113v-68q59 80 178 80zM337 99q69 0 114.5 48.5t45.5 121.5q0 74 -45.5 122.5t-114.5 48.5q-70 0 -114.5 -48t-44.5 -123q0 -74 44.5 -122t114.5 -48z" />
    <glyph glyph-name="q" unicode="q" horiz-adv-x="649" 
d="M478 539h114v-739h-120v256q-62 -68 -171 -68q-116 0 -194.5 81t-78.5 201q0 119 78.5 200t193.5 81q118 0 178 -79v67zM313 99q69 0 114 48t45 122q0 75 -45 123t-114 48q-70 0 -115 -48.5t-45 -122.5t45 -122t115 -48z" />
    <glyph glyph-name="r" unicode="r" horiz-adv-x="384" 
d="M317 545h50v-108h-65q-56 0 -90 -35t-34 -97v-305h-120v539h113v-75q38 81 146 81z" />
    <glyph glyph-name="s" unicode="s" horiz-adv-x="494" 
d="M262 -12q-84 0 -148.5 40.5t-89.5 110.5l93 45q43 -98 145 -98q40 0 64.5 17t24.5 45q0 43 -71 62l-92 24q-141 39 -141 154q0 73 55.5 118t144.5 45q79 0 138.5 -37t84.5 -102l-94 -44q-15 38 -49 60t-80 22q-37 0 -59 -15.5t-22 -41.5q0 -41 65 -60l96 -27
q143 -40 143 -155q0 -73 -58 -118t-150 -45z" />
    <glyph glyph-name="t" unicode="t" horiz-adv-x="390" 
d="M301 -6q-91 0 -140 49t-49 138v250h-98v108h16q39 0 60.5 21t21.5 60v86h120v-167h128v-108h-128v-250q0 -89 95 -89q17 0 36 3v-96q-32 -5 -62 -5z" />
    <glyph glyph-name="u" unicode="u" horiz-adv-x="575" 
d="M397 539h120v-539h-114v62q-47 -74 -151 -74q-89 0 -146.5 61t-57.5 155v335h120v-320q0 -55 31.5 -87.5t83.5 -32.5q51 0 82.5 33t31.5 87v320z" />
    <glyph glyph-name="v" unicode="v" horiz-adv-x="548" 
d="M413 539h127l-213 -539h-107l-212 539h127l139 -379z" />
    <glyph glyph-name="w" unicode="w" horiz-adv-x="859" 
d="M723 539h128l-187 -539h-107l-127 386l-128 -386h-108l-186 539h127l114 -362l114 362h133l114 -362z" />
    <glyph glyph-name="x" unicode="x" horiz-adv-x="548" 
d="M536 539l-191 -269l190 -270h-141l-120 176l-120 -176h-141l190 270l-190 269h140l121 -176l122 176h140z" />
    <glyph glyph-name="y" unicode="y" horiz-adv-x="568" 
d="M429 539h131l-240 -602q-13 -31 -24 -51t-34 -48t-59.5 -43t-84.5 -15t-79 14v101q30 -8 62 -8t54 13t30 25.5t17 34.5l18 42l-212 537h131l145 -381z" />
    <glyph glyph-name="z" unicode="z" horiz-adv-x="474" 
d="M16 0v98l283 333h-270v108h428v-98l-279 -333h280v-108h-442z" />
    <glyph glyph-name="braceleft" unicode="{" horiz-adv-x="355" 
d="M291 -165q-81 0 -126 42t-45 115v179q0 61 -54 61h-31v108h31q54 0 54 61v187q0 73 45 115t126 42h44v-107h-44q-22 0 -35 -14.5t-13 -38.5v-174q2 -82 -57 -124q59 -38 57 -118v-174q0 -24 13 -38.5t35 -14.5h44v-107h-44z" />
    <glyph glyph-name="bar" unicode="|" horiz-adv-x="359" 
d="M118 -190v1035h123v-1035h-123z" />
    <glyph glyph-name="braceright" unicode="}" horiz-adv-x="355" 
d="M20 -165v107h44q22 0 35.5 14.5t12.5 38.5v174q-2 80 57 118q-59 42 -57 124v174q1 24 -12.5 38.5t-35.5 14.5h-44v107h44q81 0 126.5 -42t45.5 -115v-187q0 -61 54 -61h30v-108h-30q-54 0 -54 -61v-179q0 -73 -45.5 -115t-126.5 -42h-44z" />
    <glyph glyph-name="asciitilde" unicode="~" horiz-adv-x="683" 
d="M439 279q-31 0 -58 10.5t-43 23t-36 23t-39 10.5q-52 0 -60 -62h-100q5 81 42.5 123t103.5 42q38 0 70 -16.5t57 -33t48 -16.5q47 0 57 62h100q-12 -166 -142 -166z" />
    <glyph glyph-name="uni00A0" unicode="&#xa0;" horiz-adv-x="176" 
 />
    <glyph glyph-name="exclamdown" unicode="&#xa1;" horiz-adv-x="274" 
d="M75 538h124v-135h-124v135zM83 314h108l8 -521h-124z" />
    <glyph glyph-name="cent" unicode="&#xa2;" horiz-adv-x="563" 
d="M337 102q78 16 105 92l104 -52q-23 -61 -79 -102.5t-130 -49.5v-121h-89v124q-98 20 -159 96t-61 181t61 180.5t159 94.5v124h89v-121q74 -8 130 -49.5t79 -102.5l-104 -52q-27 76 -105 92v-334zM153 269q0 -57 25.5 -99.5t69.5 -59.5v318q-44 -17 -69.5 -59.5
t-25.5 -99.5z" />
    <glyph glyph-name="sterling" unicode="&#xa3;" horiz-adv-x="783" 
d="M369 317v-209h325v-108h-569v108h120v209h-144l25 89h119v112q0 107 67 173t177 66q88 0 153 -44t90 -120l-100 -55q-34 105 -143 105q-57 0 -88.5 -32.5t-31.5 -92.5v-112h237l-25 -89h-212z" />
    <glyph glyph-name="currency" unicode="&#xa4;" horiz-adv-x="646" 
d="M139 14l-71 71l78 78q-30 49 -30 106q0 56 30 105l-78 79l71 71l79 -78q49 30 105 30q55 0 106 -30l78 78l71 -71l-78 -79q30 -49 30 -105q0 -57 -30 -106l78 -78l-71 -71l-78 78q-49 -30 -106 -30q-59 0 -105 30zM323 172q40 0 68.5 28.5t28.5 68.5t-28.5 69t-68.5 29
q-41 0 -69.5 -28.5t-28.5 -69.5q0 -40 28.5 -68.5t69.5 -28.5z" />
    <glyph glyph-name="yen" unicode="&#xa5;" horiz-adv-x="657" 
d="M645 745l-229 -373h191v-89h-214v-61h214v-89h-214v-133h-127v133h-200v89h200v61h-200v89h176l-229 373h141l175 -288l174 288h142z" />
    <glyph glyph-name="brokenbar" unicode="&#xa6;" horiz-adv-x="359" 
d="M118 469v376h123v-376h-123zM118 -190v376h123v-376h-123z" />
    <glyph glyph-name="section" unicode="&#xa7;" horiz-adv-x="626" 
d="M538 358q0 -76 -69 -113q69 -41 69 -115q0 -72 -57.5 -117.5t-149.5 -45.5q-86 0 -149.5 41t-88.5 111l93 44q42 -97 145 -97q40 0 64.5 16.5t24.5 44.5q0 43 -72 62l-91 25q-142 39 -142 153q0 75 67 115q-67 39 -67 113q0 73 55.5 117.5t145.5 44.5q79 0 138 -37
t84 -102l-93 -43q-16 38 -49.5 59.5t-79.5 21.5q-38 0 -60 -15t-22 -41q0 -42 65 -60l96 -27q143 -41 143 -155zM363 289q31 5 49 22.5t18 41.5q0 48 -79 69l-57 15q-33 -5 -51.5 -22t-18.5 -42q0 -44 72 -66z" />
    <glyph glyph-name="dieresis" unicode="&#xa8;" horiz-adv-x="379" 
d="M91 640q-30 0 -50.5 20.5t-20.5 50.5q0 29 20.5 49.5t50.5 20.5q29 0 49.5 -20.5t20.5 -49.5q0 -30 -20.5 -50.5t-49.5 -20.5zM289 640q-30 0 -50.5 20.5t-20.5 50.5q0 29 21 49.5t50 20.5t49.5 -20.5t20.5 -49.5q0 -30 -20.5 -50.5t-49.5 -20.5z" />
    <glyph glyph-name="copyright" unicode="&#xa9;" horiz-adv-x="945" 
d="M473 -12q-160 0 -272.5 112.5t-112.5 273.5q0 159 112 271t273 112q159 0 271.5 -112t112.5 -271q0 -160 -112.5 -273t-271.5 -113zM473 77q123 0 209 86t86 211q0 123 -86 209t-209 86q-124 0 -210.5 -86t-86.5 -209q0 -125 86 -211t211 -86zM476 175q-83 0 -138.5 56.5
t-55.5 141.5t55.5 141t138.5 56q61 0 106.5 -29t60.5 -74l-78 -38q-9 27 -32.5 44.5t-56.5 17.5q-48 0 -77.5 -32.5t-29.5 -85.5t29.5 -86t77.5 -33q33 0 56.5 18t32.5 44l78 -38q-15 -45 -60.5 -74t-106.5 -29z" />
    <glyph glyph-name="ordfeminine" unicode="&#xaa;" horiz-adv-x="398" 
d="M204 752q69 0 112.5 -37.5t43.5 -97.5v-250h-87v38q-42 -46 -109 -46q-61 0 -98.5 31t-37.5 81q0 83 119 109l120 25v12q0 24 -17 38.5t-46 14.5t-51 -15.5t-31 -41.5l-80 40q17 45 60.5 72t101.5 27zM178 430q38 0 63.5 24.5t25.5 60.5v22l-102 -23q-40 -10 -40 -43
q0 -41 53 -41z" />
    <glyph glyph-name="guillemotleft" unicode="&#xab;" horiz-adv-x="666" 
d="M193 73l-153 196l153 196h136l-152 -196l152 -196h-136zM471 73l-153 196l153 196h135l-152 -196l152 -196h-135z" />
    <glyph glyph-name="logicalnot" unicode="&#xac;" horiz-adv-x="620" 
d="M426 165v144h-338v106h445v-250h-107z" />
    <glyph glyph-name="uni00AD" unicode="&#xad;" horiz-adv-x="553" 
d="M70 215v108h413v-108h-413z" />
    <glyph glyph-name="registered" unicode="&#xae;" horiz-adv-x="945" 
d="M473 757q159 0 271.5 -112t112.5 -271q0 -160 -112.5 -273t-271.5 -113q-160 0 -272.5 112.5t-112.5 273.5q0 159 112 271t273 112zM473 77q123 0 209 86t86 211q0 123 -86 209t-209 86q-124 0 -210.5 -86t-86.5 -209q0 -125 86 -211t211 -86zM630 448q0 -77 -64 -108
l87 -152h-99l-76 137h-61v-137h-88v383h164q62 0 99.5 -31.5t37.5 -91.5zM417 495v-93h77q22 0 35 12.5t13 33.5t-13 34t-35 13h-77z" />
    <glyph glyph-name="macron" unicode="&#xaf;" horiz-adv-x="294" 
d="M20 640v83h254v-83h-254z" />
    <glyph glyph-name="degree" unicode="&#xb0;" horiz-adv-x="507" 
d="M253 426q-68 0 -116.5 48t-48.5 117t48.5 117.5t116.5 48.5q69 0 117.5 -48.5t48.5 -117.5t-48.5 -117t-117.5 -48zM253 511q33 0 56.5 23.5t23.5 56.5t-23.5 56.5t-56.5 23.5t-56 -23.5t-23 -56.5t23 -56.5t56 -23.5z" />
    <glyph glyph-name="plusminus" unicode="&#xb1;" horiz-adv-x="610" 
d="M252 180v170h-169v106h169v169h107v-169h169v-106h-169v-170h-107zM83 0v103h445v-103h-445z" />
    <glyph glyph-name="uni00B2" unicode="&#xb2;" horiz-adv-x="388" 
d="M36 298l-1 75l120 123q51 52 67.5 75t16.5 44q0 23 -14.5 37t-38.5 14q-26 0 -45.5 -15t-27.5 -40l-75 44q15 45 56.5 71t97.5 26q63 0 103 -34.5t40 -90.5q0 -35 -19 -67.5t-59 -75.5l-104 -106h187v-80h-304z" />
    <glyph glyph-name="uni00B3" unicode="&#xb3;" horiz-adv-x="400" 
d="M248 575q48 -8 76.5 -42.5t28.5 -85.5q0 -67 -47.5 -111.5t-118.5 -44.5q-54 0 -95 26.5t-58 70.5l76 44q21 -55 77 -55q32 0 51 18t19 48t-18.5 47t-51.5 17q-28 0 -52 -12l-22 47l115 122l-173 1v80h280v-73z" />
    <glyph glyph-name="acute" unicode="&#xb4;" horiz-adv-x="222" 
d="M20 640l71 158h111l-94 -158h-88z" />
    <glyph glyph-name="uni00B5" unicode="&#xb5;" horiz-adv-x="565" 
d="M48 -200v738h116v-340q0 -49 26.5 -75.5t71.5 -26.5q72 0 129 40v402h116v-538h-116v30q-66 -42 -144 -42q-47 0 -83 18v-206h-116z" />
    <glyph glyph-name="paragraph" unicode="&#xb6;" horiz-adv-x="438" 
d="M40 537q0 92 59 150t152 58h127v-845h-127v429q-93 0 -152 58t-59 150z" />
    <glyph glyph-name="periodcentered" unicode="&#xb7;" horiz-adv-x="284" 
d="M80 294v135h124v-135h-124z" />
    <glyph glyph-name="cedilla" unicode="&#xb8;" horiz-adv-x="290" 
d="M146 -209q-71 0 -126 47l34 58q31 -33 83 -33q25 0 40 13t15 36q0 59 -107 91l46 21q67 -15 103 -49.5t36 -81.5q0 -49 -36.5 -75.5t-87.5 -26.5z" />
    <glyph glyph-name="uni00B9" unicode="&#xb9;" horiz-adv-x="338" 
d="M108 298v366h-84v80l180 1v-447h-96z" />
    <glyph glyph-name="ordmasculine" unicode="&#xba;" horiz-adv-x="454" 
d="M227 359q-84 0 -141.5 56t-57.5 141q0 84 57.5 140t141.5 56t142 -56t58 -140q0 -85 -58 -141t-142 -56zM227 444q45 0 74 31t29 80t-29 80.5t-74 31.5t-73.5 -31.5t-28.5 -80.5t28.5 -80t73.5 -31z" />
    <glyph glyph-name="guillemotright" unicode="&#xbb;" horiz-adv-x="666" 
d="M60 73l152 196l-152 196h136l153 -196l-153 -196h-136zM338 73l152 196l-152 196h135l153 -196l-153 -196h-135z" />
    <glyph glyph-name="onequarter" unicode="&#xbc;" horiz-adv-x="984" 
d="M108 298v366h-84v80l180 1v-447h-96zM226 0l333 745h98l-333 -745h-98zM952 176v-81h-75v-95h-96v95h-202v81l195 271h103v-271h75zM672 176h109v155z" />
    <glyph glyph-name="onehalf" unicode="&#xbd;" horiz-adv-x="933" 
d="M108 298v366h-84v80l180 1v-447h-96zM226 0l333 745h98l-333 -745h-98zM581 0l-1 75l120 123q51 52 67.5 75t16.5 44q0 23 -14.5 37t-38.5 14q-26 0 -45.5 -15t-27.5 -40l-75 44q15 45 56.5 71t97.5 26q63 0 103 -34.5t40 -90.5q0 -35 -19 -67.5t-59 -75.5l-104 -106h187
v-80h-304z" />
    <glyph glyph-name="threequarters" unicode="&#xbe;" horiz-adv-x="1046" 
d="M353 447q0 -67 -47.5 -111.5t-118.5 -44.5q-54 0 -95 26.5t-58 70.5l76 44q21 -55 77 -55q32 0 51 18t19 48t-18.5 47t-51.5 17q-28 0 -52 -12l-22 47l115 122l-173 1v80h280v-73l-87 -97q48 -8 76.5 -42.5t28.5 -85.5zM621 745h98l-333 -745h-98zM939 176h75v-81h-75
v-95h-96v95h-202v81l195 271h103v-271zM843 176v155l-109 -155h109z" />
    <glyph glyph-name="questiondown" unicode="&#xbf;" horiz-adv-x="561" 
d="M357 757v-135h-123v135h123zM356 533v-18q0 -60 -25 -102t-70 -87q-55 -54 -68 -76q-16 -27 -16 -53q0 -37 27.5 -60t76.5 -23q107 0 140 105l100 -55q-23 -74 -89 -119t-151 -45q-104 0 -167.5 59t-63.5 139q0 12 2 23.5t4 21t8 21t9 18.5t12 18.5t12.5 16.5t15 17
t14.5 15l16 16l15 15q39 37 59.5 69t20.5 72v12h118z" />
    <glyph glyph-name="Agrave" unicode="&#xc0;" horiz-adv-x="708" 
d="M402 847h-88l-94 158h112zM434 745l262 -745h-134l-56 164h-304l-55 -164h-134l261 745h160zM239 275h230l-115 338z" />
    <glyph glyph-name="Aacute" unicode="&#xc1;" horiz-adv-x="708" 
d="M492 1005l-94 -158h-88l71 158h111zM434 745l262 -745h-134l-56 164h-304l-55 -164h-134l261 745h160zM239 275h230l-115 338z" />
    <glyph glyph-name="Acircumflex" unicode="&#xc2;" horiz-adv-x="708" 
d="M355 952l-74 -105h-96l117 157h105l118 -157h-94zM434 745l262 -745h-134l-56 164h-304l-55 -164h-134l261 745h160zM239 275h230l-115 338z" />
    <glyph glyph-name="Atilde" unicode="&#xc3;" horiz-adv-x="708" 
d="M287 893q-30 0 -35 -39h-85q5 61 40.5 90.5t77.5 29.5q32 0 75.5 -22.5t60.5 -22.5q33 0 36 38h85q-5 -57 -38 -88.5t-81 -31.5q-35 0 -77 23t-59 23zM434 745l262 -745h-134l-56 164h-304l-55 -164h-134l261 745h160zM239 275h230l-115 338z" />
    <glyph glyph-name="Adieresis" unicode="&#xc4;" horiz-adv-x="708" 
d="M256 847q-30 0 -50.5 20.5t-20.5 50.5q0 29 20.5 49.5t50.5 20.5q28 0 49 -21t21 -49q0 -30 -20.5 -50.5t-49.5 -20.5zM454 847q-30 0 -50.5 20.5t-20.5 50.5q0 29 21 49.5t50 20.5t49.5 -20.5t20.5 -49.5q0 -30 -20.5 -50.5t-49.5 -20.5zM434 745l262 -745h-134l-56 164
h-304l-55 -164h-134l261 745h160zM239 275h230l-115 338z" />
    <glyph glyph-name="Aring" unicode="&#xc5;" horiz-adv-x="708" 
d="M355 847q-47 0 -79.5 31t-32.5 74q0 45 32 76t80 31t80 -31t32 -76q0 -43 -32.5 -74t-79.5 -31zM355 994q-19 0 -31.5 -12t-12.5 -29t12.5 -29.5t31.5 -12.5t31.5 12.5t12.5 29.5t-12.5 29t-31.5 12zM434 745l262 -745h-134l-56 164h-304l-55 -164h-134l261 745h160z
M239 275h230l-115 338z" />
    <glyph glyph-name="AE" unicode="&#xc6;" horiz-adv-x="1005" 
d="M13 0l261 745h684v-111h-367v-205h347v-111h-347v-207h367l-1 -111h-493v164h-262l-55 -164h-134zM239 275h225v359h-102z" />
    <glyph glyph-name="Ccedilla" unicode="&#xc7;" horiz-adv-x="763" 
d="M414 102q71 0 123 36.5t76 97.5l112 -54q-24 -67 -86 -117.5t-147 -68.5q64 -38 64 -103q0 -49 -36.5 -75.5t-87.5 -26.5q-71 0 -126 47l34 58q31 -33 83 -33q25 0 40 13t15 36q0 45 -66 76q-159 1 -264 110t-105 275t105 275t266 109q113 0 197 -56t114 -138l-112 -54
q-24 61 -76 97.5t-123 36.5q-109 0 -177 -75t-68 -195q0 -121 68 -196t177 -75z" />
    <glyph glyph-name="Egrave" unicode="&#xc8;" horiz-adv-x="608" 
d="M352 847h-88l-94 158h112zM68 0v745h493v-111h-367v-205h347v-111h-347v-207h367l-1 -111h-492z" />
    <glyph glyph-name="Eacute" unicode="&#xc9;" horiz-adv-x="608" 
d="M260 847l71 158h111l-94 -158h-88zM68 0v745h493v-111h-367v-205h347v-111h-347v-207h367l-1 -111h-492z" />
    <glyph glyph-name="Ecircumflex" unicode="&#xca;" horiz-adv-x="608" 
d="M251 1004h105l118 -157h-94l-76 105l-74 -105h-96zM68 0v745h493v-111h-367v-205h347v-111h-347v-207h367l-1 -111h-492z" />
    <glyph glyph-name="Edieresis" unicode="&#xcb;" horiz-adv-x="608" 
d="M206 847q-30 0 -50.5 20.5t-20.5 50.5q0 29 20.5 49.5t50.5 20.5q28 0 49 -21t21 -49q0 -30 -20.5 -50.5t-49.5 -20.5zM404 847q-30 0 -50.5 20.5t-20.5 50.5q0 29 21 49.5t50 20.5t49.5 -20.5t20.5 -49.5q0 -30 -20.5 -50.5t-49.5 -20.5zM68 0v745h493v-111h-367v-205
h347v-111h-347v-207h367l-1 -111h-492z" />
    <glyph glyph-name="Igrave" unicode="&#xcc;" horiz-adv-x="262" 
d="M178 847h-88l-94 158h112zM68 0v745h126v-745h-126z" />
    <glyph glyph-name="Iacute" unicode="&#xcd;" horiz-adv-x="262" 
d="M87 847l71 158h111l-94 -158h-88zM68 0v745h126v-745h-126z" />
    <glyph glyph-name="Icircumflex" unicode="&#xce;" horiz-adv-x="262" 
d="M78 1004h105l118 -157h-94l-76 105l-74 -105h-96zM68 0v745h126v-745h-126z" />
    <glyph glyph-name="Idieresis" unicode="&#xcf;" horiz-adv-x="262" 
d="M33 847q-30 0 -50.5 20.5t-20.5 50.5q0 29 20.5 49.5t50.5 20.5q29 0 49.5 -21t20.5 -49q0 -30 -20.5 -50.5t-49.5 -20.5zM231 847q-30 0 -50.5 20.5t-20.5 50.5q0 29 21 49.5t50 20.5t49.5 -20.5t20.5 -49.5q0 -30 -20.5 -50.5t-49.5 -20.5zM68 0v745h126v-745h-126z
" />
    <glyph glyph-name="Eth" unicode="&#xd0;" horiz-adv-x="739" 
d="M68 0v319h-115v108h115v318h243q174 0 279.5 -103t105.5 -269t-105.5 -269.5t-279.5 -103.5h-243zM194 111h120q116 0 185 71.5t69 190.5t-69 190t-185 71h-120v-207h188v-108h-188v-208z" />
    <glyph glyph-name="Ntilde" unicode="&#xd1;" horiz-adv-x="726" 
d="M295 893q-30 0 -35 -39h-85q5 61 40.5 90.5t77.5 29.5q32 0 75.5 -22.5t60.5 -22.5q33 0 36 38h85q-5 -57 -38 -88.5t-81 -31.5q-35 0 -77 23t-59 23zM532 745h127v-745h-101l-364 506v-506h-126v745h100l364 -501v501z" />
    <glyph glyph-name="Ograve" unicode="&#xd2;" horiz-adv-x="859" 
d="M477 847h-88l-94 158h112zM429 -12q-164 0 -275 110t-111 275t110.5 274.5t275.5 109.5t276 -109.5t111 -274.5t-111 -275t-276 -110zM429 104q112 0 186 76.5t74 192.5q0 115 -74 191.5t-186 76.5t-186 -76.5t-74 -191.5q0 -116 74 -192.5t186 -76.5z" />
    <glyph glyph-name="Oacute" unicode="&#xd3;" horiz-adv-x="859" 
d="M385 847l71 158h111l-94 -158h-88zM429 -12q-164 0 -275 110t-111 275t110.5 274.5t275.5 109.5t276 -109.5t111 -274.5t-111 -275t-276 -110zM429 104q112 0 186 76.5t74 192.5q0 115 -74 191.5t-186 76.5t-186 -76.5t-74 -191.5q0 -116 74 -192.5t186 -76.5z" />
    <glyph glyph-name="Ocircumflex" unicode="&#xd4;" horiz-adv-x="859" 
d="M376 1004h105l118 -157h-94l-76 105l-74 -105h-96zM429 -12q-164 0 -275 110t-111 275t110.5 274.5t275.5 109.5t276 -109.5t111 -274.5t-111 -275t-276 -110zM429 104q112 0 186 76.5t74 192.5q0 115 -74 191.5t-186 76.5t-186 -76.5t-74 -191.5q0 -116 74 -192.5
t186 -76.5z" />
    <glyph glyph-name="Otilde" unicode="&#xd5;" horiz-adv-x="859" 
d="M497 847q-35 0 -77 23t-59 23q-30 0 -35 -39h-85q5 61 40.5 90.5t77.5 29.5q32 0 75.5 -22.5t60.5 -22.5q33 0 36 38h85q-5 -57 -38 -88.5t-81 -31.5zM429 -12q-164 0 -275 110t-111 275t110.5 274.5t275.5 109.5t276 -109.5t111 -274.5t-111 -275t-276 -110zM429 104
q112 0 186 76.5t74 192.5q0 115 -74 191.5t-186 76.5t-186 -76.5t-74 -191.5q0 -116 74 -192.5t186 -76.5z" />
    <glyph glyph-name="Odieresis" unicode="&#xd6;" horiz-adv-x="859" 
d="M331 847q-30 0 -50.5 20.5t-20.5 50.5q0 29 20.5 49.5t50.5 20.5q29 0 49.5 -21t20.5 -49q0 -30 -20.5 -50.5t-49.5 -20.5zM529 847q-30 0 -50.5 20.5t-20.5 50.5q0 29 21 49.5t50 20.5t49.5 -20.5t20.5 -49.5q0 -30 -20.5 -50.5t-49.5 -20.5zM429 -12q-164 0 -275 110
t-111 275t110.5 274.5t275.5 109.5t276 -109.5t111 -274.5t-111 -275t-276 -110zM429 104q112 0 186 76.5t74 192.5q0 115 -74 191.5t-186 76.5t-186 -76.5t-74 -191.5q0 -116 74 -192.5t186 -76.5z" />
    <glyph glyph-name="multiply" unicode="&#xd7;" horiz-adv-x="598" 
d="M157 146l-74 75l141 142l-141 140l75 75l141 -140l140 140l76 -75l-141 -140l141 -142l-75 -75l-141 141z" />
    <glyph glyph-name="Oslash" unicode="&#xd8;" horiz-adv-x="859" 
d="M740 608q76 -101 76 -235q0 -165 -111 -275t-276 -110q-132 0 -234 74l-76 -76l-76 76l76 76q-76 101 -76 235q0 165 110.5 274.5t275.5 109.5q133 0 234 -74l76 76l76 -76zM169 373q0 -82 39 -146l369 370q-64 44 -148 44q-112 0 -186 -76.5t-74 -191.5zM429 104
q112 0 186 76.5t74 192.5q0 81 -39 145l-369 -369q65 -45 148 -45z" />
    <glyph glyph-name="Ugrave" unicode="&#xd9;" horiz-adv-x="715" 
d="M405 847h-88l-94 158h112zM520 745h128v-481q0 -121 -80.5 -198.5t-209.5 -77.5q-130 0 -210 77.5t-80 198.5v481h127v-481q0 -72 45.5 -117t117.5 -45q71 0 116.5 45.5t45.5 116.5v481z" />
    <glyph glyph-name="Uacute" unicode="&#xda;" horiz-adv-x="715" 
d="M313 847l71 158h111l-94 -158h-88zM520 745h128v-481q0 -121 -80.5 -198.5t-209.5 -77.5q-130 0 -210 77.5t-80 198.5v481h127v-481q0 -72 45.5 -117t117.5 -45q71 0 116.5 45.5t45.5 116.5v481z" />
    <glyph glyph-name="Ucircumflex" unicode="&#xdb;" horiz-adv-x="715" 
d="M305 1004h105l118 -157h-94l-76 105l-74 -105h-96zM520 745h128v-481q0 -121 -80.5 -198.5t-209.5 -77.5q-130 0 -210 77.5t-80 198.5v481h127v-481q0 -72 45.5 -117t117.5 -45q71 0 116.5 45.5t45.5 116.5v481z" />
    <glyph glyph-name="Udieresis" unicode="&#xdc;" horiz-adv-x="715" 
d="M259 847q-30 0 -50.5 20.5t-20.5 50.5q0 29 20.5 49.5t50.5 20.5q29 0 49.5 -21t20.5 -49q0 -30 -20.5 -50.5t-49.5 -20.5zM457 847q-30 0 -50.5 20.5t-20.5 50.5q0 29 21 49.5t50 20.5t49.5 -20.5t20.5 -49.5q0 -30 -20.5 -50.5t-49.5 -20.5zM520 745h128v-481
q0 -121 -80.5 -198.5t-209.5 -77.5q-130 0 -210 77.5t-80 198.5v481h127v-481q0 -72 45.5 -117t117.5 -45q71 0 116.5 45.5t45.5 116.5v481z" />
    <glyph glyph-name="Yacute" unicode="&#xdd;" horiz-adv-x="657" 
d="M467 1005l-94 -158h-88l71 158h111zM503 745h142l-252 -411v-334h-127v333l-253 412h141l175 -288z" />
    <glyph glyph-name="Thorn" unicode="&#xde;" horiz-adv-x="648" 
d="M68 0v745h126v-135h161q117 0 188.5 -62.5t71.5 -171.5q0 -108 -72 -171t-188 -63h-161v-142h-126zM194 253h161q59 0 95.5 34t36.5 89t-36.5 89t-95.5 34h-161v-246z" />
    <glyph glyph-name="germandbls" unicode="&#xdf;" horiz-adv-x="620" 
d="M68 -160v678q0 101 68.5 164t181.5 63q108 0 173 -56.5t65 -149.5q0 -84 -65 -137q95 -59 95 -176q0 -106 -70 -166t-192 -60h-53v111h64q55 0 89 31.5t34 83.5t-34 83.5t-89 31.5h-64v111h58q45 0 71.5 25.5t26.5 67.5q0 41 -30 67t-79 26q-55 0 -89.5 -33.5
t-34.5 -86.5v-678h-126z" />
    <glyph glyph-name="agrave" unicode="&#xe0;" horiz-adv-x="535" 
d="M321 641h-88l-94 158h112zM276 551q98 0 159.5 -53.5t61.5 -137.5v-360h-113v60q-60 -72 -160 -72q-89 0 -142.5 45t-53.5 115q0 119 172 157l177 38v17q0 37 -28 60t-73 23q-43 0 -76 -22t-48 -61l-104 52q23 62 85.5 100.5t142.5 38.5zM238 83q60 0 99.5 38.5
t39.5 95.5v35l-153 -34q-34 -7 -52.5 -25.5t-18.5 -43.5q0 -31 23 -48.5t62 -17.5z" />
    <glyph glyph-name="aacute" unicode="&#xe1;" horiz-adv-x="535" 
d="M411 799l-94 -158h-88l71 158h111zM276 551q98 0 159.5 -53.5t61.5 -137.5v-360h-113v60q-60 -72 -160 -72q-89 0 -142.5 45t-53.5 115q0 119 172 157l177 38v17q0 37 -28 60t-73 23q-43 0 -76 -22t-48 -61l-104 52q23 62 85.5 100.5t142.5 38.5zM238 83q60 0 99.5 38.5
t39.5 95.5v35l-153 -34q-34 -7 -52.5 -25.5t-18.5 -43.5q0 -31 23 -48.5t62 -17.5z" />
    <glyph glyph-name="acircumflex" unicode="&#xe2;" horiz-adv-x="535" 
d="M274 746l-74 -105h-96l117 157h105l118 -157h-94zM276 551q98 0 159.5 -53.5t61.5 -137.5v-360h-113v60q-60 -72 -160 -72q-89 0 -142.5 45t-53.5 115q0 119 172 157l177 38v17q0 37 -28 60t-73 23q-43 0 -76 -22t-48 -61l-104 52q23 62 85.5 100.5t142.5 38.5zM238 83
q60 0 99.5 38.5t39.5 95.5v35l-153 -34q-34 -7 -52.5 -25.5t-18.5 -43.5q0 -31 23 -48.5t62 -17.5z" />
    <glyph glyph-name="atilde" unicode="&#xe3;" horiz-adv-x="535" 
d="M206 687q-30 0 -35 -39h-85q5 61 40.5 90.5t77.5 29.5q32 0 75.5 -22.5t60.5 -22.5q33 0 36 38h85q-5 -57 -38 -88.5t-81 -31.5q-36 0 -77 23t-59 23zM276 551q98 0 159.5 -53.5t61.5 -137.5v-360h-113v60q-60 -72 -160 -72q-89 0 -142.5 45t-53.5 115q0 119 172 157
l177 38v17q0 37 -28 60t-73 23q-43 0 -76 -22t-48 -61l-104 52q23 62 85.5 100.5t142.5 38.5zM238 83q60 0 99.5 38.5t39.5 95.5v35l-153 -34q-34 -7 -52.5 -25.5t-18.5 -43.5q0 -31 23 -48.5t62 -17.5z" />
    <glyph glyph-name="adieresis" unicode="&#xe4;" horiz-adv-x="535" 
d="M175 641q-30 0 -50.5 20.5t-20.5 50.5q0 29 20.5 49.5t50.5 20.5q29 0 49.5 -21t20.5 -49q0 -30 -20.5 -50.5t-49.5 -20.5zM373 641q-30 0 -50.5 20.5t-20.5 50.5q0 29 21 49.5t50 20.5t49.5 -20.5t20.5 -49.5q0 -30 -20.5 -50.5t-49.5 -20.5zM276 551q98 0 159.5 -53.5
t61.5 -137.5v-360h-113v60q-60 -72 -160 -72q-89 0 -142.5 45t-53.5 115q0 119 172 157l177 38v17q0 37 -28 60t-73 23q-43 0 -76 -22t-48 -61l-104 52q23 62 85.5 100.5t142.5 38.5zM238 83q60 0 99.5 38.5t39.5 95.5v35l-153 -34q-34 -7 -52.5 -25.5t-18.5 -43.5
q0 -31 23 -48.5t62 -17.5z" />
    <glyph glyph-name="aring" unicode="&#xe5;" horiz-adv-x="535" 
d="M274 641q-47 0 -79.5 31t-32.5 74q0 45 32 76t80 31t80 -31t32 -76q0 -43 -32.5 -74t-79.5 -31zM274 788q-19 0 -31.5 -12t-12.5 -29t12.5 -29.5t31.5 -12.5t31.5 12.5t12.5 29.5t-12.5 29t-31.5 12zM276 551q98 0 159.5 -53.5t61.5 -137.5v-360h-113v60
q-60 -72 -160 -72q-89 0 -142.5 45t-53.5 115q0 119 172 157l177 38v17q0 37 -28 60t-73 23q-43 0 -76 -22t-48 -61l-104 52q23 62 85.5 100.5t142.5 38.5zM238 83q60 0 99.5 38.5t39.5 95.5v35l-153 -34q-34 -7 -52.5 -25.5t-18.5 -43.5q0 -31 23 -48.5t62 -17.5z" />
    <glyph glyph-name="ae" unicode="&#xe6;" horiz-adv-x="925" 
d="M908 289q0 -30 -6 -54h-396q5 -64 47.5 -102.5t103.5 -38.5q48 0 81.5 21t50.5 54l99 -48q-25 -60 -87.5 -96.5t-144.5 -36.5q-95 0 -167 56v-44h-109v58q-58 -70 -160 -70q-84 0 -138 45.5t-54 114.5q0 118 172 157l175 38v17q0 37 -27.5 60t-71.5 23q-43 0 -76 -22.5
t-47 -60.5l-104 52q23 62 85 100.5t142 38.5q122 0 182 -80q77 80 190 80q112 0 186 -76.5t74 -185.5zM509 328h270q-3 53 -40.5 86.5t-91.5 33.5q-53 0 -90.5 -32.5t-47.5 -87.5zM375 217v36l-152 -35q-70 -16 -70 -70q0 -29 22.5 -47t61.5 -18q59 0 98.5 38.5t39.5 95.5z
" />
    <glyph glyph-name="ccedilla" unicode="&#xe7;" horiz-adv-x="564" 
d="M305 99q49 0 85 25.5t52 70.5l104 -53q-19 -52 -63 -90t-103 -54q67 -38 67 -105q0 -49 -36.5 -75.5t-87.5 -26.5q-71 0 -126 47l34 58q31 -33 83 -33q25 0 40 13t15 36q0 45 -66 76q-118 1 -196.5 81.5t-78.5 200.5q0 121 79 201t198 80q85 0 150.5 -43t90.5 -112
l-104 -52q-16 44 -52.5 70t-84.5 26q-66 0 -109 -48t-43 -123q0 -74 43 -122t109 -48z" />
    <glyph glyph-name="egrave" unicode="&#xe8;" horiz-adv-x="573" 
d="M342 641h-88l-94 158h112zM555 289q0 -30 -6 -54h-396q4 -64 46.5 -102.5t105.5 -38.5q90 0 131 75l99 -48q-25 -59 -87.5 -96t-143.5 -37q-121 0 -198.5 81t-77.5 201q0 121 76.5 201t190.5 80q112 0 186 -76.5t74 -185.5zM155 328h271q-3 53 -41 88t-90 35
q-54 0 -92 -32.5t-48 -90.5z" />
    <glyph glyph-name="eacute" unicode="&#xe9;" horiz-adv-x="573" 
d="M433 799l-94 -158h-88l71 158h111zM555 289q0 -30 -6 -54h-396q4 -64 46.5 -102.5t105.5 -38.5q90 0 131 75l99 -48q-25 -59 -87.5 -96t-143.5 -37q-121 0 -198.5 81t-77.5 201q0 121 76.5 201t190.5 80q112 0 186 -76.5t74 -185.5zM155 328h271q-3 53 -41 88t-90 35
q-54 0 -92 -32.5t-48 -90.5z" />
    <glyph glyph-name="ecircumflex" unicode="&#xea;" horiz-adv-x="573" 
d="M295 746l-74 -105h-96l117 157h105l118 -157h-94zM555 289q0 -30 -6 -54h-396q4 -64 46.5 -102.5t105.5 -38.5q90 0 131 75l99 -48q-25 -59 -87.5 -96t-143.5 -37q-121 0 -198.5 81t-77.5 201q0 121 76.5 201t190.5 80q112 0 186 -76.5t74 -185.5zM155 328h271
q-3 53 -41 88t-90 35q-54 0 -92 -32.5t-48 -90.5z" />
    <glyph glyph-name="edieresis" unicode="&#xeb;" horiz-adv-x="573" 
d="M196 641q-30 0 -50.5 20.5t-20.5 50.5q0 29 20.5 49.5t50.5 20.5q28 0 49 -21t21 -49q0 -30 -20.5 -50.5t-49.5 -20.5zM394 641q-30 0 -50.5 20.5t-20.5 50.5q0 29 21 49.5t50 20.5t49.5 -20.5t20.5 -49.5q0 -30 -20.5 -50.5t-49.5 -20.5zM555 289q0 -30 -6 -54h-396
q4 -64 46.5 -102.5t105.5 -38.5q90 0 131 75l99 -48q-25 -59 -87.5 -96t-143.5 -37q-121 0 -198.5 81t-77.5 201q0 121 76.5 201t190.5 80q112 0 186 -76.5t74 -185.5zM155 328h271q-3 53 -41 88t-90 35q-54 0 -92 -32.5t-48 -90.5z" />
    <glyph glyph-name="igrave" unicode="&#xec;" horiz-adv-x="268" 
d="M181 641h-88l-94 158h112zM74 0v539h120v-539h-120z" />
    <glyph glyph-name="iacute" unicode="&#xed;" horiz-adv-x="268" 
d="M89 641l71 158h111l-94 -158h-88zM74 0v539h120v-539h-120z" />
    <glyph glyph-name="icircumflex" unicode="&#xee;" horiz-adv-x="268" 
d="M81 798h105l118 -157h-94l-76 105l-74 -105h-96zM74 0v539h120v-539h-120z" />
    <glyph glyph-name="idieresis" unicode="&#xef;" horiz-adv-x="268" 
d="M35 641q-30 0 -50.5 20.5t-20.5 50.5q0 29 20.5 49.5t50.5 20.5q29 0 49.5 -21t20.5 -49q0 -30 -20.5 -50.5t-49.5 -20.5zM233 641q-30 0 -50.5 20.5t-20.5 50.5q0 29 21 49.5t50 20.5t49.5 -20.5t20.5 -49.5q0 -30 -20.5 -50.5t-49.5 -20.5zM74 0v539h120v-539h-120z
" />
    <glyph glyph-name="eth" unicode="&#xf0;" horiz-adv-x="616" 
d="M476 670q113 -144 113 -348q0 -164 -78 -249t-200 -85t-202.5 79.5t-80.5 200.5q0 120 79 199.5t199 79.5q87 0 133 -40q-17 72 -71 124l-157 -57v59l104 38q-62 34 -129 34q-57 0 -109 -23l-14 104q57 27 132 27q138 0 241 -98l108 39v-60zM310 99q69 0 111.5 46.5
t42.5 120.5q0 76 -42.5 123t-113.5 47q-67 0 -111 -47.5t-44 -121.5q0 -73 44 -120.5t113 -47.5z" />
    <glyph glyph-name="ntilde" unicode="&#xf1;" horiz-adv-x="575" 
d="M256 687q-30 0 -35 -39h-85q5 61 40.5 90.5t77.5 29.5q32 0 75.5 -22.5t60.5 -22.5q33 0 36 38h85q-5 -57 -38 -88.5t-81 -31.5q-36 0 -77 23t-59 23zM324 551q90 0 146.5 -56t56.5 -145v-350h-120v320q0 54 -31.5 87t-82.5 33q-52 0 -83.5 -32.5t-31.5 -87.5v-320h-120
v539h113v-65q46 77 153 77z" />
    <glyph glyph-name="ograve" unicode="&#xf2;" horiz-adv-x="621" 
d="M358 641h-88l-94 158h112zM311 -12q-119 0 -201 80.5t-82 201.5t81.5 201t201.5 80t201.5 -80t81.5 -201t-82 -201.5t-201 -80.5zM311 99q68 0 113 48t45 122t-45 122.5t-113 48.5q-69 0 -113.5 -48.5t-44.5 -122.5t44.5 -122t113.5 -48z" />
    <glyph glyph-name="oacute" unicode="&#xf3;" horiz-adv-x="621" 
d="M266 641l71 158h111l-94 -158h-88zM311 -12q-119 0 -201 80.5t-82 201.5t81.5 201t201.5 80t201.5 -80t81.5 -201t-82 -201.5t-201 -80.5zM311 99q68 0 113 48t45 122t-45 122.5t-113 48.5q-69 0 -113.5 -48.5t-44.5 -122.5t44.5 -122t113.5 -48z" />
    <glyph glyph-name="ocircumflex" unicode="&#xf4;" horiz-adv-x="621" 
d="M258 798h105l118 -157h-94l-76 105l-74 -105h-96zM311 -12q-119 0 -201 80.5t-82 201.5t81.5 201t201.5 80t201.5 -80t81.5 -201t-82 -201.5t-201 -80.5zM311 99q68 0 113 48t45 122t-45 122.5t-113 48.5q-69 0 -113.5 -48.5t-44.5 -122.5t44.5 -122t113.5 -48z" />
    <glyph glyph-name="otilde" unicode="&#xf5;" horiz-adv-x="621" 
d="M379 641q-35 0 -77 23t-59 23q-30 0 -35 -39h-85q5 61 40.5 90.5t77.5 29.5q32 0 75.5 -22.5t60.5 -22.5q33 0 36 38h85q-5 -57 -38 -88.5t-81 -31.5zM311 -12q-119 0 -201 80.5t-82 201.5t81.5 201t201.5 80t201.5 -80t81.5 -201t-82 -201.5t-201 -80.5zM311 99
q68 0 113 48t45 122t-45 122.5t-113 48.5q-69 0 -113.5 -48.5t-44.5 -122.5t44.5 -122t113.5 -48z" />
    <glyph glyph-name="odieresis" unicode="&#xf6;" horiz-adv-x="621" 
d="M212 641q-30 0 -50.5 20.5t-20.5 50.5q0 29 20.5 49.5t50.5 20.5q28 0 49 -21t21 -49q0 -30 -20.5 -50.5t-49.5 -20.5zM410 641q-30 0 -50.5 20.5t-20.5 50.5q0 29 21 49.5t50 20.5t49.5 -20.5t20.5 -49.5q0 -30 -20.5 -50.5t-49.5 -20.5zM311 -12q-119 0 -201 80.5
t-82 201.5t81.5 201t201.5 80t201.5 -80t81.5 -201t-82 -201.5t-201 -80.5zM311 99q68 0 113 48t45 122t-45 122.5t-113 48.5q-69 0 -113.5 -48.5t-44.5 -122.5t44.5 -122t113.5 -48z" />
    <glyph glyph-name="divide" unicode="&#xf7;" horiz-adv-x="667" 
d="M272 517v135h124v-135h-124zM88 309v106h491v-106h-491zM272 73v135h124v-135h-124z" />
    <glyph glyph-name="oslash" unicode="&#xf8;" horiz-adv-x="621" 
d="M637 522l-91 -91q48 -72 48 -161q0 -121 -82 -201.5t-201 -80.5q-89 0 -161 47l-93 -93l-73 74l92 92q-48 72 -48 162q0 121 81.5 201t201.5 80q89 0 161 -47l92 92zM153 269q0 -37 13 -71l222 222q-34 20 -77 20q-69 0 -113.5 -48.5t-44.5 -122.5zM469 269q0 36 -13 72
l-222 -222q34 -20 77 -20q68 0 113 48t45 122z" />
    <glyph glyph-name="ugrave" unicode="&#xf9;" horiz-adv-x="575" 
d="M335 641h-88l-94 158h112zM397 539h120v-539h-114v62q-47 -74 -151 -74q-89 0 -146.5 61t-57.5 155v335h120v-320q0 -55 31.5 -87.5t83.5 -32.5q51 0 82.5 33t31.5 87v320z" />
    <glyph glyph-name="uacute" unicode="&#xfa;" horiz-adv-x="575" 
d="M425 799l-94 -158h-88l71 158h111zM397 539h120v-539h-114v62q-47 -74 -151 -74q-89 0 -146.5 61t-57.5 155v335h120v-320q0 -55 31.5 -87.5t83.5 -32.5q51 0 82.5 33t31.5 87v320z" />
    <glyph glyph-name="ucircumflex" unicode="&#xfb;" horiz-adv-x="575" 
d="M288 746l-74 -105h-96l117 157h105l118 -157h-94zM397 539h120v-539h-114v62q-47 -74 -151 -74q-89 0 -146.5 61t-57.5 155v335h120v-320q0 -55 31.5 -87.5t83.5 -32.5q51 0 82.5 33t31.5 87v320z" />
    <glyph glyph-name="udieresis" unicode="&#xfc;" horiz-adv-x="575" 
d="M189 641q-30 0 -50.5 20.5t-20.5 50.5q0 29 20.5 49.5t50.5 20.5q29 0 49.5 -21t20.5 -49q0 -30 -20.5 -50.5t-49.5 -20.5zM387 641q-30 0 -50.5 20.5t-20.5 50.5q0 29 21 49.5t50 20.5t49.5 -20.5t20.5 -49.5q0 -30 -20.5 -50.5t-49.5 -20.5zM397 539h120v-539h-114v62
q-47 -74 -151 -74q-89 0 -146.5 61t-57.5 155v335h120v-320q0 -55 31.5 -87.5t83.5 -32.5q51 0 82.5 33t31.5 87v320z" />
    <glyph glyph-name="yacute" unicode="&#xfd;" horiz-adv-x="568" 
d="M421 799l-94 -158h-88l71 158h111zM429 539h131l-240 -602q-13 -31 -24 -51t-34 -48t-59.5 -43t-84.5 -15t-79 14v101q30 -8 62 -8t54 13t30 25.5t17 34.5l18 42l-212 537h131l145 -381z" />
    <glyph glyph-name="thorn" unicode="&#xfe;" horiz-adv-x="649" 
d="M349 551q115 0 194 -81t79 -200q0 -120 -79 -201t-195 -81q-109 0 -170 67v-255h-120v945h120v-266q59 72 171 72zM337 99q69 0 114.5 48.5t45.5 121.5q0 74 -45.5 122.5t-114.5 48.5q-70 0 -114.5 -48t-44.5 -123q0 -74 44.5 -122t114.5 -48z" />
    <glyph glyph-name="ydieresis" unicode="&#xff;" horiz-adv-x="568" 
d="M185 641q-30 0 -50.5 20.5t-20.5 50.5q0 29 20.5 49.5t50.5 20.5q29 0 49.5 -21t20.5 -49q0 -30 -20.5 -50.5t-49.5 -20.5zM383 641q-30 0 -50.5 20.5t-20.5 50.5q0 29 21 49.5t50 20.5t49.5 -20.5t20.5 -49.5q0 -30 -20.5 -50.5t-49.5 -20.5zM429 539h131l-240 -602
q-13 -31 -24 -51t-34 -48t-59.5 -43t-84.5 -15t-79 14v101q30 -8 62 -8t54 13t30 25.5t17 34.5l18 42l-212 537h131l145 -381z" />
    <glyph glyph-name="dotlessi" unicode="&#x131;" horiz-adv-x="268" 
d="M74 0v539h120v-539h-120z" />
    <glyph glyph-name="Lslash" unicode="&#x141;" horiz-adv-x="555" 
d="M68 0v292l-132 -34v108l132 34v345h126v-313l130 34v-108l-130 -33v-214h334v-111h-460z" />
    <glyph glyph-name="lslash" unicode="&#x142;" horiz-adv-x="235" 
d="M58 0v288l-91 -30v108l91 30v349h120v-309l90 30v-108l-90 -30v-328h-120z" />
    <glyph glyph-name="OE" unicode="&#x152;" horiz-adv-x="1244" 
d="M1197 634h-367v-205h347v-111h-347v-207h367l-1 -111h-492v99q-111 -111 -275 -111t-275 110t-111 275t110.5 274.5t275.5 109.5q167 0 275 -110v98h493v-111zM429 104q112 0 186 76.5t74 192.5q0 115 -74 191.5t-186 76.5t-186 -76.5t-74 -191.5q0 -116 74 -192.5
t186 -76.5z" />
    <glyph glyph-name="oe" unicode="&#x153;" horiz-adv-x="1013" 
d="M996 289q0 -30 -6 -54h-396q5 -65 48 -103t104 -38q92 0 131 75l99 -48q-26 -60 -89 -96.5t-144 -36.5q-135 0 -214 101q-80 -101 -219 -101q-119 0 -200.5 80.5t-81.5 201.5t81.5 201t200.5 80q66 0 123.5 -26.5t95.5 -73.5q77 100 207 100q112 0 186 -76.5t74 -185.5z
M597 328h270q-3 53 -40.5 86.5t-92.5 33.5q-52 0 -89.5 -32t-47.5 -88zM310 99q69 0 113.5 48t44.5 122t-44.5 122.5t-113.5 48.5q-68 0 -112.5 -48.5t-44.5 -122.5t44.5 -122t112.5 -48z" />
    <glyph glyph-name="Scaron" unicode="&#x160;" horiz-adv-x="640" 
d="M267 847l-117 157h96l74 -105l76 105h94l-118 -157h-105zM338 -12q-109 0 -192.5 57.5t-112.5 148.5l108 49q26 -68 79 -106t118 -38q62 0 100 27t38 69q0 69 -90 96l-146 45q-91 27 -137 80.5t-46 126.5q0 95 71 154.5t185 59.5q103 0 180 -52t106 -133l-109 -50
q-20 59 -66 91.5t-110 32.5q-58 0 -94 -27t-36 -70q0 -70 92 -98l141 -43q186 -57 186 -204q0 -97 -73 -156.5t-192 -59.5z" />
    <glyph glyph-name="scaron" unicode="&#x161;" horiz-adv-x="494" 
d="M194 641l-117 157h96l74 -105l76 105h94l-118 -157h-105zM262 -12q-84 0 -148.5 40.5t-89.5 110.5l93 45q43 -98 145 -98q40 0 64.5 17t24.5 45q0 43 -71 62l-92 24q-141 39 -141 154q0 73 55.5 118t144.5 45q79 0 138.5 -37t84.5 -102l-94 -44q-15 38 -49 60t-80 22
q-37 0 -59 -15.5t-22 -41.5q0 -41 65 -60l96 -27q143 -40 143 -155q0 -73 -58 -118t-150 -45z" />
    <glyph glyph-name="Ydieresis" unicode="&#x178;" horiz-adv-x="657" 
d="M231 847q-30 0 -50.5 20.5t-20.5 50.5q0 29 20.5 49.5t50.5 20.5q29 0 49.5 -21t20.5 -49q0 -30 -20.5 -50.5t-49.5 -20.5zM429 847q-30 0 -50.5 20.5t-20.5 50.5q0 29 21 49.5t50 20.5t49.5 -20.5t20.5 -49.5q0 -30 -20.5 -50.5t-49.5 -20.5zM503 745h142l-252 -411
v-334h-127v333l-253 412h141l175 -288z" />
    <glyph glyph-name="Zcaron" unicode="&#x17d;" horiz-adv-x="577" 
d="M239 834l-117 157h96l74 -105l76 105h94l-118 -157h-105zM171 111h389v-111h-542v97l378 537h-357v111h511v-96z" />
    <glyph glyph-name="zcaron" unicode="&#x17e;" horiz-adv-x="474" 
d="M185 641l-117 157h96l74 -105l76 105h94l-118 -157h-105zM16 0v98l283 333h-270v108h428v-98l-279 -333h280v-108h-442z" />
    <glyph glyph-name="florin" unicode="&#x192;" horiz-adv-x="614" 
d="M507 757q43 0 79 -12l-21 -103q-26 8 -51 8q-76 0 -93 -75l-52 -247h137v-106h-159l-46 -221q-17 -82 -71.5 -126t-132.5 -44q-47 0 -80 11l22 104q26 -8 51 -8q77 0 92 75l44 209h-148v106h170l55 259q17 82 71.5 126t132.5 44z" />
    <glyph glyph-name="circumflex" unicode="&#x2c6;" horiz-adv-x="380" 
d="M137 797h105l118 -157h-94l-76 105l-74 -105h-96z" />
    <glyph glyph-name="caron" unicode="&#x2c7;" horiz-adv-x="380" 
d="M137 640l-117 157h96l74 -105l76 105h94l-118 -157h-105z" />
    <glyph glyph-name="breve" unicode="&#x2d8;" horiz-adv-x="341" 
d="M171 640q-63 0 -107 42.5t-44 101.5h80q0 -29 21 -50t50 -21t49.5 21t20.5 50h80q0 -60 -44 -102t-106 -42z" />
    <glyph glyph-name="dotaccent" unicode="&#x2d9;" horiz-adv-x="181" 
d="M91 640q-30 0 -50.5 20.5t-20.5 50.5q0 29 20.5 49.5t50.5 20.5q29 0 49.5 -20.5t20.5 -49.5q0 -30 -20.5 -50.5t-49.5 -20.5z" />
    <glyph glyph-name="ring" unicode="&#x2da;" horiz-adv-x="264" 
d="M132 640q-47 0 -79.5 31t-32.5 74q0 45 32 76t80 31t80 -31t32 -76q0 -43 -32.5 -74t-79.5 -31zM132 704q19 0 31.5 12.5t12.5 29.5t-12.5 29t-31.5 12t-31.5 -12t-12.5 -29t12.5 -29.5t31.5 -12.5z" />
    <glyph glyph-name="ogonek" unicode="&#x2db;" horiz-adv-x="290" 
d="M144 -202q-51 0 -87.5 26t-36.5 75q0 48 39 82.5t111 48.5l36 -21q-108 -31 -108 -91q0 -22 15.5 -35t41.5 -13q51 0 81 32l34 -58q-54 -46 -126 -46z" />
    <glyph glyph-name="tilde" unicode="&#x2dc;" horiz-adv-x="415" 
d="M276 640q-35 0 -76.5 23t-59.5 23q-30 0 -35 -39h-85q5 61 40.5 90.5t77.5 29.5q32 0 75.5 -22.5t60.5 -22.5q33 0 36 38h85q-5 -57 -38 -88.5t-81 -31.5z" />
    <glyph glyph-name="hungarumlaut" unicode="&#x2dd;" horiz-adv-x="387" 
d="M20 640l71 158h111l-94 -158h-88zM184 640l70 158h113l-95 -158h-88z" />
    <glyph glyph-name="gravecomb" unicode="&#x300;" 
d="M-20 640h-88l-94 158h112z" />
    <glyph glyph-name="acutecomb" unicode="&#x301;" 
d="M-202 640l71 158h111l-94 -158h-88z" />
    <glyph glyph-name="uni0302" unicode="&#x302;" 
d="M-243 797h105l118 -157h-94l-76 105l-74 -105h-96z" />
    <glyph glyph-name="tildecomb" unicode="&#x303;" 
d="M-139 640q-35 0 -76.5 23t-59.5 23q-30 0 -35 -39h-85q5 61 40.5 90.5t77.5 29.5q32 0 75.5 -22.5t60.5 -22.5q33 0 36 38h85q-5 -57 -38 -88.5t-81 -31.5z" />
    <glyph glyph-name="uni0304" unicode="&#x304;" 
d="M-274 640v83h254v-83h-254z" />
    <glyph glyph-name="uni0306" unicode="&#x306;" 
d="M-170 640q-63 0 -107 42.5t-44 101.5h80q0 -29 21 -50t50 -21t49.5 21t20.5 50h80q0 -60 -44 -102t-106 -42z" />
    <glyph glyph-name="uni0307" unicode="&#x307;" 
d="M-90 640q-30 0 -50.5 20.5t-20.5 50.5q0 29 20.5 49.5t50.5 20.5q28 0 49 -20.5t21 -49.5q0 -30 -20.5 -50.5t-49.5 -20.5z" />
    <glyph glyph-name="uni0308" unicode="&#x308;" 
d="M-288 640q-30 0 -50.5 20.5t-20.5 50.5q0 29 20.5 49.5t50.5 20.5q28 0 49 -20.5t21 -49.5q0 -30 -20.5 -50.5t-49.5 -20.5zM-90 640q-30 0 -50.5 20.5t-20.5 50.5q0 29 21 49.5t50 20.5t49.5 -20.5t20.5 -49.5q0 -30 -20.5 -50.5t-49.5 -20.5z" />
    <glyph glyph-name="uni030A" unicode="&#x30a;" 
d="M-132 640q-47 0 -79.5 31t-32.5 74q0 45 32 76t80 31t80 -31t32 -76q0 -43 -32.5 -74t-79.5 -31zM-132 704q19 0 31.5 12.5t12.5 29.5t-12.5 29t-31.5 12t-31.5 -12t-12.5 -29t12.5 -29.5t31.5 -12.5z" />
    <glyph glyph-name="uni030B" unicode="&#x30b;" 
d="M-367 640l71 158h111l-94 -158h-88zM-203 640l70 158h113l-95 -158h-88z" />
    <glyph glyph-name="uni030C" unicode="&#x30c;" 
d="M-243 640l-117 157h96l74 -105l76 105h94l-118 -157h-105z" />
    <glyph glyph-name="uni0326" unicode="&#x326;" 
d="M-223 -240l69 190h134l-118 -190h-85z" />
    <glyph glyph-name="uni0327" unicode="&#x327;" 
d="M-144 -209q-71 0 -126 47l34 58q31 -33 83 -33q25 0 40 13t15 36q0 59 -107 91l46 21q67 -15 103 -49.5t36 -81.5q0 -49 -36.5 -75.5t-87.5 -26.5z" />
    <glyph glyph-name="uni0328" unicode="&#x328;" 
d="M-146 -202q-51 0 -87.5 26t-36.5 75q0 48 39 82.5t111 48.5l36 -21q-108 -31 -108 -91q0 -22 15.5 -35t41.5 -13q51 0 81 32l34 -58q-54 -46 -126 -46z" />
    <glyph glyph-name="uni0335" unicode="&#x335;" 
d="M-449 270v108h429v-108h-429z" />
    <glyph glyph-name="uni0336" unicode="&#x336;" 
d="M-720 272v103h700v-103h-700z" />
    <glyph glyph-name="uni0394" unicode="&#x394;" horiz-adv-x="622" 
d="M13 0v87l257 658h83l257 -658v-87h-597zM146 107h331l-166 434z" />
    <glyph glyph-name="uni03A9" unicode="&#x3a9;" horiz-adv-x="896" 
d="M43 1v113h129q-111 95 -111 255q0 167 109 277.5t278 110.5q167 0 276.5 -110.5t109.5 -277.5q0 -161 -110 -255h129v-113l-325 -1v114q85 23 134 93t49 162q0 119 -74 198t-189 79t-189 -79t-74 -198q0 -92 49.5 -162t134.5 -93v-114z" />
    <glyph glyph-name="pi" unicode="&#x3c0;" horiz-adv-x="670" 
d="M142 0v430h-128v107h642v-107h-128v-430h-120v430h-146v-430h-120z" />
    <glyph glyph-name="endash" unicode="&#x2013;" horiz-adv-x="610" 
d="M70 215v108h470v-108h-470z" />
    <glyph glyph-name="emdash" unicode="&#x2014;" horiz-adv-x="891" 
d="M70 215v108h751v-108h-751z" />
    <glyph glyph-name="quoteleft" unicode="&#x2018;" horiz-adv-x="307" 
d="M70 480l73 265h84l-41 -265h-116z" />
    <glyph glyph-name="quoteright" unicode="&#x2019;" horiz-adv-x="307" 
d="M70 480l40 265h117l-74 -265h-83z" />
    <glyph glyph-name="quotesinglbase" unicode="&#x201a;" horiz-adv-x="307" 
d="M70 -130l40 265h117l-74 -265h-83z" />
    <glyph glyph-name="quotedblleft" unicode="&#x201c;" horiz-adv-x="507" 
d="M70 480l73 265h84l-41 -265h-116zM270 480l73 265h84l-41 -265h-116z" />
    <glyph glyph-name="quotedblright" unicode="&#x201d;" horiz-adv-x="507" 
d="M70 480l40 265h117l-74 -265h-83zM270 480l40 265h117l-74 -265h-83z" />
    <glyph glyph-name="quotedblbase" unicode="&#x201e;" horiz-adv-x="507" 
d="M70 -130l40 265h117l-74 -265h-83zM270 -130l40 265h117l-74 -265h-83z" />
    <glyph glyph-name="dagger" unicode="&#x2020;" horiz-adv-x="715" 
d="M296 -195v626h-208v107h208v207h123v-207h209v-107h-209v-626h-123z" />
    <glyph glyph-name="daggerdbl" unicode="&#x2021;" horiz-adv-x="715" 
d="M296 -195v207h-208v108h208v311h-208v107h208v207h123v-207h209v-107h-209v-311h209v-108h-209v-207h-123z" />
    <glyph glyph-name="bullet" unicode="&#x2022;" horiz-adv-x="463" 
d="M233 210q-65 0 -109 44.5t-44 109.5q0 63 44 106.5t109 43.5q64 0 107 -43.5t43 -106.5q1 -65 -42.5 -109.5t-107.5 -44.5z" />
    <glyph glyph-name="ellipsis" unicode="&#x2026;" horiz-adv-x="884" 
d="M80 0v135h124v-135h-124zM380 0v135h124v-135h-124zM680 0v135h124v-135h-124z" />
    <glyph glyph-name="perthousand" unicode="&#x2030;" horiz-adv-x="1237" 
d="M273 387q-77 0 -131 54.5t-54 130.5q0 77 54 131t131 54q76 0 130 -54t54 -131q0 -76 -54 -130.5t-130 -54.5zM964 388q-77 0 -130.5 54t-53.5 131q0 76 54 130t130 54q77 0 131 -54t54 -130q0 -77 -54 -131t-131 -54zM295 0l333 745h121l-333 -745h-121zM964 488
q35 0 59.5 25t24.5 60q0 34 -24.5 59t-59.5 25q-34 0 -59 -25t-25 -59q0 -35 24.5 -60t59.5 -25zM273 488q35 0 59.5 25t24.5 59t-24.5 59t-59.5 25t-59.5 -24.5t-24.5 -59.5t24.5 -59.5t59.5 -24.5zM780 -12q-77 0 -130.5 54t-53.5 131t54 130.5t130 53.5q77 0 131 -53.5
t54 -130.5t-54 -131t-131 -54zM780 89q35 0 59.5 24.5t24.5 59.5t-24.5 59.5t-59.5 24.5q-34 0 -59 -24.5t-25 -59.5t24.5 -59.5t59.5 -24.5z" />
    <glyph glyph-name="guilsinglleft" unicode="&#x2039;" horiz-adv-x="389" 
d="M193 73l-153 196l153 196h136l-152 -196l152 -196h-136z" />
    <glyph glyph-name="guilsinglright" unicode="&#x203a;" horiz-adv-x="389" 
d="M196 73h-136l152 196l-152 196h136l153 -196z" />
    <glyph glyph-name="fraction" unicode="&#x2044;" horiz-adv-x="207" 
d="M-113 0l334 745h98l-333 -745h-99z" />
    <glyph glyph-name="uni2070" unicode="&#x2070;" horiz-adv-x="453" 
d="M227 291q-82 0 -132 63.5t-50 167.5q0 103 50 166.5t131 63.5q82 0 132 -63.5t50 -166.5t-50 -167t-131 -64zM227 377q40 0 62.5 38.5t22.5 106.5t-22.5 106t-63.5 38t-63.5 -38t-22.5 -106t23 -106.5t64 -38.5z" />
    <glyph glyph-name="uni2074" unicode="&#x2074;" horiz-adv-x="439" 
d="M407 474v-81h-75v-95h-96v95h-202v81l195 271h103v-271h75zM127 474h109v155z" />
    <glyph glyph-name="uni2075" unicode="&#x2075;" horiz-adv-x="399" 
d="M207 594q64 0 104.5 -40t40.5 -102q0 -69 -46.5 -115t-116.5 -46q-54 0 -96.5 26.5t-58.5 70.5l76 44q10 -25 31 -40t48 -15q29 0 48 19t19 50q0 30 -18.5 48.5t-48.5 18.5q-40 0 -56 -37l-75 19l43 250h242v-80h-178l-14 -83q24 12 56 12z" />
    <glyph glyph-name="uni2076" unicode="&#x2076;" horiz-adv-x="396" 
d="M218 585q60 -1 100.5 -44t40.5 -101q0 -64 -45.5 -106.5t-115.5 -42.5q-69 0 -114.5 42.5t-45.5 105.5q0 48 44 109l139 197h109zM198 377q27 0 45.5 18.5t18.5 47.5t-18.5 46.5t-45.5 17.5t-45.5 -17.5t-18.5 -46.5t19 -47.5t45 -18.5z" />
    <glyph glyph-name="uni2077" unicode="&#x2077;" horiz-adv-x="354" 
d="M56 297l180 367h-212v81h307v-81l-174 -367h-101z" />
    <glyph glyph-name="uni2078" unicode="&#x2078;" horiz-adv-x="426" 
d="M316 532q63 -35 63 -101q0 -61 -47.5 -100.5t-118.5 -39.5t-118 39.5t-47 100.5q0 68 62 101q-48 30 -48 95q0 55 42.5 90t108.5 35q65 0 108 -35t43 -90q0 -62 -48 -95zM213 672q-24 0 -39 -14.5t-15 -37.5t15 -37t39 -14q23 0 38 14.5t15 36.5q0 23 -15 37.5t-38 14.5z
M213 371q31 0 50.5 16.5t19.5 42.5t-19.5 42.5t-50.5 16.5t-50 -16.5t-19 -42.5t19 -42.5t50 -16.5z" />
    <glyph glyph-name="uni2079" unicode="&#x2079;" horiz-adv-x="396" 
d="M198 752q70 0 115.5 -42.5t45.5 -105.5q0 -45 -45 -109l-139 -197h-108l112 160q-61 1 -101 43.5t-40 101.5q0 64 45.5 106.5t114.5 42.5zM198 536q27 0 45.5 17.5t18.5 46.5t-18.5 47.5t-45.5 18.5q-26 0 -45 -18.5t-19 -47.5t18.5 -46.5t45.5 -17.5z" />
    <glyph glyph-name="uni2080" unicode="&#x2080;" horiz-adv-x="453" 
d="M227 -7q-82 0 -132 63.5t-50 167.5q0 103 50 166.5t131 63.5q82 0 132 -63.5t50 -166.5t-50 -167t-131 -64zM227 79q40 0 62.5 38.5t22.5 106.5t-22.5 106t-63.5 38t-63.5 -38t-22.5 -106t23 -106.5t64 -38.5z" />
    <glyph glyph-name="uni2081" unicode="&#x2081;" horiz-adv-x="338" 
d="M108 0v366h-84v80l180 1v-447h-96z" />
    <glyph glyph-name="uni2082" unicode="&#x2082;" horiz-adv-x="388" 
d="M36 0l-1 75l120 123q51 52 67.5 75t16.5 44q0 23 -14.5 37t-38.5 14q-26 0 -45.5 -15t-27.5 -40l-75 44q15 45 56.5 71t97.5 26q63 0 103 -34.5t40 -90.5q0 -35 -19 -67.5t-59 -75.5l-104 -106h187v-80h-304z" />
    <glyph glyph-name="uni2083" unicode="&#x2083;" horiz-adv-x="400" 
d="M248 277q48 -8 76.5 -42.5t28.5 -85.5q0 -67 -47.5 -111.5t-118.5 -44.5q-54 0 -95 26.5t-58 70.5l76 44q21 -55 77 -55q32 0 51 18t19 48t-18.5 47t-51.5 17q-28 0 -52 -12l-22 47l115 122l-173 1v80h280v-73z" />
    <glyph glyph-name="uni2084" unicode="&#x2084;" horiz-adv-x="439" 
d="M407 176v-81h-75v-95h-96v95h-202v81l195 271h103v-271h75zM127 176h109v155z" />
    <glyph glyph-name="uni2085" unicode="&#x2085;" horiz-adv-x="399" 
d="M207 296q64 0 104.5 -40t40.5 -102q0 -69 -46.5 -115t-116.5 -46q-54 0 -96.5 26.5t-58.5 70.5l76 44q10 -25 31 -40t48 -15q29 0 48 19t19 50q0 30 -18.5 48.5t-48.5 18.5q-40 0 -56 -37l-75 19l43 250h242v-80h-178l-14 -83q24 12 56 12z" />
    <glyph glyph-name="uni2086" unicode="&#x2086;" horiz-adv-x="396" 
d="M218 287q60 -1 100.5 -44t40.5 -101q0 -64 -45.5 -106.5t-115.5 -42.5q-69 0 -114.5 42.5t-45.5 105.5q0 48 44 109l139 197h109zM198 79q27 0 45.5 18.5t18.5 47.5t-18.5 46.5t-45.5 17.5t-45.5 -17.5t-18.5 -46.5t19 -47.5t45 -18.5z" />
    <glyph glyph-name="uni2087" unicode="&#x2087;" horiz-adv-x="354" 
d="M56 0l180 367h-212v81h307v-81l-174 -367h-101z" />
    <glyph glyph-name="uni2088" unicode="&#x2088;" horiz-adv-x="426" 
d="M316 234q63 -35 63 -101q0 -61 -47.5 -100.5t-118.5 -39.5t-118 39.5t-47 100.5q0 68 62 101q-48 30 -48 95q0 55 42.5 90t108.5 35q65 0 108 -35t43 -90q0 -62 -48 -95zM213 374q-24 0 -39 -14.5t-15 -37.5t15 -37t39 -14q23 0 38 14.5t15 36.5q0 23 -15 37.5t-38 14.5z
M213 73q31 0 50.5 16.5t19.5 42.5t-19.5 42.5t-50.5 16.5t-50 -16.5t-19 -42.5t19 -42.5t50 -16.5z" />
    <glyph glyph-name="uni2089" unicode="&#x2089;" horiz-adv-x="396" 
d="M198 454q70 0 115.5 -42.5t45.5 -105.5q0 -45 -45 -109l-139 -197h-108l112 160q-61 1 -101 43.5t-40 101.5q0 64 45.5 106.5t114.5 42.5zM198 238q27 0 45.5 17.5t18.5 46.5t-18.5 47.5t-45.5 18.5q-26 0 -45 -18.5t-19 -47.5t18.5 -46.5t45.5 -17.5z" />
    <glyph glyph-name="lira" unicode="&#x20a4;" horiz-adv-x="802" 
d="M383 227v-119h326v-108h-570v108h120v119h-130l8 89h122v80h-118l7 89h111v33q0 107 67.5 173t177.5 66q88 0 153 -44t90 -120l-101 -55q-34 105 -142 105q-58 0 -89.5 -32.5t-31.5 -92.5v-33h213l-8 -89h-205v-80h201l-7 -89h-194z" />
    <glyph glyph-name="Euro" unicode="&#x20ac;" horiz-adv-x="804" 
d="M483 102q61 0 106.5 35.5t65.5 98.5l112 -54q-31 -90 -107 -142t-177 -52q-117 0 -202.5 70t-117.5 188h-135l25 89h95q-1 12 -1 38v23h-83l25 89h70q29 125 115.5 198.5t208.5 73.5q101 0 177 -52t107 -142l-112 -54q-20 63 -65.5 98.5t-106.5 35.5q-67 0 -118.5 -42.5
t-74.5 -115.5h278l-25 -89h-269q-1 -8 -1 -23q0 -14 2 -38h257l-25 -89h-213q25 -67 74.5 -105.5t114.5 -38.5z" />
    <glyph glyph-name="uni2113" unicode="&#x2113;" horiz-adv-x="569" 
d="M326 -6q-116 0 -176 119q-68 -31 -119 -43l-24 107q56 14 111 40q-10 44 -10 103q0 169 74 285.5t184 116.5q75 0 127 -55.5t52 -142.5q0 -58 -24.5 -113t-68 -100t-90.5 -80.5t-103 -66.5q26 -67 78 -67q33 0 59.5 26t33.5 65l109 -12q-13 -79 -74.5 -130.5
t-138.5 -51.5zM244 287q176 115 176 236q0 37 -16 63t-43 26q-45 0 -80 -69.5t-41 -172.5q-1 -37 4 -83z" />
    <glyph glyph-name="trademark" unicode="&#x2122;" horiz-adv-x="1152" 
d="M83 646v99h374v-99h-130v-423h-113v423h-131zM960 745h110v-522h-113v331l-157 -200h-15l-156 208v-339h-112v522h110l165 -217z" />
    <glyph glyph-name="estimated" unicode="&#x212e;" horiz-adv-x="805" 
d="M411 -10q-168 0 -275.5 104t-107.5 255q0 152 108 256.5t272 104.5t272 -104.5t108 -255.5v-9h-609q-5 0 -5 -6v-195q0 -11 10 -22q92 -106 227 -106q77 0 130.5 29t105.5 88h58q-58 -69 -125.5 -104t-168.5 -35zM179 360h458q4 0 4 6v196q0 14 -10 24q-51 53 -99 77.5
t-124 24.5q-133 0 -223 -105q-11 -13 -11 -24v-193q0 -6 5 -6z" />
    <glyph glyph-name="oneeighth" unicode="&#x215b;" horiz-adv-x="971" 
d="M24 664v80l180 1v-447h-96v366h-84zM559 745h98l-333 -745h-98zM861 234q63 -35 63 -101q0 -61 -47.5 -100.5t-118.5 -39.5t-118 39.5t-47 100.5q0 68 62 101q-48 30 -48 95q0 55 42.5 90t108.5 35q65 0 108 -35t43 -90q0 -62 -48 -95zM758 374q-24 0 -39 -14.5
t-15 -37.5t15 -37t39 -14q23 0 38 14.5t15 36.5q0 23 -15 37.5t-38 14.5zM758 73q31 0 50.5 16.5t19.5 42.5t-19.5 42.5t-50.5 16.5t-50 -16.5t-19 -42.5t19 -42.5t50 -16.5z" />
    <glyph glyph-name="threeeighths" unicode="&#x215c;" horiz-adv-x="1033" 
d="M353 447q0 -67 -47.5 -111.5t-118.5 -44.5q-54 0 -95 26.5t-58 70.5l76 44q21 -55 77 -55q32 0 51 18t19 48t-18.5 47t-51.5 17q-28 0 -52 -12l-22 47l115 122l-173 1v80h280v-73l-87 -97q48 -8 76.5 -42.5t28.5 -85.5zM621 745h98l-333 -745h-98zM923 234
q63 -35 63 -101q0 -61 -47.5 -100.5t-118.5 -39.5t-118 39.5t-47 100.5q0 68 62 101q-48 30 -48 95q0 55 42.5 90t108.5 35q65 0 108 -35t43 -90q0 -62 -48 -95zM820 374q-24 0 -39 -14.5t-15 -37.5t15 -37t39 -14q23 0 38 14.5t15 36.5q0 23 -15 37.5t-38 14.5zM820 73
q31 0 50.5 16.5t19.5 42.5t-19.5 42.5t-50.5 16.5t-50 -16.5t-19 -42.5t19 -42.5t50 -16.5z" />
    <glyph glyph-name="fiveeighths" unicode="&#x215d;" horiz-adv-x="1032" 
d="M352 452q0 -69 -46.5 -115t-116.5 -46q-54 0 -96.5 26.5t-58.5 70.5l76 44q10 -25 31 -40t48 -15q29 0 48 19t19 50q0 30 -18.5 48.5t-48.5 18.5q-40 0 -56 -37l-75 19l43 250h242v-80h-178l-14 -83q24 12 56 12q64 0 104.5 -40t40.5 -102zM620 745h98l-333 -745h-98z
M922 234q63 -35 63 -101q0 -61 -47.5 -100.5t-118.5 -39.5t-118 39.5t-47 100.5q0 68 62 101q-48 30 -48 95q0 55 42.5 90t108.5 35q65 0 108 -35t43 -90q0 -62 -48 -95zM819 374q-24 0 -39 -14.5t-15 -37.5t15 -37t39 -14q23 0 38 14.5t15 36.5q0 23 -15 37.5t-38 14.5z
M819 73q31 0 50.5 16.5t19.5 42.5t-19.5 42.5t-50.5 16.5t-50 -16.5t-19 -42.5t19 -42.5t50 -16.5z" />
    <glyph glyph-name="seveneighths" unicode="&#x215e;" horiz-adv-x="987" 
d="M331 745v-81l-174 -367h-101l180 367h-212v81h307zM575 745h98l-333 -745h-98zM877 234q63 -35 63 -101q0 -61 -47.5 -100.5t-118.5 -39.5t-118 39.5t-47 100.5q0 68 62 101q-48 30 -48 95q0 55 42.5 90t108.5 35q65 0 108 -35t43 -90q0 -62 -48 -95zM774 374
q-24 0 -39 -14.5t-15 -37.5t15 -37t39 -14q23 0 38 14.5t15 36.5q0 23 -15 37.5t-38 14.5zM774 73q31 0 50.5 16.5t19.5 42.5t-19.5 42.5t-50.5 16.5t-50 -16.5t-19 -42.5t19 -42.5t50 -16.5z" />
    <glyph glyph-name="partialdiff" unicode="&#x2202;" horiz-adv-x="593" 
d="M198 818q166 0 273.5 -136.5t107.5 -348.5q0 -159 -74 -252t-208 -93q-122 0 -202.5 80.5t-80.5 201.5q0 120 82 200t204 80q58 0 118 -22q-20 83 -84.5 133t-147.5 50q-52 0 -108 -24l-14 105q56 26 134 26zM297 99q67 0 110 50t42 145q0 52 -5 106q-64 39 -137 39
q-80 0 -124 -44.5t-44 -125.5q0 -77 43.5 -123.5t114.5 -46.5z" />
    <glyph glyph-name="product" unicode="&#x220f;" horiz-adv-x="853" 
d="M203 0v634h-148v111h743v-111h-146v-634h-127v634h-195v-634h-127z" />
    <glyph glyph-name="summation" unicode="&#x2211;" horiz-adv-x="545" 
d="M44 0v84l186 289l-186 288v84h468v-107h-328l165 -265l-165 -265h328v-108h-468z" />
    <glyph glyph-name="minus" unicode="&#x2212;" horiz-adv-x="660" 
d="M108 309v106h445v-106h-445z" />
    <glyph glyph-name="uni2215" unicode="&#x2215;" horiz-adv-x="441" 
d="M-5 0l333 745h134l-333 -745h-134z" />
    <glyph glyph-name="uni2219" unicode="&#x2219;" horiz-adv-x="511" 
d="M257 183q-75 0 -126 51t-51 126q0 74 51 124.5t126 50.5q73 0 123.5 -50.5t50.5 -124.5q1 -75 -49.5 -126t-124.5 -51z" />
    <glyph glyph-name="radical" unicode="&#x221a;" horiz-adv-x="814" 
d="M234 0l-156 362h110l94 -216l247 599h208v-107h-138l-269 -638h-96z" />
    <glyph glyph-name="infinity" unicode="&#x221e;" horiz-adv-x="833" 
d="M279 178q-75 0 -128 53.5t-53 128.5q0 76 53 129t128 53q83 0 138 -63q52 63 137 63q75 0 128 -53.5t53 -128.5t-53 -128.5t-128 -53.5q-86 0 -137 64q-54 -64 -138 -64zM279 268q38 0 65.5 27t27.5 65t-27.5 65.5t-65.5 27.5t-65 -27.5t-27 -65.5t27.5 -65t64.5 -27z
M554 268q38 0 65 27t27 65t-27.5 65.5t-64.5 27.5q-38 0 -65.5 -27.5t-27.5 -65.5t27.5 -65t65.5 -27z" />
    <glyph glyph-name="integral" unicode="&#x222b;" horiz-adv-x="422" 
d="M68 -200q-28 0 -51 5v104q19 -3 38 -3q43 0 67 21.5t24 62.5v577q0 90 53.5 140t144.5 50q28 0 50 -5v-104q-18 3 -37 3q-43 0 -67 -21.5t-24 -62.5v-577q0 -90 -53.5 -140t-144.5 -50z" />
    <glyph glyph-name="approxequal" unicode="&#x2248;" horiz-adv-x="713" 
d="M108 394v100q56 62 152 62q49 0 105.5 -29t97.5 -29q83 0 143 59v-99q-56 -63 -146 -63q-51 0 -109 29t-100 29q-85 0 -143 -59zM108 166v99q57 63 152 63q49 0 105.5 -29t97.5 -29q84 0 143 59v-100q-55 -62 -146 -62q-51 0 -109 29t-100 29q-84 0 -143 -59z" />
    <glyph glyph-name="notequal" unicode="&#x2260;" horiz-adv-x="641" 
d="M534 429h-142l-36 -134h178v-106h-206l-27 -100h-101l27 100h-119v106h147l36 134h-183v106h211l27 100h101l-27 -100h114v-106z" />
    <glyph glyph-name="lessequal" unicode="&#x2264;" horiz-adv-x="611" 
d="M530 189l-450 210v118l450 210v-124l-301 -145l301 -144v-125zM57 0v101h497v-101h-497z" />
    <glyph glyph-name="greaterequal" unicode="&#x2265;" horiz-adv-x="591" 
d="M80 189v125l301 144l-301 145v124l451 -210v-118zM57 0v101h497v-101h-497z" />
    <glyph glyph-name="lozenge" unicode="&#x25ca;" horiz-adv-x="661" 
d="M606 373l-231 -373h-89l-231 373l231 372h89zM331 120l158 253l-158 252l-159 -252z" />
    <glyph glyph-name="uniF8FF" unicode="&#xf8ff;" horiz-adv-x="600" 
d="M50 400v100h100v-2l-98 -98h-2zM250 400v100h100v-100h-100zM50 200v100h100v-100h-100zM250 200v100h100v-100h-100zM450 200v100h100v-100h-100zM250 0v100h100v-100h-100z" />
    <glyph glyph-name="A.ss02" horiz-adv-x="734" 
d="M447 745l262 -745h-134l-56 164h-304l-55 -164h-134l224 638h-123v107h320zM252 275h230l-114 341z" />
    <glyph glyph-name="E.ss02" horiz-adv-x="694" 
d="M188 0v638h-120v107h579v-107h-329v-211h309v-108h-309v-211h329v-108h-459z" />
    <glyph glyph-name="F.ss02" horiz-adv-x="674" 
d="M188 0v638h-120v107h579v-107h-329v-224h290v-107h-290v-307h-130z" />
    <glyph glyph-name="G.ss02" horiz-adv-x="790" 
d="M392 404h360v-404h-113l1 87q-83 -99 -226 -99q-158 0 -264.5 111t-106.5 276q0 162 105.5 272t265.5 110q110 0 195 -54.5t117 -139.5l-113 -54q-24 63 -76.5 98.5t-122.5 35.5q-107 0 -176 -76.5t-69 -192.5q0 -121 70 -196.5t180 -75.5q93 0 155.5 52t63.5 142h-246
v108z" />
    <glyph glyph-name="G.ss03" horiz-adv-x="806" 
d="M769 361q0 -94 -29 -167.5t-79.5 -117.5t-112 -66t-130.5 -22q-163 0 -269 109t-106 276q0 166 105 275t266 109q113 0 197 -56t114 -138l-112 -54q-24 61 -76 97.5t-123 36.5q-109 0 -177 -75t-68 -195q0 -121 68.5 -196t180.5 -75q88 0 150 50t66 151h-243v107h378v-49
z" />
    <glyph glyph-name="I.ss02" horiz-adv-x="462" 
d="M45 0v111h121v523h-121v111h371v-111h-120v-523h120v-111h-371z" />
    <glyph glyph-name="J.ss03" horiz-adv-x="590" 
d="M275 -12q-105 0 -172 58t-85 157l118 33q28 -134 139 -134q55 0 88 34.5t33 93.5v515h126v-515q0 -109 -67.5 -175.5t-179.5 -66.5z" />
    <glyph glyph-name="K.ss03" horiz-adv-x="703" 
d="M662 102h33v-108h-33q-88 0 -136 32.5t-103 127.5l-127 216l-102 -118v-252h-126v745h126v-318l275 318h147l-236 -276l166 -279q29 -50 53.5 -69t62.5 -19z" />
    <glyph glyph-name="Q.ss03" horiz-adv-x="871" 
d="M492 -7q9 -42 42.5 -66.5t82.5 -24.5h156v-107h-156q-103 0 -169.5 53.5t-76.5 143.5q-144 20 -236.5 125.5t-92.5 255.5q0 165 111 274.5t276 109.5t275.5 -109.5t110.5 -274.5q0 -148 -91 -253.5t-232 -126.5zM169 373q0 -116 74 -192.5t186 -76.5t186 76.5t74 192.5
q0 115 -74 191.5t-186 76.5t-186 -76.5t-74 -191.5z" />
    <glyph glyph-name="R.ss03" horiz-adv-x="688" 
d="M535 335q41 -17 58.5 -51t17.5 -95v-189h-130v197q0 81 -78 81h-209v-278h-126v745h287q116 0 188 -62.5t72 -171.5q0 -112 -80 -176zM355 388q59 0 95.5 34t36.5 89t-36.5 89t-95.5 34h-161v-246h161z" />
    <glyph glyph-name="U.ss01" horiz-adv-x="685" 
d="M68 0v745h126v-634h297v634h127v-745h-550z" />
    <glyph glyph-name="a.ss01" horiz-adv-x="555" 
d="M90 539h407v-539h-113v60q-60 -72 -160 -72q-89 0 -142.5 45t-53.5 115q0 119 172 157l177 38v88h-287v108zM238 83q60 0 99.5 38.5t39.5 95.5v35l-153 -34q-34 -7 -52.5 -25.5t-18.5 -43.5q0 -31 23 -48.5t62 -17.5z" />
    <glyph glyph-name="a.ss02" horiz-adv-x="593" 
d="M497 101h79v-101h-192v60q-60 -72 -160 -72q-89 0 -142.5 45t-53.5 115q0 119 172 157l177 38v17q0 37 -28 60t-73 23q-43 0 -76 -22t-48 -61l-104 52q23 62 85.5 100.5t142.5 38.5q98 0 159.5 -53.5t61.5 -137.5v-259zM238 83q60 0 99.5 38.5t39.5 95.5v35l-153 -34
q-34 -7 -52.5 -25.5t-18.5 -43.5q0 -31 23 -48.5t62 -17.5z" />
    <glyph glyph-name="f.ss01" horiz-adv-x="364" 
d="M105 0v431h-97v108h97v206h245v-99h-125v-107h125v-108h-125v-431h-120z" />
    <glyph glyph-name="g.ss03" horiz-adv-x="635" 
d="M464 539h114v-532q0 -100 -73.5 -164.5t-187.5 -64.5h-189v108h189q62 0 101.5 33.5t39.5 88.5v85q-60 -66 -164 -66q-111 0 -188.5 74.5t-77.5 188.5q0 115 77 188t187 73q111 0 172 -77v65zM306 138q67 0 109.5 42.5t42.5 108.5t-43.5 108.5t-109.5 42.5
q-65 0 -108.5 -42t-43.5 -109t43 -109t110 -42z" />
    <glyph glyph-name="h.ss01" horiz-adv-x="557" 
d="M58 0v745h120v-206h332v-539h-120v440h-212v-440h-120z" />
    <glyph glyph-name="i.ss02" horiz-adv-x="271" 
d="M97 610v135h120v-135h-120zM97 0v431h-83v108h203v-539h-120z" />
    <glyph glyph-name="j.ss01" horiz-adv-x="224" 
d="M67 610v135h120v-135h-120zM-65 -221v105h132v655h120v-760h-252z" />
    <glyph glyph-name="k.ss01" horiz-adv-x="535" 
d="M58 0v745h120v-377h63l152 171h144l-197 -229l197 -310h-139l-160 263h-60v-263h-120z" />
    <glyph glyph-name="l.ss01" horiz-adv-x="303" 
d="M58 0v745h120v-637h107v-108h-227z" />
    <glyph glyph-name="m.ss02" horiz-adv-x="889" 
d="M58 0v539h783v-539h-120v433h-212v-433h-120v433h-211v-433h-120z" />
    <glyph glyph-name="m.ss03" horiz-adv-x="889" 
d="M58 0v539h557q103 0 164.5 -55.5t61.5 -146.5v-337h-120v323q0 51 -28.5 80.5t-77.5 29.5h-106v-433h-120v433h-211v-433h-120z" />
    <glyph glyph-name="n.ss01" horiz-adv-x="567" 
d="M58 0v539h452v-539h-120v433h-212v-433h-120z" />
    <glyph glyph-name="n.ss03" horiz-adv-x="557" 
d="M58 0v539h226q103 0 164.5 -55.5t61.5 -146.5v-337h-120v323q0 51 -29 80.5t-77 29.5h-106v-433h-120z" />
    <glyph glyph-name="p.ss02" horiz-adv-x="689" 
d="M388 551q115 0 194 -81.5t79 -200.5t-78 -200t-195 -81q-107 0 -170 68v-256h-120v631h-80v108h193v-68q28 38 75 59t102 21zM376 99q70 0 115 48t45 122t-45 122.5t-115 48.5q-69 0 -113.5 -48.5t-44.5 -122.5t44 -122t114 -48z" />
    <glyph glyph-name="q.ss02" horiz-adv-x="689" 
d="M478 539h193v-108h-80v-630h-120v255q-63 -68 -170 -68q-117 0 -195 81t-78 200q0 120 79 201t193 81q56 0 103 -21t75 -59v68zM313 99q70 0 114 48t44 122t-44.5 122.5t-113.5 48.5q-70 0 -115 -48.5t-45 -122.5t45 -122t115 -48z" />
    <glyph glyph-name="r.ss01" horiz-adv-x="384" 
d="M58 0v539h309v-108h-189v-431h-120z" />
    <glyph glyph-name="r.ss02" horiz-adv-x="446" 
d="M378 545h51v-108h-65q-57 0 -91 -35.5t-34 -97.5v-203h102v-101h-323v101h101v336h-101v102h215v-76q38 82 145 82z" />
    <glyph glyph-name="t.ss01" horiz-adv-x="419" 
d="M143 0v431h-129v108h129v167h120v-167h128v-108h-128v-323h128v-108h-248z" />
    <glyph glyph-name="u.ss01" horiz-adv-x="557" 
d="M48 0v539h120v-431h212v431h120v-539h-452z" />
    <glyph glyph-name="u.ss03" horiz-adv-x="557" 
d="M274 -12q-101 0 -163.5 59.5t-62.5 153.5v338h120v-323q0 -54 29 -85.5t77 -31.5t77 31.5t29 85.5v323h120v-338q0 -94 -62.5 -153.5t-163.5 -59.5z" />
    <glyph glyph-name="y.ss01" horiz-adv-x="540" 
d="M415 539h132l-303 -760h-242v107h160l46 116l-214 537h132l145 -382z" />
    <glyph glyph-name="y.ss02" horiz-adv-x="567" 
d="M429 539h131l-303 -760h-124l88 223l-213 537h131l145 -381z" />
    <glyph glyph-name="zero.tf" horiz-adv-x="600" 
d="M301 -12q-129 0 -209 106.5t-80 278.5q0 173 79.5 279t208.5 106q130 0 209 -106t79 -279t-79 -279t-208 -106zM301 104q75 0 119 72.5t44 196.5t-44 196.5t-120 72.5t-119.5 -72t-43.5 -197q0 -124 44 -196.5t120 -72.5z" />
    <glyph glyph-name="one.ss01" horiz-adv-x="425" 
d="M164 0v632l-140 -50v112l150 51h117v-745h-127z" />
    <glyph glyph-name="one.ss01.tf" horiz-adv-x="600" 
d="M361 108h198v-108h-518v108h195v525l-134 -50v112l144 51h115v-638z" />
    <glyph glyph-name="one.tf" horiz-adv-x="600" 
d="M364 108h195v-108h-518v108h195v530h-145v107l273 1v-638z" />
    <glyph glyph-name="two.tf" horiz-adv-x="600" 
d="M44 0l-1 94l206 211q95 97 126.5 142.5t31.5 89.5q0 50 -31 78.5t-85 28.5q-53 0 -92 -27.5t-57 -77.5l-100 55q26 76 95 120t161 44q104 0 170 -58t66 -151q0 -61 -36 -120.5t-111 -135.5l-180 -185h340v-108h-503z" />
    <glyph glyph-name="three.tf" horiz-adv-x="600" 
d="M366 462q83 -14 134.5 -75t51.5 -149q0 -108 -75.5 -179t-189.5 -71q-89 0 -156.5 44t-95.5 120l100 55q19 -50 58.5 -77.5t93.5 -27.5q62 0 100.5 36.5t38.5 96.5q0 59 -38.5 95t-101.5 36q-40 0 -73 -13l-25 63l193 222l-312 1v107h454v-101z" />
    <glyph glyph-name="four.tf" horiz-adv-x="600" 
d="M591 272v-106h-111v-166h-122v166h-346v106l340 474h128v-474h111zM136 272h222v318z" />
    <glyph glyph-name="five.tf" horiz-adv-x="600" 
d="M308 485q108 0 177 -67.5t69 -172.5q0 -112 -75 -184.5t-190 -72.5q-89 0 -159 44.5t-97 119.5l99 55q19 -48 62 -76.5t95 -28.5q61 0 99.5 38t38.5 99t-38.5 99t-100.5 38q-83 0 -115 -66l-95 23l59 413h394v-107l-306 1l-26 -184q43 29 109 29z" />
    <glyph glyph-name="six.tf" horiz-adv-x="600" 
d="M318 473q101 0 170.5 -71.5t69.5 -170.5q0 -104 -73.5 -173.5t-184.5 -69.5q-112 0 -185 70t-73 177q0 95 80 203l225 308h143l-203 -276q15 3 31 3zM300 102q55 0 93 37.5t38 94.5q0 58 -37.5 95t-93.5 37t-93.5 -37t-37.5 -95q0 -57 38 -94.5t93 -37.5z" />
    <glyph glyph-name="seven.tf" horiz-adv-x="600" 
d="M96 0l329 640h-376v107h504v-107l-323 -640h-134z" />
    <glyph glyph-name="eight.tf" horiz-adv-x="600" 
d="M450 400q114 -60 114 -181q0 -99 -75.5 -165t-189.5 -66q-113 0 -188 66t-75 165q0 123 113 180q-39 25 -61.5 67t-22.5 91q0 87 66.5 144t167.5 57t167.5 -56.5t66.5 -144.5q0 -48 -22 -90t-61 -67zM299 651q-46 0 -76 -29t-30 -73t29.5 -72t76.5 -28t76.5 28t29.5 72
t-30 73t-76 29zM299 96q61 0 99.5 34t38.5 88t-38.5 88.5t-99.5 34.5t-98.5 -34.5t-37.5 -88.5t38 -88t98 -34z" />
    <glyph glyph-name="nine.tf" horiz-adv-x="600" 
d="M300 758q112 0 185 -70t73 -177q0 -95 -80 -203l-224 -308h-143l202 276q-15 -3 -30 -3q-101 0 -171 72t-70 170q0 104 73.5 173.5t184.5 69.5zM300 380q56 0 93.5 37.5t37.5 94.5t-38 94.5t-93 37.5t-93 -37.5t-38 -94.5t38 -94.5t93 -37.5z" />
    <glyph glyph-name="zero.dnom" horiz-adv-x="453" 
d="M227 -7q-82 0 -132 63.5t-50 167.5q0 103 50 166.5t131 63.5q82 0 132 -63.5t50 -166.5t-50 -167t-131 -64zM227 79q40 0 62.5 38.5t22.5 106.5t-22.5 106t-63.5 38t-63.5 -38t-22.5 -106t23 -106.5t64 -38.5z" />
    <glyph glyph-name="one.dnom" horiz-adv-x="338" 
d="M108 0v366h-84v80l180 1v-447h-96z" />
    <glyph glyph-name="two.dnom" horiz-adv-x="388" 
d="M36 0l-1 75l120 123q51 52 67.5 75t16.5 44q0 23 -14.5 37t-38.5 14q-26 0 -45.5 -15t-27.5 -40l-75 44q15 45 56.5 71t97.5 26q63 0 103 -34.5t40 -90.5q0 -35 -19 -67.5t-59 -75.5l-104 -106h187v-80h-304z" />
    <glyph glyph-name="three.dnom" horiz-adv-x="400" 
d="M248 277q48 -8 76.5 -42.5t28.5 -85.5q0 -67 -47.5 -111.5t-118.5 -44.5q-54 0 -95 26.5t-58 70.5l76 44q21 -55 77 -55q32 0 51 18t19 48t-18.5 47t-51.5 17q-28 0 -52 -12l-22 47l115 122l-173 1v80h280v-73z" />
    <glyph glyph-name="four.dnom" horiz-adv-x="439" 
d="M407 176v-81h-75v-95h-96v95h-202v81l195 271h103v-271h75zM127 176h109v155z" />
    <glyph glyph-name="five.dnom" horiz-adv-x="399" 
d="M207 296q64 0 104.5 -40t40.5 -102q0 -69 -46.5 -115t-116.5 -46q-54 0 -96.5 26.5t-58.5 70.5l76 44q10 -25 31 -40t48 -15q29 0 48 19t19 50q0 30 -18.5 48.5t-48.5 18.5q-40 0 -56 -37l-75 19l43 250h242v-80h-178l-14 -83q24 12 56 12z" />
    <glyph glyph-name="six.dnom" horiz-adv-x="396" 
d="M218 287q60 -1 100.5 -44t40.5 -101q0 -64 -45.5 -106.5t-115.5 -42.5q-69 0 -114.5 42.5t-45.5 105.5q0 48 44 109l139 197h109zM198 79q27 0 45.5 18.5t18.5 47.5t-18.5 46.5t-45.5 17.5t-45.5 -17.5t-18.5 -46.5t19 -47.5t45 -18.5z" />
    <glyph glyph-name="seven.dnom" horiz-adv-x="354" 
d="M56 0l180 367h-212v81h307v-81l-174 -367h-101z" />
    <glyph glyph-name="eight.dnom" horiz-adv-x="426" 
d="M316 234q63 -35 63 -101q0 -61 -47.5 -100.5t-118.5 -39.5t-118 39.5t-47 100.5q0 68 62 101q-48 30 -48 95q0 55 42.5 90t108.5 35q65 0 108 -35t43 -90q0 -62 -48 -95zM213 374q-24 0 -39 -14.5t-15 -37.5t15 -37t39 -14q23 0 38 14.5t15 36.5q0 23 -15 37.5t-38 14.5z
M213 73q31 0 50.5 16.5t19.5 42.5t-19.5 42.5t-50.5 16.5t-50 -16.5t-19 -42.5t19 -42.5t50 -16.5z" />
    <glyph glyph-name="nine.dnom" horiz-adv-x="396" 
d="M198 454q70 0 115.5 -42.5t45.5 -105.5q0 -45 -45 -109l-139 -197h-108l112 160q-61 1 -101 43.5t-40 101.5q0 64 45.5 106.5t114.5 42.5zM198 238q27 0 45.5 17.5t18.5 46.5t-18.5 47.5t-45.5 18.5q-26 0 -45 -18.5t-19 -47.5t18.5 -46.5t45.5 -17.5z" />
    <glyph glyph-name="zero.numr" horiz-adv-x="453" 
d="M227 291q-82 0 -132 63.5t-50 167.5q0 103 50 166.5t131 63.5q82 0 132 -63.5t50 -166.5t-50 -167t-131 -64zM227 377q40 0 62.5 38.5t22.5 106.5t-22.5 106t-63.5 38t-63.5 -38t-22.5 -106t23 -106.5t64 -38.5z" />
    <glyph glyph-name="one.numr" horiz-adv-x="338" 
d="M108 298v366h-84v80l180 1v-447h-96z" />
    <glyph glyph-name="two.numr" horiz-adv-x="388" 
d="M36 298l-1 75l120 123q51 52 67.5 75t16.5 44q0 23 -14.5 37t-38.5 14q-26 0 -45.5 -15t-27.5 -40l-75 44q15 45 56.5 71t97.5 26q63 0 103 -34.5t40 -90.5q0 -35 -19 -67.5t-59 -75.5l-104 -106h187v-80h-304z" />
    <glyph glyph-name="three.numr" horiz-adv-x="400" 
d="M248 575q48 -8 76.5 -42.5t28.5 -85.5q0 -67 -47.5 -111.5t-118.5 -44.5q-54 0 -95 26.5t-58 70.5l76 44q21 -55 77 -55q32 0 51 18t19 48t-18.5 47t-51.5 17q-28 0 -52 -12l-22 47l115 122l-173 1v80h280v-73z" />
    <glyph glyph-name="four.numr" horiz-adv-x="439" 
d="M407 474v-81h-75v-95h-96v95h-202v81l195 271h103v-271h75zM127 474h109v155z" />
    <glyph glyph-name="five.numr" horiz-adv-x="399" 
d="M207 594q64 0 104.5 -40t40.5 -102q0 -69 -46.5 -115t-116.5 -46q-54 0 -96.5 26.5t-58.5 70.5l76 44q10 -25 31 -40t48 -15q29 0 48 19t19 50q0 30 -18.5 48.5t-48.5 18.5q-40 0 -56 -37l-75 19l43 250h242v-80h-178l-14 -83q24 12 56 12z" />
    <glyph glyph-name="six.numr" horiz-adv-x="396" 
d="M218 585q60 -1 100.5 -44t40.5 -101q0 -64 -45.5 -106.5t-115.5 -42.5q-69 0 -114.5 42.5t-45.5 105.5q0 48 44 109l139 197h109zM198 377q27 0 45.5 18.5t18.5 47.5t-18.5 46.5t-45.5 17.5t-45.5 -17.5t-18.5 -46.5t19 -47.5t45 -18.5z" />
    <glyph glyph-name="seven.numr" horiz-adv-x="354" 
d="M56 297l180 367h-212v81h307v-81l-174 -367h-101z" />
    <glyph glyph-name="eight.numr" horiz-adv-x="426" 
d="M316 532q63 -35 63 -101q0 -61 -47.5 -100.5t-118.5 -39.5t-118 39.5t-47 100.5q0 68 62 101q-48 30 -48 95q0 55 42.5 90t108.5 35q65 0 108 -35t43 -90q0 -62 -48 -95zM213 672q-24 0 -39 -14.5t-15 -37.5t15 -37t39 -14q23 0 38 14.5t15 36.5q0 23 -15 37.5t-38 14.5z
M213 371q31 0 50.5 16.5t19.5 42.5t-19.5 42.5t-50.5 16.5t-50 -16.5t-19 -42.5t19 -42.5t50 -16.5z" />
    <glyph glyph-name="nine.numr" horiz-adv-x="396" 
d="M198 752q70 0 115.5 -42.5t45.5 -105.5q0 -45 -45 -109l-139 -197h-108l112 160q-61 1 -101 43.5t-40 101.5q0 64 45.5 106.5t114.5 42.5zM198 536q27 0 45.5 17.5t18.5 46.5t-18.5 47.5t-45.5 18.5q-26 0 -45 -18.5t-19 -47.5t18.5 -46.5t45.5 -17.5z" />
    <glyph glyph-name="uni030C.alt" 
d="M-129 481l-24 264h133l-24 -264h-85z" />
    <glyph glyph-name="uni0335.alt" 
d="M-349 272v103h329v-103h-329z" />
    </font>
</defs>
</svg>
