<svg width="49" height="50" viewBox="0 0 49 50" fill="none" xmlns="http://www.w3.org/2000/svg">
    <path
        d="M24.615 0C10.817 0 0.691406 6.88088 0.691406 6.88088C0.691406 20.3393 7.1504 31.2007 13.3563 38.5311C16.0261 36.4928 18.3261 34.4395 20.2988 32.4231C16.0686 27.4134 11.7217 20.5185 10.3295 12.2921C13.7192 10.8614 18.7671 9.29465 24.614 9.29465C30.4234 9.29465 35.4841 10.8684 38.8966 12.3071C37.087 22.9713 30.3146 31.398 25.2706 36.3747C23.1061 38.6373 20.5974 40.9309 17.6922 43.1905C21.5892 47.0078 24.614 49.0682 24.614 49.0682C24.614 49.0682 48.5376 32.7816 48.5376 6.87988C48.5386 6.88089 38.413 0 24.615 0Z"
        fill="#2277F7" />
</svg>