<svg width="145" height="45" viewBox="0 0 145 45" fill="none" xmlns="http://www.w3.org/2000/svg">
<g clip-path="url(#clip0_842_14590)">
<path d="M48.4844 23.844V8.86157H49.9172C50.4773 8.86157 51.0145 9.08407 51.4105 9.48012C51.8066 9.87618 52.0291 10.4133 52.0291 10.9734V17.6361C54.3247 15.5865 56.2809 14.7673 58.8818 14.7144C63.8655 14.6116 68.2263 18.3214 68.625 23.2989C69.1172 29.2483 64.7906 33.7244 59.1559 33.7244C52.9729 33.7244 48.4844 29.8869 48.4844 23.844ZM51.973 25.0215C52.3219 28.1176 55.281 30.6749 58.399 30.7248C62.4483 30.7871 65.2298 28.1394 65.2298 24.2178C65.2298 20.2962 62.5261 17.7078 58.5734 17.7078C54.3528 17.7078 51.4933 20.7759 51.973 25.0215ZM74.5495 15.0913V17.7607C76.7797 15.2688 78.1067 14.6178 80.7169 14.6178C81.4775 14.619 82.2368 14.6804 82.9876 14.8016V18.3463C82.1861 18.1253 81.3583 18.0142 80.5269 18.0161C78.6362 18.0161 77.0476 18.6391 75.8733 19.8072C74.8516 20.832 74.5495 21.6356 74.5495 23.2335V33.1045H70.8802V15.0913H74.5495ZM83.8567 21.0469C84.0467 19.2932 84.3862 18.3432 85.1431 17.4274C86.6569 15.5585 89.3824 14.6241 93.2417 14.6241C96.3068 14.6241 98.537 15.1006 100.094 16.1223C101.381 16.9633 101.91 18.2061 101.91 20.399V28.4042C101.91 30.1579 102.365 30.7808 103.614 30.7434C103.893 30.7334 104.17 30.7085 104.446 30.6687V33.0827C103.825 33.2956 103.171 33.3948 102.515 33.3755C100.207 33.3755 99.1475 32.6809 98.4311 30.6718C96.1604 32.7556 93.8149 33.634 90.4477 33.634C85.9468 33.634 83.1839 31.5876 83.1839 28.2609C83.1741 27.332 83.438 26.4209 83.9426 25.641C84.4472 24.8611 85.1702 24.2469 86.0215 23.8752C87.3827 23.2896 88.2019 23.1089 92.1142 22.704C95.444 22.3738 96.0109 22.3022 96.9578 22.0094C97.9795 21.6792 98.4342 21.1341 98.4342 20.2183C98.4342 18.2809 96.8083 17.415 93.4006 17.415C90.1798 17.415 88.5227 18.0379 87.8562 19.6826C87.6971 20.0912 87.4184 20.4423 87.0567 20.6902C86.6949 20.938 86.2669 21.071 85.8284 21.0718L83.8567 21.0469ZM98.4249 24.1244C96.0875 24.8045 93.6871 25.2459 91.2607 25.442C87.9683 25.7721 86.9466 26.3764 86.9466 28.0366C86.9466 29.8651 88.4604 30.8151 91.4476 30.8151C93.9083 30.8151 95.7617 30.1921 97.0855 28.9867C98.1445 27.9993 98.4093 27.3046 98.4093 25.5852L98.4249 24.1244ZM113.323 33.1076H112.389C111.98 33.1087 111.58 32.9952 111.233 32.7798C110.886 32.5645 110.607 32.2561 110.426 31.8897L102.477 15.0913H104.683C105.311 15.0864 105.927 15.2643 106.457 15.6033C106.986 15.9423 107.405 16.4278 107.664 17.0007L112.959 29.0926L118.425 16.9602C118.689 16.3968 119.109 15.9211 119.635 15.5897C120.161 15.2583 120.772 15.0853 121.394 15.0913H123.397L115.276 31.9115C115.094 32.2724 114.814 32.5754 114.469 32.7866C114.125 32.9979 113.728 33.109 113.323 33.1076ZM125.885 25.1398C126.262 28.6129 129 30.7684 133.05 30.7684C135.348 30.7684 137.062 30.0862 138.142 28.7188C138.449 28.3308 138.84 28.0172 139.285 27.8014C139.73 27.5857 140.218 27.4734 140.712 27.4728H142.846C140.977 31.5689 137.663 33.578 132.707 33.578C126.502 33.578 122.341 29.8121 122.341 24.1836C122.341 18.555 126.617 14.6054 132.785 14.6054C137.248 14.6054 140.843 16.6145 142.282 19.9785C142.924 21.5141 143.192 22.9033 143.192 25.1305L125.885 25.1398ZM139.429 22.3614C138.597 19.1811 136.136 17.3776 132.732 17.3776C129.327 17.3776 126.867 19.1686 125.998 22.3614H139.429Z" fill="white"/>
<path d="M36.4383 14.4351L35.2426 11.1878L36.0741 9.3236C36.1264 9.206 36.1419 9.07536 36.1186 8.9488C36.0953 8.82224 36.0344 8.70566 35.9437 8.61434L33.6828 6.32896C33.1974 5.83648 32.5822 5.49199 31.9086 5.33564C31.2351 5.17928 30.531 5.21748 29.8783 5.44579L29.2452 5.6659L25.7913 1.92397L19.9325 1.89136H19.8944L13.9975 1.93755L10.5464 5.70938L9.93222 5.49199C9.27532 5.26098 8.56616 5.22213 7.88796 5.38001C7.20976 5.53789 6.59066 5.88594 6.10332 6.38331L3.80164 8.71217C3.7294 8.78496 3.68088 8.87791 3.66245 8.97879C3.64402 9.07967 3.65655 9.18377 3.69838 9.2774L4.56525 11.2122L3.375 14.4569L4.14404 17.3836L7.65228 30.7208C8.05644 32.2572 8.98625 33.6034 10.2801 34.5253C10.2801 34.5253 14.5383 37.5281 18.7395 40.2564C19.0717 40.5216 19.4842 40.6661 19.9094 40.6661C20.3345 40.6661 20.747 40.5216 21.0792 40.2564C25.7994 37.1639 29.5332 34.5144 29.5332 34.5144C30.826 33.5921 31.7548 32.246 32.1583 30.71L35.6475 17.3673L36.4383 14.4351Z" fill="white"/>
<path d="M20.874 25.927C20.6504 25.8269 20.4197 25.7433 20.1838 25.677H19.768C19.5321 25.7433 19.3014 25.8269 19.0778 25.927L18.0316 26.3618C17.7 26.5004 17.1674 26.7477 16.8495 26.9053L14.9255 27.908C14.8558 27.9306 14.7945 27.9736 14.7495 28.0313C14.7044 28.0891 14.6777 28.159 14.6727 28.2321C14.6678 28.3052 14.6848 28.3781 14.7216 28.4414C14.7584 28.5047 14.8134 28.5556 14.8793 28.5874L16.5506 29.7668C16.844 29.9733 17.306 30.3374 17.5778 30.582L18.0479 30.9869C18.3196 31.2206 18.7626 31.6092 19.0316 31.8483L19.4773 32.2424C19.615 32.3571 19.7885 32.4199 19.9678 32.4199C20.147 32.4199 20.3206 32.3571 20.4583 32.2424L20.9257 31.8348L21.9094 30.976L22.3822 30.563C22.654 30.3266 23.1132 29.9624 23.4067 29.7477L25.0779 28.5521C25.144 28.5203 25.199 28.4694 25.2357 28.4058C25.2724 28.3423 25.289 28.2692 25.2834 28.1961C25.2778 28.123 25.2503 28.0532 25.2044 27.996C25.1586 27.9388 25.0965 27.8968 25.0263 27.8754L23.1051 26.8999C22.7844 26.7368 22.2518 26.4922 21.9175 26.3564L20.874 25.927Z" fill="#17181B"/>
<path d="M32.7251 15.1607L32.7795 14.9868C32.7827 14.7541 32.7682 14.5216 32.736 14.2911C32.5742 13.8795 32.3664 13.4875 32.1164 13.1226L31.0294 11.5275C30.8283 11.2285 30.486 10.7557 30.255 10.4758L28.7984 8.6524C28.6656 8.47468 28.5212 8.30584 28.3663 8.14695H28.3364C28.3364 8.14695 28.043 8.19858 27.6897 8.26652L25.4641 8.69588L24.4885 8.88338C24.1646 8.8986 23.8409 8.85156 23.5347 8.74479L21.7765 8.17684C21.4341 8.06543 20.8689 7.9051 20.5183 7.82901C20.1489 7.78974 19.7763 7.78974 19.4069 7.82901C19.0563 7.91053 18.4911 8.06815 18.1487 8.17956L16.3905 8.75023C16.0844 8.85699 15.7606 8.90404 15.4367 8.88882L14.4611 8.70403L12.2328 8.27739C11.8795 8.20945 11.5888 8.15511 11.586 8.15782H11.5562C11.4013 8.31671 11.2569 8.48555 11.1241 8.66327L9.67024 10.4867C9.44741 10.7584 9.09686 11.2421 8.89576 11.5383L7.80878 13.1335C7.62105 13.4086 7.44956 13.6944 7.29518 13.9895C7.20206 14.3185 7.15272 14.6584 7.14844 15.0004L7.20279 15.1743C7.22895 15.286 7.26254 15.3959 7.30333 15.5031C7.52888 15.7749 7.91476 16.226 8.16205 16.4895L11.9665 20.5331C12.0928 20.6806 12.1773 20.8591 12.2112 21.0503C12.2452 21.2414 12.2273 21.4382 12.1594 21.6201L11.5371 23.0957C11.3956 23.4866 11.3851 23.913 11.5072 24.3104L11.6322 24.6528C11.8365 25.2089 12.1866 25.6998 12.6459 26.074L13.2437 26.5604C13.399 26.6725 13.5802 26.7432 13.7703 26.766C13.9605 26.7888 14.1533 26.763 14.3307 26.6909L16.4557 25.6773C16.8458 25.482 17.2108 25.2402 17.5427 24.9571L19.2438 23.4218C19.3116 23.3606 19.3664 23.2864 19.405 23.2037C19.4435 23.121 19.4651 23.0313 19.4684 22.9401C19.4717 22.8489 19.4566 22.7579 19.4241 22.6726C19.3916 22.5873 19.3423 22.5094 19.2792 22.4435L15.4394 19.8565C15.294 19.7533 15.1905 19.6014 15.1476 19.4284C15.1047 19.2553 15.1253 19.0726 15.2057 18.9135L16.6949 16.1145C16.7795 15.9432 16.8296 15.7568 16.8422 15.5661C16.8548 15.3754 16.8297 15.1841 16.7682 15.0031C16.5833 14.6579 16.2847 14.3871 15.9231 14.2368L11.2545 12.4731C10.9175 12.3454 10.9366 12.2014 11.2926 12.1797L14.0345 11.9079C14.4644 11.8806 14.8961 11.9191 15.3144 12.022L17.7003 12.6878C17.8697 12.7389 18.0148 12.8496 18.1088 12.9995C18.2027 13.1495 18.2391 13.3284 18.2112 13.5031L17.2737 18.6227C17.211 18.9063 17.1954 19.1983 17.2275 19.4869C17.2655 19.6092 17.5862 19.7586 17.9367 19.8456L19.3906 20.1554C19.8128 20.233 20.2456 20.233 20.6678 20.1554L21.9749 19.8592C22.3254 19.7804 22.6434 19.6146 22.6841 19.4923C22.7154 19.2036 22.6989 18.9116 22.6352 18.6282L21.6923 13.5085C21.6643 13.3338 21.7007 13.1549 21.7947 13.005C21.8886 12.8551 22.0338 12.7443 22.2031 12.6933L24.5891 12.0248C25.0074 11.9217 25.439 11.8832 25.869 11.9106L28.6109 12.1661C28.9696 12.1987 28.9859 12.3318 28.6517 12.4596L23.9858 14.2286C23.6242 14.379 23.3256 14.6497 23.1407 14.9949C23.0169 15.3605 23.0433 15.7603 23.214 16.1064L24.7059 18.9054C24.7863 19.0645 24.8069 19.2472 24.764 19.4202C24.7212 19.5932 24.6176 19.7452 24.4722 19.8483L20.6352 22.4408C20.572 22.5067 20.5227 22.5846 20.4902 22.6699C20.4577 22.7552 20.4426 22.8462 20.4459 22.9374C20.4492 23.0286 20.4708 23.1183 20.5094 23.201C20.5479 23.2837 20.6027 23.3579 20.6705 23.4191L22.3743 24.9544C22.7064 25.2365 23.0714 25.4774 23.4613 25.6718L25.5864 26.6827C25.764 26.7544 25.9569 26.7798 26.1471 26.7566C26.3372 26.7333 26.5183 26.662 26.6734 26.5496L27.2712 26.0604C27.731 25.6855 28.0811 25.1936 28.2848 24.6365L28.4098 24.2941C28.5319 23.8967 28.5214 23.4703 28.3799 23.0794L27.7549 21.6038C27.6871 21.4219 27.6692 21.2251 27.7031 21.034C27.737 20.8428 27.8215 20.6643 27.9478 20.5168L31.7523 16.4678C31.9996 16.1961 32.3827 15.7613 32.6083 15.4814C32.6543 15.3772 32.6933 15.2701 32.7251 15.1607Z" fill="#17181B"/>
<path d="M144.879 15.3156C144.887 15.6199 144.804 15.9198 144.64 16.1767C144.477 16.4336 144.241 16.6359 143.962 16.7577C143.683 16.8795 143.374 16.9153 143.074 16.8604C142.775 16.8056 142.498 16.6626 142.281 16.4497C142.063 16.2369 141.914 15.964 141.852 15.6658C141.79 15.3677 141.819 15.0579 141.935 14.7762C142.05 14.4945 142.247 14.2536 142.5 14.0845C142.753 13.9153 143.051 13.8255 143.355 13.8267C143.554 13.823 143.75 13.8587 143.935 13.9318C144.119 14.0048 144.287 14.1138 144.429 14.2524C144.57 14.3909 144.683 14.5563 144.76 14.7388C144.838 14.9213 144.878 15.1174 144.879 15.3156ZM142.203 15.3156C142.198 15.4708 142.224 15.6255 142.28 15.7703C142.337 15.9151 142.422 16.047 142.53 16.1582C142.639 16.2693 142.769 16.3574 142.912 16.417C143.055 16.4767 143.209 16.5068 143.365 16.5055C143.517 16.5047 143.668 16.4733 143.809 16.4131C143.949 16.353 144.076 16.2652 144.181 16.1551C144.287 16.045 144.37 15.9148 144.424 15.7722C144.479 15.6296 144.504 15.4775 144.499 15.3249C144.507 15.1692 144.483 15.0134 144.429 14.867C144.375 14.7207 144.292 14.5869 144.184 14.4738C144.077 14.3607 143.948 14.2706 143.804 14.209C143.661 14.1475 143.507 14.1157 143.351 14.1157C143.195 14.1157 143.04 14.1475 142.897 14.209C142.754 14.2706 142.624 14.3607 142.517 14.4738C142.41 14.5869 142.326 14.7207 142.272 14.867C142.218 15.0134 142.195 15.1692 142.203 15.3249V15.3156ZM143.119 16.0974H142.773V14.6085C142.962 14.5746 143.154 14.559 143.346 14.5618C143.525 14.5476 143.705 14.5855 143.863 14.6708C143.908 14.7095 143.944 14.7573 143.968 14.811C143.993 14.8648 144.006 14.9232 144.006 14.9823C144 15.0661 143.965 15.1454 143.909 15.2079C143.853 15.2704 143.778 15.3126 143.695 15.328V15.3467C143.769 15.3768 143.833 15.4263 143.88 15.4899C143.928 15.5535 143.958 15.6289 143.966 15.7081C143.981 15.837 144.017 15.9624 144.075 16.0787H143.701C143.644 15.9648 143.604 15.843 143.583 15.7174C143.555 15.5554 143.464 15.4807 143.271 15.4807H143.109L143.119 16.0974ZM143.119 15.2533H143.281C143.471 15.2533 143.626 15.191 143.626 15.0352C143.626 14.8795 143.527 14.8079 143.315 14.8079C143.251 14.8066 143.187 14.8128 143.125 14.8265L143.119 15.2533Z" fill="white"/>
</g>
<defs>
<clipPath id="clip0_842_14590">
<rect width="143.903" height="44.449" fill="white" transform="translate(0.96875)"/>
</clipPath>
</defs>
</svg>
