<svg width="183" height="51" viewBox="0 0 183 51" fill="none" xmlns="http://www.w3.org/2000/svg">
<g clip-path="url(#clip0_842_14609)">
<path fill-rule="evenodd" clip-rule="evenodd" d="M65.0391 18.3545H59.6485L59.5312 18.3753V33.1437H65.0382C70.2605 33.1437 72.5974 29.3514 72.5974 25.5931C72.5974 22.1062 70.2331 18.3545 65.0391 18.3545ZM65.0391 20.3311C68.8277 20.3311 70.5243 22.963 70.5243 25.5732C70.5243 28.1267 69.0887 31.1057 65.0391 31.1057H61.6043V20.3301H65.0391V20.3311ZM79.4539 31.4982C81.2479 31.4821 82.5502 30.1231 82.5502 28.2742L82.5521 22.6538H84.5192V33.139H82.7053L82.6296 31.7015C81.7463 32.7456 80.5585 33.2894 79.0964 33.3064H79.0945C76.2639 33.3064 74.4321 31.3989 74.4321 28.4387V22.6528H76.3992V28.417C76.3992 30.3444 77.5426 31.4982 79.4539 31.4982ZM96.0239 31.5577L94.7982 30.3529L94.7131 30.4371C94.0454 31.1123 93.1082 31.4802 92.0717 31.4802C90.2767 31.4802 88.4657 30.3756 88.4657 27.8987C88.4657 25.7879 89.9571 24.3144 92.0916 24.3144C93.0496 24.3144 93.983 24.6795 94.6516 25.3197L94.7358 25.3992L95.9974 24.113L95.9132 24.0336C94.8332 22.9923 93.531 22.4637 92.0471 22.4637C88.7125 22.4637 86.4768 24.6464 86.4768 27.8987C86.4768 31.6504 89.2733 33.3291 92.0471 33.3291C93.5943 33.3291 94.9316 32.7872 96.021 31.7176L96.1052 31.6362L96.0239 31.5577ZM106.118 22.6538V22.9204L101.345 27.6084L106.707 32.8572V33.1456H104.429L99.6687 28.469V33.1456H97.7205V18.3762H99.6687V26.8074L103.793 22.6538H106.118ZM113.775 18.3545H108.385L108.265 18.3753V33.1437H113.769C118.994 33.1437 121.331 29.3514 121.331 25.5931C121.336 22.1062 118.97 18.3545 113.775 18.3545ZM113.775 20.3311C117.564 20.3311 119.262 22.963 119.262 25.5732C119.262 28.1267 117.827 31.1057 113.775 31.1057H110.341V20.3301H113.775V20.3311ZM128.188 31.4982C129.986 31.4821 131.287 30.1231 131.287 28.2742H131.286V22.6538H133.255V33.139H131.44L131.364 31.7015C130.48 32.7456 129.293 33.2894 127.831 33.3064H127.83C125 33.3064 123.168 31.3989 123.168 28.4387V22.6528H125.135V28.417C125.135 30.3444 126.279 31.4982 128.188 31.4982ZM144.762 31.5577L143.535 30.3529L143.453 30.4371C142.785 31.1123 141.848 31.4802 140.811 31.4802C139.016 31.4802 137.204 30.3756 137.204 27.8987C137.204 25.7879 138.696 24.3144 140.828 24.3144C141.786 24.3144 142.719 24.6795 143.39 25.3197L143.475 25.3992L144.735 24.113L144.65 24.0336C143.57 22.9923 142.27 22.4637 140.785 22.4637C137.45 22.4637 135.213 24.6464 135.213 27.8987C135.213 31.6504 138.013 33.3291 140.785 33.3291C142.331 33.3291 143.668 32.7872 144.758 31.7176L144.844 31.6362L144.762 31.5577ZM154.854 22.6538V22.9204L150.081 27.6084L155.447 32.8572V33.1456H153.166L148.405 28.469V33.1456H146.458V18.3762H148.405V26.8074L152.53 22.6538H154.854ZM167.49 26.7885H162.883V24.9594H169.394V30.8721L169.364 30.9033C167.757 32.5924 165.854 33.4133 163.549 33.4133C157.766 33.4133 155.716 29.358 155.716 25.8834C155.703 23.6278 156.483 21.6106 157.906 20.2043C159.312 18.8179 161.256 18.085 163.528 18.085C165.61 18.085 167.568 18.8699 169.044 20.2989L169.121 20.3736L167.91 21.7525L167.822 21.6674C166.735 20.6375 165.089 19.9972 163.529 19.9972C159.57 19.9972 157.768 23.0491 157.768 25.8843C157.768 28.6686 159.562 31.4811 163.569 31.4811C165.002 31.4892 166.392 30.9885 167.49 30.0682V26.7885ZM176.504 22.4249C173.3 22.4249 170.974 24.7362 170.974 27.9195C170.974 31.0546 173.3 33.3291 176.504 33.3291C179.719 33.3291 182.054 31.0546 182.054 27.9195C182.054 24.6833 179.771 22.4249 176.504 22.4249ZM176.504 31.4991C174.439 31.4991 172.942 29.9992 172.942 27.9195C172.942 25.7378 174.416 24.2142 176.525 24.2142C178.601 24.2142 180.108 25.7727 180.108 27.9186C180.085 30.0285 178.604 31.4991 176.504 31.4991Z" fill="white"/>
<path fill-rule="evenodd" clip-rule="evenodd" d="M25.6056 50.1234C39.695 50.1234 51.1174 38.9033 51.1174 25.0617C51.1174 11.2201 39.695 0 25.6056 0C11.5162 0 0.09375 11.2201 0.09375 25.0617C0.09375 38.9033 11.5162 50.1234 25.6056 50.1234Z" fill="white"/>
<path d="M25.6063 4.05811C13.7942 4.05811 4.21875 13.4643 4.21875 25.0683C4.21875 34.151 10.086 41.8871 18.3006 44.8207C16.9529 38.5033 14.1933 25.8608 13.5133 22.1016C12.7492 17.8836 14.0325 14.3637 16.9397 12.8618C17.0404 12.8106 17.144 12.7652 17.2499 12.7257L17.3643 12.6642C18.2694 12.1942 19.53 11.8414 20.8975 11.6561C18.9635 11.0886 16.3202 10.9657 14.5375 11.1454C14.5281 10.8522 14.8052 10.2337 15.175 10.0672C15.3121 10.0067 15.4643 9.96793 15.6242 9.94334C16.0138 9.78541 16.5103 9.70408 16.8744 9.56695C16.1273 9.2681 14.9385 8.72525 14.6274 8.6931C14.8827 8.65432 15.0719 8.54178 15.3868 8.48504H15.3792C18.0301 8.03748 20.7546 8.45982 23.1455 9.68894C24.3608 10.3273 25.2195 11.013 25.75 11.7317C27.1374 11.9899 28.3602 12.4836 29.1594 13.2676C31.6135 15.6735 33.8038 21.171 32.895 24.3382C34.5264 23.9533 38.0331 23.0851 39.0384 22.6255C40.1014 22.1451 44.6068 22.8619 41.432 24.604C40.0588 25.3596 36.3573 26.747 33.7093 27.5225C31.065 28.2989 29.463 26.7782 28.5834 28.0568C27.8864 29.0716 28.4416 30.4618 31.6003 30.7512C35.8683 31.1389 39.9576 28.8644 40.4078 30.074C40.8589 31.2855 36.7431 32.7882 34.236 32.8384C31.7299 32.8857 26.6778 31.2108 25.9222 30.6925L25.9127 30.6878C25.4266 32.7769 26.0773 35.6264 27.0778 38.2706C27.9507 38.1382 28.8199 38.1685 28.9173 38.4058C28.9494 38.4862 28.9901 38.6215 29.0317 38.7955C30.1193 38.0162 32.8666 36.1144 33.5854 36.2713C34.4819 36.4718 34.6824 42.7477 33.8833 43.0484C33.2875 43.2678 30.5278 42.2729 29.166 41.7556C29.1339 41.8288 29.0822 41.8916 29.0166 41.9372C28.9693 41.9693 28.9135 41.9996 28.853 42.028C28.8447 42.0577 28.8352 42.087 28.8246 42.1159C29.3069 43.0399 29.9358 44.2107 30.6158 45.4959C40.0097 43.2829 46.9938 34.9767 46.9938 25.0664C46.9938 13.4643 37.4184 4.05811 25.6063 4.05811Z" fill="#17181B"/>
<path d="M25.6058 0.0112305C11.5212 0.0112305 0.101562 11.2294 0.101562 25.0663C0.101562 37.8005 9.77064 48.315 22.2901 49.9104C24.1929 50.154 26.1168 50.1873 28.0269 50.0098C40.9776 48.8115 51.1092 38.1012 51.1092 25.0663C51.112 11.2304 39.6924 0.0112305 25.6058 0.0112305ZM30.3903 47.5528C28.8157 47.874 27.2128 48.0353 25.6058 48.0341C23.2321 48.0341 20.9396 47.6861 18.7815 47.0402C9.19943 44.1709 2.22755 35.4182 2.22755 25.0663C2.22755 12.3832 12.6948 2.09939 25.6058 2.09939C38.5178 2.09939 48.9851 12.3813 48.9851 25.0663C48.9851 36.1407 41.0079 45.3833 30.3903 47.5528Z" fill="#17181B"/>
<path d="M13.5136 22.1014C14.1936 25.8606 16.9532 38.5021 18.3027 44.8177C18.6877 44.9558 19.0782 45.0825 19.4736 45.1997C18.2441 39.3883 15.1781 25.3925 14.4499 21.3959C13.6952 17.2347 14.4291 14.2481 17.2492 12.7255C17.1357 12.7671 17.0326 12.8125 16.94 12.8607C14.0328 14.3644 12.7495 17.8854 13.5136 22.1014ZM14.5369 11.1442C16.3196 10.9655 18.961 11.0894 20.8969 11.6559C21.0368 11.637 21.1777 11.619 21.3205 11.6039C19.3894 10.7603 17.1026 10.434 15.0126 10.643C15.0097 10.2855 15.2717 10.0831 15.6226 9.94317C15.4687 9.96596 15.3182 10.0072 15.1743 10.0661C14.8045 10.2354 14.5284 10.852 14.5369 11.1442ZM16.8747 9.56866C16.9716 9.53385 17.0642 9.48817 17.1509 9.43248C16.7659 9.37952 15.8136 8.53499 15.3842 8.48486C15.0703 8.54161 14.8811 8.65509 14.6248 8.69292C14.9407 8.72413 16.1266 9.26981 16.8747 9.56866Z" fill="white"/>
<path d="M19.4309 23.1922C20.3199 23.1922 21.0414 22.4829 21.0414 21.609C21.0414 20.7352 20.3189 20.0259 19.4309 20.0259C18.5419 20.0259 17.8203 20.7352 17.8203 21.609C17.8203 22.4829 18.5428 23.1922 19.4309 23.1922ZM20.1496 20.6746C20.3804 20.6746 20.5657 20.8581 20.5657 21.0841C20.5647 21.1936 20.5204 21.2982 20.4424 21.3749C20.3644 21.4517 20.2591 21.4944 20.1496 21.4936C20.0954 21.4941 20.0415 21.4839 19.9912 21.4636C19.9409 21.4433 19.895 21.4133 19.8563 21.3753C19.8176 21.3372 19.7867 21.292 19.7655 21.242C19.7442 21.1921 19.7331 21.1384 19.7326 21.0841C19.7338 20.9748 19.7783 20.8703 19.8562 20.7936C19.9342 20.7169 20.0393 20.6741 20.1487 20.6746H20.1496Z" fill="#17181B"/>
<path d="M20.151 21.4905C20.3805 21.4905 20.5666 21.3072 20.5666 21.0814C20.5656 20.9721 20.5213 20.8676 20.4434 20.791C20.3654 20.7143 20.2603 20.6716 20.151 20.6724C20.0968 20.6719 20.043 20.6821 19.9927 20.7024C19.9424 20.7226 19.8966 20.7526 19.858 20.7906C19.8193 20.8286 19.7884 20.8738 19.7672 20.9237C19.746 20.9736 19.7349 21.0272 19.7344 21.0814C19.7353 21.3081 19.9214 21.4905 20.15 21.4905H20.151Z" fill="white"/>
<path d="M28.8125 20.6696C28.8125 21.4177 29.4301 22.0267 30.1933 22.0267C30.9565 22.0267 31.574 21.4177 31.574 20.6696C31.574 19.9206 30.9565 19.3125 30.1933 19.3125C29.4301 19.3125 28.8125 19.9206 28.8125 20.6696ZM30.808 19.8686C31.0056 19.8686 31.1664 20.0256 31.1664 20.2194C31.166 20.266 31.1565 20.312 31.1383 20.3548C31.1201 20.3976 31.0937 20.4365 31.0605 20.4691C31.0273 20.5017 30.988 20.5274 30.9448 20.5448C30.9016 20.5621 30.8554 20.5708 30.8089 20.5703C30.715 20.5713 30.6246 20.5351 30.5574 20.4695C30.4902 20.4039 30.4517 20.3143 30.4505 20.2204C30.4515 20.1263 30.4898 20.0363 30.557 19.9704C30.6242 19.9044 30.7148 19.8678 30.8089 19.8686H30.808Z" fill="#17181B"/>
<path d="M30.8083 20.5693C30.9022 20.5701 30.9926 20.5336 31.0596 20.4678C31.1266 20.402 31.1648 20.3123 31.1658 20.2184C31.1654 20.1719 31.1559 20.1259 31.1377 20.0831C31.1195 20.0403 31.0931 20.0014 31.0599 19.9688C31.0267 19.9362 30.9874 19.9105 30.9442 19.8931C30.901 19.8758 30.8549 19.8671 30.8083 19.8676C30.7144 19.8666 30.624 19.9028 30.5568 19.9684C30.4896 20.034 30.4512 20.1236 30.4499 20.2175C30.4518 20.4123 30.6107 20.5693 30.8083 20.5693ZM17.4992 17.2167C18.6766 16.4857 19.8918 17.0295 19.8918 17.0295C19.8918 17.0295 19.0766 15.9759 17.4055 16.6446C15.7392 17.316 16.3652 18.6873 16.3652 18.6873C16.3652 18.6873 16.3208 17.943 17.4992 17.2167Z" fill="white"/>
<path d="M17.4992 17.2167C18.6766 16.4857 19.8918 17.0295 19.8918 17.0295C19.8918 17.0295 19.0766 15.9759 17.4055 16.6446C15.7392 17.316 16.3652 18.6873 16.3652 18.6873C16.3652 18.6873 16.3208 17.943 17.4992 17.2167Z" fill="#17181B"/>
<path d="M29.7137 15.9099C27.9367 15.6224 27.7031 17.058 27.7031 17.058C27.7031 17.058 28.0814 16.4565 29.4716 16.4395C30.1507 16.431 31.0226 16.919 31.0226 16.919C30.9026 16.6572 30.7208 16.4286 30.4928 16.2528C30.2647 16.077 29.9974 15.9593 29.7137 15.9099Z" fill="white"/>
<path d="M29.7137 15.9099C27.9367 15.6224 27.7031 17.058 27.7031 17.058C27.7031 17.058 28.0814 16.4565 29.4716 16.4395C30.1507 16.431 31.0226 16.919 31.0226 16.919C30.9026 16.6572 30.7208 16.4286 30.4928 16.2528C30.2647 16.077 29.9974 15.9593 29.7137 15.9099Z" fill="#17181B"/>
<path d="M34.2317 32.8382C36.7407 32.7881 40.8546 31.2854 40.4035 30.0739C39.9524 28.8624 35.864 31.1388 31.596 30.751C28.4373 30.4635 27.8793 29.0733 28.5791 28.0567C29.4586 26.7799 31.0616 28.2988 33.7049 27.5214C36.353 26.7449 40.0545 25.3595 41.4277 24.6038C44.6025 22.8618 40.0971 22.144 39.0341 22.6254C38.0288 23.085 34.5211 23.9532 32.8907 24.3371L32.6448 24.3948C31.1572 24.7457 30.6039 24.7211 28.8193 24.8299C27.4007 24.9197 25.5188 26.0792 24.7253 27.0334C24.5201 27.2793 24.3877 27.5138 24.3565 27.7105C24.2335 28.4425 24.5257 29.1594 24.9409 29.7334C25.236 30.1392 25.5916 30.473 25.9065 30.6877L25.916 30.6924C26.6725 31.2088 31.7227 32.8836 34.2317 32.8392V32.8382Z" fill="white"/>
<path d="M24.8394 39.6492H24.8356C24.8356 39.4667 24.9831 39.3059 25.2186 39.1688V39.1896L25.2224 39.1924C25.2224 41.1378 24.9529 42.0305 25.6801 42.2896C25.7217 42.3048 25.7681 42.318 25.8173 42.3275C26.2948 42.4353 26.9994 42.4287 27.6463 42.3379C28.0851 42.2783 28.4955 42.179 28.7906 42.0523L28.8502 42.0258C28.9107 41.9974 28.9646 41.9672 29.0138 41.935C29.0786 41.8885 29.1301 41.8259 29.1632 41.7534C30.526 42.2707 33.2866 43.2637 33.8805 43.0462C34.6796 42.7455 34.481 36.4697 33.5826 36.2692C32.8638 36.1122 30.1156 38.014 29.0289 38.7933C29.0001 38.6609 28.9619 38.5307 28.9145 38.4037C28.8171 38.1644 27.9461 38.1351 27.0751 38.2684C26.7046 38.3213 26.3402 38.411 25.9875 38.5361C25.734 38.6297 25.5222 38.7394 25.387 38.8652C23.7083 38.0443 20.2706 36.4867 20.1978 37.4475C20.0956 38.7262 20.1978 43.9239 20.8948 44.3173C21.3421 44.5679 23.5428 43.4595 25.073 42.6254C24.6304 42.2565 24.8394 41.3572 24.8394 39.6492Z" fill="white"/>
<path d="M28.7973 42.0542C28.5041 42.1809 28.0918 42.2793 27.653 42.3398C27.007 42.4287 26.3015 42.4363 25.8239 42.3303C25.7748 42.3199 25.7294 42.3067 25.6868 42.2916C24.9586 42.0324 25.2291 41.1397 25.2291 39.1943L25.2253 39.1905V39.1716C24.9898 39.3078 24.8423 39.4686 24.8423 39.6502H24.8461C24.8461 41.3572 24.638 42.2575 25.0778 42.6273C25.1695 42.7039 25.2858 42.7578 25.4409 42.7909C26.066 42.928 27.077 42.8751 27.8355 42.6973C28.1703 42.6207 28.4559 42.5185 28.6412 42.3984C28.7329 42.3278 28.799 42.2292 28.8294 42.1176L28.8569 42.0287C28.838 42.0381 28.8172 42.0457 28.7973 42.0542Z" fill="#17181B"/>
<path d="M25.6049 2.09937C12.6938 2.09937 2.22656 12.3813 2.22656 25.0663C2.22656 35.4191 9.19844 44.1699 18.7815 47.0392C20.9957 47.701 23.2947 48.0362 25.6058 48.0341C27.2447 48.0341 28.8449 47.8686 30.3893 47.5527C41.006 45.3832 48.985 36.1407 48.985 25.0663C48.985 12.3832 38.5178 2.09937 25.6058 2.09937H25.6049ZM30.6144 45.4967C29.9353 44.2115 29.3064 43.0397 28.825 42.1177C28.7944 42.2294 28.7279 42.3281 28.6359 42.3985C28.4515 42.5186 28.1649 42.6208 27.832 42.6974C27.0698 42.8742 26.0616 42.9263 25.4356 42.792C25.3032 42.7675 25.1789 42.711 25.0734 42.6274C23.5422 43.4615 21.3444 44.569 20.8951 44.3184C20.1982 43.9259 20.096 38.7282 20.1982 37.4496C20.2729 36.4868 23.7106 38.0454 25.3864 38.8663C25.5245 38.7414 25.7344 38.6298 25.9869 38.5372C26.3056 38.4189 26.6905 38.3291 27.0745 38.2705C26.0749 35.6262 25.4242 32.7758 25.9113 30.6876C25.5376 30.426 25.2108 30.103 24.9447 29.7325C24.5286 29.1594 24.2373 28.4425 24.3593 27.7105C24.3934 27.5138 24.5258 27.2811 24.7291 27.0334C25.5226 26.0791 27.4027 24.9178 28.8232 24.8298C30.6077 24.7211 31.161 24.7457 32.6486 24.3948C32.7243 24.3759 32.8065 24.3579 32.8945 24.3381C33.8024 21.1699 31.613 15.6733 29.1589 13.2665C28.3597 12.4815 27.135 11.9888 25.7495 11.7306C25.2199 11.0119 24.3593 10.3291 23.1441 9.68785C20.7532 8.46057 18.0298 8.03863 15.3797 8.48489H15.3854C15.8147 8.53407 16.7671 9.37765 17.152 9.43251C17.0735 9.48452 16.9808 9.52802 16.8758 9.56869C16.5108 9.70487 16.0124 9.78715 15.6246 9.94414C15.2738 10.0851 15.0109 10.2865 15.0146 10.644C17.1066 10.4359 19.3933 10.7612 21.3226 11.6058C21.1798 11.6209 21.037 11.6389 20.898 11.6578C19.5305 11.8432 18.2708 12.1969 17.3657 12.665C17.3269 12.6858 17.2872 12.7057 17.2503 12.7274C14.4292 14.25 13.6954 17.2366 14.45 21.3978C15.1782 25.3944 18.2433 39.3902 19.4747 45.2017C19.0802 45.0864 18.6895 44.959 18.3029 44.8196C10.0884 41.8869 4.22109 34.1499 4.22109 25.0682C4.22109 13.4641 13.7975 4.05796 25.6086 4.05796C37.4207 4.05796 46.9943 13.4641 46.9943 25.0682C46.9933 34.9756 40.0092 43.2828 30.6144 45.4967ZM16.3651 18.6874C16.3651 18.6874 15.74 17.3161 17.4054 16.6446C19.0756 15.976 19.8927 17.0295 19.8927 17.0295C19.8927 17.0295 18.6774 16.4857 17.5 17.2158C16.3216 17.944 16.3651 18.6874 16.3651 18.6874ZM19.4293 20.0256C20.3183 20.0256 21.0389 20.7349 21.0389 21.6087C21.0389 22.4825 20.3164 23.1918 19.4283 23.1918C18.5403 23.1918 17.8178 22.4825 17.8178 21.6087C17.8178 20.7358 18.5403 20.0256 19.4283 20.0256H19.4293ZM29.4738 16.4394C28.0836 16.4554 27.7053 17.0579 27.7053 17.0579C27.7053 17.0579 27.9398 15.6204 29.7159 15.9098C30.2956 16.0138 30.7855 16.3902 31.0248 16.9207C31.0248 16.9207 30.1538 16.4309 29.4738 16.4384V16.4394ZM31.5733 20.6696C31.5733 21.4177 30.9558 22.0267 30.1926 22.0267C29.4294 22.0267 28.8118 21.4177 28.8118 20.6696C28.8118 19.9206 29.4294 19.3125 30.1926 19.3125C30.9558 19.3125 31.5733 19.9206 31.5733 20.6696Z" fill="white"/>
<path fill-rule="evenodd" clip-rule="evenodd" d="M25.5968 45.8089C37.2623 45.8089 46.7195 36.519 46.7195 25.0597C46.7195 13.5994 37.2623 4.30863 25.5968 4.30863C13.9313 4.30863 4.47405 13.5994 4.47405 25.0588C4.47405 36.519 13.9313 45.8089 25.5968 45.8089ZM48.9827 25.0597C48.9827 37.7466 38.5125 48.0313 25.5968 48.0313C12.681 48.0313 2.21094 37.7466 2.21094 25.0597C2.21094 12.3709 12.681 2.08618 25.5968 2.08618C38.5125 2.08618 48.9827 12.37 48.9827 25.0588V25.0597Z" fill="white"/>
</g>
<defs>
<clipPath id="clip0_842_14609">
<rect width="182.525" height="50.1234" fill="white" transform="translate(0.09375)"/>
</clipPath>
</defs>
</svg>
