<svg width="142" height="34" viewBox="0 0 142 34" fill="none" xmlns="http://www.w3.org/2000/svg">
<path d="M34.2491 12.6821L27.3001 32.8639H22.6441L17.9703 19.2538L17.7476 18.6052L17.5233 19.2532L12.8119 32.8639H8.15549L1.20646 12.6821H6.56422L10.3334 24.8479L10.5538 25.5593L10.7841 24.851L14.7408 12.6821H20.7148L24.6715 24.851L24.9029 25.5627L25.1224 24.8473L28.8541 12.6821H34.2491ZM41.8958 14.3371V15.0749L42.3246 14.4746C43.4004 12.9685 45.2811 12.2282 47.5417 12.2282C49.8147 12.2282 51.7097 12.9849 53.0356 14.2971C54.3612 15.6091 55.1359 17.494 55.1359 19.7845V32.8639H49.9344V20.995C49.9344 19.7692 49.5282 18.7329 48.8124 18.0019C48.0964 17.2707 47.0874 16.8622 45.9151 16.8622C44.7428 16.8622 43.7338 17.2707 43.0177 18.0019C42.302 18.7329 41.8958 19.7692 41.8958 20.995V32.8639H36.6943V5.15416H41.8958V14.3371Z" fill="white" stroke="#17181B" stroke-width="0.472862"/>
<path d="M94.8252 14.9421L95.2707 15.0526C96.2755 13.1507 98.2937 12.2279 100.85 12.2279C103.122 12.2279 105.017 12.9935 106.343 14.3152C107.669 15.6367 108.444 17.5314 108.444 19.822V32.8636H103.242V21.0326C103.242 19.7888 102.837 18.743 102.121 18.0069C101.405 17.2704 100.395 16.8619 99.2229 16.8619C98.0505 16.8619 97.0411 17.2704 96.3249 18.0069C95.6091 18.743 95.2035 19.7888 95.2035 21.0326V32.8636H90.0021V12.6818H94.8252V14.9421ZM120.326 32.8636L127.328 22.8706L127.424 22.734L127.328 22.5981L120.291 12.6818H126.291L130.269 18.4805L130.464 18.7647L130.659 18.4805L134.636 12.6818H140.636L133.6 22.5981L133.504 22.7337L133.599 22.8701L140.565 32.8636H134.562L130.66 27.0294L130.464 26.7356L130.267 27.0294L126.365 32.8636H120.326ZM117.517 12.6818V32.8636H112.315V12.6818H117.517Z" fill="white" stroke="#17181B" stroke-width="0.472862"/>
<circle cx="115.306" cy="7.56569" r="2.83717" fill="white"/>
<path fill-rule="evenodd" clip-rule="evenodd" d="M63.5391 13.1827V8.82675C63.5391 3.95187 67.491 0 72.3658 0C77.2407 0 81.1926 3.95187 81.1926 8.82675V13.1752C83.1143 15.291 84.2854 18.1009 84.2854 21.1842C84.2854 27.7653 78.9503 33.1004 72.3692 33.1004C65.7882 33.1004 60.4531 27.7653 60.4531 21.1842C60.4531 18.1045 61.6215 15.2977 63.5391 13.1827ZM78.5446 10.9911V8.82675C78.5446 5.41434 75.7782 2.64803 72.3658 2.64803C68.9534 2.64803 66.1871 5.41434 66.1871 8.82675V10.9952C67.9895 9.89929 70.1057 9.26813 72.3692 9.26813C74.63 9.26813 76.7437 9.89769 78.5446 10.9911Z" fill="white"/>
<path d="M70.6465 21.5429C69.2205 21.5429 65.101 20.3786 64.3086 20.3545C63.5161 20.3304 65.6655 22.1123 67.8737 22.137C69.26 22.1525 78.5689 21.7409 79.3611 21.5429C80.1534 21.3448 79.5592 20.3545 78.1728 20.3545C76.7864 20.3545 72.429 21.5429 70.6465 21.5429Z" fill="#17181B"/>
<path d="M69.6557 20.9487C69.1803 20.9487 67.609 20.4205 66.8828 20.1565C66.8828 16.9875 68.0712 15.0069 68.6654 14.8089C69.2595 14.6108 71.0421 15.9972 72.2304 16.1953C73.4188 16.3933 74.013 14.4127 75.3994 15.403C76.5085 16.1953 76.6538 18.638 76.5878 19.7603C74.4091 19.7603 70.2498 20.9487 69.6557 20.9487Z" fill="#17181B"/>
<path d="M70.0547 27.4847C70.1867 27.7488 70.7677 28.2769 72.0353 28.2769C73.3029 28.2769 73.7518 27.6167 73.8178 27.2866" stroke="#17181B" stroke-width="0.79224" stroke-linecap="round"/>
<path d="M67.403 23.4571L67.1101 23.8084C66.8653 24.1022 66.8653 24.529 67.1101 24.8228L67.4402 25.2189C67.5908 25.3995 67.8137 25.504 68.0489 25.504H69.6154C69.8886 25.504 70.1425 25.3633 70.2872 25.1316L70.8121 24.2919C70.9569 24.0602 71.2108 23.9195 71.4839 23.9195H72.2332C72.4825 23.9195 72.7174 24.0369 72.867 24.2364L73.58 25.1871C73.7296 25.3866 73.9644 25.504 74.2138 25.504H75.5052C75.6943 25.504 75.8772 25.4363 76.0208 25.3133L76.7428 24.6943C77.0058 24.469 77.0918 24.099 76.9554 23.7807L76.8314 23.4913C76.6895 23.1602 76.342 22.9665 75.9857 23.0199L72.6877 23.5146C72.6488 23.5204 72.6095 23.5234 72.5702 23.5234H71.0448L68.1042 23.1774C67.8382 23.1461 67.5744 23.2513 67.403 23.4571Z" fill="#17181B"/>
</svg>
