<svg width="32" height="32" viewBox="0 0 32 32" fill="none" xmlns="http://www.w3.org/2000/svg">
<path d="M25.1924 6.80761C20.1156 1.7308 11.8844 1.7308 6.80761 6.80761L8.22183 8.22183C12.5176 3.92606 19.4824 3.92606 23.7782 8.22183L25.1924 6.80761ZM23.7782 8.22183C28.0739 12.5176 28.0739 19.4824 23.7782 23.7782L25.1924 25.1924C30.2692 20.1156 30.2692 11.8844 25.1924 6.80761L23.7782 8.22183ZM6.80761 25.1924C11.8844 30.2692 20.1156 30.2692 25.1924 25.1924L23.7782 23.7782C19.4824 28.0739 12.5176 28.0739 8.22183 23.7782L6.80761 25.1924ZM8.22183 23.7782C3.92606 19.4824 3.92606 12.5176 8.22183 8.22183L6.80761 6.80761C1.7308 11.8844 1.7308 20.1156 6.80761 25.1924L8.22183 23.7782ZM6.80761 8.22183L23.7782 25.1924L25.1924 23.7782L8.22183 6.80761L6.80761 8.22183Z" fill="black"/>
</svg>
