<svg width="32" height="32" viewBox="0 0 32 32" fill="none" xmlns="http://www.w3.org/2000/svg">
<path d="M9.81748 9.48636C9.2652 9.48636 8.81748 9.93407 8.81748 10.4864C8.81748 11.0386 9.2652 11.4864 9.81748 11.4864V9.48636ZM10.5141 11.4864C11.0664 11.4864 11.5141 11.0386 11.5141 10.4864C11.5141 9.93407 11.0664 9.48636 10.5141 9.48636V11.4864ZM16.1352 9.48636C15.5829 9.48636 15.1352 9.93407 15.1352 10.4864C15.1352 11.0386 15.5829 11.4864 16.1352 11.4864V9.48636ZM22.1805 11.4864C22.7328 11.4864 23.1805 11.0386 23.1805 10.4864C23.1805 9.93407 22.7328 9.48636 22.1805 9.48636V11.4864ZM9.81748 20.5131C9.2652 20.5131 8.81748 20.9608 8.81748 21.5131C8.81748 22.0654 9.2652 22.5131 9.81748 22.5131V20.5131ZM10.5141 22.5131C11.0664 22.5131 11.5141 22.0654 11.5141 21.5131C11.5141 20.9608 11.0664 20.5131 10.5141 20.5131V22.5131ZM26.9994 15.1357C26.9994 15.688 27.4471 16.1357 27.9994 16.1357C28.5516 16.1357 28.9994 15.688 28.9994 15.1357H26.9994ZM14.8114 28.9994C15.3637 28.9994 15.8114 28.5517 15.8114 27.9994C15.8114 27.4471 15.3637 26.9994 14.8114 26.9994V28.9994ZM16.2934 16.9997C16.8457 16.9997 17.2934 16.552 17.2934 15.9997C17.2934 15.4474 16.8457 14.9997 16.2934 14.9997V16.9997ZM4.03167 14.9997C3.47939 14.9997 3.03167 15.4474 3.03167 15.9997C3.03167 16.552 3.47939 16.9997 4.03167 16.9997V14.9997ZM26.7333 25.3229C26.3424 24.9328 25.7092 24.9334 25.3191 25.3243C24.9289 25.7152 24.9295 26.3484 25.3205 26.7385L26.7333 25.3229ZM27.2936 28.7078C27.6845 29.0979 28.3177 29.0973 28.7078 28.7064C29.0979 28.3155 29.0973 27.6823 28.7064 27.2922L27.2936 28.7078ZM9.81748 11.4864H10.5141V9.48636H9.81748V11.4864ZM16.1352 11.4864H22.1805V9.48636H16.1352V11.4864ZM9.81748 22.5131H10.5141V20.5131H9.81748V22.5131ZM28.9994 15.1357V10.3761H26.9994V15.1357H28.9994ZM28.9994 10.3761C28.9994 8.16885 28.2112 6.29954 26.8029 4.98693C25.4025 3.68158 23.4687 3.00005 21.2977 3.00005V5.00005C23.0535 5.00005 24.4706 5.54702 25.4393 6.44994C26.4001 7.34559 26.9994 8.6643 26.9994 10.3761H28.9994ZM21.2977 3.00005H10.7017V5.00005H21.2977V3.00005ZM10.7017 3.00005C8.53187 3.00005 6.59796 3.67792 5.19692 4.9821C3.78779 6.29381 3 8.16367 3 10.3761H5C5 8.65781 5.59963 7.33964 6.55963 6.44601C7.52772 5.54484 8.94464 5.00005 10.7017 5.00005V3.00005ZM3 10.3761V21.6208H5V10.3761H3ZM3 21.6208C3 23.8337 3.78771 25.7042 5.19676 27.0164C6.59776 28.3211 8.53172 28.9994 10.7017 28.9994V26.9994C8.94478 26.9994 7.52791 26.4544 6.55979 25.5528C5.59971 24.6587 5 23.3398 5 21.6208H3ZM10.7017 28.9994H14.8114V26.9994H10.7017V28.9994ZM16.2934 14.9997H4.03167V16.9997H16.2934V14.9997ZM23.3595 20.2391C24.9726 20.2391 26.2799 21.5468 26.2799 23.1581H28.2799C28.2799 20.4418 26.0767 18.2391 23.3595 18.2391V20.2391ZM26.2799 23.1581C26.2799 24.771 24.9724 26.0784 23.3595 26.0784V28.0784C26.0769 28.0784 28.2799 25.8755 28.2799 23.1581H26.2799ZM23.3595 26.0784C21.7467 26.0784 20.4392 24.771 20.4392 23.1581H18.4392C18.4392 25.8755 20.6421 28.0784 23.3595 28.0784V26.0784ZM20.4392 23.1581C20.4392 21.5468 21.7465 20.2391 23.3595 20.2391V18.2391C20.6423 18.2391 18.4392 20.4418 18.4392 23.1581H20.4392ZM25.3205 26.7385L27.2936 28.7078L28.7064 27.2922L26.7333 25.3229L25.3205 26.7385Z" fill="black"/>
</svg>
