<svg width="16" height="16" viewBox="0 0 16 16" fill="none" xmlns="http://www.w3.org/2000/svg">
<path d="M8 1.44133C10.136 1.44133 10.3893 1.44933 11.2327 1.488C12.1433 1.52933 12.988 1.712 13.638 2.362C14.288 3.012 14.4707 3.85667 14.512 4.76733C14.5507 5.61067 14.5587 5.864 14.5587 8C14.5587 10.136 14.5507 10.3893 14.512 11.2327C14.4707 12.1433 14.288 12.988 13.638 13.638C12.988 14.288 12.1433 14.4707 11.2327 14.512C10.3893 14.5507 10.136 14.5587 8 14.5587C5.864 14.5587 5.61067 14.5507 4.76733 14.512C3.85667 14.4707 3.012 14.288 2.362 13.638C1.712 12.988 1.52933 12.1433 1.488 11.2327C1.44933 10.3893 1.44133 10.136 1.44133 8C1.44133 5.864 1.44933 5.61067 1.488 4.76733C1.52933 3.85667 1.712 3.012 2.362 2.362C3.012 1.712 3.85667 1.52933 4.76733 1.488C5.61067 1.44933 5.864 1.44133 8 1.44133ZM8 0C5.82733 0 5.55467 0.00933333 4.70133 0.048C3.40133 0.107333 2.25933 0.426 1.34267 1.34267C0.426 2.25933 0.107333 3.40133 0.048 4.70133C0.00933333 5.55467 0 5.82733 0 8C0 10.1727 0.00933333 10.4453 0.048 11.2987C0.107333 12.5987 0.426 13.7407 1.34267 14.6573C2.25933 15.574 3.40133 15.8927 4.70133 15.952C5.55467 15.9907 5.82733 16 8 16C10.1727 16 10.4453 15.9907 11.2987 15.952C12.5987 15.8927 13.7407 15.574 14.6573 14.6573C15.574 13.7407 15.8927 12.5987 15.952 11.2987C15.9907 10.4453 16 10.1727 16 8C16 5.82733 15.9907 5.55467 15.952 4.70133C15.8927 3.40133 15.574 2.25933 14.6573 1.34267C13.7407 0.426 12.5987 0.107333 11.2987 0.048C10.4453 0.00933333 10.1727 0 8 0Z" fill="black"/>
<path d="M8.00009 3.89197C5.73142 3.89197 3.89209 5.7313 3.89209 7.99997C3.89209 10.2686 5.73142 12.108 8.00009 12.108C10.2688 12.108 12.1081 10.2686 12.1081 7.99997C12.1081 5.7313 10.2688 3.89197 8.00009 3.89197ZM8.00009 10.6666C6.52742 10.6666 5.33342 9.47263 5.33342 7.99997C5.33342 6.5273 6.52742 5.3333 8.00009 5.3333C9.47276 5.3333 10.6668 6.5273 10.6668 7.99997C10.6668 9.47263 9.47276 10.6666 8.00009 10.6666Z" fill="black"/>
<path d="M12.2705 4.68953C12.8007 4.68953 13.2305 4.25972 13.2305 3.72953C13.2305 3.19934 12.8007 2.76953 12.2705 2.76953C11.7404 2.76953 11.3105 3.19934 11.3105 3.72953C11.3105 4.25972 11.7404 4.68953 12.2705 4.68953Z" fill="black"/>
</svg>
