<svg width="32" height="32" viewBox="0 0 32 32" fill="none" xmlns="http://www.w3.org/2000/svg">
<path d="M13.9742 28.9993C14.5265 28.9993 14.9742 28.5516 14.9742 27.9993C14.9742 27.4471 14.5265 26.9993 13.9742 26.9993V28.9993ZM24.473 13.9786C24.473 14.5308 24.9207 14.9786 25.473 14.9786C26.0252 14.9786 26.473 14.5308 26.473 13.9786H24.473ZM18.6379 13.858C19.1902 13.858 19.6379 13.4103 19.6379 12.858C19.6379 12.3057 19.1902 11.858 18.6379 11.858V13.858ZM11.8613 11.858C11.309 11.858 10.8613 12.3057 10.8613 12.858C10.8613 13.4103 11.309 13.858 11.8613 13.858V11.858ZM15.3981 19.7735C15.9504 19.7735 16.3981 19.3258 16.3981 18.7735C16.3981 18.2212 15.9504 17.7735 15.3981 17.7735V19.7735ZM11.86 17.7735C11.3078 17.7735 10.86 18.2212 10.86 18.7735C10.86 19.3258 11.3078 19.7735 11.86 19.7735V17.7735ZM24.4723 22.1925C24.4723 22.7448 24.92 23.1925 25.4723 23.1925C26.0246 23.1925 26.4723 22.7448 26.4723 22.1925H24.4723ZM25.4723 20.8039L26.4724 20.8039L26.4722 20.7912L25.4723 20.8039ZM23.2004 18.5867L23.1878 17.5868L23.1876 17.5868L23.2004 18.5867ZM20.9833 20.7934L19.9834 20.7763C19.9833 20.782 19.9833 20.7877 19.9833 20.7934H20.9833ZM19.9833 22.1925C19.9833 22.7448 20.431 23.1925 20.9833 23.1925C21.5356 23.1925 21.9833 22.7448 21.9833 22.1925H19.9833ZM13.9742 26.9993H10.5181V28.9993H13.9742V26.9993ZM10.5181 26.9993C8.03679 26.9993 6.02603 24.9879 6.02603 22.5059H4.02603C4.02603 26.0919 6.9316 28.9993 10.5181 28.9993V26.9993ZM6.02603 22.5059V9.49212H4.02603V22.5059H6.02603ZM6.02603 9.49212C6.02603 7.0116 8.03664 5 10.5181 5V3C6.93176 3 4.02603 5.90734 4.02603 9.49212H6.02603ZM10.5181 5H19.9795V3H10.5181V5ZM19.9795 5C22.4614 5 24.473 7.01191 24.473 9.49212H26.473C26.473 5.90703 23.5656 3 19.9795 3V5ZM24.473 9.49212V13.9786H26.473V9.49212H24.473ZM18.6379 11.858H11.8613V13.858H18.6379V11.858ZM15.3981 17.7735H11.86V19.7735H15.3981V17.7735ZM26.4723 22.1925V20.8039H24.4723V22.1925H26.4723ZM26.4722 20.7912C26.4497 18.9996 24.9797 17.5642 23.1878 17.5868L23.2131 19.5866C23.8989 19.5779 24.4637 20.1278 24.4724 20.8165L26.4722 20.7912ZM23.1876 17.5868C21.4335 17.6093 20.0136 19.0211 19.9834 20.7763L21.9831 20.8106C21.9947 20.1376 22.5392 19.5953 23.2133 19.5866L23.1876 17.5868ZM19.9833 20.7934V22.1925H21.9833V20.7934H19.9833ZM25.1084 27H21.3476V29H25.1084V27ZM21.3476 27C20.8699 27 20.4821 26.6131 20.4821 26.1333H18.4821C18.4821 27.7168 19.7644 29 21.3476 29V27ZM20.4821 26.1333V24.0229H18.4821V26.1333H20.4821ZM20.4821 24.0229C20.4821 23.5439 20.8704 23.1562 21.3476 23.1562V21.1562C19.764 21.1562 18.4821 22.4411 18.4821 24.0229H20.4821ZM21.3476 23.1562H25.1084V21.1562H21.3476V23.1562ZM25.1084 23.1562C25.5866 23.1562 25.9752 23.5448 25.9752 24.0229H27.9752C27.9752 22.4402 26.6911 21.1562 25.1084 21.1562V23.1562ZM25.9752 24.0229V26.1333H27.9752V24.0229H25.9752ZM25.9752 26.1333C25.9752 26.6122 25.587 27 25.1084 27V29C26.6907 29 27.9752 27.7177 27.9752 26.1333H25.9752Z" fill="black"/>
</svg>
