<svg width="16" height="16" viewBox="0 0 16 16" fill="none" xmlns="http://www.w3.org/2000/svg">
<path d="M16 3.06715C15.4 3.33381 14.8 3.53381 14.1333 3.60048C14.8 3.20048 15.3333 2.53381 15.6 1.80048C14.9333 2.20048 14.2667 2.46715 13.5333 2.60048C12.9333 1.93381 12.0667 1.53381 11.1333 1.53381C9.33333 1.53381 7.86667 3.00048 7.86667 4.80048C7.86667 5.06715 7.86667 5.33381 7.93333 5.53381C5.13333 5.40048 2.73333 4.06715 1.13333 2.06715C0.8 2.60048 0.666667 3.13381 0.666667 3.73381C0.666667 4.86715 1.26667 5.86715 2.13333 6.46715C1.6 6.46715 1.06667 6.33381 0.666667 6.06715C0.666667 6.06715 0.666667 6.06715 0.666667 6.13381C0.666667 7.73381 1.8 9.06715 3.26667 9.33381C3 9.40048 2.73333 9.46715 2.4 9.46715C2.2 9.46715 2 9.46715 1.8 9.40048C2.2 10.7338 3.4 11.6671 4.86667 11.6671C3.73333 12.5338 2.33333 13.0671 0.8 13.0671C0.533333 13.0671 0.266667 13.0671 0 13.0005C1.46667 13.9338 3.2 14.4671 5 14.4671C11.0667 14.4671 14.3333 9.46715 14.3333 5.13381C14.3333 5.00048 14.3333 4.86715 14.3333 4.73381C15 4.26715 15.5333 3.66715 16 3.06715Z" fill="black"/>
</svg>
