<svg width="32" height="32" viewBox="0 0 32 32" fill="none" xmlns="http://www.w3.org/2000/svg">
<path d="M9.81891 9.48649C9.26662 9.48649 8.81891 9.9342 8.81891 10.4865C8.81891 11.0388 9.26662 11.4865 9.81891 11.4865V9.48649ZM10.5156 11.4865C11.0678 11.4865 11.5156 11.0388 11.5156 10.4865C11.5156 9.9342 11.0678 9.48649 10.5156 9.48649V11.4865ZM16.1368 9.48649C15.5845 9.48649 15.1368 9.9342 15.1368 10.4865C15.1368 11.0388 15.5845 11.4865 16.1368 11.4865V9.48649ZM22.1822 11.4865C22.7345 11.4865 23.1822 11.0388 23.1822 10.4865C23.1822 9.9342 22.7345 9.48649 22.1822 9.48649V11.4865ZM9.81891 20.5135C9.26662 20.5135 8.81891 20.9612 8.81891 21.5135C8.81891 22.0658 9.26662 22.5135 9.81891 22.5135V20.5135ZM10.5156 22.5135C11.0678 22.5135 11.5156 22.0658 11.5156 21.5135C11.5156 20.9612 11.0678 20.5135 10.5156 20.5135V22.5135ZM27 14.3784C27 14.9307 27.4477 15.3784 28 15.3784C28.5523 15.3784 29 14.9307 29 14.3784H27ZM14.8117 29C15.364 29 15.8117 28.5523 15.8117 28C15.8117 27.4477 15.364 27 14.8117 27V29ZM16.2937 17C16.846 17 17.2937 16.5523 17.2937 16C17.2937 15.4477 16.846 15 16.2937 15V17ZM4.03167 15C3.47939 15 3.03167 15.4477 3.03167 16C3.03167 16.5523 3.47939 17 4.03167 17V15ZM23.5152 27.5369L23.2253 28.4939C23.4143 28.5512 23.616 28.5512 23.805 28.4939L23.5152 27.5369ZM27.2579 19.6013L26.5479 20.3055L26.5493 20.3069L27.2579 19.6013ZM9.81891 11.4865H10.5156V9.48649H9.81891V11.4865ZM16.1368 11.4865H22.1822V9.48649H16.1368V11.4865ZM9.81891 22.5135H10.5156V20.5135H9.81891V22.5135ZM29 14.3784V10.3762H27V14.3784H29ZM29 10.3762C29 8.16893 28.2118 6.29957 26.8035 4.98693C25.403 3.68155 23.4693 3 21.2982 3V5C23.054 5 24.4711 5.54699 25.4398 6.44994C26.4008 7.34562 27 8.66437 27 10.3762H29ZM21.2982 3H10.7018V5H21.2982V3ZM10.7018 3C8.53199 3 6.59804 3.67789 5.19697 4.9821C3.78781 6.29384 3 8.16374 3 10.3762H5C5 8.65788 5.59965 7.33967 6.55968 6.44601C7.5278 5.54481 8.94476 5 10.7018 5V3ZM3 10.3762V21.6212H5V10.3762H3ZM3 21.6212C3 23.8342 3.78773 25.7047 5.19681 27.0169C6.59785 28.3217 8.53185 29 10.7018 29V27C8.94491 27 7.52799 26.455 6.55984 25.5533C5.59973 24.6592 5 23.3403 5 21.6212H3ZM10.7018 29H14.8117V27H10.7018V29ZM16.2937 15H4.03167V17H16.2937V15ZM23.5152 27.5369C23.805 28.4939 23.8054 28.4938 23.8058 28.4937C23.8059 28.4937 23.8063 28.4935 23.8066 28.4934C23.8072 28.4933 23.8079 28.4931 23.8086 28.4928C23.81 28.4924 23.8117 28.4919 23.8136 28.4913C23.8175 28.4901 23.8223 28.4886 23.828 28.4868C23.8394 28.4832 23.8545 28.4783 23.8731 28.4722C23.9102 28.4599 23.9612 28.4425 24.0242 28.4197C24.1499 28.3741 24.3243 28.3066 24.5312 28.2151C24.9423 28.0334 25.4966 27.7506 26.0573 27.3468C27.1665 26.5477 28.4304 25.1708 28.4304 23.0819H26.4304C26.4304 24.2623 25.7367 25.1128 24.8883 25.7239C24.4702 26.0251 24.0457 26.2431 23.7226 26.3859C23.5625 26.4566 23.431 26.5073 23.3426 26.5394C23.2985 26.5554 23.2654 26.5666 23.2452 26.5733C23.2351 26.5767 23.2282 26.5788 23.2248 26.5799C23.2231 26.5805 23.2223 26.5807 23.2224 26.5807C23.2224 26.5807 23.2227 26.5806 23.2232 26.5805C23.2234 26.5804 23.2237 26.5803 23.2241 26.5802C23.2242 26.5801 23.2246 26.58 23.2246 26.58C23.225 26.5799 23.2253 26.5798 23.5152 27.5369ZM28.4304 23.0819C28.4304 22.2728 28.4392 21.673 28.4476 21.2225C28.4558 20.7838 28.4643 20.4553 28.4623 20.226C28.4605 20.0213 28.4539 19.7444 28.3585 19.4799C28.2433 19.1603 28.037 18.9665 27.9664 18.8956L26.5493 20.3069C26.6364 20.3944 26.5304 20.3063 26.4771 20.1583C26.4437 20.0656 26.4605 20.0263 26.4624 20.2437C26.4641 20.4365 26.4567 20.7146 26.448 21.1854C26.4394 21.6445 26.4304 22.2572 26.4304 23.0819H28.4304ZM27.9679 18.8971C27.8071 18.735 27.5979 18.6229 27.4921 18.5675C27.3496 18.4928 27.182 18.4158 27.0071 18.3408C26.6551 18.1897 26.2232 18.0252 25.7937 17.8739C25.3636 17.7224 24.9215 17.5791 24.5471 17.4722C24.3606 17.4189 24.1817 17.372 24.0245 17.3376C23.891 17.3084 23.6969 17.2703 23.5152 17.2703V19.2703C23.4618 19.2703 23.4713 19.2639 23.5967 19.2913C23.6985 19.3136 23.8341 19.3485 23.998 19.3953C24.3244 19.4885 24.727 19.6186 25.1292 19.7603C25.5319 19.9021 25.9198 20.0506 26.2186 20.1788C26.3692 20.2434 26.4849 20.2976 26.5639 20.339C26.6796 20.3997 26.6301 20.3884 26.5479 20.3055L27.9679 18.8971ZM23.5152 17.2703C23.3331 17.2703 23.1389 17.3085 23.0053 17.3378C22.8482 17.3723 22.6692 17.4193 22.4826 17.4726C22.1081 17.5797 21.6659 17.7233 21.2358 17.8749C20.8062 18.0264 20.3744 18.1909 20.0225 18.3417C19.8477 18.4166 19.6804 18.4933 19.5382 18.5676C19.4327 18.6226 19.2243 18.7339 19.0641 18.8942L20.4783 20.3084C20.3965 20.3902 20.3479 20.401 20.464 20.3404C20.5434 20.2989 20.6595 20.2446 20.8102 20.1801C21.1095 20.0518 21.4978 19.9032 21.9007 19.7612C22.3031 19.6193 22.706 19.489 23.0326 19.3955C23.1965 19.3486 23.3322 19.3137 23.434 19.2913C23.5595 19.2638 23.5688 19.2703 23.5152 19.2703V17.2703ZM19.0641 18.8942C18.9933 18.9649 18.7862 19.1588 18.6709 19.4797C18.576 19.7438 18.5696 20.0208 18.5679 20.225C18.5659 20.4541 18.5745 20.7827 18.5827 21.2217C18.5911 21.6723 18.5999 22.2724 18.5999 23.0819H20.5999C20.5999 22.2569 20.5909 21.6439 20.5824 21.1844C20.5736 20.7134 20.5662 20.435 20.5678 20.2419C20.5696 20.0238 20.5864 20.0631 20.553 20.1561C20.4993 20.3057 20.392 20.3946 20.4783 20.3084L19.0641 18.8942ZM18.5999 23.0819C18.5999 25.1708 19.8638 26.5477 20.9731 27.3468C21.5338 27.7506 22.088 28.0334 22.4991 28.2151C22.7061 28.3066 22.8804 28.3741 23.0061 28.4197C23.0691 28.4425 23.1201 28.4599 23.1572 28.4722C23.1758 28.4783 23.1909 28.4832 23.2023 28.4868C23.2081 28.4886 23.2129 28.4901 23.2167 28.4913C23.2186 28.4919 23.2203 28.4924 23.2217 28.4928C23.2224 28.4931 23.2231 28.4933 23.2237 28.4934C23.224 28.4935 23.2244 28.4937 23.2246 28.4937C23.2249 28.4938 23.2253 28.4939 23.5152 27.5369C23.805 26.5798 23.8054 26.5799 23.8057 26.58C23.8058 26.58 23.8061 26.5801 23.8063 26.5802C23.8066 26.5803 23.8069 26.5804 23.8072 26.5805C23.8077 26.5806 23.8079 26.5807 23.808 26.5807C23.808 26.5807 23.8072 26.5805 23.8055 26.5799C23.8021 26.5788 23.7953 26.5767 23.7852 26.5733C23.7649 26.5666 23.7318 26.5554 23.6877 26.5394C23.5993 26.5073 23.4678 26.4566 23.3077 26.3859C22.9847 26.2431 22.5601 26.0251 22.142 25.7239C21.2936 25.1128 20.5999 24.2623 20.5999 23.0819H18.5999Z" fill="black"/>
</svg>
