<svg width="32" height="32" viewBox="0 0 32 32" fill="none" xmlns="http://www.w3.org/2000/svg">
<path d="M24.3398 21.4458C23.8365 21.6732 23.6129 22.2656 23.8403 22.7689C24.0677 23.2722 24.6601 23.4958 25.1634 23.2684L24.3398 21.4458ZM22.5293 11.8036H21.5293C21.5293 12.3555 21.9765 12.8031 22.5284 12.8036L22.5293 11.8036ZM9.4707 11.8036L9.4797 12.8035C10.0285 12.7986 10.4707 12.3524 10.4707 11.8036H9.4707ZM6.83686 23.2685C7.3402 23.4958 7.93251 23.272 8.15981 22.7687C8.38711 22.2653 8.16334 21.673 7.66 21.4457L6.83686 23.2685ZM17.3309 20.6947C17.3309 21.2469 17.7786 21.6947 18.3309 21.6947C18.8832 21.6947 19.3309 21.2469 19.3309 20.6947H17.3309ZM18.3309 19.2521H19.331L19.3309 19.2399L18.3309 19.2521ZM15.9697 16.9488L15.9575 15.9489L15.9573 15.9489L15.9697 16.9488ZM13.6677 19.2412L12.6678 19.224C12.6677 19.2298 12.6677 19.2355 12.6677 19.2412H13.6677ZM12.6677 20.6947C12.6677 21.2469 13.1154 21.6947 13.6677 21.6947C14.2199 21.6947 14.6677 21.2469 14.6677 20.6947H12.6677ZM25.1634 23.2684C27.4231 22.2472 29 19.9712 29 17.3249H27C27 19.1568 25.9097 20.7364 24.3398 21.4458L25.1634 23.2684ZM29 17.3249C29 15.3476 28.2966 13.6983 27.0929 12.5452C25.8965 11.399 24.2715 10.8051 22.5302 10.8036L22.5284 12.8036C23.8176 12.8047 24.9279 13.2408 25.7093 13.9894C26.4833 14.7309 27 15.841 27 17.3249H29ZM23.5293 11.8036C23.5293 10.5052 23.036 8.65895 21.8703 7.11853C20.6738 5.53732 18.7591 4.27298 16 4.27298V6.27298C18.063 6.27298 19.4129 7.18551 20.2755 8.32539C21.1689 9.50605 21.5293 10.9251 21.5293 11.8036H23.5293ZM16 4.27298C13.2409 4.27298 11.3262 5.53732 10.1297 7.11853C8.96398 8.65895 8.4707 10.5052 8.4707 11.8036H10.4707C10.4707 10.9251 10.831 9.50605 11.7245 8.32539C12.5871 7.18551 13.937 6.27298 16 6.27298V4.27298ZM9.4617 10.8036C7.72803 10.8192 6.10604 11.4115 4.90994 12.5531C3.70532 13.7028 3 15.3462 3 17.3249H5C5 15.8423 5.51673 14.7387 6.29081 13.9999C7.07342 13.2529 8.18678 12.8152 9.4797 12.8035L9.4617 10.8036ZM3 17.3249C3 19.9709 4.57533 22.2472 6.83686 23.2685L7.66 21.4457C6.08931 20.7364 5 19.1571 5 17.3249H3ZM19.3309 20.6947V19.2521H17.3309V20.6947H19.3309ZM19.3309 19.2399C19.3084 17.399 17.7972 15.9265 15.9575 15.9489L15.9819 17.9488C16.7183 17.9398 17.322 18.5291 17.331 19.2643L19.3309 19.2399ZM15.9573 15.9489C14.1559 15.9713 12.6988 17.4222 12.6678 19.224L14.6675 19.2585C14.6799 18.5373 15.263 17.9577 15.9822 17.9488L15.9573 15.9489ZM12.6677 19.2412V20.6947H14.6677V19.2412H12.6677ZM17.9519 25.727H14.0455V27.727H17.9519V25.727ZM14.0455 25.727C13.5271 25.727 13.1068 25.3068 13.1068 24.7883H11.1068C11.1068 26.4113 12.4225 27.727 14.0455 27.727V25.727ZM13.1068 24.7883V22.5961H11.1068V24.7883H13.1068ZM13.1068 22.5961C13.1068 22.0776 13.5271 21.6574 14.0455 21.6574V19.6574C12.4225 19.6574 11.1068 20.973 11.1068 22.5961H13.1068ZM14.0455 21.6574H17.9519V19.6574H14.0455V21.6574ZM17.9519 21.6574C18.4704 21.6574 18.8906 22.0776 18.8906 22.5961H20.8906C20.8906 20.973 19.575 19.6574 17.9519 19.6574V21.6574ZM18.8906 22.5961V24.7883H20.8906V22.5961H18.8906ZM18.8906 24.7883C18.8906 25.3068 18.4704 25.727 17.9519 25.727V27.727C19.575 27.727 20.8906 26.4113 20.8906 24.7883H18.8906Z" fill="black"/>
</svg>
