<svg width="32" height="32" viewBox="0 0 32 32" fill="none" xmlns="http://www.w3.org/2000/svg">
<path d="M20.9314 12.6533C20.9314 13.2056 21.3791 13.6533 21.9314 13.6533C22.4837 13.6533 22.9314 13.2056 22.9314 12.6533H20.9314ZM21.9314 9.85834L22.9315 9.85834L22.9314 9.84604L21.9314 9.85834ZM15.9266 4.00046L15.9143 3.00053L15.914 3.00054L15.9266 4.00046ZM10.0687 9.83233L9.06884 9.8153C9.06874 9.82098 9.06869 9.82665 9.06869 9.83233L10.0687 9.83233ZM9.06869 12.6533C9.06869 13.2056 9.51641 13.6533 10.0687 13.6533C10.621 13.6533 11.0687 13.2056 11.0687 12.6533H9.06869ZM13.3228 19.5015C12.9325 19.1108 12.2993 19.1104 11.9086 19.5007C11.5178 19.891 11.5175 20.5242 11.9077 20.9149L13.3228 19.5015ZM14.8276 22.4231L14.1201 23.1298C14.3076 23.3176 14.5621 23.4231 14.8274 23.4231C15.0928 23.4232 15.3473 23.3177 15.5349 23.1301L14.8276 22.4231ZM20.0909 18.5715C20.4813 18.1808 20.4811 17.5477 20.0905 17.1572C19.6998 16.7668 19.0667 16.767 18.6763 17.1577L20.0909 18.5715ZM22.9314 12.6533V9.85834H20.9314V12.6533H22.9314ZM22.9314 9.84604C22.8842 6.01724 19.7411 2.95342 15.9143 3.00053L15.9389 5.00038C18.6619 4.96686 20.898 7.14704 20.9315 9.87065L22.9314 9.84604ZM15.914 3.00054C12.1646 3.04765 9.13267 6.06748 9.06884 9.8153L11.0685 9.84936C11.114 7.18264 13.2714 5.0339 15.9391 5.00038L15.914 3.00054ZM9.06869 9.83233V12.6533H11.0687V9.83233H9.06869ZM20.9687 27H11.0308V29H20.9687V27ZM11.0308 27C8.85965 27 7.09895 25.2393 7.09895 23.0681H5.09895C5.09895 26.3439 7.75508 29 11.0308 29V27ZM7.09895 23.0681V17.4899H5.09895V23.0681H7.09895ZM7.09895 17.4899C7.09895 15.3187 8.85965 13.558 11.0308 13.558V11.558C7.75508 11.558 5.09895 14.2142 5.09895 17.4899H7.09895ZM11.0308 13.558H20.9687V11.558H11.0308V13.558ZM20.9687 13.558C23.1398 13.558 24.9005 15.3187 24.9005 17.4899H26.9005C26.9005 14.2141 24.2444 11.558 20.9687 11.558V13.558ZM24.9005 17.4899V23.0681H26.9005V17.4899H24.9005ZM24.9005 23.0681C24.9005 25.2393 23.1398 27 20.9687 27V29C24.2444 29 26.9005 26.3439 26.9005 23.0681H24.9005ZM11.9077 20.9149L14.1201 23.1298L15.5351 21.7165L13.3228 19.5015L11.9077 20.9149ZM15.5349 23.1301L20.0909 18.5715L18.6763 17.1577L14.1203 21.7162L15.5349 23.1301Z" fill="black"/>
</svg>
