<svg width="24" height="24" viewBox="0 0 24 24" fill="none" xmlns="http://www.w3.org/2000/svg">
<path d="M3.31903 12.4194C3.14545 12.7955 3.30963 13.2411 3.68572 13.4147C4.06181 13.5882 4.5074 13.4241 4.68097 13.048L3.31903 12.4194ZM19.319 13.048C19.4926 13.4241 19.9382 13.5882 20.3143 13.4147C20.6904 13.2411 20.8545 12.7955 20.681 12.4194L19.319 13.048ZM4.68097 13.048C7.61285 6.69527 16.3871 6.69527 19.319 13.048L20.681 12.4194C17.2129 4.9048 6.78715 4.9048 3.31903 12.4194L4.68097 13.048ZM12 15.7163C11.1409 15.7163 10.4375 15.016 10.4375 14.1529H8.9375C8.9375 15.846 10.3141 17.2163 12 17.2163V15.7163ZM10.4375 14.1529C10.4375 13.2909 11.1407 12.5904 12 12.5904V11.0904C10.3143 11.0904 8.9375 12.4605 8.9375 14.1529H10.4375ZM12 12.5904C12.8592 12.5904 13.5624 13.2909 13.5624 14.1529H15.0624C15.0624 12.4605 13.6857 11.0904 12 11.0904V12.5904ZM13.5624 14.1529C13.5624 15.016 12.859 15.7163 12 15.7163V17.2163C13.6859 17.2163 15.0624 15.846 15.0624 14.1529H13.5624Z" fill="black"/>
</svg>
