<?xml version="1.0" standalone="no"?>
<!DOCTYPE svg PUBLIC "-//W3C//DTD SVG 1.1//EN" "http://www.w3.org/Graphics/SVG/1.1/DTD/svg11.dtd" >
<svg xmlns="http://www.w3.org/2000/svg">
<metadata></metadata>
<defs>
<font id="rodussquare700bold" horiz-adv-x="1617" >
<font-face units-per-em="2048" ascent="1638" descent="-410" />
<missing-glyph horiz-adv-x="500" />
<glyph horiz-adv-x="0" />
<glyph unicode="&#xd;" horiz-adv-x="2048" />
<glyph unicode="!" horiz-adv-x="600" d="M94 0h144h2h143v287h-143h-2h-144v-287zM94 377h287v143v770v144h-287v-144v-770v-143z" />
<glyph unicode="&#x22;" horiz-adv-x="964" d="M102 860h287v144v286v144h-287v-144v-286v-144zM494 860h286v144v286v144h-286v-144v-286v-144z" />
<glyph unicode="#" horiz-adv-x="1484" d="M-14 0h311l37 88l83 199h166l-36 -88l-82 -199h311l37 88l83 199h159h143v286h-143h-40l119 287h23h143v287h-46l36 88l82 199h-311l-37 -88l-83 -199h-165l37 88l82 199h-311l-37 -88l-83 -199h-161h-143v-287h143h41l-120 -287h-23h-144v-286h47l-36 -88zM537 573 l119 287h166l-119 -287h-166z" />
<glyph unicode="$" horiz-adv-x="1050" d="M-27 922q0 -90 31.5 -162.5t85 -118t118.5 -71.5t136 -30v-221h-92h-143v-286h143h92v-4v-144h287v144v4q72 4 138.5 31t120.5 75t86 123t32 166q0 92 -32 167.5t-86 123.5t-120 75t-139 31v191h92h143v287h-143h-92v32v144h-287v-144v-33q-71 -4 -135.5 -29t-118 -70 t-85.5 -118t-32 -163zM260 916v6q0 64 7 77q9 16 57 17h20v-191q-61 0 -72.5 13.5t-11.5 77.5zM631 320v219q65 -1 77.5 -17.5t12.5 -93.5q0 -76 -12.5 -91.5t-77.5 -16.5z" />
<glyph unicode="%" horiz-adv-x="1269" d="M-55 1063q0 -86 46 -169t124.5 -136.5t165.5 -55.5q142 -3 248 123l-328 -614l-113 -211h326l41 76l614 1147l113 211h-326l-41 -76l-208 -389q14 47 14 92q1 96 -46.5 183.5t-125.5 140.5t-164 55q-89 2 -168.5 -55t-125.5 -144.5t-46 -177.5zM231 1063q0 60 9 75t41 15 q38 0 46 -13.5t7 -74.5q-2 -57 -8 -66.5t-41 -9.5q-37 0 -45.5 11.5t-8.5 62.5zM664 362q1 -49 14.5 -100.5t41.5 -100.5t67 -87.5t94.5 -62t119.5 -23.5q63 0 119 23.5t95 62t67.5 88t42.5 101.5t14 102q0 60 -23.5 123t-65 116t-107.5 87t-142 34t-142 -34.5t-107.5 -88.5 t-65 -117t-22.5 -123zM950 367q-1 55 5 63t46 8t46 -8t6 -65q0 -67 -7 -79t-45 -12q-36 0 -42.5 12.5t-8.5 80.5z" />
<glyph unicode="&#x26;" horiz-adv-x="1507" d="M107 353q17 -92 60 -165t106 -122t133 -64q216 -44 452 115l16 10q63 -62 153.5 -94.5t152.5 -32.5h143v287h-143q-33 0 -57 11l139 95l116 82l-161 236l-119 -80l-181 -126l-292 319q129 173 131 272q0 144 -99 241t-221 97q-121 0 -222.5 -92t-104.5 -226 q-2 -91 35.5 -163.5t102.5 -142.5q-107 -144 -134 -265q-23 -100 -6 -192zM378 369q-6 41 13 110q11 47 57 114l230 -252q-67 -44 -111.5 -56t-103.5 0q-40 7 -59.5 25t-25.5 59zM393.5 1137q-0.5 3 0 6.5t1 4t4.5 1t7.5 0t12 -1t17.5 -0.5q10 0 20 0.5t11.5 1t4 -2.5 t1 -6.5t-2.5 -15t-1 -24.5q0 -17 -36 -63q-38 46 -38 75q0 8 -0.5 15t-1 10z" />
<glyph unicode="'" horiz-adv-x="602" d="M57 860h287v144v286v144h-287v-144v-286v-144z" />
<glyph unicode="(" horiz-adv-x="733" d="M109 520q0 -209 43 -415.5t124 -370.5l41 -80h320l-102 207q-140 283 -140 659q0 377 140 660l102 206h-320l-41 -79q-81 -164 -124 -371t-43 -416z" />
<glyph unicode=")" horiz-adv-x="733" d="M0 -344h334l41 70q65 110 106 264.5t54.5 281.5t13.5 248q0 122 -13.5 249.5t-54.5 282.5t-106 265l-41 69h-334l129 -217q133 -223 133 -649q0 -178 -30.5 -351.5t-102.5 -295.5z" />
<glyph unicode="*" horiz-adv-x="991" d="M55 918l146 -248l114 69v-137h287v135l113 -67l145 248l-119 68l119 69l-145 248l-113 -68v135h-287v-136l-114 69l-146 -248l120 -69z" />
<glyph unicode="+" horiz-adv-x="1153" d="M109 573h143h143v-184v-143h287v143v184h143h144v287h-144h-143v184v144h-287v-144v-184h-143h-143v-287z" />
<glyph unicode="," horiz-adv-x="688" d="M14 -154h324l41 76l108 205l111 211h-324l-41 -76l-108 -205z" />
<glyph unicode="-" horiz-adv-x="886" d="M109 573h143h307h143v287h-143h-307h-143v-287z" />
<glyph unicode="." horiz-adv-x="630" d="M106 0h144h2h143v287h-143h-2h-144v-287z" />
<glyph unicode="/" horiz-adv-x="753" d="M23 0h290l25 115l229 1147l33 172h-291l-24 -115l-230 -1147z" />
<glyph unicode="0" horiz-adv-x="1439" d="M94 397q0 -99 50 -190.5t136.5 -149t184.5 -57.5h414q152 0 264 121.5t112 275.5v639q0 99 -50 190.5t-138 149.5t-188 58h-412q-150 0 -260.5 -120t-112.5 -276v-2v-639zM381 397v639q1 72 16.5 91.5t69.5 19.5h412q57 0 73.5 -21t16.5 -90v-639q0 -70 -16.5 -90 t-73.5 -20h-414q-53 0 -68.5 20.5t-15.5 89.5z" />
<glyph unicode="1" horiz-adv-x="1257" d="M94 0h144h204h287h201h143v287h-143h-201v1003v144h-213l-389 -734h180l43 56l92 116v-585h-204h-144v-287z" />
<glyph unicode="2" horiz-adv-x="1439" d="M94 0h144h874h143v287h-143h-731v108q0 84 15 106.5t69 20.5h412q82 0 155 47.5t120.5 123t75 166.5t27.5 179q0 99 -50 190t-138.5 148.5t-189.5 57.5h-408q-101 0 -189.5 -60.5t-137 -151.5t-48.5 -184v-143h287v143q0 66 17 87.5t71 21.5h408q58 0 75 -20t17 -89 q0 -229 -92 -229h-408q-153 1 -264 -124.5t-111 -289.5v-252v-143z" />
<glyph unicode="3" horiz-adv-x="1439" d="M94 0h144h641q86 0 158.5 42.5t119 112t72.5 156.5t26 178q0 123 -42 233.5t-127 184.5t-196 76h9l260 193l58 43v215h-144h-835h-144v-287h144h401l-260 -193l-57 -43v-215h143h414h2q52 0 70 -41t18 -166q0 -123 -18.5 -162.5t-71.5 -39.5h-641h-144v-287z" />
<glyph unicode="4" horiz-adv-x="1429" d="M29 254h143h676v-111v-143h287v143v111h28h144v287h-144h-28v749v144h-207l-43 -48l-819 -892zM498 541l350 381v-381h-350z" />
<glyph unicode="5" horiz-adv-x="1439" d="M94 397q0 -99 50 -190.5t136.5 -149t184.5 -57.5h414q152 0 264 121.5t112 275.5v191q0 106 -50.5 211.5t-138.5 175t-187 69.5h-414h-23v105h596h144v287h-144h-739h-143v-144v-391v-143h143h166h414q90 0 90 -170v-191q0 -70 -16.5 -90t-73.5 -20h-414 q-53 0 -68.5 20.5t-15.5 89.5v144h-287v-144z" />
<glyph unicode="6" horiz-adv-x="1439" d="M94 397q0 -99 50 -190.5t136.5 -149t184.5 -57.5h414q152 0 264 121.5t112 275.5q0 135 -46.5 256.5t-135 199t-196.5 75.5h-496v108q1 72 16 91.5t68 19.5h414q57 0 73.5 -21t16.5 -90h286q0 99 -50 190.5t-138 149.5t-188 58h-414q-98 0 -184 -56t-136 -147.5 t-51 -192.5v-2v-639zM381 397v244h498h2q45 0 66.5 -53.5t21.5 -190.5q0 -70 -16.5 -90t-73.5 -20h-414q-53 0 -68.5 20.5t-15.5 89.5z" />
<glyph unicode="7" horiz-adv-x="1439" d="M94 1147h144h665l-360 -952l-76 -195h307l35 92l436 1147l76 195h-66h-143h-874h-144v-287z" />
<glyph unicode="8" horiz-adv-x="1439" d="M94 397q0 -99 50 -190.5t136.5 -149t184.5 -57.5h414q152 0 264 121.5t112 275.5q0 182 -107 321q50 65 78.5 144.5t28.5 157.5q0 103 -49 198t-137 155.5t-190 60.5h-412q-100 0 -186.5 -59.5t-136 -154t-50.5 -198.5v-2q0 -78 28.5 -157.5t78.5 -144.5 q-50 -65 -78.5 -149.5t-28.5 -171.5zM381 397q0 106 18 141t64 35h2h414h2q51 0 69.5 -35t18.5 -141q0 -70 -16.5 -90t-73.5 -20h-414q-53 0 -68.5 20.5t-15.5 89.5zM381 1020q1 81 17 104t69 23h412q54 0 72 -24.5t18 -102.5q0 -87 -20 -122.5t-66 -37.5h-6h-410h-6 q-44 2 -62 37t-18 123z" />
<glyph unicode="9" horiz-adv-x="1439" d="M94 397q0 -99 50 -190.5t136.5 -149t184.5 -57.5h414q152 0 264 121.5t112 275.5v639q0 99 -50 190.5t-138 149.5t-188 58h-414q-98 0 -184 -56t-136 -147.5t-51 -192.5v-2q0 -110 47.5 -216t134.5 -176.5t189 -70.5h504v-176q0 -70 -16.5 -90t-73.5 -20h-414 q-53 0 -68.5 20.5t-15.5 89.5h-287zM381 1036q1 72 16 91.5t68 19.5h414q57 0 73.5 -21t16.5 -90v-176h-504q-44 0 -64 39.5t-20 136.5z" />
<glyph unicode=":" horiz-adv-x="657" d="M133 0h143h3h143v287h-143h-3h-143v-287zM133 723h143h3h143v287h-143h-3h-143v-287z" />
<glyph unicode=";" horiz-adv-x="602" d="M-29 -154h312l36 86l89 205l86 201h-312l-37 -86l-88 -205zM88 707h143h2h144v286h-144h-2h-143v-286z" />
<glyph unicode="&#x3c;" horiz-adv-x="1204" d="M109 625l84 -39l624 -287l203 -92v315l-84 39l-340 156l340 155l84 39v316l-203 -92l-624 -287l-84 -39v-184z" />
<glyph unicode="=" horiz-adv-x="1204" d="M109 332h143h625h143v286h-143h-625h-143v-286zM109 737h143h625h143v287h-143h-625h-143v-287z" />
<glyph unicode="&#x3e;" horiz-adv-x="1204" d="M109 207l202 92l625 287l84 39v184l-84 39l-625 287l-202 92v-316l84 -39l339 -155l-339 -156l-84 -39v-315z" />
<glyph unicode="?" horiz-adv-x="1269" d="M102 893h287v143q0 79 5 95t30 16h346q18 0 23.5 -18.5t5.5 -92.5v-80q0 -35 1 -80q1 -43 -1.5 -50t-19.5 -7h-9h-14q-66 0 -124.5 -33.5t-96.5 -84t-60 -107.5t-22 -107v-143h286v143q0 40 1 42.5t16 2.5h14q127 0 221 116t94 308v80q0 93 -40 184t-114 152.5t-161 61.5 h-346q-89 0 -164 -58.5t-116.5 -149.5t-41.5 -190v-143zM451 0h143h2h143v287h-143h-2h-143v-287z" />
<glyph unicode="A" horiz-adv-x="1744" d="M-86 0h330l43 72l105 182h7h828h22l105 -182l41 -72h331l-122 215l-658 1147l-41 72h-166l-43 -72l-659 -1147zM556 541l265 460l264 -460h-529z" />
<glyph unicode="B" horiz-adv-x="1597" d="M143 0h144h739q104 0 194 61.5t141.5 160.5t51.5 208q0 183 -102 301q48 62 75 135t27 138q0 104 -51 203t-141.5 163t-194.5 64h-739h-144v-144v-430v-287v-430v-143zM430 287v286h596q29 0 41.5 -0.5t26.5 -6t18 -11.5t8.5 -25.5t5 -39.5t0.5 -60q0 -87 -20.5 -115 t-79.5 -28h-596zM430 860v287h596q57 0 78.5 -30t21.5 -113q0 -144 -100 -144h-596z" />
<glyph unicode="C" d="M143 397q0 -99 53.5 -191t145.5 -149t197 -57h501q103 0 194.5 56t145.5 148t54 193v144h-287v-144q0 -68 -20.5 -89t-86.5 -21h-501q-66 0 -87.5 21.5t-21.5 88.5v639q2 69 22 90t87 21h501q64 0 85.5 -22.5t21.5 -88.5v-143h287v143q0 98 -53.5 190t-145.5 150t-195 58 h-501q-104 0 -195.5 -55t-145.5 -146.5t-55 -194.5v-2v-639z" />
<glyph unicode="D" d="M143 0h144h753q103 0 194.5 56t145.5 148t54 193v639q0 98 -53.5 190t-145.5 150t-195 58h-753h-144v-144v-1147v-143zM430 287v860h610q64 0 85.5 -22.5t21.5 -88.5v-639q0 -68 -20.5 -89t-86.5 -21h-610z" />
<glyph unicode="E" d="M143 0h144h1003h144v287h-144h-860v286h610h144v287h-144h-610v287h860h144v287h-144h-1003h-144v-144v-430v-287v-430v-143z" />
<glyph unicode="F" horiz-adv-x="1396" d="M143 0h287v143v430h447h143v287h-143h-447v287h698h144v287h-144h-841h-144v-144v-430v-287v-430v-143z" />
<glyph unicode="G" d="M143 397q0 -99 53.5 -191t145.5 -149t197 -57h501q103 0 194.5 56t145.5 148t54 193v320v143h-144h-502v-287h359v-176q0 -68 -20.5 -89t-86.5 -21h-501q-66 0 -87.5 21.5t-21.5 88.5v639q2 69 22 90t87 21h501q64 0 85.5 -22.5t21.5 -88.5h287q0 98 -53.5 190 t-145.5 150t-195 58h-501q-104 0 -195.5 -55t-145.5 -146.5t-55 -194.5v-2v-639z" />
<glyph unicode="H" d="M143 0h287v143v430h717v-430v-143h287v143v430v287v430v144h-287v-144v-430h-717v430v144h-287v-144v-430v-287v-430v-143z" />
<glyph unicode="I" horiz-adv-x="956" d="M143 0h144h28h287h27h143v287h-143h-27v860h27h143v287h-143h-27h-287h-28h-144v-287h144h28v-860h-28h-144v-287z" />
<glyph unicode="J" horiz-adv-x="1368" d="M143 397q0 -75 34 -149t87.5 -127.5t121 -87t132.5 -33.5h291q87 0 174 55t144 148t57 194v893v144h-287v-144v-893q0 -63 -20.5 -86.5t-67.5 -23.5h-291q-47 0 -67.5 24t-20.5 86v144h-287v-144z" />
<glyph unicode="K" d="M143 0h287v143v430h160l604 -536l41 -37h432l-281 250l-526 467l526 467l281 250h-432l-41 -37l-604 -537h-160v430v144h-287v-144v-430v-287v-430v-143z" />
<glyph unicode="L" horiz-adv-x="1368" d="M143 0h144h753h144v287h-144h-610v1003v144h-287v-144v-1147v-143z" />
<glyph unicode="M" horiz-adv-x="1986" d="M143 0h287v143v676l420 -749l41 -70h164l41 70l420 749v-676v-143h286v143v1147v144h-225l-41 -70l-561 -969l-565 969l-41 70h-226v-144v-1147v-143z" />
<glyph unicode="N" d="M143 0h287v143v766l752 -860l43 -49h209v143v1147v144h-287v-144v-766l-752 860l-43 50h-209v-144v-1147v-143z" />
<glyph unicode="O" d="M143 395q0 -100 54 -191.5t146 -147.5t196 -56h501q162 0 278 120.5t116 274.5v643q0 102 -52 193t-143.5 147t-198.5 56h-499q-160 0 -278 -118.5t-120 -275.5v-2v-643zM430 395v643q2 68 22 88.5t89 20.5h499q69 0 88 -19.5t19 -89.5v-643q0 -68 -20 -88t-87 -20h-501 q-67 0 -88 21t-21 87z" />
<glyph unicode="P" d="M143 0h287v143v430h610q81 0 156 41.5t126 105t81.5 139.5t30.5 145q0 104 -52 203t-144 163t-198 64h-753h-144v-144v-430v-287v-430v-143zM430 860v287h610q61 0 84 -30.5t23 -112.5q0 -144 -107 -144h-610z" />
<glyph unicode="Q" d="M143 397q0 -99 53.5 -191t145.5 -149t197 -57h501q83 0 156 34l6 -5l115 -86l174 227l-91 71q34 76 34 156v641q0 102 -52 193t-143.5 147t-198.5 56h-499q-160 0 -278 -119t-120 -277v-2v-639zM430 397v639q2 69 22 90t89 21h499q69 0 88 -19.5t19 -89.5v-603l-100 77 l-115 86l-174 -227l107 -84h-326q-66 0 -87.5 21.5t-21.5 88.5z" />
<glyph unicode="R" d="M143 0h287v143v430h467h143q30 0 44 -0.5t28.5 -6t19.5 -12t9.5 -26t5 -39.5t0.5 -59v-287v-143h287v143v287q0 181 -104 300q49 62 76.5 135t27.5 139q0 104 -52 203t-144 163t-198 64h-753h-144v-144v-430v-287v-430v-143zM430 860v287h610q61 0 84 -30.5t23 -112.5 q0 -144 -107 -144h-143h-467z" />
<glyph unicode="S" horiz-adv-x="1568" d="M94 430q0 -108 52.5 -207t144.5 -161t198 -62h502q105 0 196 61t144 160.5t53 208.5q0 101 -33 184t-88.5 136t-125.5 81.5t-146 28.5h-502q-56 0 -82 35.5t-26 108.5q1 87 22.5 115t85.5 28h461q61 0 84 -30.5t23 -112.5h286q0 104 -51.5 203t-143.5 163t-198 64h-461 q-161 0 -277 -129.5t-118 -298.5v-2q0 -70 30.5 -146t81.5 -139.5t126 -104.5t157 -41h502q30 0 44 -0.5t28.5 -6t19.5 -12t9.5 -26t5 -39.5t0.5 -59q0 -86 -22 -114.5t-85 -28.5h-502q-64 0 -86 29t-22 114h-287z" />
<glyph unicode="T" horiz-adv-x="1474" d="M0 1147h143h359v-1004v-143h286v143v1004h359h143v287h-143h-359h-286h-359h-143v-287z" />
<glyph unicode="U" d="M143 397q0 -99 53.5 -191t145.5 -149t197 -57h501q103 0 194.5 56t145.5 148t54 193v893v144h-287v-144v-893q0 -68 -20.5 -89t-86.5 -21h-501q-66 0 -87.5 21.5t-21.5 88.5v893v144h-287v-144v-893z" />
<glyph unicode="V" horiz-adv-x="1658" d="M-115 1434l119 -213l633 -1147l41 -74h168l41 74l631 1147l116 213h-325l-41 -74l-506 -920l-508 920l-41 74h-328z" />
<glyph unicode="W" horiz-adv-x="2349" d="M-80 1434l82 -199l475 -1147l37 -88h191l36 86l367 838l346 -836l37 -88h190l37 86l496 1147l88 201h-313l-37 -86l-363 -838l-346 836l-37 88h-190l-37 -86l-365 -838l-346 836l-37 88h-311z" />
<glyph unicode="X" horiz-adv-x="1556" d="M-90 0h381l43 49l393 450l393 -450l43 -49h381l-207 238l-419 479l419 479l207 238h-381l-43 -50l-393 -449l-393 449l-43 50h-381l207 -238l419 -479l-419 -479z" />
<glyph unicode="Y" horiz-adv-x="1550" d="M-135 1434l217 -240l481 -533v-518v-143h287v143v519l479 532l215 240h-385l-43 -48l-409 -454l-412 454l-43 48h-387z" />
<glyph unicode="Z" horiz-adv-x="1576" d="M82 0h125h143h899h144v287h-144h-631l621 923l150 224h-125h-144h-813h-143v-287h143h545l-621 -924z" />
<glyph unicode="[" horiz-adv-x="757" d="M109 4q0 -63 26.5 -127t69.5 -113.5t103.5 -80t123.5 -29.5l141 2v287l-145 -2q-26 0 -29.5 6t-3.5 57v1032q0 52 3.5 58t33.5 6l141 2v287l-145 -3q-127 -3 -223 -110.5t-96 -239.5v-1032z" />
<glyph unicode="\" horiz-adv-x="772" d="M2 1434l41 -177l262 -1146l25 -111h295l-41 176l-262 1147l-25 111h-295z" />
<glyph unicode="]" horiz-adv-x="757" d="M109 -59v-287h143q126 0 223.5 110t97.5 240v1032q0 83 -43 163.5t-118 133.5t-160 53h-143v-286h143q28 0 31.5 -6.5t3.5 -57.5v-1032q0 -51 -3.5 -57t-31.5 -6h-143z" />
<glyph unicode="^" horiz-adv-x="976" d="M49 573h305l33 97l64 182l63 -182l33 -97h303l-66 191l-196 573l-33 97h-205l-33 -97l-200 -573z" />
<glyph unicode="_" horiz-adv-x="1093" d="M-16 0h143l842 -2h143v287h-143l-842 2h-143v-287z" />
<glyph unicode="`" horiz-adv-x="659" d="M63 1434l52 -183l80 -286l28 -105h297l-51 182l-80 287l-29 105h-297z" />
<glyph unicode="a" horiz-adv-x="1265" d="M61 336q0 -88 55 -166t144 -124t184 -46h191q66 0 160 35v-35h286v143v191v2v141v254q0 115 -99.5 214t-221.5 99h-316q-122 0 -221.5 -99t-99.5 -214h287q0 26 0.5 26.5t33.5 0.5h316q7 0 15 0.5t10.5 0t6 0t3.5 -2.5t0.5 -4.5t0 -8t-0.5 -12.5v-96h-349h-5 q-94 1 -179 -33q-87 -34 -144 -104.5t-57 -161.5zM348 352q0 23 2 34.5t11 23.5t29 16q16 4 42 4h12h351v-94q0 -6 -22 -17.5t-61 -21.5t-77 -10h-191q-63 0 -79.5 13.5t-16.5 51.5z" />
<glyph unicode="b" horiz-adv-x="1288" d="M123 0h143h510q134 0 231 99.5t97 213.5v416q0 75 -46 148t-123 120t-159 47h-366v246v144h-287v-144v-246v-286v-615v-143zM410 287v471h366h15q7 0 11 1h3l5 -1q4 -2 4.5 -1t2 -2.5t1 -5t-0.5 -9v-11.5v-416q0 -5 0.5 -11t0.5 -8v-5t-1.5 -3t-2.5 -1l-2 -1l-2 1 q-4 1 -8 1t-11 0.5t-15 0.5h-366z" />
<glyph unicode="c" horiz-adv-x="1288" d="M123 311q0 -72 42.5 -143.5t119.5 -119.5t166 -48h325h8q122 0 218 94q99 98 102 217v78h-287v-74q0 -7 0.5 -15t0.5 -9.5t-0.5 -4t-3.5 -2t-6 0.5t-11 1t-17 1h-329q-8 0 -16 -0.5t-12 -1t-7.5 -0.5h-4.5t-1.5 2.5t-0.5 4t0.5 7.5t0.5 12v420v11v8t1 4.5t2 3t5 1 t7.5 0.5t11.5 -1h16h323q34 0 37.5 -2t3.5 -25v-96h287v96q0 74 -47.5 147t-124 119.5t-156.5 46.5h-323q-83 0 -160.5 -47t-123.5 -119.5t-46 -146.5v-420z" />
<glyph unicode="d" horiz-adv-x="1288" d="M123 313q0 -73 42.5 -145t120 -120t167.5 -48h508h143v143v615v286v246v144h-287v-144v-246h-366q-82 0 -159 -47t-123 -120t-46 -148v-416zM409 294q1 2 1 6v13v416v10.5v8v5t2 3.5q0 1 2 2q1 1 3 1q1 -1 3 -1h6h5h6h14h366v-471h-364q-10 0 -19 -1t-13 0q-3 0 -7 -1h-2 q-2 -1 -2 1z" />
<glyph unicode="e" horiz-adv-x="1331" d="M123 311q0 -114 101.5 -212.5t238.5 -98.5h348q67 0 130.5 28.5t108 73t71 100.5t26.5 111h-287q0 -6 0.5 -13t0 -8.5t-1 -4t-4.5 -2t-8 0.5t-14.5 0.5t-21.5 0.5h-348q-12 0 -23 -0.5t-15.5 -0.5t-9 -1t-5 2t-1 4t0 8t0.5 12v99h591h146v110v209q0 118 -105 216.5 t-233 98.5h-346q-129 0 -234.5 -98t-105.5 -215v-420zM410 614v117q0 23 4 25t49 2h346q43 0 47 -2t4 -27v-115h-450z" />
<glyph unicode="f" horiz-adv-x="780" d="M82 758h67q0 -165 -2 -615v-143h287v143q2 450 2 615h17h143v286h-143h-17v31q0 55 9.5 63.5t68.5 8.5h143v287h-143q-149 0 -256.5 -108t-107.5 -251v-31h-68v-286z" />
<glyph unicode="g" horiz-adv-x="1288" d="M123 311q0 -72 42.5 -143.5t119.5 -119.5t166 -48h366v-111q0 -30 -6 -36.5t-35 -6.5h-323h-144v-286h144h323q88 0 166 56t120 131.5t42 141.5v111v287v614v143h-143h-508q-83 0 -160.5 -47t-123.5 -119.5t-46 -146.5v-420zM409 291.5q0 1.5 0.5 7.5t0.5 12v420v11v8 t1 4.5t2 3t5 0.5q2 1 5 1h3q3 -1 11 -1h16h364v-471h-366q-8 0 -16 -0.5t-12 -1t-7.5 -0.5h-4.5t-1.5 2.5t-0.5 4z" />
<glyph unicode="h" horiz-adv-x="1288" d="M123 0h287v143v443v143v23q0 2 0.5 3.5t2.5 2t3.5 1t5 0.5t7.5 -0.5t10 -0.5h12h325q7 0 14 0.5t10.5 0t7 0t5 -0.5t3 -1t1.5 -3.5v-5v-7.5v-10v-588v-143h287v143v588q0 115 -101.5 214t-226.5 99h-325q-20 0 -41 -3v249v144h-287v-144v-561v-143v-443v-143z" />
<glyph unicode="i" horiz-adv-x="763" d="M129 0h287v143v758v143h-287v-143v-758v-143zM131 1126h143h2h144v287h-144h-2h-143v-287z" />
<glyph unicode="j" horiz-adv-x="731" d="M2 -154v-286h143q94 0 188.5 48t154 123.5t59.5 149.5v1020v143h-287v-143v-1020q0 -35 -115 -35h-143zM260 1126h143h3h143v287h-143h-3h-143v-287z" />
<glyph unicode="k" horiz-adv-x="1288" d="M123 0h287v143v234h134l312 -332l43 -45h393l-227 242l-262 278l262 283l225 241h-391l-43 -45l-312 -335h-134v626v144h-287v-144v-626v-287v-234v-143z" />
<glyph unicode="l" horiz-adv-x="815" d="M123 311q0 -122 114 -216.5t250 -94.5h144v287h-144q-62 0 -69.5 2t-7.5 22v979v144h-287v-144v-979z" />
<glyph unicode="m" horiz-adv-x="2213" d="M123 0h287v143v588q0 9 9 14.5t44 9t100 3.5h123h107q141 0 141 -27v-588v-143h2h285h2v143l-2 588v1q0 20 13 23t91 3h23h120h121q65 0 100.5 -3.5t44.5 -9t9 -14.5v-588v-143h287v143v588q0 87 -65.5 160t-166.5 113t-209 40h-121h-120q-158 0 -276 -81 q-129 81 -279 81h-107h-123q-110 0 -212 -42.5t-165 -115.5t-63 -155v-588v-143z" />
<glyph unicode="n" horiz-adv-x="1288" d="M123 0h287v143v586v10.5v8v5t1.5 4t3 1.5t5 0.5t7 0t10.5 0t14 -0.5h325q7 0 14 0.5t10.5 0t7 0t5 -0.5t3 -1t1.5 -3.5v-5v-7.5v-10v-588v-143h287v143v588q0 115 -101.5 214t-226.5 99h-325q-82 0 -159 -47t-123 -120t-46 -148v-586v-143z" />
<glyph unicode="o" horiz-adv-x="1288" d="M123 313q0 -114 97 -213.5t231 -99.5h325q134 0 231 99.5t97 213.5v418q0 115 -101.5 214t-226.5 99h-325q-125 0 -226.5 -99t-101.5 -214v-418zM409 294q1 2 1 6v13v418v11v8l-1 1t1 3q2 4 3 4q1 -2 5 0q2 1 4 1h2q4 -1 12 -1h15h325q7 0 14 0.5t10.5 0t7 0t5 -0.5t3 -1 t1.5 -3.5v-5v-7.5v-10v-418q0 -5 0.5 -11t0.5 -8v-5t-1.5 -3t-2.5 -1l-2 -1l-2 1q-4 1 -8 1t-11 0.5t-15 0.5h-325q-9 0 -18 -1t-13 0q-2 0 -6 -1h-2q-2 -1 -2 1z" />
<glyph unicode="p" horiz-adv-x="1288" d="M123 0v-297v-143h287v143v297h366q134 0 231 99.5t97 213.5v418q0 115 -101.5 214t-226.5 99h-510h-143v-143v-614v-287zM410 287v471h366h14q4 1 6.5 1t3.5 -1h8q1 1 2 1q2 0 2 -1q2 -1 3.5 -1t1.5 -3.5v-5v-7.5v-10v-418q0 -5 0.5 -11t0.5 -8v-5t-1.5 -3t-2.5 -1 q0 -1 -1.5 -1t-2.5 1q-4 1 -8 1t-11 0.5t-15 0.5h-366z" />
<glyph unicode="q" horiz-adv-x="1288" d="M123 311q0 -72 42.5 -143.5t119.5 -119.5t166 -48h366v-297v-143h287v143v297v287v614v143h-143h-508q-83 0 -160.5 -47t-123.5 -119.5t-46 -146.5v-420zM409 291.5q0 1.5 0.5 7.5t0.5 12v420v11v8t1 4.5t2 3t5 0.5q2 1 5 1h3q3 -1 11 -1h16h364v-471h-366q-8 0 -16 -0.5 t-12 -1t-7.5 -0.5h-4.5t-1.5 2.5t-0.5 4z" />
<glyph unicode="r" horiz-adv-x="878" d="M123 0h287v143v588q0 6 -0.5 12t0 8t0 4.5t2 2.5t3.5 0.5t6.5 0t10.5 -0.5h201h143v286h-143h-201q-111 0 -210 -100t-99 -213v-588v-143z" />
<glyph unicode="s" horiz-adv-x="1243" d="M78 313q0 -114 97 -213.5t231 -99.5h325q67 0 129 28.5t105 73t68.5 99.5t25.5 108v15q0 123 -93 214q-99 97 -235 97h-321q-32 1 -40 21q-6 15 -6 44q0 11 1 23v4v12t-0.5 9.5t1 5.5t2.5 3.5t5 1t7.5 0.5t12 -1h15.5h282q7 0 14 0.5t10.5 0t7 0t5 -0.5t3 -1t1.5 -3.5v-5 v-7.5v-10h287q0 115 -101.5 214t-226.5 99h-282q-126 0 -228 -99t-102 -210v-13q0 -71 40 -139q44 -74 121.5 -122t166.5 -51h323q31 0 39 -19q5 -14 5 -44q0 -12 -1 -28v-2q0 -7 0.5 -15t0 -10t-0.5 -5t-3.5 -2t-7 1t-12.5 0.5t-18 0.5h-325q-9 0 -18 -1t-12.5 -0.5 t-7 -0.5t-3.5 1.5t-0.5 4t0 9t0.5 13.5h-287z" />
<glyph unicode="t" horiz-adv-x="837" d="M82 758h86v-443v-6q0 -113 118 -209q121 -100 285 -100h144v287h-144q-84 0 -100 3.5t-16 18.5v2v447h55h143v286h-143h-55v246v144h-287v-144v-246h-86v-286z" />
<glyph unicode="u" horiz-adv-x="1288" d="M123 311q0 -72 42.5 -143.5t119.5 -119.5t166 -48h327q67 0 128.5 28.5t104 73.5t68 101t25.5 110v588v143h-287v-143v-588q0 -7 0.5 -15t0.5 -9t-2.5 -3t-5.5 -1t-12.5 1.5t-19.5 0.5h-327q-8 0 -16 -0.5t-12 -1t-7.5 -0.5h-4.5t-1.5 2.5t-0.5 4t0.5 7.5t0.5 12v590v143 h-287v-143v-590z" />
<glyph unicode="v" horiz-adv-x="1290" d="M-53 1044l112 -210l410 -758l41 -76h172l41 76l407 758l113 210h-325l-41 -75l-281 -525l-283 525l-41 75h-325z" />
<glyph unicode="w" horiz-adv-x="2004" d="M-68 1044l103 -206l375 -758l41 -80h176l39 78l260 506l252 -504l41 -80h178l39 80l370 758l101 206h-320l-39 -79l-243 -498l-248 498l-41 79h-176l-39 -77l-260 -504l-248 502l-41 79h-320z" />
<glyph unicode="x" horiz-adv-x="1191" d="M-102 0h378l43 49l219 253l218 -253l43 -49h379l-205 238l-246 284l246 285l205 237h-379l-43 -49l-218 -253l-219 253l-43 49h-378l204 -237l246 -285l-246 -284z" />
<glyph unicode="y" horiz-adv-x="1288" d="M23 1044l118 -213l387 -698q-55 -145 -119.5 -216t-142.5 -71h-143v-286h143q159 0 294.5 124.5t220.5 315.5h5l35 94l275 758l69 192h-305l-35 -94l-167 -458l-267 479l-41 73h-327z" />
<glyph unicode="z" horiz-adv-x="1261" d="M41 0h127h143h623h143v287h-143h-352l360 534l152 223h-127h-144h-577h-144v-286h144h307l-360 -535z" />
<glyph unicode="{" horiz-adv-x="821" d="M-49 518q22 -24 61 -66t52 -56.5t37.5 -43t31 -40.5t19.5 -33.5t15.5 -37.5t5.5 -36.5t3 -46.5q0 -92 19 -179t56.5 -161t100.5 -119t142 -45h143v287h-143q-11 0 -17 15t-10 63.5t-4 138.5q0 85 -15.5 156.5t-39.5 113.5t-40.5 63.5t-29.5 30.5q12 9 29 30.5t40.5 63.5 t39.5 112t16 153q0 91 3.5 139t10.5 64t19 16l141 2v287l-145 -3q-67 -1 -121.5 -32.5t-90 -82t-59.5 -117t-34.5 -135t-10.5 -138.5q0 -31 -5 -57.5t-9.5 -43t-21.5 -41t-25.5 -35t-37.5 -43t-42 -47.5z" />
<glyph unicode="|" horiz-adv-x="663" d="M86 -203v-143h287v143v1446v143h-287v-143v-1446z" />
<glyph unicode="}" horiz-adv-x="821" d="M-4 1106l143 -4q14 0 21.5 -16t12 -65.5t3.5 -137.5q-1 -69 8.5 -129.5t24 -98.5t33 -69t31 -44.5t21.5 -20.5q-12 -9 -28.5 -31t-38.5 -64t-36.5 -113t-14.5 -155q0 -71 -2 -114t-6 -65.5t-10 -30t-15 -7.5h-143v-287h143q80 0 143.5 44.5t101 118t56.5 161t19 180.5 q0 29 1.5 51t9.5 44t11 33t20 32.5t23 28.5t33 35.5t37 39.5l92 98q-141 150 -163 177q-53 65 -61 124q-4 24 -3 58q1 93 -18.5 180.5t-57 161t-100 119.5t-140.5 49l-143 4z" />
<glyph unicode="~" horiz-adv-x="1191" d="M109 477h286v144q0 42 1 43h10q2 0 4.5 -10t9 -26.5t17.5 -36t33.5 -39.5t52.5 -36.5t79 -27t109 -11.5q79 -2 150 52.5t109 131t38 146.5v143h-287v-143q0 -20 1 -37q-1 -6 -2 -6h-3h-2q-2 0 -7.5 19t-21.5 46.5t-45.5 55t-90.5 46.5t-144 19q-60 0 -116.5 -31.5 t-95.5 -80t-62 -106.5t-23 -111v-144z" />
<glyph unicode="&#xad;" horiz-adv-x="886" d="M109 573h143h307h143v287h-143h-307h-143v-287z" />
<glyph unicode="&#x2000;" horiz-adv-x="739" />
<glyph unicode="&#x2001;" horiz-adv-x="1479" />
<glyph unicode="&#x2002;" horiz-adv-x="739" />
<glyph unicode="&#x2003;" horiz-adv-x="1479" />
<glyph unicode="&#x2004;" horiz-adv-x="493" />
<glyph unicode="&#x2005;" horiz-adv-x="369" />
<glyph unicode="&#x2006;" horiz-adv-x="246" />
<glyph unicode="&#x2007;" horiz-adv-x="246" />
<glyph unicode="&#x2008;" horiz-adv-x="184" />
<glyph unicode="&#x2009;" horiz-adv-x="295" />
<glyph unicode="&#x200a;" horiz-adv-x="82" />
<glyph unicode="&#x2010;" horiz-adv-x="886" d="M109 573h143h307h143v287h-143h-307h-143v-287z" />
<glyph unicode="&#x2011;" horiz-adv-x="886" d="M109 573h143h307h143v287h-143h-307h-143v-287z" />
<glyph unicode="&#x2012;" horiz-adv-x="886" d="M109 573h143h307h143v287h-143h-307h-143v-287z" />
<glyph unicode="&#x2013;" horiz-adv-x="1317" d="M109 573h247h530h247v287h-247h-530h-247v-287z" />
<glyph unicode="&#x2014;" horiz-adv-x="2341" d="M109 573h494h1060h494v287h-494h-1060h-494v-287z" />
<glyph unicode="&#x202f;" horiz-adv-x="295" />
<glyph unicode="&#x205f;" horiz-adv-x="369" />
<glyph unicode="&#x25fc;" horiz-adv-x="1044" d="M0 0v1044h1044v-1044h-1044z" />
</font>
</defs>
</svg>
