<?xml version="1.0" standalone="no"?>
<!DOCTYPE svg PUBLIC "-//W3C//DTD SVG 1.1//EN" "http://www.w3.org/Graphics/SVG/1.1/DTD/svg11.dtd" >
<svg xmlns="http://www.w3.org/2000/svg">
<metadata></metadata>
<defs>
<font id="rodussquare300thin" horiz-adv-x="1222" >
<font-face units-per-em="2048" ascent="1638" descent="-410" />
<missing-glyph horiz-adv-x="500" />
<glyph horiz-adv-x="0" />
<glyph unicode="&#xd;" horiz-adv-x="2048" />
<glyph unicode="!" horiz-adv-x="559" d="M156 0h61h2h62v123h-62h-2h-61v-123zM156 328h123v61v983v62h-123v-62v-983v-61z" />
<glyph unicode="&#x22;" horiz-adv-x="614" d="M102 983h123v61v328v62h-123v-62v-328v-61zM307 983h123v61v328v62h-123v-62v-328v-61z" />
<glyph unicode="#" horiz-adv-x="1208" d="M-25 0h129l15 41l98 287h322l-84 -246l-29 -82h129l14 41l99 287h192h62v123h-62h-150l183 532h70h61v123h-61h-28l85 246l29 82h-129l-15 -41l-98 -287h-322l84 246l29 82h-129l-14 -41l-99 -287h-192h-62v-123h62h150l-183 -532h-70h-61v-123h61h28l-85 -246zM260 451 l183 532h321l-183 -532h-321z" />
<glyph unicode="$" horiz-adv-x="1021" d="M6 952q0 -168 89 -249.5t229 -81.5h88v-447h-242h-61v-123h61h242v-104v-62h123v62v104h92q139 0 228 87.5t89 258.5t-89 258.5t-228 87.5h-92v414h241h62v123h-62h-241v137v62h-123v-62v-137h-88q-139 0 -228.5 -81.5t-89.5 -246.5zM129 952q0 121 44 163t151 42h88 v-414h-88q-107 0 -151 42.5t-44 166.5zM535 174v447h92q104 0 149 -47.5t45 -176.5t-45 -176t-149 -47h-92z" />
<glyph unicode="%" horiz-adv-x="1310" d="M47 0h150l18 27l901 1310l66 97h-150l-18 -27l-901 -1311zM102 1106q0 -131 82.5 -229.5t204.5 -98.5t203.5 95.5t83.5 232.5q2 136 -81.5 232t-205.5 96t-204.5 -98.5t-82.5 -229.5zM225 1106q0 97 43 151t121 54q80 0 122.5 -52.5t41.5 -152.5q-3 -205 -164 -205 q-78 0 -121 54t-43 151zM553 328q1 -82 37 -156t102.5 -122.5t147.5 -49.5q120 -1 203 99.5t83 228.5q0 82 -36 157t-103 122.5t-147 47.5t-147.5 -48t-104 -123t-35.5 -156zM676 328q-2 92 42.5 148t121.5 56t120.5 -55.5t43.5 -148.5q0 -94 -43.5 -150t-120.5 -55 q-75 1 -118.5 57t-45.5 148z" />
<glyph unicode="&#x26;" horiz-adv-x="1363" d="M109 1171q0 -36 8 -71.5t16.5 -59.5t32 -60t34 -50t42.5 -54t39 -48q-144 -206 -170 -332q-39 -186 34 -326t197 -168q109 -26 205 6.5t196 110.5l75 57l38 -47q52 -63 129.5 -96t132.5 -33h62v123h-62q-40 0 -86.5 20.5t-81.5 63.5l-35 43l240 184l49 37l-74 98l-49 -37 l-244 -187l-401 488q52 74 81.5 119.5t55 103t25.5 97.5q1 127 -68.5 204t-171.5 77q-101 0 -174.5 -73t-74.5 -190zM229 471q19 92 132 256l378 -457l-69 -53q-89 -68 -154.5 -91t-144.5 -5q-89 22 -131 111t-11 239zM231 1171q1 76 31.5 108t95.5 32q63 0 90.5 -35 t26.5 -123q0 -35 -29.5 -85.5t-90.5 -135.5q-38 46 -51.5 63.5t-36 52t-30 63t-6.5 60.5z" />
<glyph unicode="'" horiz-adv-x="389" d="M33 983h123v61v328v62h-123v-62v-328v-61z" />
<glyph unicode="(" horiz-adv-x="628" d="M109 520q0 -224 57 -442.5t164 -394.5l18 -29h146l-58 94q-205 331 -205 772t205 772l58 94h-146l-18 -28q-107 -176 -164 -395t-57 -443z" />
<glyph unicode=")" horiz-adv-x="628" d="M47 -346h154l18 24q64 86 110.5 198.5t70 228t34 217.5t10.5 198t-10.5 198t-34 217.5t-70 228t-110.5 198.5l-18 24h-154l74 -98q75 -102 122.5 -246.5t63 -269.5t15.5 -252t-15.5 -252t-63 -269.5t-122.5 -246.5z" />
<glyph unicode="*" horiz-adv-x="923" d="M88 1036l55 -108l56 26l163 83v-156v-62h123v62v156l164 -83l56 -26l55 108l-53 29l-145 73l145 72l53 29l-55 109l-56 -27l-164 -83v157v61h-123v-61v-157l-163 83l-56 27l-55 -109l53 -29l145 -72l-145 -73z" />
<glyph unicode="+" horiz-adv-x="1120" d="M109 655h61h291v-313v-61h123v61v313h290h62v123h-62h-290v314v61h-123v-61v-314h-291h-61v-123z" />
<glyph unicode="," horiz-adv-x="538" d="M68 -154h139l18 33l123 234l47 90h-139l-18 -33l-123 -233z" />
<glyph unicode="-" horiz-adv-x="868" d="M109 655h61h453h61v123h-61h-453h-61v-123z" />
<glyph unicode="." horiz-adv-x="579" d="M193 0h61h2h61v123h-61h-2h-61v-123z" />
<glyph unicode="/" horiz-adv-x="796" d="M88 0h129l12 45l381 1311l23 78h-129l-12 -45l-381 -1311z" />
<glyph unicode="0" horiz-adv-x="1355" d="M94 350q0 -143 90 -246.5t222 -103.5h450q135 0 225 102.5t90 247.5v733q0 144 -90.5 247.5t-224.5 103.5h-448q-134 0 -223 -101.5t-91 -249.5v-733zM217 350v733q1 112 50 170t141 58h448q93 0 143 -60t50 -168v-733q0 -109 -50 -168t-143 -59h-450q-90 0 -139.5 59.5 t-49.5 167.5z" />
<glyph unicode="1" horiz-adv-x="1058" d="M43 801h145l19 28l217 334v-1040h-268h-62v-123h62h268h123h266h61v123h-61h-266v1249v62h-94l-19 -29l-330 -510z" />
<glyph unicode="2" horiz-adv-x="1355" d="M94 0h62h954h61v123h-61h-893v227q0 150 50 228.5t139 76.5h450q91 0 164.5 63t112 160t38.5 205q0 144 -90.5 247.5t-224.5 103.5h-448q-134 0 -223 -101.5t-91 -249.5v-61h123v61q1 112 50 170t141 58h448q93 0 143 -60t50 -168q0 -136 -52.5 -220.5t-140.5 -84.5h-450 q-135 1 -223.5 -122.5t-88.5 -305.5v-289v-61z" />
<glyph unicode="3" horiz-adv-x="1355" d="M94 0h62h700q138 0 226.5 133.5t88.5 323.5q0 195 -88.5 329.5t-226.5 133.5h-262l553 403l24 18v93h-61h-954h-62v-123h62h766l-553 -404l-25 -18v-92h62h450q90 2 141.5 -87t51.5 -253q0 -160 -51.5 -247t-141.5 -87h-700h-62v-123z" />
<glyph unicode="4" horiz-adv-x="1341" d="M-45 289h74h61h825v-228v-61h123v61v228h119h62v123h-62h-119v960v62h-90l-18 -21l-887 -1022zM225 412l690 796v-796h-690z" />
<glyph unicode="5" horiz-adv-x="1355" d="M94 350q0 -143 90 -246.5t222 -103.5h450q135 0 225 102.5t90 247.5v328q0 107 -41.5 205.5t-115 160.5t-158.5 62h-450h-127v207h757h62v123h-62h-819h-61v-62v-330v-61h61h189h450q84 0 138.5 -86t54.5 -219v-328q0 -109 -50 -168t-143 -59h-450q-90 0 -139.5 59.5 t-49.5 167.5v62h-123v-62z" />
<glyph unicode="6" horiz-adv-x="1355" d="M94 350q0 -143 90 -246.5t222 -103.5h450q135 0 225 102.5t90 247.5q0 215 -87.5 361t-227.5 145h-639v227q1 112 49.5 170t139.5 58h450q93 0 143 -60t50 -168v-61h122v61q0 144 -90.5 247.5t-224.5 103.5h-450q-132 0 -221 -101.5t-91 -249.5v-227v-123v-383zM217 350 v383h639q89 2 141 -98.5t52 -284.5q0 -109 -50 -168t-143 -59h-450q-90 0 -139.5 59.5t-49.5 167.5z" />
<glyph unicode="7" horiz-adv-x="1355" d="M94 1311h62h866l-447 -1229l-30 -82h131l14 41l477 1311l31 82h-27h-61h-954h-62v-123z" />
<glyph unicode="8" horiz-adv-x="1355" d="M94 350q0 -143 90 -246.5t222 -103.5h450q135 0 225 102.5t90 247.5q0 116 -39 213.5t-108 154.5q68 57 107.5 150t39.5 195q0 152 -90 261.5t-225 109.5h-448q-135 0 -223.5 -107t-90.5 -264q0 -103 39.5 -196t106.5 -149q-68 -56 -107 -153.5t-39 -214.5zM217 350 q0 148 49 226.5t136 78.5h4h450h4q89 0 139 -78.5t50 -226.5q0 -109 -50 -168t-143 -59h-450q-90 0 -139.5 59.5t-49.5 167.5zM217 1063q1 121 50.5 184.5t140.5 63.5h448q92 0 142.5 -64.5t50.5 -183.5q0 -127 -52.5 -206t-140.5 -79h-450q-87 0 -138 77.5t-51 207.5z" />
<glyph unicode="9" horiz-adv-x="1355" d="M94 350q0 -143 90 -246.5t222 -103.5h450q135 0 225 102.5t90 247.5v305v123v305q0 144 -90.5 247.5t-224.5 103.5h-450q-132 0 -221 -101.5t-91 -249.5q0 -110 39 -207.5t111.5 -159t161.5 -61.5h643v-305q0 -109 -50 -168t-143 -59h-450q-90 0 -139.5 59.5t-49.5 167.5 v62h-123v-62zM217 1083q1 112 49.5 170t139.5 58h450q93 0 143 -60t50 -168v-305h-643q-86 0 -137.5 83t-51.5 222z" />
<glyph unicode=":" horiz-adv-x="552" d="M178 0h62h2h61v123h-61h-2h-62v-123zM178 827h62h2h61v123h-61h-2h-62v-123z" />
<glyph unicode=";" horiz-adv-x="514" d="M49 -154h137l19 33l119 234l45 90h-138l-18 -33l-119 -233zM147 829h62h2h61v123h-61h-2h-62v-123z" />
<glyph unicode="&#x3c;" horiz-adv-x="1171" d="M109 676l36 -17l756 -327l86 -37v135l-37 16l-626 271l626 270l37 17v135l-86 -37l-756 -328l-36 -16v-82z" />
<glyph unicode="=" horiz-adv-x="1171" d="M109 469h61h756h61v123h-61h-756h-61v-123zM109 842h61h756h61v123h-61h-756h-61v-123z" />
<glyph unicode="&#x3e;" horiz-adv-x="1171" d="M109 295l86 37l755 327l37 17v82l-37 16l-755 328l-86 37v-135l36 -17l627 -270l-627 -271l-36 -16v-135z" />
<glyph unicode="?" horiz-adv-x="1107" d="M109 1022h122v61q3 228 117 228h344q48 0 78.5 -61t30.5 -167v-184q0 -135 -25.5 -181t-85.5 -46h-80q-65 0 -110 -83.5t-45 -172.5v-62h123v62q0 39 6 71t13 47t13 15h80q102 0 168 89.5t66 260.5v184q0 89 -29 169t-83 131t-120 51h-344q-104 0 -170.5 -102.5 t-68.5 -248.5v-61zM455 0h61h2h62v123h-62h-2h-61v-123z" />
<glyph unicode="A" horiz-adv-x="1693" d="M-63 0h141l16 31l145 258h7h1048h18l144 -258l17 -31h141l-51 92l-734 1311l-16 31h-74l-16 -31l-735 -1311zM308 412l468 835l467 -835h-935z" />
<glyph unicode="B" horiz-adv-x="1595" d="M143 0h62h860q148 0 247 113.5t99 275.5q0 243 -153 338q70 57 111.5 144.5t41.5 172.5q0 156 -99.5 273t-246.5 117h-860h-62v-62v-594v-123v-594v-61zM266 123v532h799q119 0 171 -57.5t52 -208.5q0 -126 -58.5 -196t-164.5 -70h-799zM266 778v533h799 q104 0 163.5 -72.5t59.5 -194.5q0 -109 -62 -187.5t-161 -78.5h-799z" />
<glyph unicode="C" horiz-adv-x="1617" d="M143 350q0 -144 102.5 -247t252.5 -103h583q150 0 251.5 102t101.5 248v62h-123v-62q0 -108 -60 -167.5t-170 -59.5h-583q-111 0 -171.5 60t-60.5 167v733q2 111 61 169.5t171 58.5h583q109 0 169.5 -62t60.5 -166v-61h123v61q0 142 -102.5 246.5t-250.5 104.5h-583 q-151 0 -252 -101t-103 -250v-733z" />
<glyph unicode="D" horiz-adv-x="1617" d="M143 0h62h876q150 0 251.5 102t101.5 248v733q0 142 -102.5 246.5t-250.5 104.5h-876h-62v-62v-1311v-61zM266 123v1188h815q109 0 169.5 -62t60.5 -166v-733q0 -108 -60 -167.5t-170 -59.5h-815z" />
<glyph unicode="E" horiz-adv-x="1617" d="M143 0h62h1167h62v123h-62h-1106v532h815h62v123h-62h-815v533h1106h62v123h-62h-1167h-62v-62v-594v-123v-594v-61z" />
<glyph unicode="F" horiz-adv-x="1404" d="M143 0h123v61v594h658h61v123h-61h-658v533h953h61v123h-61h-1014h-62v-62v-594v-123v-594v-61z" />
<glyph unicode="G" horiz-adv-x="1617" d="M143 350q0 -144 102.5 -247t252.5 -103h583q150 0 251.5 102t101.5 248v367v61h-62h-584h-61v-123h61h523v-305q0 -108 -60 -167.5t-170 -59.5h-583q-111 0 -171.5 60t-60.5 167v733q2 111 61 169.5t171 58.5h583q109 0 169.5 -62t60.5 -166v-61h123v61 q0 142 -102.5 246.5t-250.5 104.5h-583q-151 0 -252 -101t-103 -250v-733z" />
<glyph unicode="H" horiz-adv-x="1617" d="M143 0h123v61v594h1045v-594v-61h123v61v594v123v594v62h-123v-62v-594h-1045v594v62h-123v-62v-594v-123v-594v-61z" />
<glyph unicode="I" horiz-adv-x="980" d="M143 0h62h205h122h203h62v123h-62h-203v1188h203h62v123h-62h-203h-122h-205h-62v-123h62h205v-1188h-205h-62v-123z" />
<glyph unicode="J" horiz-adv-x="1380" d="M143 350q0 -94 52 -176t132.5 -128t164.5 -46h356q86 0 166 45.5t131 127.5t51 177v1022v62h-123v-62v-1022q0 -102 -64 -164.5t-161 -62.5h-356q-95 0 -160.5 63.5t-65.5 163.5v62h-123v-62z" />
<glyph unicode="K" horiz-adv-x="1617" d="M143 0h123v61v594h211l858 -643l17 -12h204l-147 111l-809 606l809 606l147 111h-204l-17 -13l-858 -643h-211v594v62h-123v-62v-594v-123v-594v-61z" />
<glyph unicode="L" horiz-adv-x="1380" d="M143 0h62h930h61v123h-61h-869v1249v62h-123v-62v-1311v-61z" />
<glyph unicode="M" horiz-adv-x="1957" d="M143 0h123v61v1082l639 -1112l19 -31h69l19 31l639 1112v-1082v-61h123v61v1311v62h-97l-18 -31l-701 -1219l-700 1219l-18 31h-97v-62v-1311v-61z" />
<glyph unicode="N" horiz-adv-x="1617" d="M143 0h123v61v1149l1061 -1190l19 -20h88v61v1311v62h-123v-62v-1149l-1061 1190l-19 21h-88v-62v-1311v-61z" />
<glyph unicode="O" horiz-adv-x="1617" d="M143 350q0 -144 102.5 -247t252.5 -103h583q150 0 251.5 102t101.5 248v733q0 142 -102.5 246.5t-250.5 104.5h-581q-153 0 -254 -101t-103 -250v-733zM266 350v733q2 111 61.5 169.5t172.5 58.5h581q109 0 169.5 -62t60.5 -166v-733q0 -108 -60 -167.5t-170 -59.5h-583 q-111 0 -171.5 60t-60.5 167z" />
<glyph unicode="P" horiz-adv-x="1617" d="M143 0h123v61v594h815q99 0 182 61t127 149.5t44 178.5q0 157 -102 273.5t-251 116.5h-876h-62v-62v-594v-123v-594v-61zM266 778v533h815q107 0 168.5 -72.5t61.5 -194.5q0 -109 -64 -187.5t-166 -78.5h-815z" />
<glyph unicode="Q" horiz-adv-x="1617" d="M143 350q0 -144 102.5 -247t252.5 -103h583q127 0 208 46l46 -34l51 -37l72 101l-49 35l-29 21q54 84 54 218v733q0 55 -9.5 103.5t-34.5 95t-64 79.5t-101.5 53t-143.5 20h-581q-153 0 -254 -101t-103 -250v-733zM266 350v733q2 111 61.5 169.5t172.5 58.5h581 q73 0 119 -13.5t70 -45t32.5 -70t8.5 -99.5v-733q0 -102 -26 -149l-273 198l-51 37l-72 -100l49 -35l235 -171q-36 -7 -92 -7h-583q-111 0 -171.5 60t-60.5 167z" />
<glyph unicode="R" horiz-adv-x="1617" d="M143 0h123v61v594h754h61q122 0 176 -57.5t54 -208.5v-328v-61h123v61v328q0 242 -156 338q72 57 114 144.5t42 172.5q0 157 -102 273.5t-251 116.5h-876h-62v-62v-594v-123v-594v-61zM266 778v533h815q107 0 168.5 -72.5t61.5 -194.5q0 -109 -64 -187.5t-166 -78.5h-61 h-754z" />
<glyph unicode="S" horiz-adv-x="1617" d="M143 389q0 -161 101.5 -275t253.5 -114h583q151 0 252 113.5t101 275.5q0 193 -98 291t-255 98h-583q-104 0 -168 77.5t-64 188.5q1 129 61.5 198t170.5 69h542q107 0 168.5 -72.5t61.5 -194.5v-61h123v61q0 157 -102 273.5t-251 116.5h-542q-152 0 -252.5 -112.5 t-102.5 -277.5q0 -91 44 -180t127.5 -149t183.5 -60h583q122 0 176 -57.5t54 -208.5q0 -126 -60.5 -196t-169.5 -70h-583q-110 0 -171 70.5t-61 195.5v62h-123v-62z" />
<glyph unicode="T" horiz-adv-x="1474" d="M0 1311h61h523v-1250v-61h123v61v1250h522h61v123h-61h-522h-123h-523h-61v-123z" />
<glyph unicode="U" horiz-adv-x="1617" d="M143 350q0 -144 102.5 -247t252.5 -103h583q150 0 251.5 102t101.5 248v1022v62h-123v-62v-1022q0 -108 -60 -167.5t-170 -59.5h-583q-111 0 -171.5 60t-60.5 167v1022v62h-123v-62v-1022z" />
<glyph unicode="V" horiz-adv-x="1601" d="M-102 1434l49 -91l708 -1310l17 -33h73l17 33l708 1310l50 91h-140l-16 -33l-655 -1211l-656 1211l-16 33h-139z" />
<glyph unicode="W" horiz-adv-x="2377" d="M-92 1434l35 -84l536 -1311l17 -39h82l16 37l502 1175l483 -1173l16 -39h82l17 37l557 1311l35 86h-134l-16 -37l-500 -1176l-481 1174l-16 39h-82l-17 -37l-501 -1176l-482 1174l-16 39h-133z" />
<glyph unicode="X" horiz-adv-x="1556" d="M6 0h164l18 20l539 605l539 -605l18 -20h164l-92 102l-547 615l547 614l92 103h-164l-18 -21l-539 -605l-539 605l-18 21h-164l92 -103l548 -614l-548 -615z" />
<glyph unicode="Y" horiz-adv-x="1413" d="M-141 1434l96 -105l598 -638v-630v-61h123v61v630l598 638l96 105h-168l-18 -19l-570 -608l-569 608l-18 19h-168z" />
<glyph unicode="Z" horiz-adv-x="1576" d="M31 0h71h62h1167h62v123h-62h-1034l1040 1208l86 103h-71h-62h-1065h-61v-123h61h932l-1040 -1209z" />
<glyph unicode="[" horiz-adv-x="628" d="M109 -55q0 -116 56 -203.5t146 -87.5h72h61v123h-61h-72q-80 0 -80 168v1151q0 168 80 168h72h61v122h-61h-72q-90 0 -146 -86t-56 -204v-1151z" />
<glyph unicode="\" horiz-adv-x="743" d="M92 1434l19 -76l327 -1311l13 -47h124l-18 76l-328 1310l-12 48h-125z" />
<glyph unicode="]" horiz-adv-x="628" d="M109 -223v-123h61h72q89 0 145.5 87.5t56.5 203.5v1151q0 114 -56.5 202t-145.5 88h-72h-61v-122h61h72q38 0 59 -42.5t21 -125.5v-1151q0 -168 -80 -168h-72h-61z" />
<glyph unicode="^" horiz-adv-x="954" d="M78 655h133l16 39l213 516l211 -516l17 -39h133l-35 84l-268 656l-17 39h-82l-16 -39l-270 -656z" />
<glyph unicode="_" horiz-adv-x="1060" d="M-16 0h61l973 -2h61v123h-61l-973 2h-61v-123z" />
<glyph unicode="`" horiz-adv-x="530" d="M84 1434l29 -82l114 -328l15 -41h129l-29 82l-115 328l-14 41h-129z" />
<glyph unicode="a" d="M61 303q5 -61 31.5 -117.5t69.5 -99.5q42 -42 104 -66q53 -20 111 -21q10 0 20 1h369q83 0 149 48v-48h123v61v242v2v60v106v123v182q0 105 -80.5 186.5t-191.5 81.5h-371q-111 0 -191.5 -81.5t-80.5 -186.5v-61h123v61q0 67 39 106.5t110 39.5h371q71 0 110 -39.5 t39 -106.5v-182h-520q-134 0 -234 -85t-100 -204v-2zM184 307q0 75 56.5 119.5t154.5 44.5h520v-106v-60q0 -182 -149 -182h-371h-2h-2q-10 -1 -20 -1q-81 0 -127 44q-52 49 -60 141z" />
<glyph unicode="b" d="M123 0h61h582q121 0 196.5 81t75.5 187v506q0 106 -80.5 188t-191.5 82h-520v390v61h-123v-61v-390v-122v-861v-61zM246 123v799h520q71 0 110 -40t39 -108v-506q0 -145 -149 -145h-520z" />
<glyph unicode="c" d="M123 266q0 -104 76 -185t196 -81h373q119 0 194.5 81.5t75.5 186.5v62h-123v-62q0 -145 -147 -145h-373q-149 0 -149 143v510q0 67 39.5 106.5t111.5 39.5h369q71 0 110 -40t39 -108v-61h123v61q0 106 -80.5 188t-191.5 82h-369q-112 0 -193 -81.5t-81 -186.5v-510z" />
<glyph unicode="d" d="M123 268q0 -106 76 -187t198 -81h580h61v61v861v122v390v61h-123v-61v-390h-520q-111 0 -191.5 -82t-80.5 -188v-506zM246 268v506q0 68 39 108t110 40h520v-799h-518q-79 0 -115 37t-36 108z" />
<glyph unicode="e" horiz-adv-x="1265" d="M123 266q0 -105 80 -185.5t205 -80.5h393q123 0 201.5 81t78.5 187v62h-123v-62q0 -145 -157 -145h-393q-162 0 -162 143v193h774h61v61v254q0 106 -83 188t-199 82h-391q-118 0 -201.5 -81.5t-83.5 -186.5v-194v-123v-193zM246 582v194q0 67 42 106.5t120 39.5h391 q77 0 118 -39.5t41 -108.5v-192h-712z" />
<glyph unicode="f" horiz-adv-x="792" d="M82 922h61h58v-861v-61h123v61v861h223h61v122h-61h-223v132q0 97 38 146.5t105 49.5h141h62v123h-62h-141q-106 0 -186 -92.5t-80 -226.5v-132h-58h-61v-122z" />
<glyph unicode="g" d="M123 266q0 -104 76 -185t196 -81h520v-150q0 -60 -39.5 -103.5t-109.5 -43.5h-369h-61v-123h61h369q76 0 140.5 44t98 105.5t33.5 120.5v150v123v860v61h-61h-580q-112 0 -193 -81.5t-81 -186.5v-510zM246 266v510q0 67 39.5 106.5t111.5 39.5h518v-799h-520 q-149 0 -149 143z" />
<glyph unicode="h" d="M123 0h123v61v652v61q0 68 39 108t110 40h371q71 0 110 -39.5t39 -106.5v-715v-61h123v61v715q0 105 -80.5 186.5t-191.5 81.5h-371q-79 0 -149 -47v437v61h-123v-61v-660v-61v-652v-61z" />
<glyph unicode="i" horiz-adv-x="448" d="M133 0h123v61v922v61h-123v-61v-922v-61zM135 1270h62h2h61v123h-61h-2h-62v-123z" />
<glyph unicode="j" horiz-adv-x="526" d="M2 -297v-123h61q106 0 192.5 84t86.5 176v1143v61h-123v-61v-1143q0 -54 -44.5 -95.5t-111.5 -41.5h-61zM219 1270h62h2h61v123h-61h-2h-62v-123z" />
<glyph unicode="k" d="M123 0h123v61v398h128l564 -447l18 -12h197l-137 111l-520 409l520 416l137 108h-199l-16 -14l-562 -448h-130v852v61h-123v-61v-852v-123v-398v-61z" />
<glyph unicode="l" horiz-adv-x="645" d="M123 266q0 -109 81.5 -187.5t194.5 -78.5h62v123h-62q-75 0 -114 37t-39 106v1168v61h-123v-61v-1168z" />
<glyph unicode="m" horiz-adv-x="2019" d="M123 0h123v61v715q0 66 58.5 106t168.5 40h123h104q101 0 159.5 -39t58.5 -107v-715v-61h2h120h2v61l-2 715q0 73 47.5 109.5t157.5 36.5h119h121q110 0 168.5 -39t58.5 -107v-715v-61h123v61v715q0 112 -103 190t-247 78h-121h-119q-178 0 -270 -110q-48 51 -122 80.5 t-153 29.5h-104h-123q-146 0 -248 -80.5t-102 -187.5v-715v-61z" />
<glyph unicode="n" d="M123 0h123v61v713q0 68 39 108t110 40h371q71 0 110 -39.5t39 -106.5v-715v-61h123v61v715q0 105 -80.5 186.5t-191.5 81.5h-371q-111 0 -191.5 -82t-80.5 -188v-713v-61z" />
<glyph unicode="o" d="M123 268q0 -106 75.5 -187t196.5 -81h371q121 0 196.5 81t75.5 187v508q0 105 -80.5 186.5t-191.5 81.5h-371q-111 0 -191.5 -81.5t-80.5 -186.5v-508zM246 268v508q0 67 39 106.5t110 39.5h371q71 0 110 -39.5t39 -106.5v-508q0 -145 -149 -145h-371q-149 0 -149 145z " />
<glyph unicode="p" d="M123 0v-358v-62h123v62v358h520q121 0 196.5 81t75.5 187v508q0 105 -80.5 186.5t-191.5 81.5h-582h-61v-61v-860v-123zM246 123v799h520q71 0 110 -39.5t39 -106.5v-508q0 -145 -149 -145h-520z" />
<glyph unicode="q" d="M123 266q0 -104 76 -185t196 -81h520v-358v-62h123v62v358v123v860v61h-61h-580q-112 0 -193 -81.5t-81 -186.5v-510zM246 266v510q0 67 39.5 106.5t111.5 39.5h518v-799h-520q-149 0 -149 143z" />
<glyph unicode="r" horiz-adv-x="884" d="M123 0h123v61v715q0 63 46.5 104.5t119.5 41.5h309h61v122h-61h-309q-109 0 -199 -82t-90 -186v-715v-61z" />
<glyph unicode="s" d="M123 268q0 -106 75.5 -187t196.5 -81h371q120 0 196 81t76 185v15q0 120 -74 209q-79 94 -198 94h-371q-75 3 -115 54q-35 45 -35 117q0 9 1 19q0 69 39.5 108.5t111.5 39.5h328q71 0 110 -39.5t39 -106.5v-61h123v61q0 105 -80.5 186.5t-191.5 81.5h-328 q-112 0 -193 -81.5t-81 -184.5v-14q1 -110 73 -202q78 -98 197 -101h2h371q77 0 115 -48q34 -43 34 -125v-18q0 -147 -149 -147h-371q-149 0 -149 145v62h-123v-62z" />
<glyph unicode="t" horiz-adv-x="724" d="M82 922h61h41v-656q0 -100 65 -183t173 -83h119h61v123h-61h-119q-115 0 -115 143v656h172h62v122h-62h-172v390v61h-123v-61v-390h-41h-61v-122z" />
<glyph unicode="u" d="M123 266q0 -104 76 -185t196 -81h373q119 0 194.5 81.5t75.5 186.5v715v61h-123v-61v-715q0 -145 -147 -145h-373q-149 0 -149 143v717v61h-123v-61v-717z" />
<glyph unicode="v" horiz-adv-x="1214" d="M6 1044l43 -88l455 -921l16 -35h78l16 35l451 921l43 88h-137l-17 -34l-395 -809l-399 809l-17 34h-137z" />
<glyph unicode="w" horiz-adv-x="1826" d="M-2 1044l35 -86l389 -921l16 -37h82l17 39l305 774l297 -774l14 -39h84l16 37l385 921l35 86h-133l-16 -36l-326 -781l-299 779l-14 38h-84l-17 -38l-307 -783l-330 785l-16 36h-133z" />
<glyph unicode="x" d="M-10 0h166l18 20l379 412l379 -412l18 -20h166l-94 102l-386 420l386 420l94 102h-166l-18 -20l-379 -412l-379 412l-18 20h-166l94 -102l386 -420l-386 -420z" />
<glyph unicode="y" d="M90 1044l37 -86l391 -902q-58 -166 -117 -259.5t-110 -93.5h-107h-61v-123h61h107q67 0 133.5 64t118.5 162t95 224l3 7l393 921l35 86h-133l-16 -36l-337 -789l-341 789l-17 36h-135z" />
<glyph unicode="z" horiz-adv-x="1196" d="M-12 0h73h62h827h62v123h-62h-692l715 819l88 102h-74h-61h-762h-62v-122h62h627l-715 -820z" />
<glyph unicode="{" horiz-adv-x="716" d="M0 485q43 -26 75 -54.5t64 -72t49 -104.5t17 -137q0 -195 43.5 -329t122.5 -134h100h61v123h-61h-100q-9 0 -18.5 36t-17 117t-7.5 187q0 74 -16.5 143t-38 114t-46.5 82t-39.5 52t-19.5 18l1 1q11 11 23 23.5t39 51t46 80t35 107t16 133.5q0 102 8 184.5t17.5 120 t17.5 37.5h100h61v122h-61h-100q-54 0 -92.5 -68.5t-56 -171.5t-17.5 -224q0 -70 -16.5 -129t-48 -102.5t-56.5 -69.5t-61 -54l-23 -18v-64z" />
<glyph unicode="|" horiz-adv-x="579" d="M127 -285v-61h123v61v1610v61h-123v-61v-1610z" />
<glyph unicode="}" horiz-adv-x="716" d="M0 -223v-123h61h105q75 0 118.5 134t43.5 329q0 49 7 88.5t16.5 65.5t30 55.5t36 46.5t48 50t52.5 56l35 41q-27 31 -66 73t-58.5 62.5t-43 53t-34 59.5t-17.5 66t-6 86q2 125 -16 230t-56.5 170.5t-89.5 65.5h-105h-61v-122h61h105q7 0 16.5 -36t17 -118.5t5.5 -185.5 q-1 -78 11 -139.5t36 -103.5t44.5 -67t51.5 -54t41 -40q-10 -12 -40 -39t-50.5 -51.5t-44.5 -66t-36.5 -104t-12.5 -142.5q0 -106 -8 -188.5t-16.5 -117t-14.5 -34.5h-105h-61z" />
<glyph unicode="~" horiz-adv-x="1159" d="M109 545h122v61q0 69 33 110.5t92 41.5q34 0 62 -21.5t52.5 -53t55 -62.5t82.5 -53t121 -23q102 -1 174 86t72 188v62h-123v-62q0 -69 -32.5 -110.5t-88.5 -40.5h-2q-34 1 -62 23t-52.5 53t-55 62.5t-82.5 53t-121 21.5q-102 0 -174.5 -86t-72.5 -189v-61z" />
<glyph unicode="&#xad;" horiz-adv-x="868" d="M109 655h61h453h61v123h-61h-453h-61v-123z" />
<glyph unicode="&#x2000;" horiz-adv-x="747" />
<glyph unicode="&#x2001;" horiz-adv-x="1495" />
<glyph unicode="&#x2002;" horiz-adv-x="747" />
<glyph unicode="&#x2003;" horiz-adv-x="1495" />
<glyph unicode="&#x2004;" horiz-adv-x="498" />
<glyph unicode="&#x2005;" horiz-adv-x="373" />
<glyph unicode="&#x2006;" horiz-adv-x="249" />
<glyph unicode="&#x2007;" horiz-adv-x="249" />
<glyph unicode="&#x2008;" horiz-adv-x="186" />
<glyph unicode="&#x2009;" horiz-adv-x="299" />
<glyph unicode="&#x200a;" horiz-adv-x="83" />
<glyph unicode="&#x2010;" horiz-adv-x="868" d="M109 655h61h453h61v123h-61h-453h-61v-123z" />
<glyph unicode="&#x2011;" horiz-adv-x="868" d="M109 655h61h453h61v123h-61h-453h-61v-123z" />
<glyph unicode="&#x2012;" horiz-adv-x="868" d="M109 655h61h453h61v123h-61h-453h-61v-123z" />
<glyph unicode="&#x2013;" horiz-adv-x="1317" d="M109 655h109h806h109v123h-109h-806h-109v-123z" />
<glyph unicode="&#x2014;" horiz-adv-x="2341" d="M109 655h217h1614h217v123h-217h-1614h-217v-123z" />
<glyph unicode="&#x202f;" horiz-adv-x="299" />
<glyph unicode="&#x205f;" horiz-adv-x="373" />
<glyph unicode="&#x25fc;" horiz-adv-x="1044" d="M0 0v1044h1044v-1044h-1044z" />
</font>
</defs>
</svg>
