<svg width="24" height="24" viewBox="0 0 24 24" fill="none" xmlns="http://www.w3.org/2000/svg">
    <path fill-rule="evenodd" clip-rule="evenodd"
        d="M4.85187 0H19.1481C21.8167 0 24 2.18696 24 4.85995V19.1401C24 21.813 21.8167 24 19.1481 24H4.85187C2.18333 24 0 21.813 0 19.1401V4.85995C0 2.18696 2.18333 0 4.85187 0ZM18.7338 13.6242C19.3437 13.6242 19.8382 14.1196 19.8382 14.7305C19.8382 15.3415 19.3437 15.8367 18.7338 15.8367H17.7469L18.6374 17.3773C18.9388 17.9092 18.7527 18.5852 18.2217 18.8871C17.6906 19.189 17.0158 19.0024 16.7145 18.4706L15.1919 15.8367H15.1708L13.8619 13.6242H13.9128L12.6205 11.3888L13.8777 9.1438L16.4678 13.6241H18.7338V13.6242ZM9.86516 6.62277C9.56377 6.09082 9.74989 5.41491 10.281 5.11301C10.812 4.81112 11.4868 4.99755 11.7881 5.52944L12.0425 5.96951L12.2615 5.59218C12.5629 5.0603 13.2377 4.87387 13.7687 5.17576C14.2997 5.47765 14.4858 6.15363 14.1845 6.68545L13.3174 8.17472L13.3199 8.17905L12.6562 9.31047L10.1448 13.6243H12.7825L14.0639 15.8368L8.88661 15.8369L7.46036 18.3452C7.15897 18.8771 6.48411 19.0635 5.95318 18.7616C5.42218 18.4597 5.23599 17.7838 5.53745 17.2519L6.34205 15.837H5.2663C4.65639 15.837 4.16189 15.3416 4.16189 14.7306C4.16189 14.1197 4.65639 13.6244 5.2663 13.6244H7.60018L10.7626 8.17508L9.86516 6.62277Z"
        fill="white" />
</svg>