<svg width="24" height="24" viewBox="0 0 24 24" fill="none" xmlns="http://www.w3.org/2000/svg">
    <path fill-rule="evenodd" clip-rule="evenodd"
        d="M10.1428 3.44775C8.502 3.44775 7.17188 4.77788 7.17188 6.41868V15.721C7.17188 18.3893 9.33496 20.5524 12.0033 20.5524C14.6716 20.5524 16.8347 18.3893 16.8347 15.721V5.48845C16.8347 5.07424 17.1705 4.73845 17.5847 4.73845C17.9989 4.73845 18.3347 5.07424 18.3347 5.48845V15.721C18.3347 19.2177 15.5 22.0524 12.0033 22.0524C8.50654 22.0524 5.67188 19.2177 5.67188 15.721V6.41868C5.67188 3.94946 7.67358 1.94775 10.1428 1.94775C12.612 1.94775 14.6137 3.94946 14.6137 6.41869V15.721C14.6137 17.1627 13.445 18.3315 12.0033 18.3315C10.5615 18.3315 9.39281 17.1627 9.39281 15.721V6.41868C9.39281 6.00447 9.72859 5.66868 10.1428 5.66868C10.557 5.66868 10.8928 6.00447 10.8928 6.41868V15.721C10.8928 16.3343 11.39 16.8315 12.0033 16.8315C12.6166 16.8315 13.1137 16.3343 13.1137 15.721V6.41869C13.1137 4.77788 11.7836 3.44775 10.1428 3.44775Z"
        fill="#22282F" />
</svg>