<svg width="24" height="24" viewBox="0 0 24 24" fill="none" xmlns="http://www.w3.org/2000/svg">
    <path fill-rule="evenodd" clip-rule="evenodd"
        d="M17.0823 2.94238H17.0511C16.5031 2.94237 16.0457 2.94236 15.6724 2.97364C15.2829 3.00627 14.9175 3.07685 14.5736 3.25738C14.0794 3.51672 13.6759 3.92026 13.4166 4.4144C13.236 4.75836 13.1654 5.12367 13.1328 5.51319C13.1015 5.88654 13.1016 6.34392 13.1016 6.89192V6.92315V6.95439C13.1016 7.50238 13.1015 7.95977 13.1328 8.33311C13.1654 8.72263 13.236 9.08795 13.4166 9.43191C13.6759 9.92604 14.0794 10.3296 14.5736 10.5889C14.9175 10.7695 15.2829 10.84 15.6724 10.8727C16.0457 10.9039 16.5031 10.9039 17.0511 10.9039H17.0823H17.1136C17.6616 10.9039 18.1189 10.9039 18.4923 10.8727C18.8818 10.84 19.2471 10.7695 19.5911 10.5889C20.0852 10.3296 20.4888 9.92604 20.7481 9.43191C20.9286 9.08795 20.9992 8.72263 21.0318 8.33311C21.0631 7.95977 21.0631 7.50238 21.0631 6.95439V6.92315V6.89192C21.0631 6.34393 21.0631 5.88654 21.0318 5.51319C20.9992 5.12367 20.9286 4.75836 20.7481 4.4144C20.4888 3.92026 20.0852 3.51672 19.5911 3.25738C19.2471 3.07685 18.8818 3.00627 18.4923 2.97364C18.1189 2.94236 17.6616 2.94237 17.1136 2.94238H17.0823ZM14.6276 8.2079C14.6022 7.90462 14.6016 7.51043 14.6016 6.92315C14.6016 6.33587 14.6022 5.94168 14.6276 5.6384C14.6522 5.34422 14.6962 5.20401 14.7447 5.11148C14.8626 4.88687 15.0461 4.70345 15.2707 4.58556C15.3632 4.537 15.5034 4.49304 15.7976 4.4684C16.1009 4.443 16.4951 4.44238 17.0823 4.44238C17.6696 4.44238 18.0638 4.443 18.3671 4.4684C18.6613 4.49304 18.8015 4.537 18.894 4.58556C19.1186 4.70345 19.302 4.88687 19.4199 5.11148C19.4685 5.20401 19.5124 5.34422 19.5371 5.6384C19.5625 5.94168 19.5631 6.33587 19.5631 6.92315C19.5631 7.51043 19.5625 7.90462 19.5371 8.2079C19.5124 8.50208 19.4685 8.6423 19.4199 8.73483C19.302 8.95943 19.1186 9.14286 18.894 9.26074C18.8015 9.3093 18.6613 9.35326 18.3671 9.3779C18.0638 9.40331 17.6696 9.40392 17.0823 9.40392C16.4951 9.40392 16.1009 9.40331 15.7976 9.3779C15.5034 9.35326 15.3632 9.3093 15.2707 9.26074C15.0461 9.14286 14.8626 8.95943 14.7447 8.73483C14.6962 8.6423 14.6522 8.50208 14.6276 8.2079ZM6.92608 2.94238H6.89485H6.89483C6.34684 2.94237 5.88946 2.94236 5.51612 2.97364C5.1266 3.00627 4.76129 3.07685 4.41733 3.25738C3.92319 3.51672 3.51965 3.92026 3.26031 4.4144C3.07978 4.75836 3.0092 5.12367 2.97657 5.51319C2.94529 5.88653 2.9453 6.34391 2.94531 6.8919V6.89192V6.92315V6.95439V6.95441C2.9453 7.50239 2.94529 7.95977 2.97657 8.33311C3.0092 8.72263 3.07978 9.08795 3.26031 9.43191C3.51965 9.92605 3.92319 10.3296 4.41733 10.5889C4.76129 10.7695 5.1266 10.84 5.51612 10.8727C5.88947 10.9039 6.34686 10.9039 6.89485 10.9039H6.92608H6.95732C7.50531 10.9039 7.9627 10.9039 8.33604 10.8727C8.72556 10.84 9.09088 10.7695 9.43484 10.5889C9.92898 10.3296 10.3325 9.92605 10.5919 9.43191C10.7724 9.08795 10.843 8.72263 10.8756 8.33311C10.9069 7.95977 10.9069 7.50238 10.9069 6.95439V6.92315V6.89192C10.9069 6.34393 10.9069 5.88654 10.8756 5.51319C10.843 5.12367 10.7724 4.75836 10.5919 4.4144C10.3325 3.92026 9.92898 3.51672 9.43484 3.25738C9.09088 3.07685 8.72556 3.00627 8.33604 2.97364C7.9627 2.94236 7.50532 2.94237 6.95734 2.94238H6.95732H6.92608ZM4.47133 8.2079C4.44593 7.90462 4.44531 7.51043 4.44531 6.92315C4.44531 6.33587 4.44593 5.94168 4.47133 5.63841C4.49597 5.34422 4.53993 5.20401 4.58849 5.11148C4.70638 4.88687 4.8898 4.70345 5.11441 4.58556C5.20694 4.537 5.34715 4.49305 5.64134 4.4684C5.94461 4.443 6.3388 4.44238 6.92608 4.44238C7.51336 4.44238 7.90755 4.443 8.21083 4.4684C8.50501 4.49305 8.64523 4.537 8.73776 4.58556C8.96236 4.70345 9.14579 4.88687 9.26367 5.11148C9.31223 5.20401 9.35619 5.34422 9.38083 5.63841C9.40624 5.94168 9.40685 6.33587 9.40685 6.92315C9.40685 7.51043 9.40624 7.90462 9.38083 8.2079C9.35619 8.50208 9.31223 8.6423 9.26367 8.73483C9.14579 8.95943 8.96236 9.14286 8.73776 9.26074C8.64523 9.3093 8.50501 9.35326 8.21083 9.3779C7.90755 9.40331 7.51336 9.40392 6.92608 9.40392C6.3388 9.40392 5.94461 9.40331 5.64134 9.3779C5.34715 9.35326 5.20694 9.3093 5.11441 9.26074C4.8898 9.14286 4.70638 8.95943 4.58849 8.73483C4.53993 8.6423 4.49597 8.50208 4.47133 8.2079ZM6.89485 13.0962L6.92608 13.0962L6.95732 13.0962H6.95736C7.50533 13.0962 7.96271 13.0962 8.33604 13.1275C8.72556 13.1601 9.09088 13.2307 9.43484 13.4112C9.92898 13.6706 10.3325 14.0741 10.5919 14.5682C10.7724 14.9122 10.843 15.2775 10.8756 15.667C10.9069 16.0404 10.9069 16.4978 10.9069 17.0458V17.077V17.1082C10.9069 17.6562 10.9069 18.1136 10.8756 18.487C10.843 18.8765 10.7724 19.2418 10.5919 19.5858C10.3325 20.0799 9.92898 20.4834 9.43484 20.7428C9.09088 20.9233 8.72556 20.9939 8.33604 21.0265C7.9627 21.0578 7.50531 21.0578 6.95732 21.0578H6.92608H6.89485C6.34686 21.0578 5.88947 21.0578 5.51612 21.0265C5.1266 20.9939 4.76129 20.9233 4.41733 20.7428C3.92319 20.4834 3.51965 20.0799 3.26031 19.5858C3.07978 19.2418 3.0092 18.8765 2.97657 18.487C2.94529 18.1136 2.9453 17.6562 2.94531 17.1083V17.1082V17.077V17.0458V17.0457C2.9453 16.4978 2.94529 16.0404 2.97657 15.667C3.0092 15.2775 3.07978 14.9122 3.26031 14.5682C3.51965 14.0741 3.92319 13.6706 4.41733 13.4112C4.76129 13.2307 5.1266 13.1601 5.51612 13.1275C5.88946 13.0962 6.34683 13.0962 6.8948 13.0962H6.89485ZM4.44531 17.077C4.44531 17.6643 4.44593 18.0585 4.47133 18.3617C4.49597 18.6559 4.53993 18.7961 4.58849 18.8887C4.70638 19.1133 4.8898 19.2967 5.11441 19.4146C5.20694 19.4632 5.34715 19.5071 5.64134 19.5317C5.94461 19.5572 6.3388 19.5578 6.92608 19.5578C7.51336 19.5578 7.90755 19.5572 8.21083 19.5317C8.50501 19.5071 8.64523 19.4632 8.73776 19.4146C8.96236 19.2967 9.14579 19.1133 9.26367 18.8887C9.31223 18.7961 9.35619 18.6559 9.38083 18.3617C9.40624 18.0585 9.40685 17.6643 9.40685 17.077C9.40685 16.4897 9.40624 16.0955 9.38083 15.7923C9.35619 15.4981 9.31223 15.3579 9.26367 15.2653C9.14579 15.0407 8.96236 14.8573 8.73776 14.7394C8.64523 14.6908 8.50501 14.6469 8.21083 14.6222C7.90755 14.5968 7.51336 14.5962 6.92608 14.5962C6.3388 14.5962 5.94461 14.5968 5.64134 14.6222C5.34715 14.6469 5.20694 14.6908 5.11441 14.7394C4.8898 14.8573 4.70638 15.0407 4.58849 15.2653C4.53993 15.3579 4.49597 15.4981 4.47133 15.7923C4.44593 16.0955 4.44531 16.4897 4.44531 17.077ZM17.0823 13.0962H17.0511C16.5031 13.0962 16.0457 13.0962 15.6724 13.1274C15.2829 13.1601 14.9175 13.2307 14.5736 13.4112C14.0794 13.6705 13.6759 14.0741 13.4166 14.5682C13.236 14.9122 13.1654 15.2775 13.1328 15.667C13.1015 16.0403 13.1016 16.4977 13.1016 17.0457V17.077V17.1082C13.1016 17.6562 13.1015 18.1136 13.1328 18.4869C13.1654 18.8764 13.236 19.2418 13.4166 19.5857C13.6759 20.0799 14.0794 20.4834 14.5736 20.7427C14.9175 20.9233 15.2829 20.9938 15.6724 21.0265C16.0457 21.0578 16.5031 21.0577 17.0511 21.0577H17.0823H17.1136C17.6616 21.0577 18.1189 21.0578 18.4923 21.0265C18.8818 20.9938 19.2471 20.9233 19.5911 20.7427C20.0852 20.4834 20.4888 20.0799 20.7481 19.5857C20.9286 19.2418 20.9992 18.8764 21.0318 18.4869C21.0631 18.1136 21.0631 17.6562 21.0631 17.1082V17.077V17.0457C21.0631 16.4977 21.0631 16.0403 21.0318 15.667C20.9992 15.2775 20.9286 14.9122 20.7481 14.5682C20.4888 14.0741 20.0852 13.6705 19.5911 13.4112C19.2471 13.2307 18.8818 13.1601 18.4923 13.1274C18.1189 13.0962 17.6616 13.0962 17.1136 13.0962H17.0823ZM14.6276 18.3617C14.6022 18.0584 14.6016 17.6642 14.6016 17.077C14.6016 16.4897 14.6022 16.0955 14.6276 15.7922C14.6522 15.498 14.6962 15.3578 14.7447 15.2653C14.8626 15.0407 15.0461 14.8573 15.2707 14.7394C15.3632 14.6908 15.5034 14.6469 15.7976 14.6222C16.1009 14.5968 16.4951 14.5962 17.0823 14.5962C17.6696 14.5962 18.0638 14.5968 18.3671 14.6222C18.6613 14.6469 18.8015 14.6908 18.894 14.7394C19.1186 14.8573 19.302 15.0407 19.4199 15.2653C19.4685 15.3578 19.5124 15.498 19.5371 15.7922C19.5625 16.0955 19.5631 16.4897 19.5631 17.077C19.5631 17.6642 19.5625 18.0584 19.5371 18.3617C19.5124 18.6559 19.4685 18.7961 19.4199 18.8886C19.302 19.1132 19.1186 19.2967 18.894 19.4146C18.8015 19.4631 18.6613 19.5071 18.3671 19.5317C18.0638 19.5571 17.6696 19.5577 17.0823 19.5577C16.4951 19.5577 16.1009 19.5571 15.7976 19.5317C15.5034 19.5071 15.3632 19.4631 15.2707 19.4146C15.0461 19.2967 14.8626 19.1132 14.7447 18.8886C14.6962 18.7961 14.6522 18.6559 14.6276 18.3617Z"
        fill="#22282F" />
</svg>