<svg width="20" height="23" viewBox="0 0 20 23" fill="none" xmlns="http://www.w3.org/2000/svg">
    <path d="M16.8989 6.75222L13.5656 9.40037C13.1239 9.75222 12.4906 9.53926 12.2989 8.97445L10.7239 4.30778C10.4573 3.50222 9.43228 3.50222 9.16561 4.30778L7.58228 8.96519C7.39061 9.53926 6.76561 9.75222 6.32395 9.39111L2.99061 6.74296C2.32395 6.22445 1.44061 6.95593 1.71561 7.81704L5.18228 17.493C5.29895 17.8633 5.61561 18.1041 5.96561 18.1041H13.9073C14.2573 18.1041 14.5739 17.8541 14.6906 17.493L18.1573 7.81704C18.4406 6.95593 17.5573 6.22445 16.8989 6.75222ZM12.0239 16.4096H7.85728C7.51561 16.4096 7.23228 16.0948 7.23228 15.7152C7.23228 15.3356 7.51561 15.0207 7.85728 15.0207H12.0239C12.3656 15.0207 12.6489 15.3356 12.6489 15.7152C12.6489 16.0948 12.3656 16.4096 12.0239 16.4096Z" fill="white"/>
    </svg>
    