<svg width="20" height="21" viewBox="0 0 20 21" fill="none"
    xmlns="http://www.w3.org/2000/svg">
    <g>
        <path fill-rule="evenodd" clip-rule="evenodd" d="M8.90621 2.25L8.94152 2.25001H11.0585L11.0938 2.25C11.4112 2.24996 11.7092 2.24993 11.959 2.27844C12.2371 2.3102 12.5296 2.38362 12.8025 2.58033C13.0754 2.77705 13.2375 3.03125 13.3556 3.28509C13.4616 3.513 13.5559 3.79576 13.6562 4.09688L13.6674 4.13038L13.8739 4.75001H15.8333H17.5C17.9142 4.75001 18.25 5.08579 18.25 5.50001C18.25 5.91422 17.9142 6.25001 17.5 6.25001H16.535L16.0809 13.061L16.0782 13.1015C16.0118 14.0985 15.9581 14.9042 15.8481 15.5482C15.7343 16.2144 15.549 16.7867 15.1688 17.2824C14.9182 17.6091 14.6154 17.8923 14.2727 18.1207C13.7529 18.4671 13.1695 18.6139 12.4972 18.6831C11.8474 18.75 11.0399 18.75 10.0407 18.75H10.0406H10H9.9594H9.9593C8.96007 18.75 8.15262 18.75 7.5028 18.6831C6.83046 18.6139 6.24713 18.4671 5.72729 18.1207C5.38459 17.8923 5.08184 17.6091 4.8312 17.2824C4.451 16.7867 4.26568 16.2144 4.1519 15.5482C4.04193 14.9042 3.98823 14.0986 3.92177 13.1015L3.91907 13.061L3.465 6.25001H2.5C2.08579 6.25001 1.75 5.91422 1.75 5.50001C1.75 5.08579 2.08579 4.75001 2.5 4.75001H4.16667H6.1261L6.33264 4.13038L6.3438 4.09689C6.44413 3.79577 6.53835 3.51301 6.64438 3.28509C6.76246 3.03125 6.92459 2.77705 7.19752 2.58033C7.47045 2.38362 7.76287 2.3102 8.04102 2.27844C8.29077 2.24993 8.58881 2.24996 8.90621 2.25ZM7.70724 4.75001H12.2928L12.2443 4.60472C12.1289 4.25832 12.0611 4.05863 11.9956 3.91778C11.966 3.85424 11.9457 3.82282 11.9348 3.80824C11.9298 3.8015 11.927 3.79862 11.9264 3.79802L11.9254 3.7972L11.9243 3.79655C11.9236 3.79616 11.92 3.79439 11.912 3.79175C11.8947 3.78604 11.8585 3.77671 11.7888 3.76876C11.6345 3.75114 11.4236 3.75001 11.0585 3.75001H8.94152C8.57638 3.75001 8.36551 3.75114 8.21117 3.76876C8.14154 3.77671 8.10531 3.78604 8.08804 3.79175C8.08005 3.79439 8.07643 3.79616 8.07566 3.79655L8.07458 3.7972L8.07363 3.79802C8.07302 3.79862 8.07019 3.8015 8.06516 3.80824C8.05428 3.82282 8.03397 3.85424 8.00441 3.91778C7.93889 4.05863 7.87113 4.25832 7.75566 4.60472L7.70724 4.75001ZM4.96833 6.25001L5.41574 12.9612C5.48555 14.0083 5.53504 14.7368 5.6305 15.2957C5.72362 15.841 5.84898 16.1447 6.02138 16.3694C6.17177 16.5655 6.35342 16.7354 6.55904 16.8724C6.79476 17.0295 7.1061 17.1344 7.6564 17.191C8.22043 17.2491 8.95052 17.25 10 17.25C11.0495 17.25 11.7796 17.2491 12.3436 17.191C12.8939 17.1344 13.2052 17.0295 13.441 16.8724C13.6466 16.7354 13.8282 16.5655 13.9786 16.3694C14.151 16.1447 14.2764 15.841 14.3695 15.2957C14.465 14.7368 14.5144 14.0083 14.5843 12.9612L15.0317 6.25001H13.3333H6.66667H4.96833ZM8.33333 8.08334C8.74755 8.08334 9.08333 8.41913 9.08333 8.83334V14.6667C9.08333 15.0809 8.74755 15.4167 8.33333 15.4167C7.91912 15.4167 7.58333 15.0809 7.58333 14.6667V8.83334C7.58333 8.41913 7.91912 8.08334 8.33333 8.08334ZM12.4167 8.83334C12.4167 8.41913 12.0809 8.08334 11.6667 8.08334C11.2525 8.08334 10.9167 8.41913 10.9167 8.83334V12.1667C10.9167 12.5809 11.2525 12.9167 11.6667 12.9167C12.0809 12.9167 12.4167 12.5809 12.4167 12.1667V8.83334Z" fill="currentColor" />
    </g>
</svg>
    