<svg width="24" height="24" viewBox="0 0 24 24" fill="none" xmlns="http://www.w3.org/2000/svg">
    <path opacity="0.9" fill-rule="evenodd" clip-rule="evenodd"
        d="M2.24219 12.3372C2.24219 11.3873 3.01222 10.6173 3.96209 10.6173H20.0325C20.9824 10.6173 21.7524 11.3873 21.7524 12.3372V22.2804C21.7524 23.2303 20.9823 24.0003 20.0325 24.0003H3.96209C3.01221 24.0003 2.24219 23.2303 2.24219 22.2804V12.3372ZM11.9753 21.4738C14.261 21.4738 16.1139 19.621 16.1139 17.3353C16.1139 15.0497 14.261 13.1968 11.9753 13.1968C9.68969 13.1968 7.83681 15.0497 7.83681 17.3353C7.83681 19.621 9.68969 21.4738 11.9753 21.4738ZM11.9753 22.7638C14.9734 22.7638 17.4038 20.3334 17.4038 17.3353C17.4038 14.3373 14.9734 11.9069 11.9753 11.9069C8.97728 11.9069 6.54688 14.3373 6.54688 17.3353C6.54688 20.3334 8.97728 22.7638 11.9753 22.7638ZM8.88281 18.0346H10.4801C10.5335 18.1489 10.5999 18.2567 10.6778 18.3559C10.7682 18.471 10.8742 18.5744 10.9937 18.6628C11.3209 18.905 11.7259 19.0177 12.1311 18.9795C12.5363 18.9412 12.9131 18.7547 13.1891 18.4556C13.4652 18.1566 13.621 17.7661 13.6268 17.3591C13.6325 16.9522 13.4878 16.5575 13.2203 16.2507C12.9528 15.944 12.5815 15.7468 12.1776 15.6971C11.7736 15.6474 11.3656 15.7486 11.0317 15.9814C10.9098 16.0664 10.8008 16.1668 10.7072 16.2793C10.6357 16.3651 10.5731 16.458 10.5204 16.5565H8.90209C9.00746 16.1408 9.19516 15.7541 9.45076 15.4176C9.64926 15.1563 9.88871 14.9253 10.1623 14.7345C10.8036 14.2874 11.5873 14.093 12.3632 14.1884C13.139 14.2839 13.8523 14.6625 14.366 15.2517C14.8797 15.8409 15.1578 16.599 15.1467 17.3807C15.1356 18.1623 14.8363 18.9123 14.306 19.4866C13.7758 20.061 13.0522 20.4193 12.2739 20.4928C11.4957 20.5663 10.7177 20.3497 10.0894 19.8846C9.8213 19.6862 9.58849 19.4485 9.39746 19.1816C9.15285 18.8399 8.97676 18.4505 8.88281 18.0346Z"
        fill="white" />
    <rect x="19.1641" y="5.5155" width="6.01967" height="1.34368" rx="0.671839"
        transform="rotate(-52.6845 19.1641 5.5155)" fill="white" />
    <rect x="3.75781" y="6.297" width="6.01967" height="1.34368" rx="0.671839"
        transform="rotate(-128.734 3.75781 6.297)" fill="white" />
    <path fill-rule="evenodd" clip-rule="evenodd"
        d="M2.23438 5.2431C2.23438 4.29322 3.0044 3.52319 3.95428 3.52319H20.0247C20.9745 3.52319 21.7446 4.29322 21.7446 5.2431V8.36043C21.7446 9.31031 20.9745 10.0803 20.0247 10.0803H3.95428C3.0044 10.0803 2.23438 9.31031 2.23438 8.36043V5.2431ZM18.8345 7.07093C18.8345 8.08018 18.0163 8.89833 17.0071 8.89833C15.9978 8.89833 15.1797 8.08018 15.1797 7.07093C15.1797 6.06169 15.9978 5.24353 17.0071 5.24353C18.0163 5.24353 18.8345 6.06169 18.8345 7.07093ZM6.91334 8.89784C7.92258 8.89784 8.74074 8.07969 8.74074 7.07044C8.74074 6.0612 7.92258 5.24304 6.91334 5.24304C5.90409 5.24304 5.08594 6.0612 5.08594 7.07044C5.08594 8.07969 5.90409 8.89784 6.91334 8.89784Z"
        fill="white" />
</svg>