<svg width="17" height="17" viewBox="0 0 17 17" fill="none" xmlns="http://www.w3.org/2000/svg">
    <path
        d="M14.9818 10.9798C14.9818 13.4064 13.5351 14.8531 11.1084 14.8531H10.3151C9.94844 14.8531 9.64844 14.5531 9.64844 14.1864V10.3398C9.64844 10.1598 9.7951 10.0064 9.9751 10.0064L11.1484 9.98645C11.2418 9.97978 11.3218 9.91312 11.3418 9.81978L11.5751 8.54645C11.5951 8.42645 11.5018 8.31311 11.3751 8.31311L9.9551 8.33311C9.76843 8.33311 9.62178 8.18645 9.61511 8.00645L9.58844 6.37311C9.58844 6.26644 9.6751 6.17312 9.78843 6.17312L11.3884 6.14644C11.5018 6.14644 11.5884 6.05978 11.5884 5.94645L11.5618 4.34644C11.5618 4.2331 11.4751 4.14644 11.3618 4.14644L9.56177 4.17312C8.4551 4.19312 7.57511 5.09977 7.59511 6.20644L7.62844 8.03977C7.6351 8.22644 7.48844 8.37311 7.30178 8.37978L6.50177 8.39311C6.38844 8.39311 6.30178 8.47977 6.30178 8.5931L6.32178 9.85978C6.32178 9.97311 6.40844 10.0598 6.52177 10.0598L7.32178 10.0464C7.50844 10.0464 7.6551 10.1931 7.66176 10.3731L7.72176 14.1731C7.72843 14.5464 7.42843 14.8531 7.05509 14.8531H5.52177C3.0951 14.8531 1.64844 13.4064 1.64844 10.9731V5.39311C1.64844 2.96644 3.0951 1.51978 5.52177 1.51978H11.1084C13.5351 1.51978 14.9818 2.96644 14.9818 5.39311V10.9798Z"
        fill="white" />
</svg>