<svg width="16" height="16" viewBox="0 0 16 16" fill="none"
    xmlns="http://www.w3.org/2000/svg">
    <path d="M15.4818 10.9798C15.4818 13.4064 14.0351 14.8531 11.6084 14.8531H10.8151C10.4484 14.8531 10.1484 14.5531 10.1484 14.1864V10.3398C10.1484 10.1598 10.2951 10.0064 10.4751 10.0064L11.6484 9.98645C11.7418 9.97978 11.8218 9.91312 11.8418 9.81978L12.0751 8.54645C12.0951 8.42645 12.0018 8.31311 11.8751 8.31311L10.4551 8.33311C10.2684 8.33311 10.1218 8.18645 10.1151 8.00645L10.0884 6.37311C10.0884 6.26644 10.1751 6.17312 10.2884 6.17312L11.8884 6.14644C12.0018 6.14644 12.0884 6.05978 12.0884 5.94645L12.0618 4.34644C12.0618 4.2331 11.9751 4.14644 11.8618 4.14644L10.0618 4.17312C8.9551 4.19312 8.07511 5.09977 8.09511 6.20644L8.12844 8.03977C8.1351 8.22644 7.98844 8.37311 7.80178 8.37978L7.00177 8.39311C6.88844 8.39311 6.80178 8.47977 6.80178 8.5931L6.82178 9.85978C6.82178 9.97311 6.90844 10.0598 7.02177 10.0598L7.82178 10.0464C8.00844 10.0464 8.1551 10.1931 8.16176 10.3731L8.22176 14.1731C8.22843 14.5464 7.92843 14.8531 7.55509 14.8531H6.02177C3.5951 14.8531 2.14844 13.4064 2.14844 10.9731V5.39311C2.14844 2.96644 3.5951 1.51978 6.02177 1.51978H11.6084C14.0351 1.51978 15.4818 2.96644 15.4818 5.39311V10.9798Z" fill="currentColor"/>
</svg>
    