<svg width="45" height="45" viewBox="0 0 45 45" fill="none" xmlns="http://www.w3.org/2000/svg">
    <path
        d="M41.2505 30.3563C41.2505 37.1813 37.1817 41.25 30.3567 41.25H28.1255C27.0942 41.25 26.2505 40.4062 26.2505 39.375V28.5563C26.2505 28.05 26.663 27.6188 27.1692 27.6188L30.4692 27.5625C30.7317 27.5438 30.9568 27.3563 31.013 27.0938L31.6693 23.5125C31.7255 23.175 31.463 22.8563 31.1067 22.8563L27.113 22.9125C26.588 22.9125 26.1755 22.5 26.1568 21.9938L26.0817 17.4C26.0817 17.1 26.3255 16.8375 26.6442 16.8375L31.1442 16.7625C31.463 16.7625 31.7067 16.5188 31.7067 16.2L31.6317 11.7C31.6317 11.3812 31.388 11.1375 31.0693 11.1375L26.0067 11.2125C22.8942 11.2688 20.4193 13.8187 20.4755 16.9312L20.5692 22.0875C20.588 22.6125 20.1755 23.025 19.6505 23.0438L17.4005 23.0812C17.0817 23.0812 16.838 23.325 16.838 23.6437L16.8943 27.2063C16.8943 27.525 17.138 27.7687 17.4567 27.7687L19.7068 27.7313C20.2318 27.7313 20.6442 28.1437 20.663 28.65L20.8317 39.3375C20.8505 40.3875 20.0067 41.25 18.9567 41.25H14.6442C7.81923 41.25 3.75049 37.1812 3.75049 30.3375V14.6437C3.75049 7.81875 7.81923 3.75 14.6442 3.75H30.3567C37.1817 3.75 41.2505 7.81875 41.2505 14.6437V30.3563Z"
        fill="currentColor" />
</svg>