<svg width="45" height="45" viewBox="0 0 45 45" fill="none" xmlns="http://www.w3.org/2000/svg">
    <rect width="45" height="45" rx="12" fill="#ECEFF4" />
    <path
        d="M35.4271 27.9118C35.4271 32.6134 32.6242 35.4163 27.9225 35.4163H26.3854C25.675 35.4163 25.0938 34.8351 25.0938 34.1247V26.6718C25.0938 26.323 25.3779 26.0259 25.7267 26.0259L28 25.9872C28.1808 25.9743 28.3358 25.8451 28.3746 25.6643L28.8267 23.1972C28.8654 22.9647 28.6846 22.7451 28.4392 22.7451L25.6879 22.7838C25.3262 22.7838 25.0421 22.4997 25.0292 22.1509L24.9775 18.9863C24.9775 18.7797 25.1454 18.5989 25.365 18.5989L28.465 18.5472C28.6846 18.5472 28.8525 18.3793 28.8525 18.1597L28.8008 15.0597C28.8008 14.8401 28.6329 14.6722 28.4133 14.6722L24.9258 14.7239C22.7817 14.7626 21.0767 16.5193 21.1154 18.6634L21.18 22.2155C21.1929 22.5772 20.9088 22.8614 20.5471 22.8743L18.9971 22.9001C18.7775 22.9001 18.6096 23.068 18.6096 23.2876L18.6483 25.7418C18.6483 25.9614 18.8162 26.1293 19.0358 26.1293L20.5858 26.1034C20.9475 26.1034 21.2317 26.3876 21.2446 26.7363L21.3608 34.0989C21.3737 34.8222 20.7925 35.4163 20.0691 35.4163H17.0983C12.3967 35.4163 9.59375 32.6134 9.59375 27.8988V17.0876C9.59375 12.3859 12.3967 9.58301 17.0983 9.58301H27.9225C32.6242 9.58301 35.4271 12.3859 35.4271 17.0876V27.9118Z"
        fill="black" />
</svg>