<svg width="48" height="48" viewBox="0 0 48 48" fill="none"
    xmlns="http://www.w3.org/2000/svg">
    <rect width="48" height="48" rx="12" fill="#FBB050"/>
    <rect x="0.5" y="0.5" width="47" height="47" rx="11.5" stroke="black" stroke-opacity="0.05"/>
    <path d="M15.9003 31.1667C14.7298 30.5164 14.1446 30.1913 13.8223 29.6435C13.5 29.0958 13.5 28.4263 13.5 27.0873L13.5 20.9124C13.5 19.5734 13.5 18.9039 13.8223 18.3562C14.1446 17.8084 14.7298 17.4833 15.9003 16.833L21.7337 13.5923C22.8415 12.9768 23.3954 12.6691 24 12.6691C24.6046 12.6691 25.1585 12.9768 26.2663 13.5923L32.0997 16.833C33.2702 17.4833 33.8554 17.8084 34.1777 18.3562C34.5 18.9039 34.5 19.5734 34.5 20.9124V27.0873C34.5 28.4263 34.5 29.0958 34.1777 29.6435C33.8554 30.1913 33.2702 30.5164 32.0997 31.1667L26.2663 34.4075C25.1585 35.0229 24.6046 35.3306 24 35.3306C23.3954 35.3306 22.8415 35.0229 21.7337 34.4075L15.9003 31.1667Z" fill="white"/>
    <rect x="20.75" y="20.75" width="6.5" height="6.5" rx="3.25" fill="#FBB050"/>
</svg>
