<svg width="48" height="48" viewBox="0 0 48 48" fill="none"
    xmlns="http://www.w3.org/2000/svg">
    <rect width="48" height="48" rx="12" fill="#83D7BE"/>
    <rect x="0.5" y="0.5" width="47" height="47" rx="11.5" stroke="black" stroke-opacity="0.05"/>
    <path d="M29.4166 34.8333H18.5833C18.1391 34.8333 17.7708 34.465 17.7708 34.0208C17.7708 33.5766 18.1391 33.2083 18.5833 33.2083H29.4166C29.8608 33.2083 30.2291 33.5766 30.2291 34.0208C30.2291 34.465 29.8608 34.8333 29.4166 34.8333Z" fill="white"/>
    <path d="M33.0458 16.98L28.7125 20.0783C28.1383 20.49 27.315 20.2408 27.0658 19.58L25.0183 14.12C24.6717 13.1775 23.3392 13.1775 22.9925 14.12L20.9342 19.5691C20.685 20.2408 19.8725 20.49 19.2983 20.0675L14.965 16.9691C14.0983 16.3625 12.95 17.2183 13.3075 18.2258L17.8142 30.8466C17.9658 31.28 18.3775 31.5616 18.8325 31.5616H29.1567C29.6117 31.5616 30.0233 31.2691 30.175 30.8466L34.6817 18.2258C35.05 17.2183 33.9017 16.3625 33.0458 16.98ZM26.7083 26.9791H21.2917C20.8475 26.9791 20.4792 26.6108 20.4792 26.1666C20.4792 25.7225 20.8475 25.3541 21.2917 25.3541H26.7083C27.1525 25.3541 27.5208 25.7225 27.5208 26.1666C27.5208 26.6108 27.1525 26.9791 26.7083 26.9791Z" fill="white"/>
</svg>
