<svg width="48" height="48" viewBox="0 0 48 48" fill="none"
    xmlns="http://www.w3.org/2000/svg">
    <rect width="48" height="48" rx="12" fill="#B6DE62"/>
    <rect x="0.5" y="0.5" width="47" height="47" rx="11.5" stroke="black" stroke-opacity="0.05"/>
    <path d="M33.6527 23.0467V18.2908C33.6527 17.4025 32.981 16.395 32.1468 16.0592L26.1127 13.5892C24.7585 13.0367 23.231 13.0367 21.8768 13.5892L15.8427 16.0592C15.0193 16.395 14.3477 17.4025 14.3477 18.2908V23.0467C14.3477 28.3442 18.1935 33.3058 23.4477 34.7575C23.8052 34.855 24.1952 34.855 24.5527 34.7575C29.8068 33.3058 33.6527 28.3442 33.6527 23.0467ZM24.8127 24.9425V27.7917C24.8127 28.2358 24.4443 28.6042 24.0002 28.6042C23.556 28.6042 23.1877 28.2358 23.1877 27.7917V24.9425C22.0935 24.5958 21.2918 23.5775 21.2918 22.375C21.2918 20.88 22.5052 19.6667 24.0002 19.6667C25.4952 19.6667 26.7085 20.88 26.7085 22.375C26.7085 23.5883 25.9068 24.5958 24.8127 24.9425Z" fill="white"/>
</svg>
