<svg width="48" height="48" viewBox="0 0 48 48" fill="none" xmlns="http://www.w3.org/2000/svg">
    <circle opacity="0.1" cx="20" cy="20" r="20" fill="#2277F6" />
    <path fill-rule="evenodd" clip-rule="evenodd"
        d="M27.1508 13.2883C26.7146 13.4787 26.1813 13.7734 25.3694 14.2245L17.0361 18.8541C16.1785 19.3306 15.6156 19.6449 15.203 19.9312C14.8134 20.2016 14.6442 20.3903 14.5378 20.5713C14.4313 20.7522 14.3485 20.9918 14.3014 21.4636C14.2514 21.9633 14.25 22.608 14.25 23.5891L14.25 32.4104C14.25 33.3915 14.2514 34.0362 14.3014 34.5359C14.3485 35.0078 14.4313 35.2473 14.5378 35.4283C14.6442 35.6092 14.8134 35.7979 15.203 36.0683C15.6156 36.3546 16.1785 36.669 17.0361 37.1454L25.3694 41.7751C26.1813 42.2261 26.7146 42.5209 27.1508 42.7112C27.5625 42.8909 27.7998 42.9366 28 42.9366C28.2002 42.9366 28.4375 42.8909 28.8492 42.7112C29.2854 42.5209 29.8187 42.2261 30.6306 41.7751L38.9639 37.1454C39.8215 36.669 40.3844 36.3546 40.797 36.0683C41.1866 35.7979 41.3558 35.6092 41.4622 35.4283C41.5687 35.2473 41.6515 35.0078 41.6986 34.5359C41.7486 34.0362 41.75 33.3915 41.75 32.4104V23.5891C41.75 22.608 41.7486 21.9633 41.6986 21.4636C41.6515 20.9918 41.5687 20.7522 41.4622 20.5713C41.3558 20.3903 41.1866 20.2016 40.797 19.9312C40.3844 19.6449 39.8215 19.3306 38.9639 18.8541L30.6306 14.2245C29.8187 13.7734 29.2854 13.4787 28.8492 13.2883C28.4375 13.1086 28.2002 13.063 28 13.063C27.7998 13.063 27.5625 13.1086 27.1508 13.2883ZM26.1507 10.997C26.7463 10.7371 27.3364 10.563 28 10.563C28.6636 10.563 29.2537 10.7371 29.8493 10.997C30.4082 11.241 31.0461 11.5954 31.7955 12.0117L31.8447 12.0391L40.178 16.6687L40.2296 16.6973C41.0217 17.1374 41.6951 17.5115 42.2223 17.8774C42.7839 18.2671 43.2629 18.7019 43.6169 19.3034C43.9709 19.905 44.1183 20.5349 44.1863 21.2151C44.2501 21.8537 44.25 22.624 44.25 23.5301V23.5891V32.4104V32.4694C44.25 33.3755 44.2501 34.1459 44.1863 34.7844C44.1183 35.4646 43.9709 36.0945 43.6169 36.6961C43.2629 37.2976 42.7839 37.7324 42.2223 38.1222C41.6951 38.488 41.0217 38.8621 40.2297 39.3021L40.178 39.3308L31.8447 43.9605L31.7955 43.9878C31.0461 44.4041 30.4082 44.7586 29.8493 45.0025C29.2537 45.2624 28.6636 45.4366 28 45.4366C27.3364 45.4366 26.7463 45.2624 26.1507 45.0025C25.5919 44.7586 24.9539 44.4042 24.2046 43.9878L24.1553 43.9605L15.822 39.3308L15.7703 39.3021C14.9783 38.8621 14.3049 38.488 13.7777 38.1222C13.2161 37.7324 12.7371 37.2976 12.3831 36.6961C12.0291 36.0945 11.8817 35.4646 11.8137 34.7844C11.7499 34.1459 11.75 33.3756 11.75 32.4694L11.75 32.4104L11.75 23.5891L11.75 23.5301C11.75 22.624 11.7499 21.8537 11.8137 21.2151C11.8817 20.5349 12.0291 19.905 12.3831 19.3034C12.737 18.7019 13.2161 18.2671 13.7777 17.8774C14.3049 17.5115 14.9783 17.1374 15.7704 16.6974L15.822 16.6687L24.1553 12.0391L24.2045 12.0118C24.9539 11.5954 25.5918 11.241 26.1507 10.997Z"
        fill="#22282F" />
    <path fill-rule="evenodd" clip-rule="evenodd"
        d="M21.75 28C21.75 24.5482 24.5482 21.75 28 21.75C31.4518 21.75 34.25 24.5482 34.25 28C34.25 31.4518 31.4518 34.25 28 34.25C24.5482 34.25 21.75 31.4518 21.75 28ZM28 24.25C25.9289 24.25 24.25 25.9289 24.25 28C24.25 30.0711 25.9289 31.75 28 31.75C30.0711 31.75 31.75 30.0711 31.75 28C31.75 25.9289 30.0711 24.25 28 24.25Z"
        fill="#2277F6" />
</svg>