<svg width="32" height="32" viewBox="0 0 32 32" fill="none" xmlns="http://www.w3.org/2000/svg">
<path d="M21.9262 12.6533V9.85834C21.8859 6.58214 19.1963 3.96014 15.9214 4.00046C12.7128 4.04078 10.1181 6.62506 10.0635 9.83233V12.6533M12.6101 20.2082L14.8224 22.4231L19.3784 17.8646M20.9635 28H11.0256C8.30216 28 6.09375 25.7916 6.09375 23.0681V17.4899C6.09375 14.7664 8.30216 12.558 11.0256 12.558H20.9635C23.6869 12.558 25.8953 14.7664 25.8953 17.4899V23.0681C25.8953 25.7916 23.6869 28 20.9635 28Z" stroke="black" stroke-width="2" stroke-linecap="round" stroke-linejoin="round"/>
<mask id="mask0_2234_33108" style="mask-type:alpha" maskUnits="userSpaceOnUse" x="0" y="0" width="32" height="32">
<path d="M21.9301 12.6533V9.85834C21.8898 6.58214 19.2002 3.96014 15.9253 4.00046C12.7167 4.04078 10.122 6.62506 10.0674 9.83233V12.6533M12.614 20.2082L14.8263 22.4231L19.3823 17.8646M20.9674 28H11.0295C8.30607 28 6.09766 25.7916 6.09766 23.0681V17.4899C6.09766 14.7664 8.30607 12.558 11.0295 12.558H20.9674C23.6908 12.558 25.8992 14.7664 25.8992 17.4899V23.0681C25.8992 25.7916 23.6908 28 20.9674 28Z" stroke="black" stroke-width="2" stroke-linecap="round" stroke-linejoin="round"/>
</mask>
<g mask="url(#mask0_2234_33108)">
<path d="M15.3335 15.5898L21.1853 15.5897L22.6668 25.3333H12.7903L9.3335 16.6154L15.3335 15.5898Z" fill="#2277F6"/>
</g>
</svg>
