<svg width="32" height="32" viewBox="0 0 32 32" fill="none" xmlns="http://www.w3.org/2000/svg">
    <path
        d="M11.0055 15.487V22.8379C11.0055 24.3841 12.2589 25.6375 13.8051 25.6375H16.615M16.5616 19.9517H11.0161M7.46376 8.14143C5.54872 8.15763 4 9.44471 4 11.6363C4 13.053 4.84476 14.274 6.05707 14.8223C6.56667 15.0291 7.07502 15.1088 7.46127 15.1088H15.7282C16.1144 15.1088 16.624 15.0328 17.1411 14.826C18.3534 14.2778 19.1944 13.053 19.1944 11.6363C19.1944 9.44471 17.647 8.15763 15.7319 8.14143C15.7319 6.76341 14.6504 4.0061 11.5978 4.0061C8.54525 4.0061 7.46376 6.76341 7.46376 8.14143ZM19.0401 17.6502H25.5735C26.9136 17.6502 28 18.7366 28 20.0767C28 21.4168 26.9136 22.5031 25.5735 22.5031H19.0398C17.7001 22.5031 16.6135 21.418 16.6127 20.0783C16.6119 18.7373 17.6991 17.6502 19.0401 17.6502ZM19.0401 23.1409H25.5735C26.9136 23.1409 28 24.2272 28 25.5673C28 26.9074 26.9136 27.9938 25.5735 27.9938H19.0398C17.7001 27.9938 16.6135 26.9087 16.6127 25.569C16.6119 24.228 17.6991 23.1409 19.0401 23.1409Z"
        stroke="black" stroke-width="2" stroke-linecap="round" stroke-linejoin="round" />
</svg>