<svg width="32" height="32" viewBox="0 0 32 32" fill="none" xmlns="http://www.w3.org/2000/svg">
    <path
        d="M9.81891 10.4865H10.5156M16.1368 10.4865H22.1822M9.81891 21.5135H10.5156M28 14.3784V10.3762C28 6.45708 25.2251 4 21.2982 4H10.7018C6.77492 4 4 6.44541 4 10.3762V21.6212C4 25.5533 6.77492 28 10.7018 28H14.8117M16.2937 16H4.03167M23.5152 27.5369C23.5152 27.5369 27.4304 26.3511 27.4304 23.0819C27.4304 19.8141 27.5731 19.9178 27.2579 19.6013C26.9439 19.2848 24.0289 18.2703 23.5152 18.2703C23.0014 18.2703 20.0851 19.2874 19.7712 19.6013C19.4572 19.9152 19.5999 19.8128 19.5999 23.0819C19.5999 26.3511 23.5152 27.5369 23.5152 27.5369Z"
        stroke="currentColor" stroke-width="2" stroke-linecap="round" stroke-linejoin="round" />
    <mask id="mask0_2234_36694" style="mask-type:alpha" maskUnits="userSpaceOnUse" x="18" y="17"
        width="11" height="12">
        <path fill-rule="evenodd" clip-rule="evenodd"
            d="M23.5155 27.537C23.5155 27.537 27.4307 26.3513 27.4307 23.0821C27.4307 19.8142 27.5734 19.918 27.2582 19.6014C26.9442 19.2849 24.0292 18.2704 23.5155 18.2704C23.0017 18.2704 20.0854 19.2875 19.7715 19.6014C19.4575 19.9154 19.6002 19.8129 19.6002 23.0821C19.6002 26.3513 23.5155 27.537 23.5155 27.537Z"
            stroke="currentColor" stroke-width="2" stroke-linecap="round" stroke-linejoin="round" />
    </mask>
    <g mask="url(#mask0_2234_36694)">
        <path d="M22.6668 14L31.3335 18.6667L33.3335 31.3333H20.0002L15.3335 20L22.6668 14Z"
            fill="#2277F6" />
    </g>
</svg>