<svg width="35" height="35" viewBox="0 0 35 35" fill="none" xmlns="http://www.w3.org/2000/svg">
    <path
        d="M30.224 17.2191V11.4838C30.224 7.31785 27.6302 4.375 23.46 4.375H11.5296C7.37219 4.375 4.76562 7.31785 4.76562 11.4838V22.7231C4.76562 26.8891 7.35942 29.832 11.5296 29.832H14.0057M30.224 13.5564H4.76562M9.43989 9.39528H9.34625M13.1583 9.39528H13.0647M16.8775 9.39528H16.7838M24.1854 30.625C24.1854 30.625 28.7544 29.2415 28.7544 25.4275C28.7544 21.612 28.9204 21.7354 28.5543 21.3651C28.1868 20.9947 24.7842 19.8114 24.1854 19.8114C23.5867 19.8114 20.1841 20.9976 19.8166 21.3651C19.4491 21.7312 19.6165 21.612 19.6165 25.4275C19.6165 29.2415 24.1854 30.625 24.1854 30.625Z"
        stroke="black" stroke-width="2.1875" stroke-linecap="round" stroke-linejoin="round" />
</svg>