<svg width="32" height="32" viewBox="0 0 32 32" fill="none" xmlns="http://www.w3.org/2000/svg">
    <path
        d="M27.9986 19.2089H22.9224C21.0582 19.2089 19.5469 17.6976 19.5469 15.8334C19.5469 13.9706 21.0582 12.4592 22.9224 12.4592H27.9986M23.4984 15.7569H23.48M4.00063 12.9762V11.4999C4.00063 7.86625 6.94672 4.92017 10.5816 4.92017H21.419C25.0539 4.92017 28 7.86625 28 11.4999V20.5003C28 24.1339 25.0539 27.08 21.419 27.08H16.8513M10.5184 20.7619V19.2506C10.5016 17.9027 9.39501 16.8221 8.04586 16.839C6.72525 16.8558 5.6576 17.9196 5.63425 19.2402V20.7619M10.1218 27.0795H6.03022C4.90938 27.0795 4 26.1702 4 25.0493V22.7532C4 21.631 4.90938 20.723 6.03022 20.723H10.1218C11.2426 20.723 12.152 21.631 12.152 22.7532V25.0493C12.152 26.1702 11.2426 27.0795 10.1218 27.0795Z"
        stroke="black" stroke-width="2" stroke-linecap="round" stroke-linejoin="round" />
</svg>