<svg width="35" height="35" viewBox="0 0 35 35" fill="none" xmlns="http://www.w3.org/2000/svg">
<path d="M30.2279 17.2191V11.4838C30.2279 7.31785 27.6341 4.375 23.4639 4.375H11.5336C7.3761 4.375 4.76953 7.31785 4.76953 11.4838V22.7231C4.76953 26.8891 7.36333 29.832 11.5336 29.832H14.0096M30.2279 13.5564H4.76953M9.4438 9.39528H9.35015M13.1622 9.39528H13.0686M16.8814 9.39528H16.7877M24.1893 30.625C24.1893 30.625 28.7583 29.2415 28.7583 25.4275C28.7583 21.612 28.9243 21.7354 28.5582 21.3651C28.1907 20.9947 24.7881 19.8114 24.1893 19.8114C23.5906 19.8114 20.188 20.9976 19.8205 21.3651C19.453 21.7312 19.6204 21.612 19.6204 25.4275C19.6204 29.2415 24.1893 30.625 24.1893 30.625Z" stroke="black" stroke-width="2" stroke-linecap="round" stroke-linejoin="round"/>
<mask id="mask0_2234_36704" style="mask-type:alpha" maskUnits="userSpaceOnUse" x="3" y="3" width="29" height="29">
<path d="M30.2264 17.2191V11.4838C30.2264 7.31785 27.6326 4.375 23.4624 4.375H11.5321C7.37463 4.375 4.76807 7.31785 4.76807 11.4838V22.7231C4.76807 26.8891 7.36186 29.832 11.5321 29.832H14.0081M30.2264 13.5564H4.76807M9.44234 9.39528H9.34869M13.1608 9.39528H13.0671M16.8799 9.39528H16.7863M24.1879 30.625C24.1879 30.625 28.7568 29.2415 28.7568 25.4275C28.7568 21.612 28.9228 21.7354 28.5568 21.3651C28.1893 20.9947 24.7867 19.8114 24.1879 19.8114C23.5891 19.8114 20.1865 20.9976 19.819 21.3651C19.4515 21.7312 19.6189 21.612 19.6189 25.4275C19.6189 29.2415 24.1879 30.625 24.1879 30.625Z" stroke="black" stroke-width="2" stroke-linecap="round" stroke-linejoin="round"/>
</mask>
<g mask="url(#mask0_2234_36704)">
<path d="M22.6043 16.0416L32.0835 21.1458L34.271 35H19.6877L14.5835 22.6041L22.6043 16.0416Z" fill="#2277F6"/>
</g>
</svg>
