<svg width="32" height="32" viewBox="0 0 32 32" fill="none" xmlns="http://www.w3.org/2000/svg">
<path d="M10.3762 4H21.6225C25.5533 4 28 6.77492 28 10.7018V21.2982C28 25.2251 25.5533 28 21.6212 28H10.3762C6.44541 28 4 25.2251 4 21.2982V10.7018C4 6.77492 6.45708 4 10.3762 4Z" stroke="black" stroke-width="2" stroke-linecap="round" stroke-linejoin="round"/>
<mask id="mask0_2234_33114" style="mask-type:alpha" maskUnits="userSpaceOnUse" x="0" y="0" width="32" height="32">
<path d="M12.8993 10.3155C8.76478 10.3155 12.8993 16.0002 8.76478 16.0002C12.8993 16.0002 8.76478 21.6837 12.8993 21.6837M19.1001 10.3155C23.2346 10.3155 19.1001 16.0002 23.2346 16.0002C19.1001 16.0002 23.2346 21.6837 19.1001 21.6837M21.6225 4H10.3762C6.45708 4 4 6.77492 4 10.7018V21.2982C4 25.2251 6.44541 28 10.3762 28H21.6212C25.5533 28 28 25.2251 28 21.2982V10.7018C28 6.77492 25.5533 4 21.6225 4Z" stroke="black" stroke-width="2" stroke-linecap="round" stroke-linejoin="round"/>
</mask>
<g mask="url(#mask0_2234_33114)">
<path d="M12.6668 6.66663L25.3335 9.99996L23.3335 24H10.0002L5.3335 12.6666L12.6668 6.66663Z" fill="#2277F6"/>
</g>
</svg>
