<svg width="32" height="32" viewBox="0 0 32 32" fill="none" xmlns="http://www.w3.org/2000/svg">
<path d="M27.9984 19.2088H22.9222C21.0581 19.2088 19.5467 17.6975 19.5467 15.8333C19.5467 13.9704 21.0581 12.4591 22.9222 12.4591H27.9984M23.4982 15.7568H23.4799M4.00049 12.976V11.4998C4.00049 7.86613 6.94657 4.92004 10.5815 4.92004H21.4188C25.0538 4.92004 27.9999 7.86613 27.9999 11.4998V20.5002C27.9999 24.1338 25.0538 27.0799 21.4188 27.0799H16.8512" stroke="black" stroke-width="2" stroke-linecap="round" stroke-linejoin="round"/>
<mask id="mask0_2234_33102" style="mask-type:alpha" maskUnits="userSpaceOnUse" x="3" y="3" width="26" height="26">
<path d="M27.9986 19.2088H22.9224C21.0582 19.2088 19.5469 17.6975 19.5469 15.8333C19.5469 13.9704 21.0582 12.4591 22.9224 12.4591H27.9986M23.4984 15.7568H23.48M4.00063 12.976V11.4998C4.00063 7.86613 6.94672 4.92004 10.5816 4.92004H21.419C25.0539 4.92004 28 7.86613 28 11.4998V20.5002C28 24.1338 25.0539 27.0799 21.419 27.0799H16.8513M10.5184 20.7618V19.2505C10.5016 17.9026 9.39501 16.822 8.04586 16.8388C6.72525 16.8557 5.6576 17.9195 5.63425 19.2401V20.7618M10.1218 27.0794H6.03022C4.90938 27.0794 4 26.17 4 25.0492V22.7531C4 21.6309 4.90938 20.7228 6.03022 20.7228H10.1218C11.2426 20.7228 12.152 21.6309 12.152 22.7531V25.0492C12.152 26.17 11.2426 27.0794 10.1218 27.0794Z" stroke="black" stroke-width="2" stroke-linecap="round" stroke-linejoin="round"/>
</mask>
<g mask="url(#mask0_2234_33102)">
<path d="M15.6304 20.5681L12.4427 29.8809L0.273088 33.9238L-1.90566 20.7697L8.51278 14.3138L15.6304 20.5681Z" fill="#2277F6"/>
</g>
</svg>
