<svg width="32" height="32" viewBox="0 0 32 32" fill="none" xmlns="http://www.w3.org/2000/svg">
    <path
        d="M9.81891 10.4865H10.5156M16.1368 10.4865H22.1822M9.81891 21.5135H10.5156M28 14.3784V10.3762C28 6.45708 25.2251 4 21.2982 4H10.7018C6.77492 4 4 6.44541 4 10.3762V21.6212C4 25.5533 6.77492 28 10.7018 28H14.8117M16.2937 16H4.03167M23.5152 27.5369C23.5152 27.5369 27.4304 26.3511 27.4304 23.0819C27.4304 19.8141 27.5731 19.9178 27.2579 19.6013C26.9439 19.2848 24.0289 18.2703 23.5152 18.2703C23.0014 18.2703 20.0851 19.2874 19.7712 19.6013C19.4572 19.9152 19.5999 19.8128 19.5999 23.0819C19.5999 26.3511 23.5152 27.5369 23.5152 27.5369Z"
        stroke="black" stroke-width="2" stroke-linecap="round" stroke-linejoin="round" />
</svg>