<svg width="32" height="32" viewBox="0 0 32 32" fill="none" xmlns="http://www.w3.org/2000/svg">
    <path
        d="M24.7516 22.3571C26.6664 21.4918 28 19.564 28 17.3248C28 13.8637 25.5598 11.8061 22.5293 11.8035C22.5293 9.62668 20.8221 5.27295 16 5.27295C11.1779 5.27295 9.4707 9.62668 9.4707 11.8035C6.44411 11.8308 4 13.8637 4 17.3248C4 19.564 5.33232 21.4918 7.24843 22.3571M18.3309 20.6946V19.2521C18.3152 17.964 17.2578 16.9331 15.9697 16.9488C14.7094 16.9645 13.6894 17.9797 13.6677 19.2412V20.6946M17.9519 26.727H14.0455C12.9748 26.727 12.1068 25.859 12.1068 24.7883V22.596C12.1068 21.5253 12.9748 20.6573 14.0455 20.6573H17.9519C19.0227 20.6573 19.8906 21.5253 19.8906 22.596V24.7883C19.8906 25.859 19.0227 26.727 17.9519 26.727Z"
        stroke="black" stroke-width="2" stroke-linecap="round" stroke-linejoin="round" />
</svg>