<svg width="32" height="32" viewBox="0 0 32 32" fill="none" xmlns="http://www.w3.org/2000/svg">
    <path
        d="M13.9794 27.9993H10.5234C7.48942 27.9993 5.03125 25.5399 5.03125 22.5059V9.49212C5.03125 6.45947 7.48942 4 10.5234 4H19.9848C23.0187 4 25.4782 6.45947 25.4782 9.49212V13.9786M18.6431 12.858H11.8665M15.4033 18.7735H11.8653M25.4775 22.1925V20.8039C25.4619 19.5637 24.4445 18.571 23.2057 18.5867C21.9916 18.6023 21.0093 19.5793 20.9885 20.7934V22.1925M25.1136 28H21.3528C20.3224 28 19.4874 27.165 19.4874 26.1333V24.0229C19.4874 22.9925 20.3224 22.1562 21.3528 22.1562H25.1136C26.1441 22.1562 26.9804 22.9925 26.9804 24.0229V26.1333C26.9804 27.165 26.1441 28 25.1136 28Z"
        stroke="black" stroke-width="2" stroke-linecap="round" stroke-linejoin="round" />
</svg>