<svg width="32" height="32" viewBox="0 0 32 32" fill="none" xmlns="http://www.w3.org/2000/svg">
<path d="M13.9755 27.9993H10.5195C7.48551 27.9993 5.02734 25.5399 5.02734 22.5059V9.49212C5.02734 6.45947 7.48551 4 10.5195 4H19.9809C23.0148 4 25.4743 6.45947 25.4743 9.49212V13.9786M18.6392 12.858H11.8626M15.3994 18.7735H11.8613M25.4736 22.1925V20.8039C25.458 19.5637 24.4406 18.571 23.2018 18.5867C21.9877 18.6023 21.0054 19.5793 20.9846 20.7934V22.1925M25.1097 28H21.3489C20.3185 28 19.4834 27.165 19.4834 26.1333V24.0229C19.4834 22.9925 20.3185 22.1562 21.3489 22.1562H25.1097C26.1402 22.1562 26.9765 22.9925 26.9765 24.0229V26.1333C26.9765 27.165 26.1402 28 25.1097 28Z" stroke="black" stroke-width="2" stroke-linecap="round" stroke-linejoin="round"/>
<mask id="mask0_2234_36699" style="mask-type:alpha" maskUnits="userSpaceOnUse" x="4" y="3" width="24" height="26">
<path d="M13.974 27.9993H10.518C7.48404 27.9993 5.02588 25.5399 5.02588 22.5059V9.49212C5.02588 6.45947 7.48404 4 10.518 4H19.9794C23.0133 4 25.4728 6.45947 25.4728 9.49212V13.9786M18.6377 12.858H11.8612M15.398 18.7735H11.8599M25.4722 22.1925V20.8039C25.4565 19.5637 24.4391 18.571 23.2003 18.5867C21.9862 18.6023 21.004 19.5793 20.9831 20.7934V22.1925M25.1083 28H21.3474C20.317 28 19.482 27.165 19.482 26.1333V24.0229C19.482 22.9925 20.317 22.1562 21.3474 22.1562H25.1083C26.1387 22.1562 26.975 22.9925 26.975 24.0229V26.1333C26.975 27.165 26.1387 28 25.1083 28Z" stroke="black" stroke-width="2" stroke-linecap="round" stroke-linejoin="round"/>
</mask>
<g mask="url(#mask0_2234_36699)">
<path d="M21.9998 16L30.6665 20.6667L32.6665 33.3333H19.3332L14.6665 22L21.9998 16Z" fill="#2277F6"/>
</g>
</svg>
