<svg width="32" height="32" viewBox="0 0 32 32" fill="none" xmlns="http://www.w3.org/2000/svg">
<path d="M9.81748 10.4863H10.5141M16.1352 10.4863H22.1805M9.81748 21.513H10.5141M27.9994 15.1357V10.376C27.9994 6.45702 25.2245 4 21.2977 4H10.7017C6.77484 4 4 6.44534 4 10.376V21.6207C4 25.5527 6.77484 27.9994 10.7017 27.9994H14.8114M16.2934 15.9997H4.03167" stroke="black" stroke-width="2" stroke-linecap="round" stroke-linejoin="round"/>
<mask id="mask0_2234_36725" style="mask-type:alpha" maskUnits="userSpaceOnUse" x="3" y="3" width="26" height="26">
<path d="M9.81748 10.4863H10.5141M16.1352 10.4863H22.1805M9.81748 21.513H10.5141M27.9994 15.1357V10.376C27.9994 6.45702 25.2245 4 21.2977 4H10.7017C6.77485 4 4 6.44534 4 10.376V21.6207C4 25.5527 6.77485 27.9994 10.7017 27.9994H14.8114M16.2934 15.9997H4.03167M26.0269 26.0307L28 27.9999M23.3595 19.239C25.5247 19.239 27.2799 20.9942 27.2799 23.1581C27.2799 25.3232 25.5247 27.0784 23.3595 27.0784C21.1944 27.0784 19.4392 25.3232 19.4392 23.1581C19.4392 20.9942 21.1944 19.239 23.3595 19.239Z" stroke="black" stroke-width="2" stroke-linecap="round" stroke-linejoin="round"/>
</mask>
<g mask="url(#mask0_2234_36725)">
<path d="M23.3333 14.6666L32 19.3333L34 32H20.6667L16 20.6666L23.3333 14.6666Z" fill="#2277F6"/>
</g>
</svg>
