<svg width="24" height="24" viewBox="0 0 24 24" fill="none" xmlns="http://www.w3.org/2000/svg">
    <path
        d="M13.1118 11.5617L2.47111 22.2024C1.96245 21.7212 1.6875 21.0614 1.6875 20.3465V3.65686C1.6875 2.92824 1.9762 2.26835 2.49861 1.77344L13.1118 11.5617Z"
        fill="white" />
    <path opacity="0.6"
        d="M22.3143 12.0015C22.3143 12.9638 21.7919 13.8162 20.9258 14.2973L17.9014 15.9746L14.1483 12.5102L13.1172 11.5616L17.0903 7.5885L20.9258 9.70564C21.7919 10.1868 22.3143 11.0392 22.3143 12.0015Z"
        fill="white" />
    <path opacity="0.8"
        d="M13.1132 11.5619L2.5 1.77358C2.63748 1.63611 2.8162 1.51238 2.99491 1.4024C3.86101 0.879987 4.90583 0.866239 5.79943 1.36115L17.0862 7.58883L13.1132 11.5619Z"
        fill="white" />
    <path opacity="0.8"
        d="M17.8936 15.9748L5.79568 22.6424C5.3695 22.8898 4.88833 22.9998 4.42091 22.9998C3.926 22.9998 3.43108 22.8761 2.99116 22.6011C2.79869 22.4911 2.61997 22.3537 2.46875 22.2024L13.1094 11.5618L14.1405 12.5104L17.8936 15.9748Z"
        fill="white" />
</svg>