<svg width="1376" height="368" viewBox="0 0 1376 368" fill="none" xmlns="http://www.w3.org/2000/svg">
    <mask id="mask0_0_10" style="mask-type:alpha" maskUnits="userSpaceOnUse" x="0" y="0"
        width="1376" height="368">
        <path d="M0 0H1376V368H0V0Z" fill="#2277F7" />
    </mask>
    <g mask="url(#mask0_0_10)">
        <path d="M1 0H1376V368H1V0Z" fill="#17181B" />
        <line x1="282.5" y1="-212" x2="282.5" y2="558" stroke="white" stroke-opacity="0.04" />
        <line x1="82.5001" y1="-212" x2="82.5" y2="558" stroke="white" stroke-opacity="0.04" />
        <line x1="417.5" y1="-212" x2="417.5" y2="558" stroke="white" stroke-opacity="0.04" />
        <line x1="1160.5" y1="-212" x2="1160.5" y2="558" stroke="white" stroke-opacity="0.04" />
        <line x1="960.5" y1="-212" x2="960.5" y2="558" stroke="white" stroke-opacity="0.04" />
        <line x1="1295.5" y1="-212" x2="1295.5" y2="558" stroke="white" stroke-opacity="0.04" />
        <line x1="729.5" y1="-212" x2="729.5" y2="558" stroke="white" stroke-opacity="0.04" />
        <line x1="529.5" y1="-212" x2="529.5" y2="558" stroke="white" stroke-opacity="0.04" />
        <line x1="864.5" y1="-212" x2="864.5" y2="558" stroke="white" stroke-opacity="0.04" />
        <path opacity="0.05" d="M167 432H-31V-14.7692H167V432Z" fill="url(#paint0_linear_0_10)" />
        <path opacity="0.05" d="M1004 -85L1314 -85V362L1004 362V-85Z"
            fill="url(#paint1_linear_0_10)" />
        <path opacity="0.05" d="M1203 228L1461 228V675H1203V228Z" fill="url(#paint2_linear_0_10)" />
    </g>
    <defs>
        <linearGradient id="paint0_linear_0_10" x1="68" y1="492.098" x2="68" y2="46.4631"
            gradientUnits="userSpaceOnUse">
            <stop stop-color="#4892FF" />
            <stop offset="0.0001" stop-color="white" />
            <stop offset="1" stop-color="white" stop-opacity="0" />
        </linearGradient>
        <linearGradient id="paint1_linear_0_10" x1="1159" y1="-145.129" x2="1159" y2="300.736"
            gradientUnits="userSpaceOnUse">
            <stop stop-color="#4892FF" />
            <stop offset="0.0001" stop-color="white" />
            <stop offset="1" stop-color="white" stop-opacity="0" />
        </linearGradient>
        <linearGradient id="paint2_linear_0_10" x1="1332" y1="167.871" x2="1332" y2="613.736"
            gradientUnits="userSpaceOnUse">
            <stop stop-color="#4892FF" />
            <stop offset="0.0001" stop-color="white" />
            <stop offset="1" stop-color="white" stop-opacity="0" />
        </linearGradient>
    </defs>
</svg>