<svg width="135" height="26" viewBox="0 0 135 26" fill="none"
    xmlns="http://www.w3.org/2000/svg">
    <path d="M12.3409 1C5.22321 1 0 4.50577 0 4.50577C0 11.3628 3.33184 16.8966 6.53309 20.6314C7.91031 19.5929 9.09675 18.5467 10.1144 17.5194C7.93224 14.967 5.68993 11.4541 4.97174 7.26275C6.72029 6.53385 9.32425 5.73558 12.3403 5.73558C15.3371 5.73558 17.9476 6.53742 19.7079 7.2704C18.7745 12.7038 15.281 16.9971 12.679 19.5327C11.5625 20.6855 10.2684 21.8541 8.76979 23.0053C10.78 24.9503 12.3403 26 12.3403 26C12.3403 26 24.6812 17.702 24.6812 4.50527C24.6817 4.50578 19.4585 1 12.3409 1Z" fill="white"/>
    <path d="M37.4329 22H41.824V12.7556L45.9378 19.0418H46.0302L50.1671 12.7093V22H54.6276V5.82222H49.8898L46.0302 12.0853L42.1707 5.82222H37.4329V22ZM56.2029 22H60.9176L62.0731 19.1111H68.3131L69.4918 22H74.2989L67.4118 5.70666H63.09L56.2029 22ZM63.3905 15.6213L65.2162 11.0222L67.0189 15.6213H63.3905ZM75.9611 22H80.4678V5.82222H75.9611V22ZM83.4294 22H95.7476V18.0711H87.913V5.82222H83.4294V22ZM104.499 22.3004C109.098 22.3004 112.08 20.0124 112.08 14.7893V5.82222H107.527V14.928C107.527 17.1929 106.348 18.256 104.546 18.256C102.743 18.256 101.564 17.1467 101.564 14.8124V5.82222H97.0113V14.9049C97.0113 19.9662 99.9002 22.3004 104.499 22.3004ZM114.733 22H119.124V12.7556L123.238 19.0418H123.331L127.467 12.7093V22H131.928V5.82222H127.19L123.331 12.0853L119.471 5.82222H114.733V22Z" fill="white"/>
</svg>
