<svg width="80" height="74" viewBox="0 0 80 74" fill="none"
    xmlns="http://www.w3.org/2000/svg">
    <g opacity="0.8">
        <path d="M39.615 0C25.817 0 15.6914 6.88088 15.6914 6.88088C15.6914 20.3393 22.1504 31.2007 28.3563 38.5311C31.0261 36.4928 33.3261 34.4395 35.2988 32.4231C31.0686 27.4134 26.7217 20.5185 25.3295 12.2921C28.7192 10.8614 33.7671 9.29465 39.614 9.29465C45.4234 9.29465 50.4841 10.8684 53.8966 12.3071C52.087 22.9713 45.3146 31.398 40.2706 36.3747C38.1061 38.6373 35.5974 40.9309 32.6922 43.1905C36.5892 47.0078 39.614 49.0682 39.614 49.0682C39.614 49.0682 63.5376 32.7816 63.5376 6.87988C63.5386 6.88089 53.413 0 39.615 0Z" fill="white"/>
        <path d="M1.26 69V56.4H4.194L9.414 64.968H7.866L12.942 56.4H15.876L15.912 69H12.636L12.6 61.386H13.158L9.36 67.758H7.776L3.87 61.386H4.554V69H1.26ZM16.9218 69L22.4838 56.4H25.9938L31.5738 69H27.8658L23.5098 58.146H24.9138L20.5578 69H16.9218ZM19.9638 66.552L20.8818 63.924H27.0378L27.9558 66.552H19.9638ZM32.5842 69V56.4H36.1482V69H32.5842ZM38.6838 69V56.4H42.2478V66.174H48.2598V69H38.6838ZM55.3611 69.252C53.5011 69.252 52.0491 68.742 51.0051 67.722C49.9611 66.702 49.4391 65.256 49.4391 63.384V56.4H53.0031V63.276C53.0031 64.356 53.2131 65.13 53.6331 65.598C54.0651 66.066 54.6531 66.3 55.3971 66.3C56.1411 66.3 56.7231 66.066 57.1431 65.598C57.5631 65.13 57.7731 64.356 57.7731 63.276V56.4H61.2831V63.384C61.2831 65.256 60.7611 66.702 59.7171 67.722C58.6731 68.742 57.2211 69.252 55.3611 69.252ZM63.6975 69V56.4H66.6315L71.8515 64.968H70.3035L75.3795 56.4H78.3135L78.3495 69H75.0735L75.0375 61.386H75.5955L71.7975 67.758H70.2135L66.3075 61.386H66.9915V69H63.6975Z" fill="white"/>
    </g>
</svg>
