<svg width="80" height="71" viewBox="0 0 80 71" fill="none" xmlns="http://www.w3.org/2000/svg">
    <g opacity="0.8">
        <path
            d="M0 55.0598L7.23423 64.2063L14.4685 55.0598V70.8099H11.3013V64.1112L7.23423 69.4052L3.18599 64.1112V70.8099H0V55.0598Z"
            fill="white" />
        <path
            d="M26.4147 68.7225H21.0543L20.1921 70.8099H16.5938L23.735 55.0598L30.8763 70.8099H27.278L26.4147 68.7225ZM25.2341 65.8762L23.735 62.233L22.236 65.8762H25.2341Z"
            fill="white" />
        <path d="M32.9844 55.4392H36.1704V70.8098H32.9844V55.4392Z" fill="white" />
        <path d="M39.6094 55.4392H42.7954V67.5841H48.2309V70.8098H39.6094V55.4392Z" fill="white" />
        <path
            d="M53.5786 55.4392V65.3826C53.5786 66.7301 54.6089 67.7733 55.9399 67.7733C57.2709 67.7733 58.3012 66.7301 58.3012 65.3826V55.4392H61.4872V65.3826C61.4872 68.4952 59.0132 71 55.9389 71C52.8647 71 50.3906 68.4952 50.3906 65.3826V55.4392H53.5786Z"
            fill="white" />
        <path
            d="M64.7891 55.0598L72.0243 64.2063L79.2585 55.0598V70.8099H76.0913V64.1112L72.0243 69.4052L67.9761 64.1112V70.8099H64.7901V55.0598H64.7891Z"
            fill="white" />
        <path
            d="M39.6111 0C25.8131 0 15.6875 6.88088 15.6875 6.88088C15.6875 20.3393 22.1465 31.2007 28.3523 38.5311C31.0222 36.4928 33.3222 34.4395 35.2949 32.4231C31.0647 27.4134 26.7178 20.5185 25.3256 12.2921C28.7152 10.8614 33.7632 9.29465 39.6101 9.29465C45.4194 9.29465 50.4802 10.8684 53.8927 12.3071C52.0831 22.9713 45.3107 31.398 40.2667 36.3747C38.1022 38.6373 35.5935 40.9309 32.6883 43.1905C36.5853 47.0078 39.6101 49.0682 39.6101 49.0682C39.6101 49.0682 63.5337 32.7816 63.5337 6.87988C63.5347 6.88089 53.4091 0 39.6111 0Z"
            fill="white" />
    </g>
</svg>