<svg width="352" height="293" viewBox="0 0 352 293" fill="none"
    xmlns="http://www.w3.org/2000/svg">
    <path fill-rule="evenodd" clip-rule="evenodd" d="M269.867 134.708C270.554 134.69 271.243 134.682 271.935 134.682C315.653 134.682 351.094 170.122 351.094 213.841C351.094 257.559 315.653 293 271.935 293C230.739 293 196.893 261.53 193.124 221.32C172.734 121.799 236.146 24.1184 335.69 2.45929C340.268 1.46304 344.844 0.644867 349.41 9.16999e-05C304.673 30.8364 275.272 80.2316 269.867 134.708Z" fill="#F7F8FA"/>
    <path fill-rule="evenodd" clip-rule="evenodd" d="M80.5546 134.708C81.2417 134.69 81.9309 134.682 82.6222 134.682C126.341 134.682 161.781 170.122 161.781 213.841C161.781 257.559 126.341 293 82.6223 293C41.4261 293 7.58004 261.53 3.81191 221.319C-16.5781 121.799 46.8332 24.1184 146.377 2.45926C150.956 1.46304 155.532 0.644867 160.098 0.000122217C115.361 30.8364 85.9596 80.2316 80.5546 134.708Z" fill="#F7F8FA"/>
</svg>
