<svg width="52" height="42" viewBox="0 0 52 42" fill="none" xmlns="http://www.w3.org/2000/svg">
<path fill-rule="evenodd" clip-rule="evenodd" d="M39.513 19.3091C39.6114 19.3066 39.7101 19.3053 39.8091 19.3053C46.076 19.3053 51.1562 24.3856 51.1562 30.6524C51.1562 36.9192 46.076 41.9995 39.8091 41.9995C33.9033 41.9995 29.0512 37.4876 28.5118 31.7228C25.59 17.4575 34.6796 3.45634 48.9483 0.351711C49.6047 0.208901 50.2606 0.0916177 50.9152 -0.000808695C44.5023 4.41946 40.2878 11.5001 39.513 19.3091Z" fill="#0E1427"/>
<path fill-rule="evenodd" clip-rule="evenodd" d="M12.3724 19.3091C12.4708 19.3066 12.5695 19.3053 12.6685 19.3053C18.9353 19.3053 24.0156 24.3856 24.0156 30.6524C24.0156 36.9192 18.9353 41.9995 12.6685 41.9995C6.76268 41.9995 1.91064 37.4877 1.37123 31.7229C-1.55064 17.4575 7.53897 3.45635 21.8077 0.351715C22.4641 0.208904 23.12 0.0916215 23.7746 -0.00080488C17.3617 4.41947 13.1471 11.5001 12.3724 19.3091Z" fill="#0E1427"/>
</svg>
