<svg width="16" height="16" viewBox="0 0 16 16"
    xmlns="http://www.w3.org/2000/svg">
    <g clip-path="url(#clip0_0_3)">
        <path fill-rule="evenodd" clip-rule="evenodd" d="M3.77494 0.815H12.2279C13.9986 0.815 15.1879 2.0145 15.1879 3.77494V12.2279C15.1879 13.815 14.4986 15.1879 12.2279 15.1879H3.77494C1.49859 15.1879 0.815 14.0078 0.815 12.2279V3.77494C0.815 2.315 1.49859 0.815 3.77494 0.815ZM11.1006 7.07448C11.2232 7.02204 11.355 6.99457 11.4883 6.9937L11.4907 6.99207C12.5376 6.99289 12.8855 8.41711 11.9407 8.90709C11.9812 9.06472 12.001 9.22697 11.9995 9.38972C11.9995 11.0018 10.2053 12.3059 8.01019 12.3059C5.81506 12.3059 4.02825 11.0018 4.02825 9.39136C4.02751 9.2319 4.04394 9.07283 4.07725 8.91689C3.11361 8.42691 3.45823 6.9937 4.51088 6.9937C4.64701 6.99364 4.78172 7.02142 4.90671 7.07535C5.0317 7.12928 5.14434 7.20821 5.23769 7.30729C5.9155 6.83201 6.81707 6.5274 7.81827 6.48494L8.38992 3.84147C8.39973 3.79576 8.42721 3.75578 8.46637 3.73023C8.50553 3.70469 8.55319 3.69565 8.59898 3.70509L10.443 4.1224C10.5038 4.00018 10.5963 3.89653 10.7108 3.82227C10.8254 3.748 10.9578 3.70584 11.0942 3.70018C11.2306 3.69452 11.366 3.72557 11.4863 3.79009C11.6066 3.85461 11.7074 3.95024 11.7781 4.067C11.8489 4.18375 11.887 4.31735 11.8885 4.45386C11.89 4.59037 11.8548 4.72478 11.7867 4.84306C11.7185 4.96135 11.6199 5.05917 11.501 5.12633C11.3822 5.19349 11.2475 5.22751 11.111 5.22486C11.0124 5.22444 10.9149 5.20453 10.824 5.16628C10.7331 5.12804 10.6507 5.07221 10.5815 5.00202C10.5123 4.93182 10.4577 4.84863 10.4207 4.75723C10.3837 4.66584 10.3652 4.56805 10.3662 4.46947L8.7027 4.08483L8.17841 6.48249C9.18778 6.51924 10.0983 6.82466 10.7745 7.29913C10.8672 7.2033 10.978 7.12693 11.1006 7.07448ZM5.73115 8.60583C5.64854 8.72787 5.60386 8.87161 5.60273 9.01897C5.60294 9.21831 5.68212 9.40946 5.82292 9.55057C5.96373 9.69168 6.1547 9.77126 6.35404 9.77191C6.50141 9.7711 6.64524 9.72674 6.76746 9.64439C6.88967 9.56205 6.98481 9.4454 7.04091 9.30913C7.097 9.17285 7.11155 9.02303 7.08272 8.87851C7.05389 8.73399 6.98297 8.60122 6.87887 8.4969C6.77478 8.39259 6.64217 8.32138 6.49771 8.29223C6.35325 8.26309 6.2034 8.27731 6.06701 8.33311C5.93061 8.38891 5.81376 8.48379 5.73115 8.60583ZM6.33689 10.8156C7.02613 11.5146 8.97055 11.5146 9.6598 10.8156C9.69229 10.7817 9.71045 10.7366 9.71049 10.6896C9.71052 10.6427 9.69242 10.5976 9.65998 10.5636C9.62753 10.5297 9.58323 10.5096 9.53634 10.5076C9.48944 10.5055 9.44356 10.5217 9.40827 10.5526C8.85867 11.1096 7.1127 11.0998 6.58678 10.5526C6.56952 10.5362 6.54919 10.5234 6.52696 10.5148C6.50472 10.5063 6.48103 10.5022 6.45722 10.5028C6.4334 10.5034 6.40995 10.5087 6.38818 10.5184C6.36641 10.528 6.34676 10.5419 6.33036 10.5592C6.31395 10.5764 6.3011 10.5967 6.29255 10.619C6.284 10.6412 6.27991 10.6649 6.28052 10.6887C6.28112 10.7125 6.28641 10.736 6.29609 10.7578C6.30576 10.7795 6.31962 10.7992 6.33689 10.8156ZM9.22119 9.64909C9.34668 9.73189 9.49395 9.77549 9.64428 9.77436C9.74317 9.77479 9.84117 9.75482 9.93262 9.71717C10.0241 9.67953 10.1072 9.62414 10.1771 9.55422C10.247 9.48429 10.3024 9.4012 10.34 9.30976C10.3777 9.21831 10.3968 9.12031 10.3964 9.02142C10.3974 8.87109 10.3536 8.72386 10.2707 8.59847C10.1877 8.47308 10.0694 8.37519 9.93066 8.31724C9.79193 8.2593 9.63911 8.24393 9.49163 8.27308C9.34414 8.30224 9.20866 8.37459 9.10242 8.48096C8.99617 8.58732 8.92396 8.72288 8.89496 8.87039C8.86597 9.01791 8.88151 9.17072 8.9396 9.30938C8.99769 9.44804 9.09571 9.56629 9.22119 9.64909Z" fill="currentColor"/>
    </g>
    <defs>
        <clipPath id="clip0_0_3">
            <rect width="16" height="15" />
        </clipPath>
    </defs>
</svg>
    