<svg width="45" height="45" viewBox="0 0 45 45" fill="none" xmlns="http://www.w3.org/2000/svg">
    <rect width="45" height="45" rx="12" fill="#ECEFF4" />
    <path fill-rule="evenodd" clip-rule="evenodd"
        d="M14.5668 9H30.3306C33.6326 9 35.8505 11.2369 35.8505 14.5199V30.2837C35.8505 33.2434 34.5651 35.8036 30.3306 35.8036H14.5668C10.3217 35.8036 9.04688 33.6029 9.04688 30.2837V14.5199C9.04688 11.7973 10.3217 9 14.5668 9ZM28.2409 20.6735C28.4694 20.5757 28.7152 20.5245 28.9638 20.5229L28.9684 20.5198C30.9208 20.5214 31.5695 23.1773 29.8075 24.0911C29.8831 24.3851 29.92 24.6877 29.9172 24.9912C29.9172 27.9974 26.5713 30.4296 22.4776 30.4296C18.384 30.4296 15.0518 27.9974 15.0518 24.9942C15.0504 24.6968 15.0811 24.4002 15.1432 24.1094C13.3461 23.1956 13.9888 20.5229 15.9519 20.5229C16.2057 20.5228 16.4569 20.5746 16.69 20.6751C16.9231 20.7757 17.1332 20.9229 17.3073 21.1077C18.5713 20.2213 20.2526 19.6533 22.1198 19.5741L23.1858 14.6444C23.2041 14.5591 23.2553 14.4845 23.3284 14.4369C23.4014 14.3893 23.4903 14.3724 23.5757 14.39L27.0145 15.1682C27.1279 14.9403 27.3004 14.747 27.514 14.6085C27.7277 14.47 27.9745 14.3914 28.2289 14.3809C28.4833 14.3703 28.7358 14.4282 28.9602 14.5485C29.1845 14.6689 29.3725 14.8472 29.5044 15.0649C29.6363 15.2827 29.7074 15.5318 29.7102 15.7864C29.713 16.041 29.6474 16.2916 29.5203 16.5122C29.3932 16.7328 29.2093 16.9152 28.9876 17.0405C28.766 17.1657 28.5148 17.2292 28.2602 17.2242C28.0764 17.2234 27.8945 17.1863 27.7251 17.115C27.5556 17.0436 27.4019 16.9395 27.2729 16.8086C27.1438 16.6777 27.0419 16.5226 26.973 16.3521C26.904 16.1817 26.8695 15.9993 26.8713 15.8155L23.7691 15.0982L22.7914 19.5695C24.6737 19.6381 26.3718 20.2076 27.6328 21.0925C27.8056 20.9137 28.0123 20.7713 28.2409 20.6735ZM18.2275 23.5293C18.0735 23.7569 17.9901 24.0249 17.988 24.2998C17.9884 24.6715 18.1361 25.028 18.3987 25.2911C18.6613 25.5543 19.0174 25.7027 19.3891 25.7039C19.664 25.7024 19.9322 25.6196 20.1601 25.4661C20.388 25.3125 20.5655 25.095 20.6701 24.8409C20.7747 24.5867 20.8018 24.3073 20.748 24.0378C20.6943 23.7683 20.562 23.5207 20.3679 23.3262C20.1738 23.1316 19.9265 22.9988 19.6571 22.9445C19.3877 22.8901 19.1082 22.9166 18.8539 23.0207C18.5995 23.1248 18.3816 23.3017 18.2275 23.5293ZM19.3572 27.6502C20.6425 28.9538 24.2686 28.9538 25.554 27.6502C25.6146 27.587 25.6484 27.5029 25.6485 27.4153C25.6486 27.3278 25.6148 27.2436 25.5543 27.1804C25.4938 27.1171 25.4112 27.0796 25.3237 27.0758C25.2363 27.072 25.1507 27.1021 25.0849 27.1598C24.06 28.1985 20.8039 28.1802 19.8232 27.1598C19.791 27.1292 19.7531 27.1053 19.7116 27.0893C19.6701 27.0734 19.626 27.0657 19.5815 27.0669C19.5371 27.068 19.4934 27.0779 19.4528 27.0959C19.4122 27.1139 19.3756 27.1398 19.345 27.172C19.3144 27.2042 19.2904 27.2421 19.2745 27.2836C19.2585 27.325 19.2509 27.3692 19.252 27.4136C19.2532 27.458 19.263 27.5018 19.2811 27.5424C19.2991 27.583 19.325 27.6196 19.3572 27.6502ZM24.736 25.4748C24.97 25.6292 25.2447 25.7106 25.525 25.7085V25.7069C25.7095 25.7077 25.8922 25.672 26.0627 25.6018C26.2333 25.5316 26.3882 25.4283 26.5186 25.2979C26.649 25.1675 26.7523 25.0126 26.8225 24.842C26.8927 24.6715 26.9285 24.4887 26.9277 24.3043C26.9295 24.024 26.8478 23.7494 26.6932 23.5156C26.5385 23.2817 26.3178 23.0992 26.0591 22.9911C25.8004 22.8831 25.5154 22.8544 25.2403 22.9088C24.9653 22.9631 24.7127 23.0981 24.5145 23.2964C24.3164 23.4948 24.1817 23.7476 24.1276 24.0227C24.0736 24.2978 24.1026 24.5827 24.2109 24.8413C24.3192 25.0999 24.502 25.3204 24.736 25.4748Z"
        fill="black" />
</svg>