<svg width="15" height="15" viewBox="0 0 15 15" fill="none" xmlns="http://www.w3.org/2000/svg">
    <g clip-path="url(#clip0_40_7366)">
        <path fill-rule="evenodd" clip-rule="evenodd"
            d="M3.27244 0.186523H11.7254C13.4961 0.186523 14.6854 1.38602 14.6854 3.14646V11.5995C14.6854 13.1865 13.9961 14.5594 11.7254 14.5594H3.27244C0.996094 14.5594 0.3125 13.3793 0.3125 11.5995V3.14646C0.3125 1.68652 0.996094 0.186523 3.27244 0.186523ZM10.602 6.44601C10.7246 6.39356 10.8564 6.3661 10.9897 6.36523L10.9921 6.36359C12.039 6.36441 12.3869 7.78863 11.4421 8.27861C11.4826 8.43625 11.5024 8.5985 11.5009 8.76125C11.5009 10.3733 9.70672 11.6775 7.51159 11.6775C5.31646 11.6775 3.52965 10.3733 3.52965 8.76288C3.52892 8.60343 3.54534 8.44435 3.57865 8.28841C2.61502 7.79843 2.95964 6.36523 4.01229 6.36523C4.14842 6.36516 4.28312 6.39295 4.40812 6.44688C4.53311 6.5008 4.64574 6.57974 4.7391 6.67882C5.41691 6.20353 6.31848 5.89892 7.31968 5.85646L7.89133 3.213C7.90114 3.16728 7.92861 3.1273 7.96777 3.10175C8.00693 3.07621 8.0546 3.06717 8.10039 3.07662L9.94436 3.49392C10.0052 3.37171 10.0977 3.26806 10.2123 3.19379C10.3268 3.11952 10.4592 3.07736 10.5956 3.0717C10.732 3.06604 10.8674 3.09709 10.9877 3.16162C11.108 3.22614 11.2088 3.32177 11.2795 3.43852C11.3503 3.55528 11.3884 3.68888 11.3899 3.82538C11.3914 3.96189 11.3562 4.0963 11.2881 4.21459C11.2199 4.33287 11.1213 4.4307 11.0024 4.49785C10.8836 4.56501 10.7489 4.59904 10.6124 4.59638C10.5138 4.59596 10.4163 4.57605 10.3254 4.53781C10.2345 4.49956 10.1521 4.44374 10.0829 4.37354C10.0137 4.30334 9.95906 4.22015 9.92211 4.12876C9.88515 4.03737 9.86663 3.93957 9.8676 3.84099L8.2041 3.45635L7.67982 5.85401C8.68919 5.89076 9.59974 6.19618 10.2759 6.67065C10.3686 6.57482 10.4795 6.49845 10.602 6.44601ZM5.23255 7.97735C5.14994 8.09939 5.10527 8.24313 5.10414 8.39049C5.10435 8.58984 5.18352 8.78098 5.32433 8.92209C5.46513 9.0632 5.6561 9.14279 5.85545 9.14344C6.00281 9.14263 6.14665 9.09826 6.26886 9.01591C6.39108 8.93357 6.48622 8.81693 6.54232 8.68065C6.59841 8.54438 6.61296 8.39456 6.58413 8.25004C6.55529 8.10551 6.48437 7.97275 6.38028 7.86843C6.27619 7.76411 6.14357 7.6929 5.99912 7.66375C5.85466 7.63461 5.70481 7.64883 5.56841 7.70463C5.43202 7.76043 5.31516 7.85531 5.23255 7.97735ZM5.8383 10.1871C6.52754 10.8861 8.47196 10.8861 9.1612 10.1871C9.1937 10.1532 9.21186 10.1081 9.21189 10.0612C9.21193 10.0142 9.19383 9.96908 9.16138 9.93516C9.12893 9.90123 9.08464 9.88115 9.03774 9.8791C8.99084 9.87705 8.94497 9.89318 8.90968 9.92414C8.36008 10.4811 6.6141 10.4713 6.08819 9.92414C6.07092 9.90773 6.05059 9.89489 6.02836 9.88634C6.00613 9.87779 5.98243 9.8737 5.95862 9.8743C5.93481 9.87491 5.91135 9.8802 5.88959 9.88987C5.86782 9.89955 5.84817 9.91341 5.83176 9.93068C5.81535 9.94794 5.80251 9.96827 5.79396 9.9905C5.7854 10.0127 5.78132 10.0364 5.78192 10.0602C5.78253 10.0841 5.78782 10.1075 5.79749 10.1293C5.80716 10.151 5.82103 10.1707 5.8383 10.1871ZM8.7226 9.02061C8.84808 9.10341 8.99535 9.14702 9.14569 9.14589V9.14507C9.24458 9.1455 9.34258 9.12634 9.43402 9.0887C9.52547 9.05105 9.60856 8.99567 9.67848 8.92574C9.74841 8.85581 9.8038 8.77273 9.84144 8.68128C9.87909 8.58983 9.89825 8.49183 9.89781 8.39294C9.89878 8.24261 9.85501 8.09538 9.77208 7.96999C9.68914 7.8446 9.57079 7.74671 9.43206 7.68877C9.29334 7.63083 9.14052 7.61546 8.99303 7.64461C8.84555 7.67376 8.71007 7.74612 8.60382 7.85248C8.49757 7.95884 8.42536 8.0944 8.39637 8.24192C8.36738 8.38943 8.38292 8.54224 8.44101 8.6809C8.4991 8.81956 8.59712 8.93781 8.7226 9.02061Z"
            fill="white" />
    </g>
    <defs>
        <clipPath id="clip0_40_7366">
            <rect width="14.3729" height="14.3729" fill="white"
                transform="translate(0.3125 0.186523)" />
        </clipPath>
    </defs>
</svg>