<svg width="45" height="45" viewBox="0 0 45 45" fill="none" xmlns="http://www.w3.org/2000/svg">
    <path fill-rule="evenodd" clip-rule="evenodd"
        d="M11.4239 3.65649H33.473C38.0916 3.65649 41.1937 6.7853 41.1937 11.3773V33.4263C41.1937 37.5661 39.3958 41.1471 33.473 41.1471H11.4239C5.48623 41.1471 3.70312 38.0689 3.70312 33.4263V11.3773C3.70312 7.56914 5.48623 3.65649 11.4239 3.65649ZM30.5487 19.9843C30.8684 19.8475 31.2122 19.7758 31.5599 19.7736L31.5663 19.7693C34.2972 19.7714 35.2046 23.4864 32.74 24.7645C32.8457 25.1757 32.8973 25.5989 32.8934 26.0234C32.8934 30.2283 28.2134 33.6302 22.4876 33.6302C16.7618 33.6302 12.101 30.2283 12.101 26.0277C12.0991 25.6117 12.1419 25.1968 12.2288 24.7901C9.71523 23.512 10.6142 19.7736 13.3599 19.7736C13.715 19.7734 14.0664 19.8459 14.3924 19.9865C14.7184 20.1272 15.0122 20.3331 15.2557 20.5915C17.0238 19.3518 19.3755 18.5572 21.987 18.4465L23.4781 11.5512C23.5037 11.4319 23.5754 11.3276 23.6775 11.261C23.7797 11.1944 23.904 11.1708 24.0234 11.1954L28.8333 12.2839C28.992 11.9652 29.2333 11.6948 29.5321 11.5011C29.8309 11.3074 30.1762 11.1974 30.532 11.1826C30.8878 11.1679 31.241 11.2489 31.5548 11.4172C31.8686 11.5855 32.1315 11.8349 32.316 12.1394C32.5006 12.444 32.6 12.7925 32.6039 13.1486C32.6078 13.5046 32.5161 13.8552 32.3383 14.1638C32.1605 14.4723 31.9032 14.7275 31.5932 14.9026C31.2832 15.0778 30.9318 15.1666 30.5758 15.1597C30.3186 15.1585 30.0643 15.1066 29.8273 15.0069C29.5902 14.9071 29.3753 14.7615 29.1948 14.5784C29.0142 14.3953 28.8717 14.1783 28.7753 13.9399C28.6789 13.7015 28.6306 13.4464 28.6331 13.1893L24.294 12.186L22.9264 18.4401C25.5593 18.5359 27.9344 19.3326 29.6982 20.5702C29.9399 20.3203 30.2291 20.1211 30.5487 19.9843ZM16.5429 23.9787C16.3274 24.297 16.2109 24.6719 16.2079 25.0563C16.2085 25.5763 16.415 26.0749 16.7823 26.443C17.1496 26.811 17.6477 27.0186 18.1677 27.0203C18.5521 27.0182 18.9272 26.9025 19.246 26.6877C19.5648 26.4729 19.813 26.1686 19.9593 25.8132C20.1056 25.4577 20.1436 25.0669 20.0684 24.6899C19.9932 24.313 19.8082 23.9667 19.5367 23.6945C19.2651 23.4224 18.9192 23.2367 18.5424 23.1607C18.1656 23.0847 17.7747 23.1217 17.419 23.2673C17.0632 23.4128 16.7584 23.6603 16.5429 23.9787ZM18.1229 29.7427C19.9208 31.5661 24.9927 31.5661 26.7905 29.7427C26.8753 29.6543 26.9226 29.5366 26.9227 29.4142C26.9228 29.2917 26.8756 29.174 26.791 29.0855C26.7063 28.997 26.5908 28.9446 26.4685 28.9393C26.3461 28.9339 26.2265 28.976 26.1344 29.0567C24.7008 30.5095 20.1466 30.4839 18.7748 29.0567C18.7297 29.0139 18.6767 28.9804 18.6187 28.9581C18.5607 28.9358 18.4989 28.9252 18.4368 28.9267C18.3747 28.9283 18.3135 28.9421 18.2567 28.9674C18.1999 28.9926 18.1487 29.0287 18.1059 29.0738C18.0631 29.1188 18.0296 29.1718 18.0073 29.2298C17.985 29.2878 17.9743 29.3496 17.9759 29.4117C17.9775 29.4739 17.9913 29.535 18.0165 29.5918C18.0417 29.6486 18.0779 29.6999 18.1229 29.7427ZM25.6464 26.6999C25.9737 26.9159 26.3579 27.0297 26.75 27.0267V27.0246C27.008 27.0257 27.2636 26.9757 27.5021 26.8775C27.7407 26.7793 27.9574 26.6349 28.1398 26.4525C28.3222 26.2701 28.4667 26.0534 28.5649 25.8148C28.6631 25.5763 28.713 25.3207 28.7119 25.0627C28.7144 24.6706 28.6003 24.2865 28.3839 23.9595C28.1676 23.6324 27.8589 23.3771 27.497 23.2259C27.1352 23.0748 26.7365 23.0347 26.3518 23.1107C25.9671 23.1868 25.6138 23.3755 25.3366 23.653C25.0595 23.9304 24.8711 24.284 24.7955 24.6688C24.7199 25.0536 24.7604 25.4521 24.9119 25.8138C25.0635 26.1755 25.3191 26.484 25.6464 26.6999Z"
        fill="currentColor" />
</svg>