<svg width="20" height="21" viewBox="0 0 20 21" fill="none"
    xmlns="http://www.w3.org/2000/svg">
    <g>
        <path fill-rule="evenodd" clip-rule="evenodd" d="M8.03293 4.13636C8.32583 4.42925 8.32583 4.90412 8.03293 5.19702L5.1466 8.08335H10.8359H10.861C11.6935 8.08335 12.3533 8.08335 12.8888 8.11687C13.4357 8.15109 13.9029 8.22235 14.3425 8.3878C15.6227 8.86963 16.633 9.87997 17.1148 11.1602C17.2803 11.5998 17.3515 12.067 17.3858 12.6138C17.4193 13.1493 17.4193 13.8091 17.4193 14.6416V14.6667H15.9193C15.9193 13.8036 15.9189 13.1907 15.8887 12.7075C15.8588 12.2304 15.8019 11.9301 15.711 11.6885C15.3813 10.8126 14.69 10.1213 13.8141 9.79166C13.5725 9.70074 13.2723 9.6438 12.7951 9.61394C12.312 9.5837 11.699 9.58335 10.8359 9.58335H5.1466L8.03293 12.4697C8.32583 12.7626 8.32583 13.2375 8.03293 13.5304C7.74004 13.8232 7.26517 13.8232 6.97227 13.5304L2.80561 9.36368C2.51271 9.07079 2.51271 8.59592 2.80561 8.30302L6.97227 4.13636C7.26517 3.84346 7.74004 3.84346 8.03293 4.13636Z" fill="currentColor"/>
    </g>
</svg>
    