<svg width="24" height="24" viewBox="0 0 24 24" fill="none" xmlns="http://www.w3.org/2000/svg">
    <path fill-rule="evenodd" clip-rule="evenodd"
        d="M4.09375 11.3953C4.09375 7.57033 7.19448 4.4696 11.0194 4.4696C14.8444 4.4696 17.9451 7.57033 17.9451 11.3953C17.9451 15.2202 14.8444 18.321 11.0194 18.321C7.19448 18.321 4.09375 15.2202 4.09375 11.3953ZM11.0194 2.9696C6.36605 2.9696 2.59375 6.74191 2.59375 11.3953C2.59375 16.0487 6.36605 19.821 11.0194 19.821C13.0754 19.821 14.9593 19.0846 16.4219 17.8612L19.1215 20.5607C19.4144 20.8536 19.8893 20.8536 20.1821 20.5607C20.475 20.2679 20.475 19.793 20.1821 19.5001L17.4829 16.8008C18.7077 15.3378 19.4451 13.4526 19.4451 11.3953C19.4451 6.74191 15.6728 2.9696 11.0194 2.9696Z"
        fill="white" />
</svg>