<svg width="17" height="17" viewBox="0 0 17 17" fill="none" xmlns="http://www.w3.org/2000/svg">
    <g clip-path="url(#clip0_40_7355)">
        <path
            d="M16.3125 3.25379C15.7125 3.52046 15.1125 3.72046 14.4458 3.78713C15.1125 3.38713 15.6458 2.72046 15.9125 1.98713C15.2458 2.38713 14.5792 2.65379 13.8458 2.78713C13.2458 2.12046 12.3792 1.72046 11.4458 1.72046C9.64583 1.72046 8.17917 3.18713 8.17917 4.98713C8.17917 5.25379 8.17917 5.52046 8.24583 5.72046C5.44583 5.58713 3.04583 4.25379 1.44583 2.25379C1.1125 2.78713 0.979167 3.32046 0.979167 3.92046C0.979167 5.05379 1.57917 6.05379 2.44583 6.65379C1.9125 6.65379 1.37917 6.52046 0.979167 6.25379C0.979167 6.25379 0.979167 6.25379 0.979167 6.32046C0.979167 7.92046 2.1125 9.25379 3.57917 9.52046C3.3125 9.58713 3.04583 9.65379 2.7125 9.65379C2.5125 9.65379 2.3125 9.65379 2.1125 9.58713C2.5125 10.9205 3.7125 11.8538 5.17917 11.8538C4.04583 12.7205 2.64583 13.2538 1.1125 13.2538C0.845833 13.2538 0.579167 13.2538 0.3125 13.1871C1.77917 14.1205 3.5125 14.6538 5.3125 14.6538C11.3792 14.6538 14.6458 9.65379 14.6458 5.32046C14.6458 5.18713 14.6458 5.05379 14.6458 4.92046C15.3125 4.45379 15.8458 3.85379 16.3125 3.25379Z"
            fill="white" />
    </g>
    <defs>
        <clipPath id="clip0_40_7355">
            <rect width="16" height="16" fill="white" transform="translate(0.3125 0.186523)" />
        </clipPath>
    </defs>
</svg>