<svg width="45" height="45" viewBox="0 0 45 45" fill="none" xmlns="http://www.w3.org/2000/svg">
    <rect width="45" height="45" rx="12" fill="#ECEFF4" />
    <path
        d="M36 14.1761C34.9875 14.6261 33.975 14.9636 32.85 15.0761C33.975 14.4011 34.875 13.2761 35.325 12.0386C34.2 12.7136 33.075 13.1636 31.8375 13.3886C30.825 12.2636 29.3625 11.5886 27.7875 11.5886C24.75 11.5886 22.275 14.0636 22.275 17.1011C22.275 17.5511 22.275 18.0011 22.3875 18.3386C17.6625 18.1136 13.6125 15.8636 10.9125 12.4886C10.35 13.3886 10.125 14.2886 10.125 15.3011C10.125 17.2136 11.1375 18.9011 12.6 19.9136C11.7 19.9136 10.8 19.6886 10.125 19.2386C10.125 19.2386 10.125 19.2386 10.125 19.3511C10.125 22.0511 12.0375 24.3011 14.5125 24.7511C14.0625 24.8636 13.6125 24.9761 13.05 24.9761C12.7125 24.9761 12.375 24.9761 12.0375 24.8636C12.7125 27.1136 14.7375 28.6886 17.2125 28.6886C15.3 30.1511 12.9375 31.0511 10.35 31.0511C9.9 31.0511 9.45 31.0511 9 30.9386C11.475 32.5136 14.4 33.4136 17.4375 33.4136C27.675 33.4136 33.1875 24.9761 33.1875 17.6636C33.1875 17.4386 33.1875 17.2136 33.1875 16.9886C34.3125 16.2011 35.2125 15.1886 36 14.1761Z"
        fill="black" />
</svg>