<svg width="45" height="45" viewBox="0 0 45 45" fill="none" xmlns="http://www.w3.org/2000/svg">
    <g clip-path="url(#clip0_2234_33178)">
        <path
            d="M45 8.62671C43.3125 9.37671 41.625 9.93921 39.75 10.1267C41.625 9.00171 43.125 7.12671 43.875 5.06421C42 6.18921 40.125 6.93921 38.0625 7.31421C36.375 5.43921 33.9375 4.31421 31.3125 4.31421C26.25 4.31421 22.125 8.43921 22.125 13.5017C22.125 14.2517 22.125 15.0017 22.3125 15.5642C14.4375 15.1892 7.6875 11.4392 3.1875 5.81421C2.25 7.31421 1.875 8.81421 1.875 10.5017C1.875 13.6892 3.5625 16.5017 6 18.1892C4.5 18.1892 3 17.8142 1.875 17.0642C1.875 17.0642 1.875 17.0642 1.875 17.2517C1.875 21.7517 5.0625 25.5017 9.1875 26.2517C8.4375 26.4392 7.6875 26.6267 6.75 26.6267C6.1875 26.6267 5.625 26.6267 5.0625 26.4392C6.1875 30.1892 9.5625 32.8142 13.6875 32.8142C10.5 35.2517 6.5625 36.7517 2.25 36.7517C1.5 36.7517 0.75 36.7517 0 36.5642C4.125 39.1892 9 40.6892 14.0625 40.6892C31.125 40.6892 40.3125 26.6267 40.3125 14.4392C40.3125 14.0642 40.3125 13.6892 40.3125 13.3142C42.1875 12.0017 43.6875 10.3142 45 8.62671Z"
            fill="currentColor" />
    </g>
    <defs>
        <clipPath id="clip0_2234_33178">
            <rect width="45" height="45" fill="currentColor" />
        </clipPath>
    </defs>
</svg>