<?xml version="1.0"?>
<svg xmlns="http://www.w3.org/2000/svg" height="512px" viewBox="-66 0 512 512.001" width="512px"><g><path d="m191.167969.00390625-.800781-.00390625c-104.96875 0-190.367188 85.40625-190.367188 190.386719 0 57.554687 29.417969 102.445312 62.195312 147.148437l127.917969 174.464844s120.90625-164.148438 128.46875-174.460938c32.777344-44.703124 62.195313-89.59375 62.195313-147.148437 0-104.722656-84.980469-189.972656-189.609375-190.38671875zm103.226562 319.79687475c-7.570312 10.328125-87.003906 119.121094-103.898437 141.996094l-104.113282-141.996094c-30.851562-42.078125-56.386718-80.859375-56.386718-129.414062 0-88.191407 71.535156-159.988281 159.625-160.390625h.769531c88.441406 0 160.394531 71.953125 160.394531 160.394531 0 48.554687-25.539062 87.332031-56.390625 129.410156zm0 0" data-original="#000000" class="active-path" data-old_color="#000000" fill="#FFFFFF"/><path d="m190.390625 80.480469c-60.605469 0-109.90625 49.304687-109.90625 109.90625 0 60.605469 49.300781 109.910156 109.90625 109.910156 60.601563 0 109.90625-49.304687 109.90625-109.910156 0-60.601563-49.304687-109.90625-109.90625-109.90625zm0 189.820312c-44.066406 0-79.914063-35.847656-79.914063-79.914062 0-44.0625 35.847657-79.910157 79.914063-79.910157 44.0625 0 79.914063 35.847657 79.914063 79.910157 0 44.066406-35.851563 79.914062-79.914063 79.914062zm0 0" data-original="#000000" class="active-path" data-old_color="#000000" fill="#FFFFFF"/></g> </svg>
