<?xml version="1.0" encoding="UTF-8" standalone="no"?>
<svg
   xmlns:dc="http://purl.org/dc/elements/1.1/"
   xmlns:cc="http://creativecommons.org/ns#"
   xmlns:rdf="http://www.w3.org/1999/02/22-rdf-syntax-ns#"
   xmlns:svg="http://www.w3.org/2000/svg"
   xmlns="http://www.w3.org/2000/svg"
   xmlns:sodipodi="http://sodipodi.sourceforge.net/DTD/sodipodi-0.dtd"
   xmlns:inkscape="http://www.inkscape.org/namespaces/inkscape"
   viewBox="0 0 42.549996 26.65"
   version="1.1"
   id="svg660"
   sodipodi:docname="logo1.svg"
   inkscape:version="1.0 (4035a4f, 2020-05-01)"
   width="42.549999"
   height="26.65">
  <metadata
     id="metadata664">
    <rdf:RDF>
      <cc:Work
         rdf:about="">
        <dc:format>image/svg+xml</dc:format>
        <dc:type
           rdf:resource="http://purl.org/dc/dcmitype/StillImage" />
        <dc:title>Asset 13</dc:title>
      </cc:Work>
    </rdf:RDF>
  </metadata>
  <sodipodi:namedview
     inkscape:document-rotation="0"
     pagecolor="#ffffff"
     bordercolor="#666666"
     borderopacity="1"
     objecttolerance="10"
     gridtolerance="10"
     guidetolerance="10"
     inkscape:pageopacity="0"
     inkscape:pageshadow="2"
     inkscape:window-width="1920"
     inkscape:window-height="1025"
     id="namedview662"
     showgrid="false"
     inkscape:zoom="0.93081208"
     inkscape:cx="507.21079"
     inkscape:cy="-87.046106"
     inkscape:window-x="4480"
     inkscape:window-y="357"
     inkscape:window-maximized="1"
     inkscape:current-layer="svg660" />
  <defs
     id="defs400">
    <style
       id="style398">.cls-1{fill:#fff;}.cls-2{fill:#3b3c39;}.cls-3{fill:#c1c2bf;}</style>
  </defs>
  <title
     id="title402">Asset 13</title>
  <path
     d="M 2.06,3.2 15.75,14.28 2.06,23.66 Z m 30.76,14.24 -0.49,-0.34 -1.61,1.38 2,1.42 -1,-1.32 z M 0,0 V 26.65 H 43.44 V 0 Z m 28,14 0.88,-0.71 a 9.21,9.21 0 0 1 -1.14,-1.72 l -6,4.89 -17.8,-14.4 h 35.55 l -1.94,1.57 a 4.38,4.38 0 0 1 1,1.84 L 41.35,3.2 V 23.58 L 39.21,22 a 18.77,18.77 0 0 0 -2.35,0.85 l 2.37,1.71 H 4.37 l 13.05,-8.95 4.3,3.47 4.64,-3.76 m 6,1.75 -1.61,1.38 2,1.42 -1,-1.32 1.08,-1.14 z"
     id="path472" />
  <rect
     class="cls-2"
     x="41.580002"
     y="21.9"
     width="0.63999999"
     height="0.63999999"
     id="rect518" />
  <path
     id="path199"
     d="M 42.110268,0.90954117 C 23.841621,15.681759 23.841621,15.681759 23.841621,15.681759"
     style="fill:none;stroke:#000000;stroke-width:1.40045px;stroke-linecap:butt;stroke-linejoin:miter;stroke-opacity:1" />
  <path
     style="fill:none;stroke:#000000;stroke-width:1.35157px;stroke-linecap:butt;stroke-linejoin:miter;stroke-opacity:1"
     d="M 41.619056,2.1044743 C 23.845089,16.246662 23.845089,16.246662 23.845089,16.246662"
     id="path201" />
  <path
     id="path203"
     d="M 41.9852,24.622594 C 26.439848,13.224661 26.528801,13.124054 26.528801,13.124054"
     style="fill:none;stroke:#000000;stroke-width:1px;stroke-linecap:butt;stroke-linejoin:miter;stroke-opacity:1" />
  <path
     id="path205"
     d="M 38.04125,23.160087 25.812933,14.186664"
     style="fill:none;stroke:#000000;stroke-width:0.996945px;stroke-linecap:butt;stroke-linejoin:miter;stroke-opacity:1" />
  <path
     style="fill:none;stroke:#000000;stroke-width:0.996945px;stroke-linecap:butt;stroke-linejoin:miter;stroke-opacity:1"
     d="M 38.04125,23.160087 25.812933,14.186664"
     id="path207" />
  <path
     style="fill:none;stroke:#000000;stroke-width:0.971364px;stroke-linecap:butt;stroke-linejoin:miter;stroke-opacity:1"
     d="M 41.9852,24.622594 C 26.439848,13.868096 26.528801,13.773168 26.528801,13.773168"
     id="path209" />
</svg>
