<svg xmlns="http://www.w3.org/2000/svg" viewBox="0 0 304.76 254.82"><defs><style>.cls-1{opacity:0.1;}.cls-2{fill:#f9f9f9;}.cls-3{opacity:0.08;}</style></defs><title>Asset 12</title><g id="Layer_2" data-name="Layer 2"><g id="Layer_5" data-name="Layer 5"><g class="cls-1"><path d="M211.82,158.75c.13,2.29,1.09,6.14,3.74,6.74s5.17-1.69,4.57-4.21-.36-4,.12-4.33,3.13-4.21,5.05-11.67,4.57-18.64,5.89-22.74a106.26,106.26,0,0,1,4.45-10.46s.13,10.34,0,14.31,0,13,.06,14.44,1,3.13.67,3.85a6.27,6.27,0,0,0,.08,3.13c.16.72,1,1.8.64,2.52s-1.27,3.13.09,3.85,5,1.08,5.93,2,6.85,3.25,7.82.72-4.58-5.29-4.22-7.34,1.45-3.37,1-4.69,1.69-13.47,2.29-17.32,3-21.44,2.53-23.59a2.85,2.85,0,0,1-.11-1.35,1.18,1.18,0,0,1-.07-.2c-.31-1.21-3.43-7.95-1.63-7.58,1.34.27,2.49,4.07,3,6,.09-.14.18-.29.27-.46,1.21-2.28,1.92-20.21,1.21-26.46S253,57,252.73,55.3s-3.13-4.09-6.26-5.29a13.25,13.25,0,0,1-4.08-2.6c-1,3.89-1.3,11.89-1.3,11.89s-1.53-5.68-1.44-6a3.26,3.26,0,0,0-.09-2.43c-.55-.81-.55-1.44,0-1.63.39-.13,1.25-2.05,1.7-3.1h0a1.27,1.27,0,0,1-.32-.74c.12-.59,2.17-3.72,3-5.65a10.16,10.16,0,0,0,.48-5.65c-.24-1.93-1.32-7.7-8.43-7.7s-5.77,9.26-6,9.75-.72,3.24,1.75,6.25a2.79,2.79,0,0,1,0,3.09,58.89,58.89,0,0,1,4.81,4.22,7.59,7.59,0,0,1-.09,1.89c-.18.82.9,2.26.9,2.26v6s-1.35-3.52-2.8-7A17,17,0,0,0,230,47.12a3.8,3.8,0,0,1-.47.18c-2.34.73-11.55,1.62-11.36,4.87s-1.27,7.22-2,11.55-.18,16.42.9,19.85c.7,2.21,1.77,7.58,2.55,11.69a8.19,8.19,0,0,1,3-1.52c1.33-.12,3.67-.19,4,.72s.36,1.92-1.44,1.92a14.82,14.82,0,0,0-5,1.7h0c.18.93.3,1.67.37,2.08.36,2.16-.41,7,.18,7.12,3.13.84,4.88,7.14,4,8.77s-6.32,1.44-6,3.6-4,12.63-4,17.14a19.55,19.55,0,0,1-1.44,8.12c-.72,2.16-.18,3.49-.9,4.33s-.6,2.53-.6,4.09S211.69,156.47,211.82,158.75Z"/><path d="M85.14,65.53c-.93-1.72-2.92-8.87-4-13.48a33,33,0,0,1-.71-3.66c-.18-2.35-2-4.69-7.22-6a10.76,10.76,0,0,1-4.53-2.28,5.3,5.3,0,0,0-1.6,2.1c-.68,1.79-2.68,7.25-4.61,12.53h0L58.25,66.43S56.44,52.36,57,48.93c.14-.88.25-1.66.33-2.33.21-1.81.17-2.88-.32-3.35a8,8,0,0,1-2.39,2.58l-.33.21c-2.62,1.62-2.89,3.61-3.07,6.13s-1.8,38.26-1.8,39a17.81,17.81,0,0,0,.66,3.37c.36,1.45-1.39,5.48,1.32,6.37,9.19,3,9.19,4.57,9.19,4.57a11.76,11.76,0,0,0-1,2.19,6.64,6.64,0,0,0-.26,4.07h0c0,.14.09.29.14.47h0c.74,3.05.6,10.22,1.46,11.24a26.06,26.06,0,0,1,2.16,3.61,140.73,140.73,0,0,1,1.27,15.2,6.1,6.1,0,0,1-.19,1.94,5.93,5.93,0,0,1-1.75,1.6,10.1,10.1,0,0,0-2.4,2.19c-1.08,1.62-5.59,3.07-5.95,4.51s.18,3.61,6.86,1.27l3.49-1.23,3.18-1.12s-1.8,5.41,0,6.14,3.25,1.8,4,1.8,5.24-3.61,3.79-6.14a21.79,21.79,0,0,1-2.17-7.4c0-.42.32-1.34.47-3.38a41.6,41.6,0,0,0-.1-6.18c-.55-6.68-1.81-15.52-3.25-17s-.72-4.87-.36-5.59.9-5.08.18-6.42.72-5.49.9-8,.18-11.91,2-11.91,1.83-.54,2.63-1.08a16.33,16.33,0,0,0,2-3.19,53,53,0,0,1,3.81-6.19C83.33,74.73,86.4,67.87,85.14,65.53ZM78.28,69a32.84,32.84,0,0,1-2.35,3.61,3.37,3.37,0,0,1-.67-1.6c-.18-1.07,0-2.61,1.65-4.46a13.52,13.52,0,0,1,1.37-1.34S79,67.51,78.28,69Zm-11-44c-.72-3.79-8.66-4.33-10.64-2.89S53,26.38,54,27.45A2.76,2.76,0,0,1,54.65,29a6.46,6.46,0,0,1-.19,2.2,2.42,2.42,0,0,0,0,1.07h0a3.72,3.72,0,0,0,.71,1.54c.63.81.9,2.25,1.36,3a8.88,8.88,0,0,1,1.26,3.6,3.93,3.93,0,0,1,0,.67c1.28,1,2.87,2.49,3.19,3.85.45,2-.91-1.63,5.78-7a7.31,7.31,0,0,1-.55-1S68,28.72,67.27,24.93Z"/><circle cx="55.74" cy="30.74" r="2.03"/><path d="M152,100.66c.53,6.52,1.53,9.34,4,9.69,3.37.48,3.14-3.85,2.89-6.25a22.72,22.72,0,0,1,0-2.81A15.12,15.12,0,0,0,152,100.66Z"/><path d="M184.5,120.38c-2-3.85-3.43-2.56-3.43-2.56s-.09.43-.25,1.15a33.61,33.61,0,0,0,4.35,3.17A8.1,8.1,0,0,0,184.5,120.38ZM197.26,45c-2.69-.76-5.89-1.71-7.66-2.36a5.25,5.25,0,0,1-1.72-1.07c-.29,3.36-.67,6.31-1.09,8.87C185.42,58.9,183.68,63,183.68,63c.14-2.75-1.08-8.5-1.44-11.82a5.3,5.3,0,0,1,0-2.38,2.61,2.61,0,0,0-.6-3.13c-.6-.48-1.45-1.56.6-2.4,1.33-.55,2.65-2.86,3.42-4.42-1.09-2-1.61-4-1.15-4.66,3.07-4.51,1.26-6,1.26-6V23.91c0-2.89-4.51-10.12-9.56-9.75s-8.12,4.87-7.76,13,4.87,10,5.11,11.91a1.18,1.18,0,0,1-.14.69c.77.78,3.41,3.51,4.13,4.12s2.51,1.21,1.44,2.05-1.69,1.44-1,2.28,1.67,1.93,1,2.53a2.35,2.35,0,0,0-.59,1,22,22,0,0,0-.85,3.95,56.44,56.44,0,0,0-.36,6.5s-1.15-1.41-3.17-9.67c-.68-2.77-1.45-6.32-2.32-10.85a68.69,68.69,0,0,1-6.8,4.4c-3.13,1.92-5.77,2.64-5.77,4.32S157.73,55.9,158,63.12s-4.71,16.33-5.91,29.56a58.33,58.33,0,0,0-.27,6.69,7.74,7.74,0,0,1,5-.53,9.23,9.23,0,0,1,2.29,1c.27-3.86.9-8.77,1.82-11.23,1.44-3.85,4.57-15.63,4.57-15.63a3.36,3.36,0,0,1,1.2,3.6c-.71,2.17-2.88,10.83-4.08,12.27s0,11.79,0,13,11.86,2.54,13.29,7.83c.51,1.88-.05,9.18-1,17.87-1.67,15.78-4.54,36.16-4.39,37.09.25,1.44,2.41.72,2.17,2.65-.12,1-2.06,1.83-4,2.86a14,14,0,0,0-2.51,1.61,3.08,3.08,0,0,0-1.23,2c-.24,3.13,3.61,2.41,5.53,2.17s3.85,0,7.43-.25,2.92-5.29,3.64-6c.35-.34.36-.84.28-1.56a26.76,26.76,0,0,1-.28-3.26c0-2.64,0-6.24-1.2-8.17s-2.65-17.32-2.41-21.66c.07-1.2.34-3.07.7-5.14.69-4,1.72-8.79,2.19-10.94-1.4-1.26-2.32-2.54-2.42-3.88-.48-6.25,7.85-28.45,7.85-28.45s-1.28-3.77-2.2-6.86a8.28,8.28,0,0,1-1.47.37A6.32,6.32,0,0,0,183.81,79a17,17,0,0,1-.69-3,1.51,1.51,0,0,1,.31-.73c-2.71-2.37-.8-3.56.1-3.45a4.3,4.3,0,0,1,1.56,1.48c2-2.12,4.71-4.77,4.36-5.94-.54-1.8-2.34-6.85-2.34-8.48s2-5.88,3-7.23a31,31,0,0,1,3-3.33,11.64,11.64,0,0,1,4.14-2.69,5.35,5.35,0,0,1,1.24-.25ZM183.12,94.16c-1.8.47-4.21.11-4.09-1s1.93-14.32,2.41-13S183.12,94.16,183.12,94.16Zm15.35-48.8,3.38.91A5,5,0,0,0,198.47,45.36Zm2.11,131c-.29,1.91-.6,3.74-.9,5.4,2.31.58,4.29.68,4.72-.72C205,179.16,202.69,177.65,200.58,176.33Zm-2.1-6c.32-2.48.76-4.94,1.2-7.07-.05-.84-.09-1.7-.09-2.51,0-4.09-2.17-20.45-2.16-27.43,0-4.22-6.79-7.73-12.26-11.23,1,3.75.12,8.61.94,11.71.93,3.48,1.19,30.84,1.63,34.14a1.41,1.41,0,0,0,.06.27c.48,1.44-.24,3.12-.49,6s1.69,4.57,4.58,5c1.29.22,3.72,1.2,6.11,1.94v-4.37c0-.74,0-1.5.08-2.28a2.13,2.13,0,0,1-.65-.82C196.82,172.16,197.41,170.88,198.48,170.38Zm-13.39-97.1a15.48,15.48,0,0,0-1.66,2s0,0,0,0a2.43,2.43,0,0,1,.34,3.68l.24.81C187.81,78.42,186.52,75.19,185.09,73.28Z"/><path d="M111.69,47.73c-.53-.43.22-2.56.82-4.3-.35.53-.63.87-.63.87a12.4,12.4,0,0,0-.54,4,1.11,1.11,0,0,0,.29.57c-.74.57,0,1.08.7,1.64l.22-.33C112.26,49.06,112.27,48.2,111.69,47.73ZM112,58.58c.18-.72,1.09-2.35.36-3.07s-.9-.91.73-3.43c.4-.62-.18-1.13-.79-1.6l-.64,1c1.14.85-1.68,2.16-1.83,3.15-.18,1.27-.89,2-.36,3.08s.36,16.77-.18,20.21-.9,6.31-.9,6.31A36.07,36.07,0,0,1,111,87.27S114,85.46,114,82.4C114,82.4,111.85,59.3,112,58.58Zm2-32.2A9.39,9.39,0,0,0,106.6,26a7.55,7.55,0,0,0-4.47,4.5,7.92,7.92,0,0,0,.36,6.14,2.12,2.12,0,0,0,.15.28h0a.22.22,0,0,0,0,.07s1.54-2.33,2.82-4.11h0c1-1.33,1.77-2.35,1.69-1.89-.18,1.08,5.29,9.68,5.83,10,.22.15-.11,1.16-.52,2.37a7.44,7.44,0,0,0,1.18-2.91c.18-1.81,4.32-3.67,4.32-3.67S119.63,28.9,114,26.38ZM147.34,88c1.37-4.7,2.2-9,1.88-10-.39-1.29-4.21-7-6.74-11.18a32.37,32.37,0,0,1-2.1-3.79c-1.08-2.71-3.43-8.48-4.51-9s-7.4-1.45-9.56-1.63c-1.24-.1-1-.38-3.25-1.51.7,4.1-1.47,10.39-1.83,16.21-.54,8.84-.18,21.65,1.09,24.36s7.57,9.74,7.57,9.74-12.53.6-16,.15a3.23,3.23,0,0,1-.73-.15,6.69,6.69,0,0,0-3.62-.08c-.83.14-1.73.31-2.7.4a27.84,27.84,0,0,1-6.86-.86s5.41-14.26,5.77-28.69c.23-9.22-2.82-14.5-2.9-17.83-2.14,1.38-5.8,2.19-6.1,3.85-.36,2,.91,13.17,0,17.51-.61,2.93-1.13,5.37-1.3,7.2a7.68,7.68,0,0,0,0,2.18c0,.25.1.56.14.92a39.57,39.57,0,0,1,0,7.77c-.06.46-.13.87-.21,1.24-.63,2.7-.27,8.11,1.35,9l8.72,52.06c1.48,8.81,2.61,15.56,2.83,16.87a10.33,10.33,0,0,0,.41,1.66c.94,2.84,2.66,3.42,2.66,4.65a8.85,8.85,0,0,1-1.63,5.24c-.89,1.15-4,1.66-6.18,2.31a6.14,6.14,0,0,0-2.12.93c-1.33,1.17-.51,3.72,2,3.68a3.68,3.68,0,0,0,.64-.07,82,82,0,0,0,9-2.15,3.87,3.87,0,0,0,1.16-.55c.73-.73,1.09,2,0,3.6s-.89,3.44,1.45,3.61,8.66-2.16,8.66-4.33.36-3.79.9-4.33-1.26-2.34,0-3.43,2-1.44,2-4.15c0-.61,0-2.62,0-5.38-.09-9.46-.24-27.7,0-28.54.36-1.08.9-10.28.9-15.34s.36-13.53,1.08-15.7,3.43-5.23,4.51-4.51a8.51,8.51,0,0,0,3.13.73,15.91,15.91,0,0,0,3.91,0,4.85,4.85,0,0,0,1.27-.34,48.12,48.12,0,0,0,4.33-2.34A8.6,8.6,0,0,1,144,97.29,71.11,71.11,0,0,0,147.34,88ZM97.88,99.21c-2.35,1-.19-2.64,2-3.9C99.86,95.31,100.22,98.24,97.88,99.21Zm41.32,5.2A5.08,5.08,0,0,0,137,102c-1.13-.69-2.35-1.13-2.94-1.59a1,1,0,0,1-.1-1.62,9.48,9.48,0,0,1,2.71,1.29c.54.33,1.17.73,1.9,1.23a5.81,5.81,0,0,1,.86.71c1.52,1.51,1.21,3.07.61,3.19C139.78,105.29,139.45,105.06,139.2,104.41Zm.52-17.77c-2-2-3.43-8.3-2.17-8.48s4.16,1.81,4.51,2.89S139.72,86.64,139.72,86.64Z"/><path class="cls-2" d="M113.93,131.93s2.34,8.84,2.34,15v9.74S112.12,139.33,113.93,131.93Z"/></g><ellipse class="cls-3" cx="41.69" cy="189.87" rx="41.69" ry="21.28"/><ellipse class="cls-3" cx="103.99" cy="220.53" rx="41.69" ry="15.57"/><ellipse class="cls-3" cx="263.06" cy="186.2" rx="41.69" ry="15.57"/><ellipse class="cls-3" cx="194.23" cy="233.54" rx="41.69" ry="21.28"/><path d="M70.7,192.67c-.16,3-1.45,8.17-5,9s-6.89-2.25-6.09-5.61.49-5.29-.15-5.77-4.18-5.6-6.74-15.54-6.09-24.84-7.85-30.3A140.72,140.72,0,0,0,39,130.48s-.16,13.78,0,19.07,0,17.31-.08,19.23S37.52,173,38,173.91s.11,3.21-.11,4.17-1.34,2.41-.85,3.36,1.68,4.17-.12,5.13S30.3,188,29,189.3s-9.14,4.33-10.42,1,6.1-7,5.62-9.77-1.93-4.49-1.29-6.25-2.24-18-3.05-23.08-4-28.56-3.36-31.43a4,4,0,0,0,.15-1.8,1.42,1.42,0,0,0,.09-.27c.41-1.61,4.57-10.58,2.17-10.09-1.79.36-3.31,5.42-4,8-.12-.19-.24-.39-.36-.62C13,111.89,12,88,13,79.68s2.89-22.6,3.21-24.84,4.17-5.46,8.33-7.06A17.18,17.18,0,0,0,30,44.32c1.34,5.18,1.73,15.84,1.73,15.84s2.05-7.56,1.93-7.93-.6-2.16.12-3.24.72-1.92,0-2.17c-.52-.17-1.67-2.74-2.28-4.14,0,0,0,0,0,0a1.7,1.7,0,0,0,.44-1c-.16-.79-2.89-5-4-7.53s-1-5-.64-7.53S29,16.37,38.48,16.37s7.7,12.35,8,13,1,4.32-2.32,8.33a3.71,3.71,0,0,0-.05,4.11,79.25,79.25,0,0,0-6.41,5.63A10.12,10.12,0,0,0,37.83,50c.25,1.08-1.19,3-1.19,3v8s1.8-4.69,3.72-9.38c1.39-3.38,4.47-6.32,6.07-7.69a5.87,5.87,0,0,0,.63.24c3.12,1,15.38,2.16,15.13,6.49s1.69,9.62,2.65,15.38.24,21.88-1.2,26.45c-.93,3-2.36,10.1-3.4,15.58a10.82,10.82,0,0,0-4-2c-1.77-.16-4.89-.24-5.29,1s-.48,2.57,1.92,2.57c1.64,0,4.74,1.27,6.66,2.26h0c-.23,1.25-.39,2.23-.49,2.78-.47,2.88.48,9.1-.24,9.48s-.72,6.14.48,8.31,2.64,5.29,2.17,8.17,5.29,16.83,5.29,22.84a26.12,26.12,0,0,0,1.92,10.82c1,2.88.24,4.64,1.2,5.77s.8,3.36.8,5.44S70.87,189.62,70.7,192.67Z"/><path d="M286.21,107.08a23.51,23.51,0,0,0,.88-4.48c0-1-2.16-48.56-2.4-51.93s-.6-6-4.09-8.17A10.8,10.8,0,0,1,277,38.78c-.89.85-.67,3.24,0,7.56.72,4.58-1.69,23.32-1.69,23.32s-9.85-27.16-11.78-32.21a7,7,0,0,0-2.13-2.8,14.33,14.33,0,0,1-6,3c-7,1.69-9.38,4.81-9.61,7.93a32.62,32.62,0,0,1-.69,3.73c-1.34,6-4.26,16.68-5.57,19.11-1.69,3.12,2.41,12.26,4.81,15.15s6.73,11.78,7.8,12.5c.88.59,1.05,1.2,2.48,1.38a7.36,7.36,0,0,0,1,.06c2.4,0,2.4,12.5,2.64,15.87s2.16,8.89,1.21,10.68-.24,7.59.24,8.55,1.44,5.53-.48,7.45-3.61,13.7-4.34,22.6a54.49,54.49,0,0,0-.12,8.23h0c.19,2.71.61,3.93.61,4.5a28.81,28.81,0,0,1-2.89,9.85c-1.92,3.37,4.09,8.18,5,8.18s2.88-1.44,5.29-2.4,0-8.18,0-8.18L271.7,186c8.9,3.12,9.62.24,9.14-1.69s-6.49-3.84-7.93-6-4.81-3.61-5.53-5.06a8.4,8.4,0,0,1-.25-2.57h0a185.86,185.86,0,0,1,1.69-20.26,35.77,35.77,0,0,1,2.88-4.8c1.21-1.44,1.93-9.38,3.13-13s6-15.87,6-15.87l3.61-1.2C288.06,114.38,285.73,109,286.21,107.08ZM251.75,77.84A42.25,42.25,0,0,1,248.63,73c-1-1.92,0-5,0-5C255.36,73.75,251.75,77.84,251.75,77.84ZM281,17.73c1.32-1.43-.83-5.28-3.48-7.2s-13.22-1.21-14.18,3.85,1.44,16.1,1.44,16.1a8.5,8.5,0,0,1-.74,1.29c8.92,7.12,7.11,12,7.71,9.29.42-1.81,2.54-3.79,4.25-5.13a4.59,4.59,0,0,1,0-.89,12,12,0,0,1,1.68-4.8c.61-1,1-2.89,1.81-4a5,5,0,0,0,1-2.05h0a3.1,3.1,0,0,0,0-1.42,9,9,0,0,1-.25-2.94A3.71,3.71,0,0,1,281,17.73Z"/><circle cx="278.65" cy="22.12" r="2.7"/><path d="M150.34,115.27c-.71,8.68-2,12.44-5.32,12.9-4.48.65-4.17-5.13-3.84-8.32a31.42,31.42,0,0,0,0-3.75C144.82,114.63,149.52,115.15,150.34,115.27Z"/><path d="M150.35,104.64a102.52,102.52,0,0,0-3-16.61c-2.17-8.46-4.64-15.33-4.86-21.23,0-.53,0-1,0-1.55.31-9.62-1.61-14.74-1.61-17s-3.52-3.2-7.69-5.76a92.06,92.06,0,0,1-9.06-5.86C119.53,60.63,116.8,64,116.8,64a74.9,74.9,0,0,0-.48-8.65c-.48-3-1-5.78-1.92-6.58s.32-2.24,1.28-3.36.16-1.93-1.28-3.05.8-1.77,1.92-2.72c1-.82,4.48-4.45,5.49-5.49a1.65,1.65,0,0,1-.18-.92c.32-2.57,6.33-5.05,6.81-15.87S124.83.5,118.11,0s-12.75,9.14-12.75,13v5.76s-2.22,1.78,1.24,7.26c.13.22.28.45.44.68.61.88-.07,3.61-1.53,6.2h0c1,2.08,2.79,5.16,4.56,5.88,2.73,1.13,1.6,2.57.8,3.21a3.46,3.46,0,0,0-.8,4.17c1,1.6-2.12,13.94-1.86,18.91,0,0-3.89-9.13-5.56-28.13h0l0-.38-.12.1A7,7,0,0,1,100.32,38C95.74,39.68,84,42.81,84,42.81s-1.69,6-2.41,8.17c-.12.36-.26.72-.41,1.07-.75,1.75-1.75,3.38-1.75,5.18s-1.5,6.26-2.49,9.28c-.26.81-.49,1.51-.64,2a19.13,19.13,0,0,1-1,2.44c-1.1,2.33-2.59,5.08-2.59,6.46,0,.69,2.21,3,5,5.66,5.08,4.75,12.16,10.69,12.16,10.69s.63,23.08,0,31.41,0,24.36,0,33.66S87,189.94,87,195.39c0,4-.68,8.6-.31,11,.15.88.43,1.45,1,1.53,1.92.32,3.19,2.24,2.23,4.8s-10.56,5.46-9.28,9.62,12.82-1.6,16.67-2.25,6.41-2.88,6.09-6.72-1.28-6.1-.64-8a1.5,1.5,0,0,0,.07-.36c.21-1.55.39-7.07.59-13.78,0-1.49.09-3,.14-4.61.33-11.49.74-24.45,1.44-27.09a16.65,16.65,0,0,0,.47-3.64c.22-4.61-.4-10.33,1.67-14.31,2.67-5.13,4-8.34,4-8.34s4.49,22.12,4.81,27.88c.29,5.31-1.3,23-2.81,27.89a4.3,4.3,0,0,1-.4,1c-1.6,2.57-1.6,7.37-1.6,10.89a34.8,34.8,0,0,1-.37,4.33c-.11,1-.09,1.63.37,2.08,1,1,.07,7.69,4.85,8s7.33,0,9.9.32,7.69,1.29,7.37-2.89c-.16-2-2.54-3.54-5-4.83h0l0,0h0c-2.52-1.36-5.08-2.5-5.24-3.8-.32-2.56,2.56-1.6,2.89-3.53s5.48-67,7.38-74,3.19-8,3.19-9.61c0-.64.26-3.22.46-6.21A63.92,63.92,0,0,0,137,102a8.76,8.76,0,0,0-.33-1.92,2,2,0,0,0-.3-.57c-1.6-1.91-4.49-13.45-5.44-16.34a4.49,4.49,0,0,1,1.59-4.8s4.18,15.7,6.1,20.83a23.57,23.57,0,0,1,.81,2.82c.22,1,.42,2.06.61,3.19.28,1.72.51,3.57.7,5.38.12,1.22.22,2.43.3,3.57,2.19-1.23,4.69-2.59,9.67-.64A80.73,80.73,0,0,0,150.35,104.64ZM94.27,82.4a1.92,1.92,0,0,1,1.14.26c.8.46,1.37,1.51.18,3.1a8.43,8.43,0,0,1-1.23,1.29c-3.68,3.2,1.21,6.48,1.21,6.48C85.23,91.7,93.08,82.56,94.27,82.4ZM109,106.6s.23-2.42.55-5.52C110,96,110.79,89,111.19,88c.47-1.26,1.87,7.81,2.66,13.35.3,2,.5,3.62.55,4C114.56,106.76,111.35,107.24,109,106.6Z"/><path d="M218.06,33.37c-.24-1.45-1.92-1.45-1.92-1.45s2.4-5,.71-10.09S208.44,12.94,201,16.3s-5.29,14-5.29,14a5.45,5.45,0,0,0-1.44,4.08c.23,2.41,2.41,5.05,2.41,5.05a16.61,16.61,0,0,1,.71,5.29.86.86,0,0,1-.12.35,1.76,1.76,0,0,1-.27.4l.24.19a22.89,22.89,0,0,1,5,4.94c2.17,3.36,1.93,3.61,1,4.56s.24,3.13.48,4.09S201,90.94,201,90.94c0,4.08,4.08,6.48,4.08,6.48a49.67,49.67,0,0,1,3.37-4.08s-.49-3.85-1.21-8.41S206.31,59.44,207,58s-.24-2.41-.48-4.09c-.19-1.33,3.36-4.15,4.87-5.28a7.11,7.11,0,0,1,1.83-3.48c1.2-1,.72-4.33,1.44-4.81S218.3,34.81,218.06,33.37Zm7.81,74.05a44.31,44.31,0,0,1-.39-11,20.7,20.7,0,0,1,.27-2.18q0-.15.06-.33c.34-2.45-.59-6.65-1.74-12.17-1.21-5.77.48-20.67,0-23.32-.22-1.22-3-2.5-6-3.71A47.67,47.67,0,0,1,212,51.92c-.11,4.43-.19,12.79.12,25.07.48,19.23,7.69,38.22,7.69,38.22s-5.77,1.44-9.14,1.15-6-1.39-8.42-.42-22.35,0-22.35,0,8.41-9.38,10.1-13,2.16-20.67,1.44-32.45c-.47-7.6.77-16.71,1.69-22.2l.06-.33a41.18,41.18,0,0,1-6.36,2.49,11.83,11.83,0,0,1-2.15.46c-.6,0-1.43.14-2.4.26-1.15.14-2.48.33-3.8.53-1.58.24-3.15.51-4.38.78a10.84,10.84,0,0,0-2.16.6c-1.44.71-4.57,8.41-6,12s-11.06,17.55-11.78,20c-.44,1.47.73,7.38,2.63,13.79q.28,1,.6,2c.53,1.68,1.1,3.37,1.7,5v0c.66,1.76,1.34,3.43,2,5A11.45,11.45,0,0,1,158,125a61.21,61.21,0,0,0,5.77,3.12c2.65,1.21,9.62.49,11.06-.48l.08,0c.88-.45,2.44.73,3.77,2.35a12.46,12.46,0,0,1,2.16,3.7c1,2.89,1.45,14.19,1.45,20.92s.72,19,1.2,20.44c.37,1.12.17,25.42.05,38,0,3.67-.05,6.35-.05,7.17,0,3.6,1,4.08,2.64,5.53s-.71,3.84,0,4.57,1.21,2.88,1.21,5.77,8.41,6,11.54,5.77,3.36-2.65,1.92-4.81-1-5.77,0-4.81,9.62,2.88,13.58,3.6,5.41-3.12,3.49-4.8-9.38-2.16-11.06-4.33a11.8,11.8,0,0,1-2.16-7c0-1.64,2.28-2.41,3.54-6.19h0a13.76,13.76,0,0,0,.54-2.21c.46-2.78,4.06-24.22,7.65-45.68l7.74-46.16C226.23,118.23,226.71,111,225.87,107.42Zm-24.74,49.51c1.16,4.75.47,12.57-.55,19.4-.29,1.91-.6,3.74-.9,5.4-.87,4.75-1.68,8.14-1.68,8.14v-13c0-.74,0-1.5.08-2.28.07-1.38.22-2.81.4-4.23.32-2.48.76-4.94,1.2-7.07C200.42,159.61,201.13,156.93,201.13,156.93ZM169.66,85.29c1.68.24-.24,8.66-2.89,11.3,0,0-3.61-6-3.12-7.45S168,85.05,169.66,85.29ZM174.31,115c-1.43,1.11-5.65,2.16-6.84,5.29s-3.73-1,.83-4.08,6.14-3.37,6.14-3.37A1.28,1.28,0,0,1,174.31,115Zm48.2-1.64c-3.12-1.29-2.64-5.2-2.64-5.2C222.76,109.82,225.64,114.63,222.51,113.33Z"/></g></g></svg>